<svg width="41" height="56" viewBox="0 0 41 56" fill="none" xmlns="http://www.w3.org/2000/svg">
<path d="M40.3602 5.16112V5.16129V50.8387V50.8389C40.3611 53.4184 38.2928 55.5009 35.7529 55.5H35.7527H5.10753H5.10735C2.56745 55.5009 0.499098 53.4184 0.5 50.8389V50.8387L0.5 5.16129L0.5 5.16112C0.499098 2.58164 2.56745 0.499093 5.10735 0.5H5.10753H35.7527L35.7529 0.5C38.2928 0.499093 40.3611 2.58164 40.3602 5.16112Z" fill="#8FC045" stroke="#8FC045"/>
<path d="M25.3318 6.86775H15.1167C14.693 6.86775 14.3398 6.51844 14.3398 6.07743C14.3398 5.63605 14.6929 5.28711 15.1167 5.28711H25.3318C25.756 5.28711 26.1087 5.63592 26.1087 6.07743C26.1087 6.51856 25.7559 6.86775 25.3318 6.86775Z" fill="white" stroke="#8FC045"/>
<path d="M13.9909 28.3455V27.8455H13.4909H11.7383V25.7773H16.8069V37.4234H13.9909V28.3455Z" fill="white" stroke="white"/>
<path d="M27.6878 30.8668L27.1705 31.2965L27.731 31.6681C28.6371 32.2689 29.0921 33.1037 29.0921 34.1228C29.0921 35.1644 28.627 36.031 27.789 36.652C26.9396 37.2815 25.6876 37.6694 24.1319 37.6694C22.5763 37.6694 21.3243 37.2815 20.4749 36.652C19.637 36.031 19.1719 35.1644 19.1719 34.1228C19.1719 33.1037 19.6268 32.2689 20.5329 31.6681L21.0933 31.2966L20.5761 30.8668C19.9354 30.3345 19.6051 29.6333 19.6051 28.7997C19.6051 27.8395 20.0287 27.0428 20.7908 26.4718C21.564 25.8924 22.7069 25.5332 24.1319 25.5332C25.5569 25.5332 26.6999 25.8924 27.4731 26.4718C28.2352 27.0428 28.6589 27.8395 28.6589 28.7997C28.6589 29.6332 28.3286 30.3345 27.6878 30.8668ZM22.005 34.0175V34.0176C22.005 34.5654 22.2192 35.0445 22.6258 35.3766C23.0209 35.6993 23.551 35.8464 24.1318 35.8464C24.7127 35.8464 25.2429 35.6993 25.6379 35.3766C26.0445 35.0444 26.2587 34.5653 26.2587 34.0176C26.2587 33.4698 26.0445 32.9907 25.6379 32.6586C25.2428 32.336 24.7127 32.1888 24.1318 32.1888C23.551 32.1888 23.0209 32.336 22.6259 32.6587C22.2193 32.9908 22.0051 33.4698 22.005 34.0175ZM22.3862 28.9574C22.3862 29.4179 22.5488 29.8354 22.8884 30.1309C23.2189 30.4184 23.6601 30.541 24.1318 30.541C24.6074 30.541 25.052 30.4192 25.3855 30.1331C25.729 29.8384 25.8948 29.4202 25.8948 28.9574C25.8948 28.4914 25.7243 28.0718 25.384 27.7752C25.0517 27.4855 24.6079 27.3562 24.1318 27.3562C23.6582 27.3562 23.2158 27.4815 22.8854 27.7736C22.5469 28.0729 22.3862 28.4941 22.3862 28.9574Z" fill="white" stroke="white"/>
</svg>
