<svg width="55" height="32.66" viewBox="0 0 33 20" fill="none" xmlns="http://www.w3.org/2000/svg">
<path d="M11.1509 0.764648V6.87832C11.1509 7.50969 10.647 8.02106 10.0247 8.02106H0.958984L4.04078 1.71712C4.32627 1.13375 4.91244 0.764648 5.55437 0.764648H11.1509Z" fill="white"/>
<path d="M32.4995 13.7783V15.0644C32.4995 15.2233 32.3626 15.3763 32.1645 15.3763H0.83496C0.636889 15.3763 0.5 15.2233 0.5 15.0644V13.7783H32.4995Z" fill="white" stroke="#8FC045"/>
<path d="M1.7321 7.0529L1.38615 7.77013H2.18245H9.79783C10.2407 7.77013 10.5762 7.40475 10.5762 6.9839V1.71735V1.21735H10.0762H5.37867C4.86134 1.21735 4.40297 1.51577 4.18021 1.97753L4.1802 1.97755L1.7321 7.0529ZM5.37867 0.5H30.5512C31.6146 0.5 32.5004 1.39058 32.5004 2.51878V13.0671H0.500977V8.12881C0.500977 8.07093 0.513881 8.01463 0.538307 7.9639L3.58464 1.64837C3.58464 1.64837 3.58465 1.64836 3.58465 1.64836C3.92949 0.933541 4.61756 0.5 5.37867 0.5Z" fill="#8FC045" stroke="#8FC045"/>
<path d="M7.32197 18.8196C8.81471 18.8196 10.0248 17.5917 10.0248 16.0771C10.0248 14.5624 8.81471 13.3345 7.32197 13.3345C5.82924 13.3345 4.61914 14.5624 4.61914 16.0771C4.61914 17.5917 5.82924 18.8196 7.32197 18.8196Z" fill="white"/>
<path d="M7.32091 19.6768C5.36484 19.6768 3.77344 18.062 3.77344 16.0772C3.77344 14.0923 5.36484 12.4775 7.32091 12.4775C9.27697 12.4775 10.8684 14.0923 10.8684 16.0772C10.8684 18.062 9.27697 19.6768 7.32091 19.6768ZM7.32091 14.1917C6.29631 14.1917 5.46271 15.0375 5.46271 16.0772C5.46271 17.1168 6.29631 17.9627 7.32091 17.9627C8.34551 17.9627 9.17911 17.1168 9.17911 16.0772C9.17911 15.0375 8.34551 14.1917 7.32091 14.1917Z" fill="#8FC045"/>
<path d="M26.1286 18.8196C27.6213 18.8196 28.8314 17.5917 28.8314 16.0771C28.8314 14.5624 27.6213 13.3345 26.1286 13.3345C24.6359 13.3345 23.4258 14.5624 23.4258 16.0771C23.4258 17.5917 24.6359 18.8196 26.1286 18.8196Z" fill="white"/>
<path d="M26.1285 19.6768C24.1725 19.6768 22.5811 18.062 22.5811 16.0772C22.5811 14.0923 24.1725 12.4775 26.1285 12.4775C28.0846 12.4775 29.676 14.0923 29.676 16.0772C29.676 18.062 28.0846 19.6768 26.1285 19.6768ZM26.1285 14.1917C25.1039 14.1917 24.2703 15.0375 24.2703 16.0772C24.2703 17.1168 25.1039 17.9627 26.1285 17.9627C27.1531 17.9627 27.9867 17.1168 27.9867 16.0772C27.9867 15.0375 27.1531 14.1917 26.1285 14.1917Z" fill="#8FC045"/>
<path d="M18.8152 0.5V9.5419C18.8152 9.74576 18.6539 9.89896 18.4706 9.89896C18.2874 9.89896 18.126 9.74576 18.126 9.5419V0.5H18.8152Z" stroke="white"/>
<path d="M19.3153 0V9.5419C19.3153 10.015 18.9369 10.399 18.4707 10.399V0H19.3153Z" fill="white"/>
<path d="M24.8617 10.0775L25.284 7.93488L23.5947 7.29209L26.551 4.07812L26.1286 6.22077L27.8179 6.86356L24.8617 10.0775Z" fill="white" stroke="white" stroke-linecap="round" stroke-linejoin="round"/>
</svg>
