<svg width="55" height="47" viewBox="0 0 55 47" fill="none" xmlns="http://www.w3.org/2000/svg">
<path d="M49.9368 39.3822H5.06322C2.57474 39.3822 0.5 37.3494 0.5 34.7657V5.11652C0.5 2.58901 2.51918 0.5 5.06322 0.5H49.9368C52.4253 0.5 54.5 2.53287 54.5 5.11652V34.7658C54.5 37.2932 52.4808 39.3822 49.9368 39.3822Z" fill="#8FC045" stroke="#8FC045"/>
<path d="M17.1428 22.1736C15.0447 22.1736 13.3281 20.4464 13.3281 18.3134C13.3281 16.1803 15.0447 14.4531 17.1428 14.4531C19.2409 14.4531 20.9576 16.1803 20.9576 18.3134C20.9576 20.4464 19.2409 22.1736 17.1428 22.1736Z" fill="#8FC045" stroke="white"/>
<path d="M10.2402 32.4048H24.0475C24.6563 32.4048 25.1588 31.9046 25.1589 31.2765L10.2402 32.4048ZM10.2402 32.4048C9.63142 32.4048 9.12891 31.9046 9.12891 31.2765M10.2402 32.4048L9.12891 31.2765M9.12891 31.2765C9.12891 26.8031 12.7298 23.1719 17.1439 23.1719M9.12891 31.2765L17.1439 23.1719M17.1439 23.1719C21.558 23.1719 25.1589 26.8031 25.1589 31.2765L17.1439 23.1719Z" fill="#8FC045" stroke="white"/>
<path d="M44.8606 18.5745H32.8C32.2104 18.5745 31.6914 18.0654 31.6914 17.3859C31.6914 16.7063 32.2104 16.1973 32.8 16.1973H44.8606C45.4502 16.1973 45.9692 16.7063 45.9692 17.3859C45.9692 18.0654 45.4502 18.5745 44.8606 18.5745Z" fill="white" stroke="white"/>
<path d="M44.7585 9.73314H10.2402C9.63142 9.73314 9.12891 9.23291 9.12891 8.60485C9.12891 7.9768 9.63142 7.47656 10.2402 7.47656H44.7585C45.3673 7.47656 45.8699 7.9768 45.8699 8.60485C45.8699 9.23291 45.3673 9.73314 44.7585 9.73314Z" fill="white" stroke="white"/>
<path d="M44.8606 25.551H32.8C32.2104 25.551 31.6914 25.042 31.6914 24.3624C31.6914 23.6829 32.2104 23.1738 32.8 23.1738H44.8606C45.4502 23.1738 45.9692 23.6829 45.9692 24.3624C45.9692 25.042 45.4502 25.551 44.8606 25.551Z" fill="white" stroke="white"/>
<path d="M44.3921 32.3069H33.2685C32.2958 32.3069 31.6914 31.6829 31.6914 31.1183C31.6914 30.5536 32.2958 29.9297 33.2685 29.9297H44.3921C45.3648 29.9297 45.9692 30.5536 45.9692 31.1183C45.9692 31.6829 45.3648 32.3069 44.3921 32.3069Z" fill="white" stroke="white"/>
<path d="M33.2393 39.8838C33.2393 43.1522 30.614 45.8046 27.395 45.8167H27.3737C24.1449 45.8167 21.5078 43.1596 21.5078 39.8838C21.5078 36.6083 24.1449 33.9512 27.3737 33.9512H27.3951C30.6141 33.9632 33.2393 36.6157 33.2393 39.8838Z" fill="white" stroke="#8FC045"/>
<path d="M30.2622 38.9589L27.3953 41.8564L26.7758 42.4824C26.6295 42.6303 26.4375 42.7041 26.2458 42.7041C26.0538 42.7041 25.8621 42.6303 25.7155 42.4824L24.3836 41.1358C24.0909 40.8401 24.0909 40.3609 24.3836 40.065C24.6759 39.7692 25.1506 39.7692 25.4433 40.065L26.2458 40.8759L29.2025 37.888C29.4952 37.592 29.9699 37.592 30.2622 37.888C30.5549 38.1838 30.5549 38.6635 30.2622 38.9589Z" fill="#8FC045"/>
</svg>
