<svg width="55" height="56" viewBox="0 0 55 56" fill="none" xmlns="http://www.w3.org/2000/svg">
<path d="M48.9999 28.0003V28.5003H49.4999H53.3886C53.9939 28.5003 54.4999 29.0025 54.4999 29.641V41.2931C54.4999 41.9316 53.9939 42.4338 53.3886 42.4338H49.4999H48.9999V42.9338C48.9999 45.7592 46.7532 48.0338 43.9999 48.0338H40.3333H7.83333V26.1337V25.6337H7.33333H3.6666C1.947 25.6337 0.532494 24.2262 0.500533 22.4615L0.500532 22.4615C0.467752 20.6534 1.96048 19.167 3.73922 19.167H29.713H30.3953L30.1897 18.5163C29.96 17.7894 29.8343 17.0156 29.8333 16.2118C29.8328 15.772 30.1779 15.4336 30.5795 15.4336H43.9999C46.7529 15.4336 48.9999 17.7084 48.9999 20.5336V28.0003Z" fill="white" stroke="#8FC045"/>
<path d="M12.6619 0.5H35.9162C38.3184 0.5 40.289 2.4933 40.289 4.96137V51.0386C40.289 53.5067 38.3184 55.5 35.9162 55.5H12.6619C10.2597 55.5 8.28906 53.5067 8.28906 51.0386V4.96137C8.28906 2.49329 10.2596 0.5 12.6619 0.5Z" fill="#8FC045" stroke="#8FC045"/>
<path d="M34.3893 5.15518V3.78125H35.7297C36.46 3.78125 37.0703 4.38956 37.0703 5.15518V50.8448C37.0703 51.6104 36.46 52.2187 35.7297 52.2187H12.8562C12.1259 52.2187 11.5156 51.6104 11.5156 50.8448V5.15518C11.5156 4.38956 12.1259 3.78125 12.8562 3.78125H14.1966V5.15518C14.1966 8.26993 16.6789 10.8104 19.7598 10.8104H28.8262C31.9071 10.8104 34.3893 8.26993 34.3893 5.15518Z" fill="white" stroke="#8FC045"/>
<path d="M10.9583 44.7997C10.9583 46.5939 9.53205 48.033 7.79163 48.033C6.0512 48.033 4.625 46.5939 4.625 44.7997C4.625 43.0055 6.0512 41.5664 7.79163 41.5664C9.53205 41.5664 10.9583 43.0055 10.9583 44.7997Z" fill="white" stroke="#8FC045"/>
<path d="M12.3749 33.5994C14.3989 33.5994 16.0416 31.9269 16.0416 29.8661C16.0416 27.8054 14.3989 26.1328 12.3749 26.1328H5.04163C3.01759 26.1328 1.375 27.8054 1.375 29.8661C1.375 31.9269 3.01759 33.5994 5.04163 33.5994H6.875C4.85096 33.5994 3.20837 35.272 3.20837 37.3327C3.20837 39.3935 4.85106 41.066 6.875 41.066H12.375C14.399 41.066 16.0417 39.3935 16.0417 37.3327C16.0417 35.272 14.3989 33.5994 12.3749 33.5994Z" fill="white" stroke="#8FC045"/>
<path d="M27.7416 48.4707H20.8379C20.2326 48.4707 19.7266 47.9685 19.7266 47.3301C19.7266 46.6916 20.2326 46.1895 20.8379 46.1895H27.7416C28.3469 46.1895 28.8529 46.6916 28.8529 47.3301C28.8529 47.9685 28.3469 48.4707 27.7416 48.4707Z" stroke="#8FC045"/>
<path d="M48.9986 25.5941V26.0941H49.4986H53.3873C53.9926 26.0941 54.4986 26.5962 54.4986 27.2347V41.2931C54.4986 41.9316 53.9926 42.4338 53.3873 42.4338H49.4986H48.9986V42.9338C48.9986 45.7592 46.7519 48.0338 43.9987 48.0338H40.8319V24.267V23.767H40.3319H37.2525C33.1697 23.767 29.832 20.3817 29.832 16.2026C29.832 15.7695 30.1748 15.4336 30.5782 15.4336H43.9987C46.7516 15.4336 48.9986 17.7084 48.9986 20.5336V25.5941Z" fill="white" stroke="#8FC045"/>
<path d="M12.3737 33.5996H6.87366C4.84962 33.5996 3.20703 35.2722 3.20703 37.3329C3.20703 39.3937 4.84973 41.0662 6.87366 41.0662H12.3737C14.3977 41.0662 16.0404 39.3937 16.0404 37.3329C16.0404 35.2722 14.3977 33.5996 12.3737 33.5996Z" stroke="#8FC045"/>
</svg>
