<svg width="150" height="150" viewBox="0 0 150 150" fill="none" xmlns="http://www.w3.org/2000/svg">
<path d="M75 0C33.7793 0 0 33.4863 0 74.707C0 115.928 33.7793 150 75 150C116.221 150 150 115.928 150 74.707C150 33.4863 116.221 0 75 0Z" fill="#8FC045"/>
<path d="M150 74.707C150 115.928 116.221 150 75 150V0C116.221 0 150 33.4863 150 74.707Z" fill="#3D5221"/>
<path d="M75 17.5781L53.0273 52.7344H66.2109V132.422H83.7891V52.7344H96.9727L75 17.5781Z" fill="#ECECF1"/>
<path d="M96.9727 52.7344H83.7891V132.422H75V17.5781L96.9727 52.7344Z" fill="#D3D3D8"/>
</svg>
