<svg width="150" height="150" viewBox="0 0 150 150" fill="none" xmlns="http://www.w3.org/2000/svg">
<path d="M51.5047 77.6148L73.2132 55.908C68.5258 60.5951 60.9256 60.5951 56.2381 55.908L50.8105 50.4809L76.5851 24.7084L76.6964 24.5971L94.9352 18.0092L103.831 9.11377L127.686 32.9663L61.9496 88.0589L51.5047 77.6148Z" fill="#EEBCA8"/>
<path d="M77.4334 103.54L61.9512 88.0595L122.855 27.1606L141.39 45.6942L132.007 55.0768L125.418 73.3141L95.1891 103.541C90.286 108.443 82.3365 108.443 77.4334 103.54Z" fill="#E9A48C"/>
<path d="M94.1465 11.5425L105.682 0.00722076L129.257 23.5823L117.722 35.1176L94.1465 11.5425Z" fill="#8FC045"/>
<path d="M116.305 33.7036L127.84 22.1688L149.999 44.326L138.464 55.8608L116.305 33.7036Z" fill="#3D5221"/>
<path d="M98.5191 77.6143L70.5822 49.6797C75.2697 54.3668 82.8698 54.3668 87.5573 49.6797L92.9849 44.2525L73.4387 24.7079L73.3273 24.5966L55.0885 18.0087L46.1924 9.11328L22.3379 32.9658L88.0742 88.0581L98.5191 77.6143Z" fill="#B26E5A"/>
<path d="M72.5933 103.54L88.0755 88.059L27.1718 27.1602L8.63672 45.6937L18.0201 55.0763L24.6086 73.3137L54.8376 103.54C59.7407 108.443 67.6902 108.443 72.5933 103.54Z" fill="#A45D4E"/>
<path d="M20.7461 23.5737L44.3226 -2.7938e-05L55.8585 11.5346L32.282 35.1083L20.7461 23.5737Z" fill="#8FC045"/>
<path d="M0 44.3135L22.1577 22.155L33.6927 33.6905L11.5351 55.8489L0 44.3135Z" fill="#3D5221"/>
<path d="M60.2395 56.7993V96.3048C60.2395 89.6762 54.8655 84.3027 48.2363 84.3027H40.5605V111.943V112.1L48.7986 129.655V142.235H82.534L75.0109 56.7993H60.2395Z" fill="#F6DCCD"/>
<path d="M96.905 56.7993H75.0098V142.923H101.222V129.654L109.46 112.1V69.3534C109.46 62.4198 103.839 56.7993 96.905 56.7993Z" fill="#F1CBBC"/>
<path d="M43.6699 133.685H77.0171V149.999H43.6699V133.685Z" fill="#8FC045"/>
<path d="M75.0117 133.685H106.354V149.999H75.0117V133.685Z" fill="#3D5221"/>
</svg>
