<svg width="500" height="500" viewBox="0 0 500 500" fill="none" xmlns="http://www.w3.org/2000/svg">
<path d="M244.99 479.62C369.282 479.62 470.04 421.448 470.04 349.69C470.04 277.931 369.282 219.76 244.99 219.76C120.699 219.76 19.9404 277.931 19.9404 349.69C19.9404 421.448 120.699 479.62 244.99 479.62Z" fill="#F5F5F5"/>
<path d="M283.511 421.13C306.364 421.13 324.891 410.434 324.891 397.24C324.891 384.046 306.364 373.35 283.511 373.35C260.657 373.35 242.131 384.046 242.131 397.24C242.131 410.434 260.657 421.13 283.511 421.13Z" fill="#E0E0E0"/>
<path d="M391.16 406.98C414.014 406.98 432.54 396.284 432.54 383.09C432.54 369.896 414.014 359.2 391.16 359.2C368.307 359.2 349.78 369.896 349.78 383.09C349.78 396.284 368.307 406.98 391.16 406.98Z" fill="#E0E0E0"/>
<path d="M164.82 456.95C187.674 456.95 206.2 446.254 206.2 433.06C206.2 419.866 187.674 409.17 164.82 409.17C141.967 409.17 123.44 419.866 123.44 433.06C123.44 446.254 141.967 456.95 164.82 456.95Z" fill="#E0E0E0"/>
<path d="M96.9994 354.5C96.9994 354.5 95.9194 329.24 85.3294 315.18C74.7394 301.12 61.7594 299.1 55.3294 303.06C50.6294 305.94 51.2594 314.5 59.3894 320.06C67.5194 325.62 83.1894 339.87 85.6394 349.16L96.9994 354.5Z" fill="#37474F"/>
<path d="M90 350.82C89.8285 350.807 89.6687 350.728 89.5548 350.599C89.4408 350.47 89.3817 350.302 89.39 350.13C90.48 327.21 70.39 312.92 64.92 310.35C64.7631 310.276 64.6415 310.144 64.5816 309.981C64.5217 309.818 64.5283 309.638 64.6 309.48C64.6759 309.322 64.8104 309.201 64.9749 309.141C65.1393 309.081 65.3206 309.088 65.48 309.16C71.09 311.82 91.82 326.55 90.7 350.16C90.6897 350.334 90.6115 350.496 90.4823 350.612C90.3532 350.728 90.1835 350.788 90.01 350.78L90 350.82Z" fill="white"/>
<path d="M91.9996 346.52C90.5558 346.501 89.1675 345.961 88.0896 345C86.8596 343.65 86.9596 341.58 86.3896 339.84C85.4596 336.98 82.6396 335.04 79.6996 334.43C76.7186 333.965 73.6714 334.17 70.7796 335.03C64.8796 336.48 59.2096 332.85 53.2996 333.28C51.1671 333.349 49.0933 333.995 47.2996 335.15C46.4148 335.736 45.69 336.532 45.1906 337.468C44.6913 338.404 44.4331 339.45 44.4396 340.51C44.6423 342.266 45.5167 343.875 46.8796 345C48.2462 346.123 49.7519 347.064 51.3596 347.8L56.5496 350.45C57.4468 350.849 58.274 351.389 58.9996 352.05C59.6852 352.785 60.2024 353.66 60.515 354.615C60.8276 355.571 60.9282 356.582 60.8096 357.58C60.4096 359.58 58.8096 361.1 58.2996 363.06C57.6696 365.63 59.2396 368.38 61.4996 369.77C63.847 371.041 66.5265 371.564 69.1796 371.27C71.8296 371.12 74.4496 370.59 77.0996 370.54C78.8925 370.412 80.6843 370.804 82.2596 371.67C84.0384 372.958 85.3201 374.819 85.8896 376.94C86.2331 378.301 86.7792 379.602 87.5096 380.8C88.4102 381.939 89.6229 382.79 90.9996 383.25C93.6622 384.231 96.5869 384.231 99.2496 383.25C101.44 382.41 102.51 379.94 103.33 377.8C104.149 375.56 104.539 373.185 104.48 370.8C104.354 364.67 102.968 358.632 100.41 353.06C99.1796 350.5 97.4096 347.94 94.6896 347.06C93.8087 346.809 92.9092 346.629 91.9996 346.52Z" fill="#455A64"/>
<path d="M97.6794 374C97.5585 374.001 97.4405 373.963 97.3419 373.893C97.2433 373.824 97.169 373.725 97.1294 373.61C90.9594 355.92 61.7694 340.53 51.1294 338.76C51.0539 338.748 50.9816 338.721 50.9166 338.68C50.8516 338.64 50.7952 338.587 50.7506 338.525C50.7061 338.463 50.6742 338.392 50.6568 338.318C50.6394 338.243 50.6369 338.166 50.6494 338.09C50.6619 338.015 50.6891 337.943 50.7295 337.878C50.7699 337.813 50.8228 337.756 50.885 337.712C50.9472 337.667 51.0176 337.635 51.0921 337.618C51.1667 337.6 51.2439 337.598 51.3194 337.61C62.1994 339.41 91.9694 355.14 98.3194 373.22C98.3462 373.293 98.358 373.371 98.3543 373.448C98.3507 373.526 98.3315 373.602 98.2979 373.671C98.2643 373.741 98.2171 373.804 98.1589 373.855C98.1008 373.907 98.0329 373.946 97.9594 373.97C97.8695 374.001 97.7738 374.012 97.6794 374Z" fill="white"/>
<path d="M71.4393 364.3C71.3276 364.291 71.221 364.25 71.1324 364.181C71.0437 364.113 70.9768 364.02 70.9398 363.914C70.9028 363.808 70.8972 363.694 70.9237 363.585C70.9503 363.476 71.0078 363.377 71.0893 363.3C75.8622 359.999 81.5066 358.186 87.3093 358.09C87.4513 358.109 87.5817 358.179 87.6761 358.286C87.7706 358.394 87.8227 358.532 87.8227 358.675C87.8227 358.819 87.7706 358.957 87.6761 359.064C87.5817 359.172 87.4513 359.242 87.3093 359.26C81.7588 359.395 76.3656 361.131 71.7793 364.26C71.6723 364.306 71.5541 364.32 71.4393 364.3Z" fill="white"/>
<path d="M97.9999 387.68C97.371 387.253 96.8515 386.683 96.4832 386.018C96.1149 385.353 95.9083 384.61 95.8799 383.85V175.46C95.9234 174.677 96.1507 173.915 96.5433 173.235C96.9359 172.556 97.4828 171.979 98.1399 171.55L343.3 30C343.951 29.59 344.702 29.3656 345.472 29.3509C346.242 29.3362 347.001 29.5317 347.667 29.9165C348.334 30.3013 348.883 30.8607 349.255 31.5345C349.628 32.2083 349.809 32.9708 349.78 33.74V242.14C349.736 242.923 349.509 243.686 349.116 244.365C348.724 245.044 348.177 245.621 347.52 246.05L102.36 387.6C101.69 387.953 100.946 388.144 100.189 388.158C99.4323 388.172 98.6824 388.008 97.9999 387.68Z" fill="#455A64"/>
<path d="M101.93 387.79H101.84C101.772 387.831 101.697 387.861 101.62 387.88H101.45C101.35 387.915 101.246 387.938 101.14 387.95C101.073 387.977 101.002 387.994 100.93 388L100.59 388.05C99.6976 388.171 98.7897 388.014 97.9899 387.6C97.3619 387.175 96.8434 386.607 96.4767 385.943C96.11 385.279 95.9055 384.538 95.8799 383.78V202.17L100.12 204.62V386.29C100.12 387.29 100.63 387.91 101.37 387.91C101.469 387.925 101.57 387.925 101.67 387.91C101.762 387.883 101.85 387.843 101.93 387.79Z" fill="#92E3A9"/>
<path opacity="0.81" d="M101.93 387.79H101.84C101.772 387.831 101.697 387.861 101.62 387.88H101.45C101.35 387.915 101.246 387.938 101.14 387.95C101.073 387.977 101.002 387.994 100.93 388L100.59 388.05C99.6976 388.171 98.7897 388.014 97.9899 387.6C97.3619 387.175 96.8434 386.607 96.4767 385.943C96.11 385.279 95.9055 384.538 95.8799 383.78V202.17L100.12 204.62V386.29C100.12 387.29 100.63 387.91 101.37 387.91C101.469 387.925 101.57 387.925 101.67 387.91C101.762 387.883 101.85 387.843 101.93 387.79Z" fill="#E0E0E0"/>
<path d="M100.11 204.62L95.8701 202.17V242.52L100.11 244.99V204.62Z" fill="#92E3A9"/>
<path opacity="0.15" d="M100.11 204.62L95.8701 202.17V242.52L100.11 244.99V204.62Z" fill="black"/>
<path d="M100.76 175.68C100.36 176.353 100.136 177.117 100.11 177.9V204.62L95.8699 202.17V175.46C95.865 175.37 95.865 175.28 95.8699 175.19C95.8893 175.002 95.9194 174.815 95.9599 174.63C96.0846 174.141 96.2728 173.67 96.5199 173.23L100.76 175.68Z" fill="#263238"/>
<path d="M349.78 33.7503V45.8103L170.07 149.56C168.83 150.28 167.82 149.69 167.82 148.26V143.69C167.82 142.26 166.82 141.69 165.56 142.39L110.83 174C110.173 174.429 109.626 175.006 109.234 175.686C108.841 176.365 108.614 177.127 108.57 177.91V182.47C108.528 183.253 108.302 184.014 107.911 184.693C107.521 185.373 106.976 185.95 106.32 186.38L100.11 190V178C100.153 177.218 100.378 176.456 100.769 175.777C101.16 175.098 101.705 174.52 102.36 174.09L347.53 32.4503C348.77 31.7303 349.78 32.3103 349.78 33.7503Z" fill="#37474F"/>
<path d="M349.79 242.15C349.745 242.932 349.517 243.692 349.125 244.369C348.732 245.047 348.186 245.622 347.53 246.05L102.36 387.6C101.12 388.31 100.11 387.73 100.11 386.29V190L106.32 186.42C107.56 185.7 109.58 174.76 110.83 174.04L164.64 142.97C165.89 142.25 168.83 150.33 170.07 149.61L349.78 45.8101V242.15H349.79Z" fill="#92E3A9"/>
<path opacity="0.9" d="M349.79 242.15C349.745 242.932 349.517 243.692 349.125 244.369C348.732 245.047 348.186 245.622 347.53 246.05L102.36 387.6C101.12 388.31 100.11 387.73 100.11 386.29V190L106.32 186.42C107.56 185.7 109.58 174.76 110.83 174.04L164.64 142.97C165.89 142.25 168.83 150.33 170.07 149.61L349.78 45.8101V242.15H349.79Z" fill="white"/>
<g opacity="0.4">
<path opacity="0.4" d="M348.78 47.5401V242.15C348.732 242.75 348.548 243.332 348.243 243.851C347.939 244.371 347.521 244.815 347.02 245.15L101.86 386.73C101.709 386.832 101.533 386.891 101.35 386.9C101.12 386.9 101.11 386.4 101.11 386.29V190.53L106.82 187.23C107.7 186.72 108.26 184.97 109.52 180.47C109.978 178.531 110.607 176.637 111.4 174.81L164.77 144C165.409 144.871 165.984 145.786 166.49 146.74C167.94 149.28 168.74 150.6 169.9 150.6C170.134 150.599 170.364 150.541 170.57 150.43L348.78 47.5401ZM349.78 45.8101L170.07 149.56C170.015 149.574 169.956 149.574 169.9 149.56C168.64 149.56 166.08 142.83 164.81 142.83C164.755 142.816 164.696 142.816 164.64 142.83L110.83 174C109.58 174.72 107.56 185.66 106.32 186.38L100.11 190V386.29C100.11 387.29 100.62 387.9 101.35 387.9C101.704 387.885 102.047 387.782 102.35 387.6L347.53 246.05C348.186 245.622 348.732 245.047 349.125 244.369C349.517 243.692 349.745 242.932 349.79 242.15V45.8101H349.78Z" fill="#92E3A9"/>
</g>
<path d="M100.11 204.62V244.99L349.78 100.86V60.48L100.11 204.62Z" fill="#92E3A9"/>
<path d="M349.78 45.8101V60.4801L100.11 204.62V190L104.74 187.32C105.98 186.6 106.4 185.5 106.99 183.41L108.57 177.95C109.06 176.05 109.57 174.76 110.83 174.04L164.64 142.97C165.89 142.25 166.87 142.17 167.82 143.74L169.75 147.24C170.45 148.47 170.81 149.19 172.05 148.47L349.78 45.8101Z" fill="#F0F0F0"/>
<path d="M339.2 41.31C340.77 40.41 342.04 41.14 342.04 42.95C341.987 43.9355 341.702 44.8946 341.208 45.7495C340.715 46.6043 340.027 47.3308 339.2 47.87C337.64 48.77 336.37 48.04 336.37 46.23C336.424 45.2457 336.708 44.2877 337.2 43.4332C337.691 42.5787 338.376 41.8515 339.2 41.31Z" fill="#92E3A9"/>
<path d="M329 47.2001C330.56 46.3001 331.83 47.0301 331.83 48.8401C331.776 49.8244 331.492 50.7823 331.001 51.6369C330.509 52.4914 329.824 53.2186 329 53.7601C327.43 54.6601 326.16 53.9301 326.16 52.1201C326.214 51.1345 326.499 50.1754 326.992 49.3206C327.485 48.4658 328.173 47.7393 329 47.2001Z" fill="#92E3A9"/>
<path d="M318.77 53.0902C320.33 52.1902 321.61 52.9202 321.61 54.7302C321.554 55.7153 321.268 56.6735 320.775 57.5279C320.281 58.3824 319.595 59.1093 318.77 59.6502C317.2 60.5602 315.93 59.8202 315.93 58.0102C315.983 57.0247 316.268 56.0656 316.762 55.2108C317.255 54.3559 317.943 53.6295 318.77 53.0902Z" fill="#92E3A9"/>
<path opacity="0.5" d="M110.45 191L106.91 193L108.26 190.41C108.314 190.312 108.341 190.202 108.341 190.09C108.341 189.978 108.314 189.868 108.26 189.77C108.16 189.65 107.98 189.77 107.86 189.96L105.94 193.66C105.936 193.707 105.936 193.754 105.94 193.8C105.936 193.864 105.936 193.927 105.94 193.99C105.934 194.047 105.934 194.104 105.94 194.16C105.935 194.187 105.935 194.214 105.94 194.24L107.86 195.72C107.889 195.738 107.922 195.747 107.955 195.747C107.989 195.747 108.022 195.738 108.05 195.72C108.142 195.645 108.214 195.549 108.26 195.44C108.36 195.2 108.35 194.93 108.26 194.84L106.91 193.84L110.45 191.84C110.543 191.768 110.617 191.676 110.668 191.57C110.718 191.464 110.743 191.348 110.74 191.23C110.74 191 110.61 190.92 110.45 191Z" fill="#455A64"/>
<path opacity="0.5" d="M113.41 189.3L116.95 187.3L115.6 186.3C115.48 186.21 115.47 185.94 115.6 185.7C115.73 185.46 115.88 185.33 116 185.42L117.92 186.9C117.945 186.919 117.966 186.943 117.98 186.97C117.99 187.023 117.99 187.077 117.98 187.13C117.99 187.193 117.99 187.257 117.98 187.32C117.98 187.32 117.98 187.32 117.98 187.37C117.964 187.419 117.944 187.465 117.92 187.51L116 191.17C115.958 191.26 115.893 191.336 115.81 191.39C115.782 191.418 115.744 191.433 115.705 191.433C115.666 191.433 115.628 191.418 115.6 191.39C115.544 191.293 115.514 191.183 115.514 191.07C115.514 190.958 115.544 190.848 115.6 190.75L116.95 188.15L113.41 190.2C113.25 190.29 113.13 190.2 113.13 189.92C113.124 189.802 113.146 189.684 113.194 189.576C113.243 189.468 113.317 189.374 113.41 189.3Z" fill="#455A64"/>
<path opacity="0.5" d="M125 179.1C125 178.89 124.79 178.92 124.7 179.15L124.21 180.34C123.38 180.25 122.38 181.05 121.7 182.49C120.83 184.34 120.83 186.49 121.7 187.38C121.914 187.58 122.19 187.699 122.482 187.717C122.774 187.735 123.064 187.651 123.3 187.48C124.007 187.006 124.56 186.335 124.89 185.55C124.946 185.456 124.975 185.349 124.975 185.24C124.975 185.131 124.946 185.024 124.89 184.93C124.77 184.82 124.59 184.93 124.48 185.16C123.83 186.54 122.76 187.16 122.11 186.53C121.46 185.9 121.45 184.26 122.11 182.87C122.57 181.87 123.24 181.3 123.83 181.27L123.46 182.16C123.37 182.39 123.46 182.61 123.6 182.51L125.05 181.57C125.106 181.52 125.149 181.458 125.177 181.388C125.204 181.319 125.216 181.244 125.21 181.17L125 179.1Z" fill="#455A64"/>
<path opacity="0.5" d="M163.09 149.62L164.38 146.88C164.455 146.751 164.495 146.605 164.495 146.455C164.495 146.306 164.455 146.159 164.38 146.03C164.23 145.89 163.98 146.03 163.83 146.35L162.54 149.08L161.24 147.84C161.09 147.69 160.84 147.84 160.69 148.16C160.614 148.289 160.574 148.436 160.574 148.585C160.574 148.735 160.614 148.881 160.69 149.01L161.98 150.25L160.69 153C160.614 153.129 160.574 153.276 160.574 153.425C160.574 153.575 160.614 153.721 160.69 153.85C160.729 153.883 160.779 153.901 160.83 153.901C160.881 153.901 160.93 153.883 160.97 153.85C161.094 153.773 161.189 153.657 161.24 153.52L162.54 150.78L163.83 152.03C163.867 152.062 163.915 152.079 163.965 152.079C164.014 152.079 164.062 152.062 164.1 152.03C164.224 151.951 164.322 151.836 164.38 151.7C164.455 151.571 164.495 151.425 164.495 151.275C164.495 151.126 164.455 150.979 164.38 150.85L163.09 149.62Z" fill="#455A64"/>
<path d="M129.729 182.46V177.9C129.776 177.118 130.005 176.357 130.4 175.679C130.794 175.002 131.342 174.427 131.999 174L334.85 57.0001C336.1 56.2801 337.109 56.8601 337.109 58.3001V62.8001C337.066 63.5834 336.839 64.3455 336.446 65.0248C336.053 65.704 335.507 66.2813 334.85 66.7101L131.999 183.77C130.739 184.49 129.729 183.9 129.729 182.46Z" fill="white"/>
<path d="M331.76 66.9998C331.707 67.0103 331.652 67.0103 331.6 66.9998C331.494 66.9469 331.409 66.86 331.358 66.7531C331.307 66.6462 331.294 66.5253 331.32 66.4098L331.54 64.5198L330.62 63.8598C330.554 63.8119 330.501 63.7484 330.467 63.6751C330.432 63.6018 330.415 63.5209 330.42 63.4398C330.42 63.3023 330.451 63.1665 330.51 63.0421C330.568 62.9176 330.654 62.8077 330.76 62.7198L332.08 61.7198C332.124 61.6799 332.155 61.6277 332.17 61.5698L332.76 59.6298C332.793 59.4883 332.866 59.3594 332.971 59.2584C333.076 59.1574 333.207 59.0884 333.35 59.0598C333.439 59.0568 333.527 59.0798 333.603 59.1259C333.68 59.1721 333.741 59.2395 333.78 59.3198L334.31 60.4598L335.51 59.9998C335.594 59.9637 335.688 59.9549 335.777 59.9746C335.867 59.9944 335.948 60.0416 336.01 60.1098C336.088 60.2302 336.13 60.371 336.13 60.5148C336.13 60.6587 336.088 60.7994 336.01 60.9198L335.01 62.7198C334.999 62.7727 334.999 62.827 335.01 62.8798L335.24 64.5098C335.253 64.6432 335.237 64.778 335.192 64.9043C335.147 65.0306 335.075 65.1452 334.98 65.2398C334.926 65.3033 334.858 65.3529 334.782 65.3842C334.705 65.4156 334.622 65.4278 334.54 65.4198L333.35 65.2698L332.2 66.8098C332.144 66.871 332.076 66.9196 332 66.9524C331.924 66.9852 331.842 67.0013 331.76 66.9998ZM331 63.3298L331.92 63.9898C331.997 64.0544 332.055 64.1387 332.089 64.2337C332.122 64.3288 332.129 64.4311 332.11 64.5298L332 66.0898L333 64.8298C333.057 64.7486 333.133 64.6831 333.222 64.6394C333.312 64.5957 333.41 64.5752 333.51 64.5798L334.7 64.7298C334.7 64.7298 334.75 64.5698 334.7 64.4898L334.47 62.8598C334.454 62.6794 334.492 62.4984 334.58 62.3398L335.58 60.5398L334.48 60.9598C334.427 60.9828 334.371 60.9951 334.313 60.9959C334.256 60.9967 334.199 60.9861 334.146 60.9647C334.093 60.9433 334.045 60.9115 334.004 60.8711C333.964 60.8308 333.931 60.7828 333.91 60.7298L333.42 59.7298L332.83 61.6698C332.781 61.8482 332.675 62.006 332.53 62.1198L331.21 63.1198C331.116 63.1619 331.042 63.2366 331 63.3298Z" fill="#E0E0E0"/>
<g opacity="0.5">
<path opacity="0.5" d="M339.75 56.3799C339.577 56.3817 339.408 56.3258 339.27 56.221C339.132 56.1162 339.033 55.9686 338.988 55.8013C338.944 55.6339 338.956 55.4565 339.023 55.297C339.09 55.1374 339.209 55.0047 339.36 54.9199L345.7 51.2599C345.789 51.208 345.887 51.1741 345.988 51.1601C346.09 51.1461 346.194 51.1523 346.293 51.1783C346.392 51.2043 346.485 51.2496 346.567 51.3117C346.649 51.3737 346.718 51.4513 346.77 51.5399C346.822 51.6286 346.856 51.7265 346.87 51.8283C346.884 51.93 346.877 52.0335 346.851 52.1329C346.825 52.2323 346.78 52.3255 346.718 52.4074C346.656 52.4892 346.579 52.558 346.49 52.6099L340.14 56.2799C340.021 56.3468 339.886 56.3813 339.75 56.3799Z" fill="#455A64"/>
<path opacity="0.5" d="M339.75 60.0498C339.613 60.0496 339.478 60.0135 339.358 59.9451C339.239 59.8767 339.14 59.7784 339.07 59.6598C339.018 59.5707 338.985 59.4721 338.971 59.3699C338.958 59.2677 338.965 59.1638 338.992 59.0643C339.019 58.9648 339.065 58.8717 339.129 58.7902C339.192 58.7088 339.27 58.6407 339.36 58.5898L345.7 54.9198C345.879 54.8378 346.081 54.8252 346.269 54.8846C346.456 54.9439 346.614 55.071 346.713 55.2408C346.812 55.4107 346.844 55.6113 346.802 55.8034C346.761 55.9955 346.65 56.1654 346.49 56.2798L340.14 59.9398C340.022 60.0098 339.888 60.0477 339.75 60.0498Z" fill="#455A64"/>
<path opacity="0.5" d="M339.75 63.71C339.612 63.7098 339.477 63.6737 339.358 63.6053C339.238 63.5369 339.139 63.4385 339.07 63.32C339.018 63.2316 338.985 63.1338 338.971 63.0324C338.958 62.9309 338.965 62.8278 338.992 62.7291C339.019 62.6305 339.066 62.5381 339.129 62.4576C339.192 62.377 339.27 62.3099 339.36 62.26L345.7 58.59C345.788 58.5381 345.886 58.5042 345.988 58.4902C346.09 58.4762 346.193 58.4824 346.293 58.5084C346.392 58.5344 346.485 58.5797 346.567 58.6417C346.649 58.7038 346.718 58.7813 346.77 58.87C346.821 58.9586 346.855 59.0566 346.869 59.1584C346.883 59.2601 346.877 59.3636 346.851 59.463C346.825 59.5623 346.78 59.6556 346.718 59.7374C346.656 59.8193 346.578 59.8881 346.49 59.94L340.14 63.61C340.021 63.6769 339.886 63.7114 339.75 63.71Z" fill="#455A64"/>
</g>
<path d="M100.11 189.95V204.62L95.8701 202.17V187.51L100.11 189.95Z" fill="#E0E0E0"/>
<path d="M253.384 143.055C253.301 143.104 253.223 143.113 253.151 143.083C253.088 143.048 253.057 142.976 253.057 142.868L253.088 142.688L256.833 128.888C256.906 128.546 257.087 128.29 257.377 128.12L259.071 127.13C259.34 126.973 259.522 127.017 259.615 127.262L263.36 136.683C263.37 136.713 263.376 136.764 263.376 136.836C263.376 136.944 263.344 137.052 263.282 137.16C263.22 137.269 263.148 137.347 263.065 137.395L261.713 138.186C261.578 138.265 261.475 138.289 261.402 138.259C261.33 138.23 261.283 138.179 261.262 138.107L260.532 136.338L255.917 139.036L255.186 141.659C255.103 141.936 254.953 142.138 254.736 142.265L253.384 143.055ZM259.988 134.586L258.216 130.06L256.461 136.648L259.988 134.586ZM269.115 134.038C268.048 134.662 267.219 134.721 266.629 134.214V134.88C266.629 135 266.593 135.123 266.52 135.249C266.458 135.37 266.37 135.463 266.256 135.53L265.028 136.248C264.925 136.308 264.837 136.318 264.764 136.276C264.692 136.234 264.655 136.154 264.655 136.034V124.118C264.655 123.986 264.692 123.862 264.764 123.748C264.837 123.622 264.925 123.528 265.028 123.468L266.349 122.695C266.463 122.629 266.551 122.619 266.613 122.667C266.686 122.696 266.722 122.777 266.722 122.909V126.905C267.313 125.768 268.11 124.906 269.115 124.318C270.161 123.707 270.964 123.633 271.524 124.098C272.083 124.563 272.384 125.413 272.425 126.649C272.435 126.787 272.441 126.976 272.441 127.216C272.441 127.468 272.435 127.669 272.425 127.819C272.384 129.139 272.083 130.353 271.524 131.46C270.964 132.567 270.161 133.427 269.115 134.038ZM268.54 132.448C269.659 131.794 270.255 130.648 270.327 129.01C270.338 128.884 270.343 128.701 270.343 128.461C270.343 128.221 270.338 128.044 270.327 127.93C270.255 126.376 269.659 125.926 268.54 126.58C267.96 126.92 267.515 127.396 267.204 128.01C266.903 128.605 266.743 129.209 266.722 129.821L266.707 130.514L266.722 131.207C266.753 131.837 266.914 132.289 267.204 132.564C267.494 132.838 267.939 132.8 268.54 132.448ZM277.744 128.994C276.532 129.702 275.594 129.89 274.931 129.558C274.268 129.214 273.911 128.427 273.859 127.197L273.843 126.414L273.859 125.613C273.911 124.335 274.273 123.133 274.947 122.007C275.62 120.881 276.552 119.97 277.744 119.274C278.935 118.577 279.868 118.398 280.541 118.737C281.214 119.075 281.577 119.853 281.629 121.071C281.639 121.209 281.644 121.47 281.644 121.854C281.644 122.238 281.639 122.505 281.629 122.655C281.577 123.945 281.219 125.15 280.556 126.269C279.893 127.377 278.956 128.285 277.744 128.994ZM277.744 127.212C278.293 126.891 278.718 126.444 279.018 125.873C279.318 125.289 279.484 124.598 279.515 123.8C279.526 123.674 279.531 123.437 279.531 123.089C279.531 122.741 279.526 122.51 279.515 122.396C279.484 121.634 279.318 121.143 279.018 120.923C278.718 120.69 278.293 120.735 277.744 121.056C277.195 121.377 276.77 121.829 276.47 122.413C276.169 122.984 276.003 123.669 275.972 124.467L275.957 125.179L275.972 125.871C276.003 126.633 276.169 127.13 276.47 127.363C276.77 127.583 277.195 127.533 277.744 127.212ZM286.365 123.954C285.412 124.511 284.661 124.59 284.112 124.191C283.563 123.78 283.288 122.95 283.288 121.702V116.644C283.288 116.524 283.324 116.401 283.397 116.275C283.47 116.148 283.558 116.055 283.661 115.994L285.029 115.195C285.143 115.128 285.231 115.119 285.293 115.167C285.365 115.196 285.402 115.277 285.402 115.409V120.359C285.402 121.847 285.966 122.261 287.095 121.601C287.634 121.286 288.059 120.84 288.37 120.262C288.691 119.678 288.851 119.038 288.851 118.342V113.392C288.851 113.272 288.888 113.149 288.96 113.023C289.033 112.896 289.121 112.803 289.224 112.742L290.592 111.943C290.706 111.876 290.794 111.867 290.856 111.914C290.928 111.944 290.965 112.025 290.965 112.157V120.653C290.965 120.773 290.928 120.896 290.856 121.022C290.794 121.143 290.706 121.236 290.592 121.303L289.333 122.039C289.229 122.099 289.141 122.109 289.069 122.067C288.996 122.025 288.96 121.945 288.96 121.825V121.087C288.38 122.326 287.515 123.281 286.365 123.954ZM296.669 117.75C295.726 118.301 295.017 118.434 294.54 118.148C294.074 117.845 293.841 117.141 293.841 116.037V111.951L292.613 112.669C292.51 112.729 292.422 112.739 292.349 112.697C292.277 112.644 292.24 112.557 292.24 112.437V111.411C292.24 111.291 292.277 111.168 292.349 111.041C292.422 110.915 292.51 110.821 292.613 110.761L293.841 110.043V107.055C293.841 106.923 293.877 106.8 293.95 106.686C294.022 106.559 294.11 106.466 294.214 106.405L295.473 105.669C295.586 105.603 295.675 105.593 295.737 105.641C295.809 105.67 295.845 105.751 295.845 105.883V108.871L297.788 107.736C297.902 107.669 297.99 107.66 298.052 107.707C298.125 107.737 298.161 107.818 298.161 107.95V108.976C298.161 109.108 298.125 109.237 298.052 109.363C297.98 109.49 297.891 109.583 297.788 109.644L295.845 110.779V114.685C295.845 115.201 295.923 115.546 296.079 115.719C296.234 115.892 296.493 115.873 296.856 115.661L297.928 115.034C298.031 114.973 298.119 114.964 298.192 115.006C298.264 115.047 298.301 115.128 298.301 115.248V116.364C298.301 116.484 298.264 116.607 298.192 116.734C298.13 116.854 298.042 116.947 297.928 117.014L296.669 117.75ZM306.229 112.341C305.276 112.898 304.525 112.977 303.976 112.578C303.427 112.167 303.152 111.338 303.152 110.09V105.032C303.152 104.912 303.189 104.788 303.261 104.662C303.334 104.536 303.422 104.442 303.525 104.381L304.893 103.582C305.007 103.515 305.095 103.506 305.157 103.554C305.23 103.583 305.266 103.664 305.266 103.796V108.746C305.266 110.234 305.83 110.648 306.96 109.988C307.498 109.673 307.923 109.227 308.234 108.649C308.555 108.065 308.716 107.425 308.716 106.729V101.779C308.716 101.659 308.752 101.536 308.824 101.41C308.897 101.283 308.985 101.19 309.089 101.129L310.456 100.33C310.57 100.263 310.658 100.254 310.72 100.301C310.793 100.331 310.829 100.412 310.829 100.544V109.04C310.829 109.16 310.793 109.283 310.72 109.409C310.658 109.53 310.57 109.623 310.456 109.69L309.197 110.426C309.094 110.486 309.006 110.496 308.933 110.454C308.861 110.412 308.824 110.332 308.824 110.212V109.474C308.244 110.713 307.379 111.669 306.229 112.341ZM315.943 106.662C315.166 107.116 314.513 107.366 313.985 107.411C313.457 107.444 313.063 107.356 312.804 107.147C312.555 106.921 312.431 106.675 312.431 106.411C312.431 106.291 312.467 106.174 312.54 106.06C312.612 105.945 312.695 105.861 312.788 105.806L314.016 105.089C314.109 105.034 314.187 105.031 314.249 105.078C314.29 105.09 314.399 105.134 314.575 105.212C314.751 105.301 314.959 105.329 315.197 105.298C315.435 105.267 315.699 105.166 315.989 104.997C316.404 104.755 316.746 104.459 317.015 104.109C317.284 103.76 317.419 103.417 317.419 103.081C317.419 102.829 317.357 102.661 317.233 102.578C317.119 102.489 316.906 102.475 316.595 102.537C316.285 102.586 315.824 102.718 315.212 102.931C314.332 103.23 313.679 103.281 313.255 103.086C312.84 102.884 312.633 102.417 312.633 101.685C312.633 101.205 312.757 100.682 313.006 100.117C313.255 99.5397 313.622 98.9767 314.109 98.4281C314.606 97.8614 315.197 97.3781 315.881 96.9784C316.575 96.5726 317.176 96.3534 317.683 96.3206C318.191 96.2759 318.574 96.3578 318.833 96.5664C319.102 96.7569 319.237 96.9902 319.237 97.2662C319.237 97.3742 319.201 97.4914 319.128 97.6178C319.066 97.7261 318.989 97.8075 318.895 97.862L317.745 98.5343C317.662 98.5827 317.574 98.5922 317.481 98.5627C317.409 98.5451 317.295 98.4977 317.139 98.4206C316.984 98.3434 316.803 98.3174 316.595 98.3425C316.388 98.3677 316.145 98.462 315.865 98.6255C315.482 98.8496 315.181 99.1212 314.964 99.4404C314.757 99.7535 314.653 100.066 314.653 100.378C314.653 100.606 314.705 100.762 314.808 100.845C314.912 100.929 315.114 100.949 315.414 100.905C315.715 100.861 316.166 100.73 316.766 100.511C317.761 100.157 318.471 100.096 318.895 100.328C319.33 100.554 319.548 101.014 319.548 101.71C319.548 102.55 319.232 103.419 318.6 104.317C317.968 105.214 317.082 105.996 315.943 106.662Z" fill="#455A64"/>
<path opacity="0.1" d="M110.94 254.51L179.99 214.64V327.21L110.74 366.97L110.94 254.51Z" fill="#92E3A9"/>
<path opacity="0.15" d="M195.21 207.93L278.51 159.84C280.19 158.84 281.51 159.6 281.51 161.47C281.448 162.504 281.144 163.51 280.623 164.406C280.102 165.302 279.378 166.064 278.51 166.63L195.2 215.26C193.53 216.26 192.2 215.46 192.2 213.53V213.18C192.256 212.13 192.558 211.109 193.081 210.197C193.604 209.285 194.333 208.509 195.21 207.93Z" fill="#92E3A9"/>
<path opacity="0.1" d="M194.34 222.5L332.18 142.92C333.38 142.23 334.35 142.72 334.35 144.01C334.297 144.739 334.073 145.445 333.696 146.07C333.319 146.696 332.799 147.223 332.18 147.61L194.34 227.19C193.15 227.88 192.18 227.39 192.18 226.1C192.232 225.373 192.455 224.668 192.83 224.043C193.206 223.417 193.723 222.889 194.34 222.5Z" fill="#92E3A9"/>
<path opacity="0.1" d="M194.34 231.92L332.18 152.34C333.38 151.65 334.35 152.14 334.35 153.43C334.297 154.159 334.073 154.864 333.696 155.49C333.319 156.116 332.799 156.643 332.18 157.03L194.34 236.61C193.15 237.3 192.18 236.81 192.18 235.51C192.234 234.785 192.457 234.082 192.832 233.458C193.208 232.835 193.724 232.308 194.34 231.92Z" fill="#92E3A9"/>
<path opacity="0.1" d="M194.34 241.33L332.18 161.75C333.38 161.06 334.35 161.55 334.35 162.85C334.295 163.577 334.071 164.281 333.694 164.904C333.317 165.528 332.798 166.054 332.18 166.44L194.34 246C193.15 246.69 192.18 246.2 192.18 244.9C192.238 244.178 192.464 243.48 192.839 242.86C193.214 242.241 193.728 241.717 194.34 241.33Z" fill="#92E3A9"/>
<path opacity="0.1" d="M194.34 250.75L332.18 171.17C333.38 170.48 334.35 170.97 334.35 172.26C334.297 172.989 334.073 173.695 333.696 174.32C333.319 174.946 332.799 175.473 332.18 175.86L194.34 255.44C193.15 256.13 192.18 255.64 192.18 254.35C192.232 253.623 192.455 252.918 192.83 252.293C193.206 251.667 193.723 251.139 194.34 250.75Z" fill="#92E3A9"/>
<path opacity="0.1" d="M194.34 260.17L290.52 204.17C291.71 203.48 292.68 203.97 292.68 205.27C292.626 205.996 292.402 206.699 292.027 207.322C291.652 207.946 291.136 208.472 290.52 208.86L194.34 264.86C193.15 265.55 192.18 265.06 192.18 263.76C192.234 263.034 192.457 262.331 192.832 261.708C193.208 261.084 193.724 260.558 194.34 260.17Z" fill="#92E3A9"/>
<path opacity="0.1" d="M194.34 279L332.18 199.42C333.38 198.73 334.35 199.22 334.35 200.51C334.297 201.239 334.073 201.945 333.696 202.57C333.319 203.196 332.799 203.723 332.18 204.11L194.34 283.69C193.15 284.38 192.18 283.89 192.18 282.6C192.232 281.873 192.455 281.168 192.83 280.543C193.206 279.917 193.723 279.389 194.34 279Z" fill="#92E3A9"/>
<path opacity="0.1" d="M194.34 288.42L332.18 208.84C333.38 208.15 334.35 208.64 334.35 209.93C334.297 210.659 334.073 211.364 333.696 211.99C333.319 212.616 332.799 213.143 332.18 213.53L194.34 293.11C193.15 293.8 192.18 293.31 192.18 292.01C192.234 291.285 192.457 290.582 192.832 289.958C193.208 289.335 193.724 288.808 194.34 288.42Z" fill="#92E3A9"/>
<path opacity="0.1" d="M194.34 297.83L332.18 218.25C333.38 217.56 334.35 218.05 334.35 219.35C334.295 220.077 334.071 220.781 333.694 221.404C333.317 222.028 332.798 222.554 332.18 222.94L194.34 302.53C193.15 303.22 192.18 302.73 192.18 301.43C192.234 300.703 192.457 299.999 192.832 299.374C193.207 298.749 193.724 298.22 194.34 297.83Z" fill="#92E3A9"/>
<path opacity="0.1" d="M194.34 307.25L245 277.69C246.19 277 247.16 277.49 247.16 278.79C247.106 279.516 246.883 280.219 246.508 280.842C246.133 281.466 245.616 281.992 245 282.38L194.35 311.94C193.16 312.63 192.19 312.14 192.19 310.85C192.242 310.123 192.463 309.419 192.837 308.794C193.21 308.169 193.725 307.64 194.34 307.25Z" fill="#92E3A9"/>
<path d="M378.54 253.2C385.87 229.42 393 213.75 385.73 208.9C378.97 210.16 375.94 213.51 374.5 222.43C372.99 231.78 369.85 244.82 368.02 252.34C366.438 258.624 364.175 264.717 361.27 270.51C360.832 271.312 360.123 271.932 359.27 272.26C357.01 273.15 355.93 274.26 354.09 275.62C352.64 276.62 351.58 276.76 351.65 277.19C351.769 277.672 352.072 278.089 352.494 278.351C352.917 278.613 353.425 278.698 353.91 278.59C354.996 278.385 356.054 278.049 357.06 277.59C356.195 279.781 354.848 281.75 353.12 283.35C349.57 286.35 350.12 289.28 355.81 289.62C357.81 289.74 362.58 287.88 366.97 280.41C368.454 277.626 369.76 274.75 370.88 271.8C373.94 264.14 377.07 258 378.54 253.2Z" fill="#FFA8A7"/>
<path d="M387 208.62C387 208.62 381.36 208.33 377.94 212.1C374.52 215.87 370.54 238.39 370.54 238.39C370.54 238.39 374.28 243.53 384.14 241.39L387 208.62Z" fill="#92E3A9"/>
<path opacity="0.3" d="M387 208.62C387 208.62 381.36 208.33 377.94 212.1C374.52 215.87 370.54 238.39 370.54 238.39C370.54 238.39 374.28 243.53 384.14 241.39L387 208.62Z" fill="black"/>
<path d="M413.41 368.38H405.84V381.88H413.41V368.38Z" fill="#FFA8A7"/>
<path d="M387.16 367.66L379.59 367.94L379.21 353.65L387.16 353.38V367.66Z" fill="#FFA8A7"/>
<path d="M414.48 251.5C414.48 259.03 413.37 319.63 413.37 319.63C413.54 321.8 415.49 325.8 415.07 334.12C414.5 345.42 413.73 375.12 413.73 375.12C412.431 375.789 410.996 376.152 409.536 376.184C408.075 376.215 406.626 375.912 405.3 375.3C405.3 375.3 398.14 334.15 396.79 322.94C395.6 313.17 393.59 280.25 393.59 280.25L389.49 318.52C390.363 322.639 390.68 326.856 390.43 331.06C390.07 336.24 387.64 363.23 387.64 363.23C386.331 364.001 384.864 364.464 383.35 364.584C381.835 364.703 380.313 364.476 378.9 363.92C378.9 363.92 374.59 323.28 374.5 318.52C374.4 313.1 377.02 251.41 377.02 251.41L414.48 251.5Z" fill="#37474F"/>
<path d="M405.84 378V376.87C405.11 377.2 403.43 383.87 400.43 386.75C398.04 389.01 394.78 391.63 393.95 394.16C393.12 396.69 398.49 398.25 400.72 397.84C403.31 397.36 407.81 395.46 408.93 393.69C410.05 391.92 410.59 389.33 411.51 388.04C412.43 386.75 414.51 385.31 415.03 383.81C415.31 382.99 415.03 381.19 414.6 379.67C414.17 378.15 413.87 376.74 413.41 376.87V377.73C412.348 378.61 411.009 379.085 409.63 379.07C408.52 379.1 405.83 378.87 405.84 378Z" fill="#263238"/>
<path d="M379.51 365.5C379.12 365.5 378.8 366.09 377.93 367.07C376.645 368.425 375.14 369.554 373.48 370.41C370.64 371.89 365.13 374.16 362.63 375.33C361.08 376.06 361.15 378.02 362.76 379.14C364.37 380.26 368.26 381.06 372.93 379.97C375.47 379.38 378.79 376.97 380.88 377.06C382.97 377.15 386.88 377.17 388.45 376.06C390.02 374.95 389.38 372.58 388.94 370.54C388.46 368.32 387.87 364.85 387.16 365V365.77C386.25 367.2 381.55 367.77 379.55 366.77L379.51 365.5Z" fill="#263238"/>
<path d="M393.59 280.26C389.65 278.973 386.049 276.821 383.05 273.96C383.05 273.96 385.05 277.96 391.13 281.62L389.84 315.8L393.59 280.26Z" fill="#263238"/>
<path d="M410.54 210.42C410.54 210.42 416.46 210.97 416.04 222.25L414.73 240.25V267.25C409.16 273.56 384.48 273.09 376.03 266.74C376.03 266.74 376.98 234.81 377.55 222.52C377.96 213.79 379.97 209.39 388.55 208.43L399.1 208.89L410.54 210.42Z" fill="#92E3A9"/>
<path opacity="0.3" d="M393.709 216.34L392.349 225.82L389.189 225.76L392.759 226.33L393.709 216.34Z" fill="black"/>
<path d="M401.61 185C401.671 188.052 400.519 191.004 398.406 193.207C396.293 195.41 393.392 196.684 390.34 196.75C384.11 196.75 379.34 191.48 379.06 185.01C378.57 173.54 384.11 173.26 390.34 173.26C393.39 173.325 396.289 174.598 398.402 176.799C400.515 179 401.668 181.949 401.61 185Z" fill="#263238"/>
<path d="M408 190.81C408 190.81 406.27 199.27 405.58 200.66C405.134 201.508 404.372 202.147 403.46 202.44L403.58 196.49L408 190.81Z" fill="#263238"/>
<path d="M405.86 178.69C405.86 178.69 407.1 178.38 408.42 180.44C409.55 182.2 409.81 186.16 408.03 190.81L404.78 191.2L405.86 178.69Z" fill="#263238"/>
<path d="M403.799 191.2C404.449 191.61 405.379 190.3 406.189 189.42C406.999 188.54 409.619 187.35 410.939 190.22C412.259 193.09 409.779 197.03 407.709 197.71C404.139 198.88 403.609 196.49 403.609 196.49L403.329 209.89C398.599 217.22 387.869 216.95 391.729 209.54V205.46C390.141 205.724 388.527 205.811 386.919 205.72C384.299 205.29 382.649 203.14 381.849 200.18C380.569 195.43 380.089 191.6 381.169 182.25C382.369 172 393.809 171.91 399.999 176C406.189 180.09 403.799 191.2 403.799 191.2Z" fill="#FFA8A7"/>
<path d="M403.389 206.89C402.289 209.142 400.709 211.125 398.759 212.7C397.103 213.924 395.181 214.739 393.149 215.08C394.825 216.215 396.198 217.743 397.149 219.53C398.339 222.13 406.669 214.96 406.589 209.87C406.589 209.87 405.289 204.76 403.489 204.44L403.389 206.89Z" fill="#263238"/>
<path d="M393.15 215.08C393.15 215.08 390.58 213.81 391.73 209.54V205.46L390.6 205.61C389.283 206.893 388.349 208.517 387.9 210.3C387.64 211.47 387 217.39 388.13 218.56C389.26 219.73 390.84 215.4 393.15 215.08Z" fill="#263238"/>
<path d="M399.42 180C399.712 179.936 400.016 179.953 400.3 180.05C401.3 180.49 401.48 183.51 401.65 184.38C402.22 187.31 402.7 192.28 403.8 192.3C404.13 192.3 405.38 190.15 406.19 189.38C407.32 188.31 405.86 178.65 405.86 178.65C406.158 177.816 406.215 176.914 406.023 176.05C405.832 175.185 405.401 174.391 404.78 173.76C402.78 171.44 399.56 170.92 396.65 170.76C393.22 170.57 389.74 170.83 386.36 170.08C385.298 169.785 384.219 169.555 383.13 169.39C383.084 169.37 383.035 169.36 382.985 169.36C382.935 169.36 382.886 169.37 382.84 169.39C382.73 169.48 382.75 169.65 382.78 169.79C382.992 170.803 383.349 171.779 383.84 172.69C381.828 172.531 379.841 172.138 377.92 171.52C377.809 171.485 377.69 171.485 377.58 171.52C377.35 171.59 377.31 171.89 377.33 172.13C377.46 174.55 378.61 178.21 380.58 179.63C382.326 180.773 384.354 181.413 386.44 181.48C391.74 181.68 395 180.56 399.42 180Z" fill="#263238"/>
<path d="M405.86 179.2L409.81 176.99C409.689 176.718 409.513 176.474 409.293 176.274C409.072 176.074 408.813 175.922 408.53 175.828C408.248 175.733 407.949 175.699 407.653 175.727C407.357 175.755 407.069 175.845 406.81 175.99C406.284 176.314 405.897 176.821 405.721 177.413C405.546 178.005 405.595 178.641 405.86 179.2Z" fill="#263238"/>
<path d="M391.74 205.46C391.74 205.46 397.59 204.23 399.64 203.1C400.855 202.432 401.841 201.414 402.47 200.18C402.165 201.421 401.618 202.59 400.86 203.62C399.37 205.62 391.74 207.08 391.74 207.08V205.46Z" fill="#F28F8F"/>
<path d="M393.15 189.68C393.171 189.905 393.257 190.12 393.398 190.297C393.539 190.475 393.728 190.607 393.943 190.679C394.158 190.751 394.389 190.759 394.608 190.702C394.827 190.646 395.025 190.526 395.178 190.359C395.331 190.192 395.432 189.984 395.469 189.761C395.506 189.537 395.477 189.308 395.386 189.1C395.295 188.893 395.146 188.716 394.957 188.592C394.767 188.468 394.546 188.401 394.32 188.4C394.158 188.405 393.999 188.442 393.852 188.51C393.705 188.577 393.573 188.674 393.464 188.793C393.355 188.912 393.271 189.052 393.217 189.205C393.163 189.357 393.14 189.519 393.15 189.68Z" fill="#263238"/>
<path d="M395 184.62L397.51 186.06C397.691 185.713 397.74 185.312 397.646 184.933C397.552 184.553 397.322 184.221 397 184C396.832 183.892 396.643 183.823 396.445 183.796C396.247 183.769 396.046 183.786 395.856 183.845C395.666 183.904 395.49 184.004 395.342 184.138C395.195 184.272 395.078 184.436 395 184.62Z" fill="#263238"/>
<path d="M392.27 198.12L389.59 199.12C389.643 199.304 389.733 199.475 389.855 199.623C389.977 199.771 390.128 199.892 390.298 199.979C390.469 200.066 390.656 200.118 390.847 200.13C391.038 200.142 391.23 200.115 391.41 200.05C391.766 199.891 392.051 199.606 392.21 199.25C392.369 198.893 392.39 198.491 392.27 198.12Z" fill="#F28F8F"/>
<path d="M382.38 185.69L384.67 183.85C384.567 183.689 384.431 183.551 384.27 183.447C384.11 183.342 383.929 183.273 383.74 183.244C383.551 183.215 383.358 183.226 383.173 183.277C382.989 183.328 382.817 183.418 382.67 183.54C382.365 183.799 382.166 184.162 382.112 184.559C382.059 184.956 382.154 185.359 382.38 185.69Z" fill="#263238"/>
<path d="M383.39 189.33C383.383 189.49 383.408 189.649 383.463 189.799C383.519 189.949 383.603 190.087 383.712 190.204C383.821 190.321 383.952 190.415 384.097 190.482C384.243 190.548 384.4 190.585 384.56 190.59C384.897 190.59 385.22 190.456 385.458 190.218C385.696 189.98 385.83 189.657 385.83 189.32C385.83 188.983 385.696 188.66 385.458 188.422C385.22 188.184 384.897 188.05 384.56 188.05C384.236 188.068 383.932 188.212 383.714 188.451C383.495 188.691 383.379 189.006 383.39 189.33Z" fill="#263238"/>
<path d="M389.67 188.35L389.53 195.76L385.32 194.79L389.67 188.35Z" fill="#F28F8F"/>
<path d="M422.06 195.8C423.75 193.56 427.17 198.53 428.75 201.96C430.33 205.39 430.36 207.33 429.06 208.69C427.76 210.05 425.31 209.23 422.86 205.98C420.41 202.73 421.09 197.45 422.06 195.8Z" fill="#92E3A9"/>
<path opacity="0.5" d="M422.06 195.8C423.75 193.56 427.17 198.53 428.75 201.96C430.33 205.39 430.36 207.33 429.06 208.69C427.76 210.05 425.31 209.23 422.86 205.98C420.41 202.73 421.09 197.45 422.06 195.8Z" fill="black"/>
<path d="M434 196.46C428 210.46 419.65 218.35 415.9 227.36C410.99 227.03 407.16 215.16 410.82 210.09C410.82 210.09 425.2 194.52 426.5 188.4C427.66 182.97 429.21 174.01 429.08 169.4C429.028 168.649 428.713 167.941 428.19 167.4C426.68 165.77 426.68 164.47 425.71 162.68C424.96 161.28 424.13 160.76 424.37 160.44C424.681 160.107 425.106 159.904 425.56 159.871C426.014 159.837 426.464 159.976 426.82 160.26C427.514 160.767 428.136 161.366 428.67 162.04C428.855 160.242 428.561 158.428 427.82 156.78C426.15 153 426.56 151.08 431.65 152.42C434.85 153.27 436.85 155.93 437.33 163.6C437.552 166.792 437.572 169.995 437.39 173.19C436.83 179.1 436.48 185.26 435.75 190.19C435.435 192.346 434.847 194.452 434 196.46Z" fill="#FFA8A7"/>
<path d="M409.319 210.26L421.999 195.76C421.999 195.76 420.489 199.29 423.789 204.44C427.089 209.59 429.049 208.69 429.049 208.69C429.049 208.69 421.559 219.62 419.559 223.28C417.559 226.94 415.469 230.03 415.469 230.03C415.248 230.457 414.904 230.808 414.482 231.038C414.06 231.267 413.578 231.366 413.099 231.32C411.239 231.32 406.309 223.06 409.319 210.26Z" fill="#92E3A9"/>
<path opacity="0.3" d="M409.319 210.26L421.999 195.76C421.999 195.76 420.489 199.29 423.789 204.44C427.089 209.59 429.049 208.69 429.049 208.69C429.049 208.69 421.559 219.62 419.559 223.28C417.559 226.94 415.469 230.03 415.469 230.03C415.248 230.457 414.904 230.808 414.482 231.038C414.06 231.267 413.578 231.366 413.099 231.32C411.239 231.32 406.309 223.06 409.319 210.26Z" fill="black"/>
<path d="M306.42 242.85L312.39 250.8L305.97 258.15L297.7 248.48L306.42 242.85Z" fill="#F28F8F"/>
<path d="M286.87 224.77C292.08 225.01 294.56 225.77 297.29 229.03C300.02 232.29 313.66 252 313.66 252C313.66 252 311.25 258.76 305.97 258.18L296.38 248.29L286.87 224.77Z" fill="#455A64"/>
<path d="M261.31 389.89C260.94 391.964 260.739 394.064 260.71 396.17C260.64 399.97 259.94 401.33 259.85 404.45C259.74 408.02 260.36 409.36 261.85 411.36C263.34 413.36 267.1 415.19 268.71 411.8C270.32 408.41 270.11 406.19 269.59 402.68C269.07 399.17 268.99 397.06 268.69 394.3C268.41 391.86 268.09 390.01 268.09 390.01L261.31 389.89Z" fill="#263238"/>
<path d="M272.12 360L259.57 359.77C259.76 368.15 261.09 382.09 261.31 389.94C261.31 391.42 261.31 401.43 261.83 404.48C262.67 409.05 268.09 408.43 268.38 405.7C268.67 402.97 268.03 391.27 268.05 390.06C268 385.06 270.36 371.88 271.6 362.83C271.66 362.34 272.06 360.38 272.12 360Z" fill="#FFBDA7"/>
<path d="M290.551 383.38C290.551 383.38 289.911 383.38 289.801 383.94C289.691 384.5 289.651 385.56 289.391 386.6C288.964 388.23 288.816 389.92 288.951 391.6C289.161 392.77 291.831 394.51 293.661 394.82C295.491 395.13 298.061 396.93 299.491 398.28C301.787 400.175 304.628 401.289 307.601 401.46C310.601 401.46 312.771 400.46 313.771 398.82C314.771 397.18 312.861 396.99 309.381 394.73L306.671 392.97C301.161 389.37 299.141 387.44 297.581 383.84L290.551 383.38Z" fill="#263238"/>
<path d="M297.621 381.42C297.531 378.82 298.851 359.72 298.851 359.72L288.061 360.94C290.621 376.16 290.821 381.35 290.531 383.57C290.476 383.775 290.453 383.987 290.461 384.2C290.461 387.2 293.811 388.76 296.461 390.73C297.461 391.51 300.131 393.91 303.231 394.96C305.231 395.65 308.941 395.96 309.411 394.69C306.251 392.27 301.931 389.11 299.411 386.34C298.171 385 297.711 384 297.621 381.42Z" fill="#FFBDA7"/>
<path d="M262.481 273.36C256.601 286.22 262.701 331.5 262.701 331.5C262.521 333.59 260.131 337.69 259.251 346.88C258.201 357.72 261.18 386.77 261.18 386.77C262.231 387.407 263.432 387.757 264.66 387.783C265.889 387.809 267.103 387.512 268.18 386.92C268.18 386.92 275.77 344.24 277.18 333.46C278.37 324.04 280.65 303.34 280.65 303.34L287.131 333.4C286.18 336.436 285.491 339.547 285.071 342.7C284.461 349.04 290.641 380.89 290.641 380.89C291.754 381.35 292.951 381.575 294.155 381.551C295.36 381.527 296.546 381.254 297.641 380.75C297.641 380.75 300.371 339.61 300.951 331.97C301.951 319.13 298.5 279.08 296.15 271.48L262.481 273.36Z" fill="#92E3A9"/>
<path opacity="0.5" d="M262.481 273.36C256.601 286.22 262.701 331.5 262.701 331.5C262.521 333.59 260.131 337.69 259.251 346.88C258.201 357.72 261.18 386.77 261.18 386.77C262.231 387.407 263.432 387.757 264.66 387.783C265.889 387.809 267.103 387.512 268.18 386.92C268.18 386.92 275.77 344.24 277.18 333.46C278.37 324.04 280.65 303.34 280.65 303.34L287.131 333.4C286.18 336.436 285.491 339.547 285.071 342.7C284.461 349.04 290.641 380.89 290.641 380.89C291.754 381.35 292.951 381.575 294.155 381.551C295.36 381.527 296.546 381.254 297.641 380.75C297.641 380.75 300.371 339.61 300.951 331.97C301.951 319.13 298.5 279.08 296.15 271.48L262.481 273.36Z" fill="black"/>
<path opacity="0.2" d="M280.631 303.34L282.541 291.4C282.541 291.4 290.621 289.73 294.291 286.28C291.76 289.248 288.448 291.448 284.731 292.63L282.581 301.83L286.341 329.66L280.631 303.34Z" fill="black"/>
<path d="M265.5 233.43L273.5 235.51V218.58C269.08 217.43 265.5 219.98 265.5 224.28V233.43Z" fill="#92E3A9"/>
<path opacity="0.6" d="M265.5 233.43L273.5 235.51V218.58C269.08 217.43 265.5 219.98 265.5 224.28V233.43Z" fill="black"/>
<path d="M281.341 221L278.471 220.94C269.711 220.73 262.771 213.18 262.961 204.06C262.961 194.12 270.661 186.06 280.201 185.97C289.741 185.92 297.521 193.97 297.571 203.87V204.87C297.331 214 290.081 221.19 281.341 221Z" fill="#92E3A9"/>
<path opacity="0.6" d="M281.341 221L278.471 220.94C269.711 220.73 262.771 213.18 262.961 204.06C262.961 194.12 270.661 186.06 280.201 185.97C289.741 185.92 297.521 193.97 297.571 203.87V204.87C297.331 214 290.081 221.19 281.341 221Z" fill="black"/>
<path d="M267.931 190.12C267.861 189.83 267.732 189.557 267.552 189.319C267.372 189.081 267.145 188.883 266.886 188.736C266.626 188.59 266.338 188.499 266.041 188.468C265.745 188.438 265.445 188.469 265.161 188.56L265.931 191.56C265.771 191.357 265.574 191.188 265.351 191.06C265.091 190.913 264.804 190.822 264.507 190.794C264.21 190.765 263.911 190.799 263.628 190.893C263.346 190.987 263.086 191.14 262.866 191.341C262.646 191.542 262.47 191.787 262.351 192.06L266.251 194.35C266.454 193.959 266.544 193.519 266.511 193.08C267.069 192.846 267.522 192.416 267.784 191.87C268.045 191.324 268.098 190.702 267.931 190.12Z" fill="#92E3A9"/>
<path opacity="0.6" d="M267.931 190.12C267.861 189.83 267.732 189.557 267.552 189.319C267.372 189.081 267.145 188.883 266.886 188.736C266.626 188.59 266.338 188.499 266.041 188.468C265.745 188.438 265.445 188.469 265.161 188.56L265.931 191.56C265.771 191.357 265.574 191.188 265.351 191.06C265.091 190.913 264.804 190.822 264.507 190.794C264.21 190.765 263.911 190.799 263.628 190.893C263.346 190.987 263.086 191.14 262.866 191.341C262.646 191.542 262.47 191.787 262.351 192.06L266.251 194.35C266.454 193.959 266.544 193.519 266.511 193.08C267.069 192.846 267.522 192.416 267.784 191.87C268.045 191.324 268.098 190.702 267.931 190.12Z" fill="black"/>
<path d="M272.661 225.46C269.968 225.825 267.297 226.339 264.661 227C267.761 234.6 262.901 246.34 262.901 246.34L267.491 260.47C264.321 266.96 261.711 270.18 260.631 275.47C263.551 281.17 284.161 286.61 297.581 276.22C297.581 276.22 297.151 261.79 295.441 253.38C299.831 244.81 299.121 242.29 298.221 239.3C296.131 232.35 291.911 229.68 286.881 224.78L283.881 224.46L272.661 225.46Z" fill="#37474F"/>
<path d="M268 266.13C270.49 263.58 275.77 262.85 275.77 262.85L270.92 260.09L265.5 247C267.775 242.544 268.899 237.591 268.77 232.59L265.65 231.84C266.03 238.77 262.89 246.35 262.89 246.35L267.48 260.48C264.31 266.97 261.7 270.19 260.62 275.48C262.62 279.38 272.91 283.16 283.51 281.82C269.31 280.86 265.61 268.6 268 266.13Z" fill="#263238"/>
<path d="M282.351 281.93L282.931 281.87C282.736 281.874 282.542 281.894 282.351 281.93Z" fill="#E6E6E6"/>
<path d="M291.13 194.83C292.85 196.41 295 199.83 294.83 209.83C294.68 218.33 292.05 220.44 290.72 221.05C289.39 221.66 286.84 221.31 284.35 220.89V224.41C284.35 224.41 287.63 228.05 287.43 230.41C287.23 232.77 282.75 233.72 279.52 231.41C277.245 229.687 275.224 227.65 273.52 225.36V214.67C273.52 214.67 272.06 216.16 269.52 213.92C267.52 212.06 266.76 208.92 268.35 207.22C268.758 206.818 269.259 206.521 269.809 206.358C270.358 206.194 270.939 206.168 271.501 206.282C272.063 206.395 272.588 206.645 273.031 207.009C273.474 207.373 273.82 207.841 274.04 208.37C277.851 207.972 281.562 206.902 285 205.21C286.934 204.28 288.548 202.797 289.639 200.95C290.73 199.102 291.249 196.973 291.13 194.83Z" fill="#FFBDA7"/>
<path d="M284.341 207.92C284.34 208.114 284.283 208.304 284.176 208.467C284.07 208.629 283.918 208.756 283.74 208.834C283.562 208.911 283.365 208.935 283.173 208.903C282.982 208.87 282.804 208.783 282.661 208.651C282.519 208.519 282.418 208.348 282.371 208.16C282.324 207.971 282.332 207.773 282.396 207.59C282.459 207.406 282.575 207.245 282.729 207.126C282.882 207.007 283.067 206.936 283.261 206.92C283.535 206.915 283.801 207.016 284.003 207.202C284.204 207.389 284.325 207.646 284.341 207.92Z" fill="#263238"/>
<path d="M284.73 215L287.4 215.87C287.358 216.052 287.278 216.224 287.167 216.374C287.055 216.525 286.914 216.651 286.752 216.745C286.59 216.838 286.41 216.898 286.224 216.919C286.038 216.941 285.85 216.924 285.67 216.87C285.307 216.734 285.008 216.466 284.834 216.119C284.66 215.773 284.623 215.373 284.73 215Z" fill="#F79776"/>
<path d="M294 204.09L291.57 203.26C291.609 203.098 291.681 202.946 291.782 202.813C291.882 202.68 292.01 202.57 292.156 202.49C292.302 202.41 292.464 202.362 292.63 202.348C292.796 202.334 292.963 202.355 293.12 202.41C293.448 202.532 293.719 202.772 293.882 203.082C294.044 203.392 294.086 203.751 294 204.09Z" fill="#263238"/>
<path d="M274.051 207.42V211.01C274.281 211.02 274.511 210.982 274.726 210.899C274.941 210.817 275.137 210.691 275.302 210.53C275.467 210.369 275.597 210.176 275.685 209.963C275.772 209.749 275.815 209.52 275.811 209.29C275.814 208.812 275.633 208.351 275.305 208.002C274.978 207.654 274.528 207.446 274.051 207.42Z" fill="#92E3A9"/>
<path opacity="0.6" d="M274.051 207.42V211.01C274.281 211.02 274.511 210.982 274.726 210.899C274.941 210.817 275.137 210.691 275.302 210.53C275.467 210.369 275.597 210.176 275.685 209.963C275.772 209.749 275.815 209.52 275.811 209.29C275.814 208.812 275.633 208.351 275.305 208.002C274.978 207.654 274.528 207.446 274.051 207.42Z" fill="black"/>
<path d="M293.12 207.57C293.143 207.858 293.05 208.142 292.862 208.362C292.675 208.581 292.408 208.717 292.12 208.74C291.9 208.762 291.678 208.717 291.484 208.611C291.289 208.506 291.13 208.345 291.028 208.149C290.926 207.952 290.884 207.73 290.909 207.51C290.934 207.29 291.025 207.082 291.169 206.914C291.312 206.746 291.503 206.624 291.717 206.566C291.93 206.507 292.156 206.513 292.366 206.583C292.576 206.654 292.76 206.785 292.894 206.961C293.029 207.137 293.107 207.349 293.12 207.57Z" fill="#263238"/>
<path d="M287.42 206.12L287.4 213.08L290.64 212.01L287.42 206.12Z" fill="#F79776"/>
<path d="M284.35 220.93C281.72 220.59 276.35 219 275.46 216.78C275.798 217.893 276.464 218.879 277.37 219.61C278.99 221.04 284.37 222.61 284.37 222.61L284.35 220.93Z" fill="#F79776"/>
<path d="M252.35 261C252.35 261 258.77 270.12 259.87 271.31C260.97 272.5 261.73 272.1 262.92 271.57C264.372 270.984 265.862 270.499 267.38 270.12C269.38 269.63 269.76 271.44 267.82 272.73C266.42 273.67 264.82 274.07 265.48 274.84C266.849 276.079 268.436 277.052 270.16 277.71C274.9 279.58 274.53 280.52 273.66 282.05C272.9 283.39 270.66 286.27 262.22 282.87C258.72 281.46 253.8 277.47 251.48 274.87C248.13 271.16 242.9 264.51 242.9 264.51L252.35 261Z" fill="#FFBDA7"/>
<path d="M265.89 226.67C263.57 226.82 259.2 227.38 253.72 236.48C248.91 244.48 241.46 255.29 240.08 259.16C239.52 260.73 241.7 263.98 244.51 267.31C248.34 267.14 251.83 264.49 253.64 262.37C253.166 261.242 252.576 260.167 251.88 259.16L263.12 246.34C263.12 246.34 267.39 242.43 268.28 237.34C269.24 231.82 268.94 227.48 265.89 226.67Z" fill="#455A64"/>
<path d="M328.82 243.93L301.11 251.23L293.48 282.58L319.83 274.93L328.82 243.93Z" fill="#92E3A9"/>
<path opacity="0.25" d="M328.82 243.93L301.11 251.23L293.48 282.58L319.83 274.93L328.82 243.93Z" fill="black"/>
<g opacity="0.1">
<path opacity="0.1" d="M316.301 266.13C316.765 267.098 317.503 267.908 318.424 268.459C319.346 269.01 320.408 269.278 321.481 269.23L321.681 268.54L316.301 266.13Z" fill="black"/>
</g>
<g opacity="0.1">
<path opacity="0.1" d="M320.471 248.91L320.701 247.85C320.831 247.27 319.201 247.24 317.071 247.85L312.981 248.85C310.851 249.41 308.981 250.33 308.891 250.91L308.671 251.97L320.471 248.91Z" fill="black"/>
</g>
<path d="M322.601 244.94C322.681 244.57 322.021 244.47 321.131 244.72L319.511 245.17C319.511 245.17 319.991 242.88 316.411 243.68C315.45 243.821 314.542 244.209 313.774 244.804C313.007 245.4 312.406 246.184 312.031 247.08L310.311 247.57C309.311 247.84 308.491 248.35 308.381 248.71L308.171 249.37L322.451 245.61L322.601 244.94Z" fill="#37474F"/>
<path d="M320.63 246.06C319.33 246.38 318.78 246.55 318.63 247.45C318.48 248.35 318.31 249.23 318.31 249.23L312 250.9C312 250.9 312.31 249.6 312.41 249.1C312.51 248.6 312.29 248.28 311.28 248.55L311.2 248.15L321.1 245.62L320.63 246.06Z" fill="#37474F"/>
<path d="M320.851 249L321.081 247.94C321.211 247.36 319.581 247.33 317.451 247.94L313.361 248.94C311.231 249.5 309.361 250.42 309.271 251L309.051 252.06L320.851 249Z" fill="#37474F"/>
<path d="M325.9 254C325.9 254 324.9 257.55 324.63 258.39C324.36 259.23 321.28 260.76 319.25 261.32C317.22 261.88 314.98 262.54 315.95 265.39C316.83 268.02 320.19 268.62 321.89 268.54C323.59 268.46 325.94 266.84 326.89 264.21C328.06 260.85 327.43 257.27 327.89 255.31C328.35 253.35 326.92 252.83 325.9 254Z" fill="#FFBDA7"/>
<path d="M220.931 254.83C217.131 251 215.771 252.49 215.291 256.69C215.113 258.451 214.685 260.178 214.021 261.82C213.902 260.947 213.664 260.096 213.311 259.29C213.144 258.853 212.818 258.497 212.399 258.291C211.979 258.085 211.498 258.045 211.051 258.18C210.681 258.33 211.141 259.18 211.051 260.85C210.981 262.93 210.301 264.08 210.791 266.29C210.961 267.121 210.83 267.986 210.421 268.73C208.421 272.53 201.831 279.55 197.211 284.61L179.661 268.76C173.661 263.36 171.721 260.93 165.931 261.32C167.742 262.007 169.41 263.024 170.851 264.32C173.541 266.59 172.901 279.58 172.901 279.58C172.901 279.58 192.821 293.86 194.901 295.22C195.201 295.42 195.511 295.6 195.811 295.77C196.794 296.282 197.922 296.447 199.011 296.239C200.1 296.03 201.087 295.459 201.811 294.62C206.061 289.76 212.261 280.19 215.811 275.22C217.434 272.814 218.881 270.294 220.141 267.68C223.701 260.61 223.311 257.23 220.931 254.83Z" fill="#914F4E"/>
<path d="M166.551 261C167.95 260.745 169.387 260.792 170.767 261.137C172.146 261.482 173.436 262.117 174.551 263C177.971 265.6 192.551 279 192.551 279C192.551 279 192.951 286.09 185.551 290.31L167.681 277.71L166.551 261Z" fill="#92E3A9"/>
<path opacity="0.3" d="M166.551 261C167.95 260.745 169.387 260.792 170.767 261.137C172.146 261.482 173.436 262.117 174.551 263C177.971 265.6 192.551 279 192.551 279C192.551 279 192.951 286.09 185.551 290.31L167.681 277.71L166.551 261Z" fill="black"/>
<path d="M149.3 420.96H141.73V434.46H149.3V420.96Z" fill="#914F4E"/>
<path d="M167.98 420.24L175.55 420.51L175.93 406.22L167.98 405.95V420.24Z" fill="#914F4E"/>
<path d="M140.661 304.07C140.661 311.6 141.771 372.21 141.771 372.21C141.601 374.37 139.651 378.37 140.071 386.69C140.641 398 141.411 427.69 141.411 427.69C142.711 428.356 144.146 428.717 145.606 428.746C147.067 428.776 148.515 428.473 149.841 427.86C149.841 427.86 157.001 386.71 158.361 375.51C159.541 365.73 161.551 332.81 161.551 332.81L165.651 371.09C164.777 375.205 164.461 379.42 164.711 383.62C165.071 388.8 167.501 415.79 167.501 415.79C168.81 416.564 170.279 417.03 171.795 417.151C173.311 417.272 174.835 417.046 176.251 416.49C176.251 416.49 180.551 375.84 180.641 371.09C180.741 365.67 178.121 303.97 178.121 303.97L140.661 304.07Z" fill="#37474F"/>
<path d="M149.3 430.56V429.44C150.03 429.77 151.71 436.44 154.71 439.31C157.1 441.58 160.36 444.2 161.19 446.73C162.02 449.26 156.65 450.81 154.42 450.4C151.83 449.92 147.33 448.02 146.21 446.26C145.09 444.5 144.55 441.89 143.63 440.6C142.71 439.31 140.63 437.87 140.11 436.37C139.961 434.975 140.108 433.564 140.54 432.23C140.89 430.84 141.27 429.31 141.73 429.44V430.3C142.798 431.174 144.14 431.645 145.52 431.63C146.62 431.67 149.31 431.44 149.3 430.56Z" fill="#263238"/>
<path d="M175.63 418.08C176.02 418.08 176.34 418.67 177.21 419.65C178.496 421.002 180 422.128 181.66 422.98C184.5 424.46 190.01 426.74 192.51 427.91C194.07 428.64 193.99 430.6 192.38 431.71C190.77 432.82 186.88 433.63 182.21 432.55C179.67 431.95 176.35 429.55 174.21 429.64C172.07 429.73 168.21 429.74 166.64 428.64C165.07 427.54 165.71 425.15 166.15 423.12C166.63 420.89 167.23 417.42 167.93 417.57V418.34C168.84 419.78 173.54 420.34 175.54 419.34L175.63 418.08Z" fill="#263238"/>
<path d="M161.551 332.83C165.49 331.543 169.092 329.391 172.091 326.53C172.091 326.53 170.091 330.53 164.011 334.19L165.301 368.38L161.551 332.83Z" fill="#263238"/>
<path d="M144.6 263C144.6 263 138.68 263.54 139.1 274.83L140.41 292.83L140.29 319.83C145.85 326.14 170.54 325.68 178.99 319.32C178.99 319.32 178.12 287.39 177.55 275.1C177.14 266.37 175.13 261.97 166.55 261.01L155.99 261.47L144.6 263Z" fill="#92E3A9"/>
<path opacity="0.3" d="M161.431 268.92L162.791 278.4L165.961 278.34L162.381 278.9L161.431 268.92Z" fill="black"/>
<path d="M125.81 301.76C128.88 277.06 135.95 264.76 144.56 263.34L143.95 279.14C140.365 287.566 137.619 296.325 135.75 305.29C134.62 311.37 133.31 321.94 133.65 327.13C133.718 328.044 134.108 328.905 134.75 329.56C136.45 331.29 136.96 332.79 138.1 334.74C139 336.27 139.92 336.81 139.68 337.18C139.371 337.569 138.922 337.822 138.429 337.885C137.937 337.949 137.438 337.818 137.04 337.52C136.138 336.88 135.313 336.139 134.58 335.31C134.471 337.664 134.895 340.013 135.82 342.18C137.82 346.34 137.5 348.53 131.92 347.3C128.42 346.54 125.92 342.85 124.92 334.24C124.657 331.027 124.601 327.8 124.75 324.58C125.13 316.35 125.2 306.7 125.81 301.76Z" fill="#914F4E"/>
<path d="M145.05 262.93C140.58 262.93 136.5 263.7 133.25 269.93C130.14 275.93 127.75 288.62 126.54 292.77C126.54 292.77 133.07 296.63 139.08 296.53L143.31 281.85C143.31 281.85 146.17 275 145.05 262.93Z" fill="#92E3A9"/>
<path opacity="0.3" d="M145.05 262.93C140.58 262.93 136.5 263.7 133.25 269.93C130.14 275.93 127.75 288.62 126.54 292.77C126.54 292.77 133.07 296.63 139.08 296.53L143.31 281.85C143.31 281.85 146.17 275 145.05 262.93Z" fill="black"/>
<path d="M154.28 237.51C154.371 239.72 155.108 241.854 156.402 243.648C157.695 245.441 159.487 246.815 161.555 247.599C163.623 248.382 165.876 248.54 168.033 248.054C170.19 247.567 172.157 246.457 173.688 244.862C175.22 243.266 176.249 241.256 176.647 239.081C177.045 236.905 176.795 234.661 175.928 232.627C175.061 230.593 173.615 228.858 171.77 227.639C169.925 226.42 167.762 225.77 165.55 225.77C162.5 225.836 159.601 227.109 157.488 229.31C155.375 231.51 154.222 234.46 154.28 237.51Z" fill="#263238"/>
<path d="M147.11 243.38C147.11 243.38 148.84 251.84 149.53 253.23C149.98 254.081 150.745 254.723 151.66 255.02L151.53 249.02L147.11 243.38Z" fill="#263238"/>
<path d="M149.28 231.26C149.28 231.26 148 231 146.72 233C145.59 234.76 145.34 238.72 147.11 243.37L150.36 243.76L149.28 231.26Z" fill="#263238"/>
<path d="M151.341 243.77C150.691 244.18 149.761 242.87 148.951 242C148.141 241.13 145.521 239.92 144.211 242.8C142.901 245.68 145.361 249.61 147.431 250.28C151.001 251.45 151.531 249.06 151.531 249.06L151.811 262.47C156.541 269.79 167.271 269.53 163.411 262.11V258C165 258.264 166.613 258.351 168.221 258.26C170.841 257.84 172.491 255.68 173.291 252.72C174.571 247.97 175.051 244.14 173.971 234.8C172.781 224.56 161.351 224.45 155.171 228.5C148.991 232.55 151.341 243.77 151.341 243.77Z" fill="#914F4E"/>
<path d="M151.75 259.46C152.851 261.711 154.431 263.695 156.38 265.27C158.039 266.492 159.96 267.311 161.99 267.66C160.317 268.793 158.944 270.317 157.99 272.1C156.81 274.71 148.47 267.54 148.55 262.45C148.55 262.45 149.86 257.34 151.65 257.01L151.75 259.46Z" fill="#263238"/>
<path d="M162 267.66C162 267.66 164.57 266.38 163.42 262.11V258L164.55 258.15C165.867 259.433 166.802 261.057 167.25 262.84C167.51 264.01 168.15 269.93 167.02 271.1C165.89 272.27 164.3 268 162 267.66Z" fill="#263238"/>
<path d="M151.34 244.92C151.01 244.92 149.76 242.77 148.95 242C147.82 240.93 149.28 231.26 149.28 231.26C148.986 230.425 148.931 229.525 149.122 228.661C149.313 227.796 149.742 227.003 150.36 226.37C151.91 224.6 154.49 224.37 158.89 223.69C160.647 223.474 162.39 223.157 164.11 222.74C165.927 222.06 167.675 221.21 169.33 220.2C169.851 219.862 170.475 219.72 171.09 219.8C171.374 219.895 171.628 220.064 171.827 220.289C172.025 220.513 172.161 220.786 172.22 221.08C172.321 221.666 172.321 222.264 172.22 222.85C172.777 222.332 173.515 222.057 174.274 222.083C175.034 222.109 175.751 222.435 176.27 222.99C176.762 223.575 177.081 224.284 177.194 225.04C177.307 225.795 177.209 226.567 176.91 227.27C176.271 228.669 175.226 229.843 173.91 230.64C168.38 234.38 161.85 233.34 155.65 232.64C155.357 232.574 155.052 232.595 154.77 232.7C153.77 233.14 153.59 236.15 153.42 237.02C152.92 239.92 152.44 244.9 151.34 244.92Z" fill="#263238"/>
<path d="M149.281 231.77L145.341 229.56C145.46 229.287 145.636 229.042 145.856 228.841C146.076 228.64 146.336 228.487 146.619 228.393C146.901 228.299 147.201 228.265 147.497 228.294C147.794 228.322 148.081 228.413 148.341 228.56C148.865 228.886 149.25 229.393 149.423 229.985C149.597 230.577 149.546 231.213 149.281 231.77Z" fill="#263238"/>
<path d="M163.401 258C163.401 258 157.551 256.77 155.501 255.64C154.284 254.975 153.297 253.957 152.671 252.72C152.976 253.961 153.523 255.13 154.281 256.16C155.771 258.16 163.401 259.63 163.401 259.63V258Z" fill="#783736"/>
<path d="M161.28 241.9C161.287 242.06 161.262 242.22 161.207 242.371C161.152 242.521 161.067 242.659 160.959 242.777C160.85 242.895 160.719 242.991 160.573 243.058C160.428 243.125 160.27 243.163 160.11 243.17C159.787 243.152 159.483 243.008 159.264 242.768C159.046 242.529 158.929 242.214 158.94 241.89C158.94 241.579 159.063 241.282 159.283 241.062C159.502 240.843 159.8 240.72 160.11 240.72C160.42 240.72 160.718 240.843 160.937 241.062C161.157 241.282 161.28 241.579 161.28 241.89V241.9Z" fill="#263238"/>
<path d="M159.27 236.82L156.76 238.26C156.58 237.903 156.539 237.492 156.647 237.107C156.754 236.722 157.002 236.391 157.34 236.18C157.508 236.087 157.692 236.029 157.882 236.011C158.073 235.994 158.265 236.015 158.446 236.076C158.628 236.136 158.795 236.233 158.936 236.361C159.078 236.489 159.192 236.645 159.27 236.82Z" fill="#263238"/>
<path d="M162.871 250.69L165.551 251.74C165.498 251.924 165.408 252.095 165.286 252.243C165.164 252.39 165.013 252.511 164.842 252.597C164.671 252.684 164.484 252.734 164.293 252.745C164.102 252.755 163.91 252.727 163.731 252.66C163.365 252.501 163.074 252.209 162.914 251.844C162.755 251.478 162.739 251.066 162.871 250.69Z" fill="#783736"/>
<path d="M173 238.22L170.36 236.94C170.425 236.761 170.527 236.598 170.659 236.461C170.791 236.324 170.951 236.217 171.127 236.146C171.304 236.075 171.493 236.042 171.684 236.05C171.874 236.057 172.06 236.105 172.23 236.19C172.587 236.373 172.863 236.682 173.006 237.057C173.148 237.432 173.146 237.846 173 238.22Z" fill="#263238"/>
<path d="M171.27 241.9C171.285 242.063 171.266 242.228 171.214 242.383C171.162 242.539 171.078 242.682 170.967 242.803C170.856 242.925 170.722 243.021 170.572 243.088C170.421 243.154 170.259 243.188 170.095 243.188C169.931 243.188 169.769 243.154 169.618 243.088C169.468 243.021 169.334 242.925 169.223 242.803C169.113 242.682 169.028 242.539 168.976 242.383C168.924 242.228 168.905 242.063 168.92 241.9C168.913 241.74 168.938 241.58 168.994 241.43C169.049 241.28 169.134 241.143 169.242 241.026C169.351 240.909 169.482 240.814 169.628 240.748C169.773 240.682 169.93 240.645 170.09 240.64C170.413 240.653 170.717 240.792 170.938 241.028C171.159 241.264 171.278 241.577 171.27 241.9Z" fill="#263238"/>
<path d="M164.62 240.99L164.75 248.4L168.96 247.44L164.62 240.99Z" fill="#783736"/>
<path d="M159.47 238.84C158.693 238.84 157.948 239.148 157.398 239.698C156.849 240.247 156.54 240.993 156.54 241.77C156.54 242.547 156.849 243.292 157.398 243.842C157.948 244.391 158.693 244.7 159.47 244.7H160C160.777 244.7 161.522 244.391 162.072 243.842C162.621 243.292 162.93 242.547 162.93 241.77C162.93 240.993 162.621 240.247 162.072 239.698C161.522 239.148 160.777 238.84 160 238.84H159.47ZM156 241.77C155.992 240.843 156.352 239.951 157 239.29C157.649 238.628 158.534 238.25 159.46 238.24H160C160.85 238.351 161.629 238.768 162.194 239.412C162.759 240.056 163.071 240.883 163.071 241.74C163.071 242.596 162.759 243.424 162.194 244.068C161.629 244.712 160.85 245.128 160 245.24H159.47C158.551 245.234 157.672 244.867 157.022 244.218C156.373 243.568 156.005 242.688 156 241.77Z" fill="#263238"/>
<path d="M170 238.84C169.223 238.84 168.478 239.148 167.928 239.698C167.379 240.247 167.07 240.993 167.07 241.77C167.07 242.547 167.379 243.292 167.928 243.842C168.478 244.391 169.223 244.7 170 244.7H170.53C171.307 244.7 172.053 244.391 172.602 243.842C173.151 243.292 173.46 242.547 173.46 241.77C173.46 240.993 173.151 240.247 172.602 239.698C172.053 239.148 171.307 238.84 170.53 238.84H170ZM166.54 241.77C166.532 240.843 166.892 239.951 167.541 239.29C168.189 238.628 169.074 238.25 170 238.24H170.53C171.38 238.351 172.159 238.768 172.724 239.412C173.289 240.056 173.601 240.883 173.601 241.74C173.601 242.596 173.289 243.424 172.724 244.068C172.159 244.712 171.38 245.128 170.53 245.24H170C169.087 245.227 168.215 244.856 167.572 244.207C166.928 243.558 166.565 242.683 166.56 241.77H166.54Z" fill="#263238"/>
<path d="M163.421 241.07C163.63 240.78 163.905 240.542 164.223 240.377C164.541 240.212 164.893 240.124 165.251 240.12C165.546 240.088 165.845 240.128 166.122 240.236C166.398 240.344 166.645 240.517 166.841 240.74L167.311 240.38C167.061 240.075 166.739 239.837 166.374 239.689C166.009 239.541 165.613 239.486 165.221 239.53C164.767 239.535 164.321 239.649 163.92 239.863C163.52 240.077 163.177 240.385 162.921 240.76L163.421 241.07Z" fill="#263238"/>
<path d="M156.32 241.04H150.36V241.63H156.32V241.04Z" fill="#263238"/>
</svg>
