<svg width="150" height="150" viewBox="0 0 150 150" fill="none" xmlns="http://www.w3.org/2000/svg">
<path d="M126.562 60.9766C135.462 60.9766 142.676 53.7624 142.676 44.8633C142.676 35.9642 135.462 28.75 126.562 28.75C117.663 28.75 110.449 35.9642 110.449 44.8633C110.449 53.7624 117.663 60.9766 126.562 60.9766Z" fill="#DAEAC1"/>
<path d="M126.562 60.9766V28.75C135.448 28.75 142.676 35.9775 142.676 44.8633C142.676 53.749 135.448 60.9766 126.562 60.9766Z" fill="#AECA85"/>
<path d="M150 90.71V122.4C150 127.302 145.998 131.289 141.076 131.289H110.174C107.748 131.289 105.779 129.32 105.779 126.895C105.779 122.622 103.418 100.975 103.418 90.71C103.418 79.8086 112.342 70.9375 123.311 70.9375H130.107C141.076 70.9375 150 79.8086 150 90.71Z" fill="#DAEAC1"/>
<path d="M150 90.71V122.4C150 127.302 145.998 131.289 141.076 131.289H126.562V70.9375H130.107C141.076 70.9375 150 79.8086 150 90.71Z" fill="#AECA85"/>
<path d="M23.4375 60.9766C32.3366 60.9766 39.5508 53.7624 39.5508 44.8633C39.5508 35.9642 32.3366 28.75 23.4375 28.75C14.5384 28.75 7.32422 35.9642 7.32422 44.8633C7.32422 53.7624 14.5384 60.9766 23.4375 60.9766Z" fill="#DAEAC1"/>
<path d="M23.4375 60.9766V28.75C32.3232 28.75 39.5508 35.9775 39.5508 44.8633C39.5508 53.749 32.3232 60.9766 23.4375 60.9766Z" fill="#AECA85"/>
<path d="M46.582 90.71C46.582 101.305 44.2207 122.428 44.2207 126.895C44.2207 129.32 42.252 131.289 39.8262 131.289H8.61621C3.86426 131.289 0 127.439 0 122.705V90.71C0 79.8086 8.92383 70.9375 19.8926 70.9375H26.6895C37.6582 70.9375 46.582 79.8086 46.582 90.71Z" fill="#DAEAC1"/>
<path d="M46.582 90.71C46.582 101.305 44.2207 122.428 44.2207 126.895C44.2207 129.32 42.252 131.289 39.8262 131.289H23.4375V70.9375H26.6895C37.6582 70.9375 46.582 79.8086 46.582 90.71Z" fill="#AECA85"/>
<path d="M75 60.9766C89.0768 60.9766 100.488 49.5651 100.488 35.4883C100.488 21.4115 89.0768 10 75 10C60.9232 10 49.5117 21.4115 49.5117 35.4883C49.5117 49.5651 60.9232 60.9766 75 60.9766Z" fill="#8FC045"/>
<path d="M75 60.9766V10C89.0537 10 100.488 21.4346 100.488 35.4883C100.488 49.542 89.0537 60.9766 75 60.9766Z" fill="#3D5221"/>
<path d="M114.551 106.393V130.404C114.551 136.062 109.948 140.664 104.291 140.664H45.709C40.0518 140.664 35.4492 136.062 35.4492 130.404V106.393C35.4492 86.8428 51.3545 70.9375 70.9043 70.9375H79.0957C98.6455 70.9375 114.551 86.8428 114.551 106.393Z" fill="#8FC045"/>
<path d="M114.551 106.393V130.404C114.551 136.062 109.948 140.664 104.291 140.664H75V70.9375H79.0957C98.6455 70.9375 114.551 86.8428 114.551 106.393Z" fill="#3D5221"/>
</svg>
