<svg width="150" height="150" viewBox="0 0 150 150" fill="none" xmlns="http://www.w3.org/2000/svg">
<path d="M70.6055 38.272H79.3945V63.9199H70.6055V38.272Z" fill="#3D5221"/>
<path d="M75 38.272H79.3945V63.9199H75V38.272Z" fill="#37402A"/>
<path d="M108.105 38.272H116.895V63.9199H108.105V38.272Z" fill="#3D5221"/>
<path d="M112.5 38.272H116.895V63.9199H112.5V38.272Z" fill="#37402A"/>
<path d="M33.1055 38.272H41.8945V63.9199H33.1055V38.272Z" fill="#3D5221"/>
<path d="M37.5 38.272H41.8945V63.9199H37.5V38.272Z" fill="#37402A"/>
<path d="M140.625 62.6953V80.8594H9.3751V62.6953C9.35108 57.6973 13.4816 53.3651 18.7501 53.3203C23.9269 53.3203 28.1251 57.5186 28.1251 62.6953V67.3828C28.1011 62.3848 32.2317 58.0526 37.5001 58.0078C42.6769 58.0078 46.8751 62.2061 46.8751 67.3828V62.6953C46.8511 57.6973 50.9817 53.3651 56.2501 53.3203C61.4269 53.3203 65.6251 57.5186 65.6251 62.6953V67.3828C65.6011 62.3848 69.7317 58.0526 75.0001 58.0078C80.1769 58.0078 84.3751 62.2061 84.3751 67.3828V62.6953C84.3511 57.6973 88.4817 53.3651 93.7501 53.3203C98.9269 53.3203 103.125 57.5186 103.125 62.6953V67.3828C103.101 62.3848 107.232 58.0526 112.5 58.0078C117.677 58.0078 121.875 62.2061 121.875 67.3828V62.6953C121.875 57.5186 126.073 53.3203 131.25 53.3203C136.427 53.3203 140.625 57.5186 140.625 62.6953Z" fill="#3DA57C"/>
<path d="M140.625 62.6953V80.8594H75V58.0078C80.1768 58.0078 84.375 62.2061 84.375 67.3828V62.6953C84.351 57.6973 88.4815 53.3651 93.75 53.3203C98.9268 53.3203 103.125 57.5186 103.125 62.6953V67.3828C103.101 62.3848 107.232 58.0526 112.5 58.0078C117.677 58.0078 121.875 62.2061 121.875 67.3828V62.6953C121.875 57.5186 126.073 53.3203 131.25 53.3203C136.427 53.3203 140.625 57.5186 140.625 62.6953Z" fill="#1D6D3E"/>
<path d="M90.2227 15.2227V29.4141C90.2227 37.8193 83.4053 44.6338 75 44.6338C66.5918 44.6338 59.7773 37.8193 59.7773 29.4141V15.2227C59.7773 6.81446 66.5918 4.63241e-06 75 4.63241e-06C83.2017 -0.00644068 90.2244 6.71368 90.2227 15.2227Z" fill="#8FC045"/>
<path d="M90.2227 15.2227V29.4141C90.2227 37.8193 83.4053 44.6338 75 44.6338V4.63241e-06C83.2017 -0.00644068 90.2244 6.71368 90.2227 15.2227Z" fill="#3DA57C"/>
<path d="M47.6484 23.874V34.4883C47.6484 40.0928 43.1045 44.6338 37.5 44.6338C31.8955 44.6338 27.3516 40.0928 27.3516 34.4883V23.874C27.3516 8.05371 37.5 0 37.5 0C42.46 4.00312 47.894 13.8624 47.6484 23.874Z" fill="#8FC045"/>
<path d="M47.6484 23.874V34.4883C47.6484 40.0928 43.1045 44.6338 37.5 44.6338V0C42.46 4.00312 47.8939 13.8624 47.6484 23.874Z" fill="#3DA57C"/>
<path d="M122.648 23.874V34.4883C122.648 40.0928 118.104 44.6338 112.5 44.6338C106.896 44.6338 102.352 40.0928 102.352 34.4883V23.874C102.352 8.05371 112.5 0 112.5 0C117.46 4.00312 122.894 13.8624 122.648 23.874Z" fill="#8FC045"/>
<path d="M122.648 23.874V34.4883C122.648 40.0928 118.104 44.6338 112.5 44.6338V0C117.46 4.00312 122.894 13.8624 122.648 23.874Z" fill="#3DA57C"/>
<path d="M150.001 75C150.001 81.4746 149.181 87.7559 147.637 93.75L75.001 145.605L56.251 147.636C29.8955 140.854 9.14746 120.105 2.36523 93.75C2.36523 93.75 35.9717 75 56.251 75H150.001Z" fill="#56CCF2"/>
<path d="M150 75C150 81.4746 149.18 87.7559 147.636 93.75L75 145.605V75H150Z" fill="#2D9CDB"/>
<path d="M56.25 75C51.0732 75 46.875 79.1953 46.875 84.375C46.899 89.373 42.7685 93.7052 37.5 93.75H2.36426C0.820312 87.7559 0 81.4746 0 75H56.25Z" fill="#8FC045"/>
<path d="M147.636 93.75C139.312 126.097 109.945 150 75 150C68.5254 150 62.2441 149.18 56.25 147.636V140.625C56.25 135.445 60.4482 131.25 65.625 131.25H84.375C89.5518 131.25 93.75 127.052 93.75 121.875C93.7734 116.877 89.6426 112.544 84.375 112.5C79.377 112.523 75.0439 108.393 75 103.125V103.084C75 98.1035 79.1221 93.7939 84.375 93.75H147.636Z" fill="#8FC045"/>
<path d="M147.636 93.75C139.312 126.097 109.945 150 75 150V131.25H84.375C89.5518 131.25 93.75 127.052 93.75 121.875C93.7734 116.877 89.6426 112.544 84.375 112.5C79.377 112.523 75.0439 108.393 75 103.125V103.084C75 98.1035 79.1221 93.7939 84.375 93.75H147.636Z" fill="#3DA57C"/>
</svg>
