<svg width="92" height="200" viewBox="0 0 92 200" fill="none" xmlns="http://www.w3.org/2000/svg">
<path d="M60.1156 6.52454C59.9091 5.22198 59.2794 4.02368 58.3238 3.11472C57.3682 2.20577 56.14 1.63673 54.8287 1.49552C54.134 1.51091 53.4403 1.4346 52.7655 1.26857C52.2561 1.02369 51.7649 0.742729 51.2955 0.427819C50.4835 0.0191784 49.5568 -0.101303 48.6673 0.0861473C47.7779 0.273598 46.9786 0.757844 46.4006 1.45941C45.369 2.80564 44.9203 0.943614 42.4393 2.40848C40.3761 3.63092 41.4593 5.32789 41.4593 5.32789C40.3948 5.31384 39.3583 5.66896 38.5261 6.33285C37.6938 6.99675 37.1173 7.92842 36.8945 8.96942C36.652 10.295 36.8945 11.9043 35.8629 12.7708C35.3471 13.1886 34.6662 13.2866 34.1453 13.7044C33.1859 14.4472 33.1549 15.8811 33.3716 17.0726C33.5882 18.2641 33.9596 19.5278 33.516 20.6832C32.7887 22.5349 30.153 23.2622 29.828 25.2325C29.6733 26.1609 30.0601 27.2957 29.4154 27.9559C29.129 28.2019 28.8005 28.3941 28.4457 28.5233C27.7541 28.8618 27.169 29.3842 26.7546 30.0332C26.3402 30.6823 26.1126 31.4329 26.0966 32.2027C26.0806 32.9726 26.2769 33.732 26.664 34.3977C27.0511 35.0634 27.614 35.6096 28.291 35.9766C28.6623 36.1777 29.1111 36.3686 29.2503 36.7709C29.3896 37.1732 29.1162 37.6838 28.9048 38.1068C28.512 38.8924 28.3865 39.7847 28.5471 40.6481C28.7078 41.5116 29.1459 42.299 29.7948 42.8908C30.4438 43.4826 31.2682 43.8464 32.1428 43.9269C33.0173 44.0074 33.8943 43.8003 34.6404 43.337C35.4593 44.7524 36.7967 45.7938 38.3696 46.2409C39.0822 46.4759 39.8483 46.4956 40.5721 46.2976C41.1371 46.098 41.6538 45.7817 42.0885 45.3692C44.2342 43.4969 47.2465 40.6394 47.4425 37.7973" fill="#263238"/>
<path d="M40.3816 16.8817C40.053 16.9477 39.7147 16.9477 39.3861 16.8817C38.5855 16.7491 37.8212 16.4514 37.1419 16.0074C36.4626 15.5634 35.8831 14.9829 35.4403 14.3028C35.2407 14.0355 35.0985 13.73 35.0225 13.4053C35.2294 13.6563 35.4206 13.9198 35.595 14.1944C36.07 14.8016 36.6437 15.3247 37.292 15.7418C37.9468 16.1593 38.6668 16.4644 39.4222 16.6445C39.7468 16.7026 40.0673 16.7818 40.3816 16.8817Z" fill="#455A64"/>
<path d="M41.82 10.3569C41.6532 10.6152 41.4334 10.8349 41.1752 11.0017C39.9741 11.8908 38.4724 12.2741 36.9921 12.0694C36.6848 12.0468 36.3859 11.9588 36.1152 11.8115C37.1177 11.934 38.1334 11.8922 39.1223 11.6877C40.0892 11.3971 41.001 10.9474 41.82 10.3569Z" fill="#455A64"/>
<path d="M31.2776 42.6301C31.2776 42.6301 31.2466 42.6301 31.1899 42.6301C31.1025 42.6092 31.0164 42.5833 30.932 42.5527C30.6101 42.4304 30.3104 42.2562 30.0448 42.0369C29.6053 41.708 29.2515 41.2781 29.0132 40.7835C28.7031 40.1242 28.6162 39.3819 28.7656 38.6688C28.8469 38.2556 29.0024 37.8607 29.2247 37.5031C29.4732 37.1152 29.7793 36.7673 30.1325 36.4715C30.4942 36.1754 30.8105 35.8278 31.0712 35.4399C31.1896 35.2385 31.2554 35.0106 31.2626 34.7772C31.2698 34.5438 31.2182 34.3122 31.1125 34.104C30.8542 33.6519 30.5444 33.2313 30.1892 32.8506C30.0084 32.6355 29.8478 32.4041 29.7095 32.1594C29.5709 31.9001 29.4768 31.6194 29.431 31.329C29.3479 30.7205 29.4575 30.1013 29.7443 29.5583C30.031 29.0153 30.4806 28.5757 31.03 28.3013C31.5972 28.1116 32.1808 27.9751 32.7734 27.8938C33.0398 27.8405 33.2925 27.7335 33.5161 27.5791C33.7225 27.425 33.8728 27.2077 33.9442 26.9602C34.0565 26.4396 33.9967 25.8966 33.774 25.4128C33.5729 24.9228 33.2943 24.4586 33.1138 23.9634C32.9013 23.4753 32.8631 22.929 33.0055 22.416C33.1742 21.9426 33.4815 21.531 33.8875 21.2348C34.6106 20.7521 35.4195 20.4124 36.2705 20.2342C36.9462 20.0741 37.5841 19.7832 38.148 19.378C38.5462 19.0414 38.8218 18.5826 38.932 18.073C39.0097 17.7519 38.977 17.4139 38.8391 17.1136C38.7411 16.9073 38.6483 16.8248 38.6638 16.8145C38.7591 16.8873 38.8367 16.9807 38.8907 17.0878C39.0531 17.3946 39.1042 17.7483 39.0351 18.0885C38.9412 18.6329 38.6625 19.1284 38.246 19.4914C37.6744 19.9273 37.0197 20.2415 36.3221 20.4147C35.5013 20.5996 34.7226 20.9373 34.0268 21.4102C33.6575 21.6794 33.3801 22.0558 33.2324 22.4882C33.1059 22.9531 33.146 23.4476 33.3459 23.886C33.5213 24.3606 33.7947 24.8093 34.0113 25.3251C34.2549 25.8577 34.3201 26.4547 34.197 27.0272C34.1106 27.3287 33.9298 27.5944 33.6812 27.7855C33.4289 27.9637 33.1428 28.0884 32.8404 28.1517C32.2659 28.2289 31.6996 28.3584 31.1486 28.5385C30.6519 28.7887 30.2455 29.1873 29.9857 29.6791C29.726 30.1708 29.6259 30.7313 29.6992 31.2826C29.7392 31.5433 29.821 31.7959 29.9416 32.0305C30.0727 32.2622 30.2246 32.4815 30.3955 32.6855C30.7625 33.082 31.0795 33.522 31.3395 33.9957C31.4578 34.2386 31.5141 34.5071 31.5033 34.7771C31.4925 35.0472 31.415 35.3103 31.2776 35.543C31.0048 35.9481 30.6707 36.3083 30.2872 36.6107C29.9472 36.883 29.6499 37.2046 29.4052 37.565C29.1904 37.901 29.0384 38.2733 28.9565 38.6636C28.803 39.3377 28.8718 40.0434 29.1525 40.6752C29.3678 41.1535 29.6909 41.5754 30.0964 41.908C30.4484 42.211 30.8474 42.4549 31.2776 42.6301Z" fill="#455A64"/>
<path d="M84.8065 171.734H29.25V174.685H84.8065V171.734Z" fill="#E0E0E0"/>
<path d="M84.7918 174.674C84.7918 174.674 84.7918 174.607 84.7918 174.489C84.7918 174.37 84.7918 174.179 84.7918 173.942C84.7918 173.426 84.7918 172.714 84.766 171.724L84.8072 171.765C77.5861 171.817 55.4326 171.858 29.2507 171.858L29.3849 171.724V174.674L29.2507 174.54L68.5957 174.597L80.4591 174.638H83.6828H84.5235H84.8176H84.5442H83.7189H80.5261L68.7041 174.68L29.2611 174.736H29.127V171.58H29.2611C55.4429 171.58 77.6119 171.616 84.8176 171.672H84.8588V171.714C84.8588 172.714 84.8588 173.452 84.833 173.952C84.833 174.19 84.833 174.365 84.833 174.494C84.8246 174.555 84.8107 174.616 84.7918 174.674Z" fill="#263238"/>
<path d="M35.0691 120.598L23.3398 199.835H27.2496L37.8647 121.63V120.598H35.0691Z" fill="#E0E0E0"/>
<path d="M35.0685 120.598C35.0685 120.598 35.28 120.598 35.7391 120.598H37.8642H37.9003V120.634C37.9003 120.944 37.9003 121.289 37.9003 121.666C36.6314 131.419 32.4225 162.739 27.378 199.881V200H23.1846V199.845C26.5063 177.769 29.4463 157.936 31.5766 143.623C32.6494 136.484 33.516 130.728 34.1195 126.741C34.4186 124.76 34.6353 123.223 34.8158 122.171L34.9963 120.99C35.0427 120.727 35.0685 120.598 35.0685 120.598C35.0685 120.598 35.0685 120.737 35.017 121.011C34.9654 121.284 34.9241 121.691 34.8467 122.212C34.6972 123.244 34.4754 124.791 34.1865 126.813C33.6088 130.806 32.7681 136.582 31.7262 143.737C29.6217 158.029 26.7126 177.82 23.4734 199.855L23.3393 199.701H27.2542L27.1201 199.814C32.1801 162.671 36.4509 131.347 37.8538 121.624C37.8538 121.248 37.8538 120.902 37.8538 120.593L37.8848 120.624H35.7803L35.0685 120.598Z" fill="#263238"/>
<path d="M78.9734 120.598L90.9502 199.835H87.0353L76.1777 121.63V120.598H78.9734Z" fill="#E0E0E0"/>
<path d="M78.973 120.598H78.2819H76.1774L76.2084 120.567C76.2084 120.877 76.2084 121.222 76.2084 121.599C77.6165 131.337 82.0059 162.641 87.1639 199.789L87.0349 199.675H90.9447L90.8106 199.83C87.5043 177.8 84.5282 158.004 82.3824 143.711C81.3199 136.557 80.4637 130.785 79.8654 126.788C79.5765 124.792 79.3496 123.244 79.1897 122.187C79.1174 121.671 79.0607 121.264 79.0194 120.985C78.9782 120.707 78.9679 120.572 78.9679 120.572C78.9679 120.572 78.9937 120.701 79.0401 120.964C79.0865 121.228 79.1432 121.635 79.2258 122.146C79.3908 123.177 79.6281 124.725 79.9376 126.716C80.5514 130.698 81.4334 136.459 82.5165 143.598C84.6932 157.911 87.7055 177.728 91.0633 199.789V199.943H86.8802V199.825C81.7222 162.687 77.4102 131.363 76.1104 121.609C76.1104 121.233 76.1104 120.887 76.1104 120.578V120.542H76.1465H78.2664C78.7616 120.588 78.973 120.598 78.973 120.598Z" fill="#263238"/>
<path d="M57.4234 120.598H54.0811V199.835H57.4234V120.598Z" fill="#E0E0E0"/>
<path d="M57.4228 199.835C57.4228 199.835 57.4228 199.691 57.4228 199.417C57.4228 199.144 57.4228 198.742 57.4228 198.221C57.4228 197.189 57.4228 195.611 57.4228 193.62C57.4228 189.622 57.397 183.851 57.3815 176.702C57.3815 162.409 57.3454 142.618 57.3248 120.598L57.4589 120.733H54.1165L54.2506 120.598C54.2506 158.535 54.2094 190.489 54.1526 199.835L54.1165 199.799H56.6388H57.2526H57.4589H57.268H56.6594H54.1165H54.0804V199.763C54.0237 190.417 53.9824 158.463 53.9824 120.526V120.392H57.593V120.526C57.593 142.587 57.5517 162.409 57.5414 176.748C57.5414 183.887 57.5053 189.643 57.5002 193.635C57.5002 195.616 57.5002 197.153 57.5002 198.205C57.5002 198.721 57.5002 199.113 57.5002 199.386C57.5002 199.66 57.4228 199.835 57.4228 199.835Z" fill="#263238"/>
<path d="M79.6388 115.301H33.7793V121.258H79.6388V115.301Z" fill="#455A64"/>
<path d="M47.7829 115.471C47.2629 115.993 46.7023 116.472 46.1065 116.905C45.4642 117.37 44.7922 117.792 44.0949 118.169C42.3844 119.089 40.5363 119.726 38.6223 120.057C37.8413 120.191 37.052 120.272 36.2599 120.299C35.5318 120.33 34.8023 120.304 34.0781 120.222H34.2432H34.6816C35.053 120.222 35.5997 120.222 36.2703 120.222C37.0574 120.184 37.8413 120.096 38.6171 119.959C39.5666 119.782 40.5025 119.539 41.4179 119.231C42.3251 118.909 43.2092 118.524 44.064 118.081C44.7596 117.711 45.4315 117.297 46.0756 116.843C46.6223 116.451 47.0556 116.116 47.3393 115.868L47.6694 115.59L47.7829 115.471Z" fill="#263238"/>
<path d="M54.359 119.386L54.2455 119.345C54.1733 119.314 54.065 119.257 53.9206 119.2C53.4943 119.038 53.0515 118.924 52.6001 118.86C51.8893 118.76 51.1665 118.786 50.4647 118.937C49.5429 119.134 48.6826 119.551 47.9579 120.154V120.082C49.6166 120.487 51.3213 120.672 53.0282 120.634C54.0023 120.61 54.9731 120.512 55.9322 120.34C56.4344 120.284 56.9231 120.141 57.3764 119.917C57.5943 119.791 57.7605 119.592 57.8458 119.355C57.9196 119.113 57.9105 118.853 57.82 118.617C57.7027 118.341 57.5196 118.098 57.2867 117.91C57.0538 117.721 56.7782 117.592 56.4841 117.534C55.9059 117.402 55.3174 117.321 54.7252 117.292C53.6045 117.212 52.4789 117.235 51.3622 117.359C48.1772 117.707 45.1287 118.842 42.4905 120.66C42.114 120.913 41.8354 121.134 41.6446 121.279L41.3506 121.495C41.3506 121.495 41.4434 121.413 41.6343 121.263C41.8251 121.114 42.0882 120.887 42.4647 120.629C43.5154 119.88 44.6427 119.246 45.8277 118.736C47.5826 117.969 49.4433 117.472 51.3467 117.261C52.4719 117.136 53.6058 117.11 54.7355 117.183C55.3345 117.216 55.9298 117.299 56.515 117.431C56.8161 117.511 57.1007 117.644 57.3558 117.823C57.613 118.016 57.8084 118.279 57.918 118.581C58.0134 118.843 58.0134 119.129 57.918 119.391C57.8282 119.652 57.6443 119.871 57.4022 120.005C56.9382 120.236 56.4371 120.385 55.9219 120.443C54.956 120.616 53.9782 120.712 52.9973 120.732C51.2826 120.771 49.5704 120.58 47.9064 120.165H47.829L47.8909 120.113C48.6369 119.5 49.5227 119.08 50.4699 118.891C51.1776 118.743 51.9062 118.723 52.6208 118.834C53.0759 118.901 53.5211 119.024 53.9463 119.2C54.1991 119.308 54.359 119.386 54.359 119.386Z" fill="#263238"/>
<path d="M60.2855 115.456C60.3922 115.468 60.4965 115.495 60.595 115.538C60.8683 115.659 61.114 115.835 61.3171 116.054C61.618 116.376 61.8296 116.77 61.9309 117.199C62.0406 117.73 61.9959 118.281 61.8019 118.788C61.4285 119.696 60.7191 120.426 59.8213 120.825C59.557 120.948 59.2826 121.048 59.0012 121.124L58.7691 121.181C58.7123 121.181 58.6865 121.181 58.6865 121.181C58.7831 121.137 58.8832 121.1 58.9857 121.073C59.2607 120.984 59.5281 120.874 59.7852 120.742C60.6541 120.34 61.338 119.623 61.6988 118.736C61.8939 118.244 61.9405 117.706 61.8329 117.189C61.7417 116.772 61.5445 116.387 61.2604 116.069C60.9892 115.79 60.6549 115.579 60.2855 115.456Z" fill="#263238"/>
<path d="M67.4658 115.43C67.1179 115.576 66.7817 115.749 66.46 115.946C65.6999 116.441 65.0459 117.083 64.5361 117.834C64.0314 118.589 63.5964 119.388 63.2363 120.222L62.8958 120.975C62.8133 121.15 62.7669 121.248 62.7617 121.248C62.7803 121.148 62.8115 121.051 62.8546 120.959C62.9268 120.774 63.0299 120.511 63.164 120.191C63.5065 119.342 63.9369 118.531 64.4484 117.772C64.965 117.009 65.6364 116.364 66.4187 115.879C66.6579 115.736 66.91 115.617 67.1718 115.523C67.2428 115.497 67.3151 115.474 67.3884 115.456C67.4348 115.43 67.4658 115.425 67.4658 115.43Z" fill="#263238"/>
<path d="M75.3885 118.968L75.1203 118.85C74.8653 118.742 74.6012 118.657 74.3311 118.597C73.3337 118.367 72.2877 118.484 71.3653 118.927C71.2162 118.986 71.0872 119.086 70.9939 119.216C70.952 119.282 70.9338 119.36 70.9423 119.438C70.9507 119.516 70.9853 119.588 71.0403 119.644C71.3277 119.861 71.6557 120.019 72.0049 120.108C72.7672 120.38 73.5611 120.553 74.3672 120.624C75.2544 120.701 76.1479 120.657 77.0236 120.495C77.4838 120.435 77.9209 120.258 78.2924 119.979C78.4685 119.824 78.5913 119.618 78.6432 119.389C78.695 119.16 78.6734 118.921 78.5813 118.705C78.3956 118.263 78.0463 117.91 77.6064 117.72C77.1789 117.523 76.7309 117.374 76.2705 117.277C75.4015 117.079 74.5088 117.006 73.6193 117.06C72.1054 117.152 70.6379 117.618 69.3485 118.416C68.4821 118.953 67.7072 119.626 67.0532 120.407C66.8211 120.691 66.656 120.923 66.5374 121.073L66.3672 121.31C66.556 120.984 66.7699 120.674 67.0068 120.382C67.6589 119.566 68.4394 118.862 69.3175 118.298C70.6154 117.484 72.0958 117.007 73.6245 116.91C74.524 116.852 75.4273 116.923 76.3066 117.122C76.7742 117.22 77.2293 117.37 77.6631 117.571C78.1248 117.772 78.4933 118.14 78.6947 118.602C78.7886 118.842 78.8118 119.103 78.7618 119.355C78.7025 119.603 78.5672 119.827 78.3749 119.995C77.9913 120.293 77.5359 120.485 77.0545 120.552C76.1687 120.717 75.2647 120.76 74.3672 120.681C73.5551 120.605 72.7551 120.432 71.9842 120.165C71.8037 120.103 71.6283 120.031 71.4684 119.964C71.2916 119.9 71.1312 119.798 70.999 119.665C70.9352 119.596 70.8956 119.509 70.8863 119.415C70.877 119.322 70.8985 119.229 70.9475 119.149C71.0514 119.01 71.1902 118.902 71.3498 118.834C72.2901 118.393 73.3533 118.287 74.362 118.535C74.7245 118.625 75.0708 118.772 75.3885 118.968Z" fill="#263238"/>
<path d="M45.6581 39.5356C43.9607 40.1897 42.5463 41.418 41.6607 43.007C40.1597 45.6633 40.562 46.9734 40.954 48.5466C41.346 50.1198 42.0372 53.2301 42.0733 53.0289C42.1094 52.8277 45.6581 39.5356 45.6581 39.5356Z" fill="#A36957"/>
<path d="M45.8229 39.5511L48.9795 37.6788L63.654 32.1855L60.7706 56.851L49.9389 63.6698L43.5224 60.4615L42.8828 53.3229L45.8229 39.5511Z" fill="#A36957"/>
<path d="M45.4415 77.0854L39.7058 84.5232L32.5981 82.8521L26.9141 86.0294L28.4202 88.7063L43.5021 89.7173L48.82 78.7566L45.4415 77.0854Z" fill="#7C3B29"/>
<path d="M28.0381 148.482L33.8253 161.027L43.1613 156.709L37.178 141.189L28.0381 148.482Z" fill="#A36957"/>
<path d="M32.7316 160.186L36.1101 166.633C36.1101 166.633 27.455 175.582 28.27 177.584L48.613 167.83L43.0114 154.899L32.7316 160.186Z" fill="#8FC045"/>
<path d="M41.9799 162.734C42.2049 162.699 42.4346 162.749 42.625 162.874C42.8154 162.999 42.953 163.189 43.0115 163.409C43.0553 163.633 43.0118 163.864 42.8899 164.056C42.768 164.248 42.577 164.386 42.3564 164.441C42.1185 164.477 41.8757 164.423 41.6748 164.291C41.4739 164.159 41.329 163.957 41.2681 163.724C41.2475 163.486 41.3199 163.25 41.4699 163.064C41.6199 162.879 41.8359 162.758 42.0727 162.729" fill="#E0E0E0"/>
<g opacity="0.6">
<path opacity="0.6" d="M48.6134 167.83L47.7675 166.205L28.5695 176.165C28.5695 176.165 27.8526 176.99 28.26 177.584L48.6134 167.83Z" fill="white"/>
</g>
<path d="M35.7341 166.69C35.7805 166.788 36.3015 166.592 36.9411 166.69C37.5807 166.788 38.0449 167.066 38.1171 166.984C38.1893 166.901 37.7664 166.396 36.9875 166.308C36.2087 166.221 35.6671 166.607 35.7341 166.69Z" fill="#263238"/>
<path d="M34.0211 168.593C34.0211 168.702 34.5369 168.665 35.0939 168.923C35.651 169.181 35.945 169.578 36.0378 169.527C36.1307 169.475 35.9295 168.882 35.2538 168.573C34.5781 168.263 33.9746 168.485 34.0211 168.593Z" fill="#263238"/>
<path d="M34.0316 171.729C34.1347 171.729 34.0316 171.141 33.5158 170.698C33 170.254 32.4326 170.28 32.4326 170.383C32.4326 170.486 32.8556 170.641 33.2734 170.992C33.6912 171.342 33.9284 171.765 34.0316 171.729Z" fill="#263238"/>
<path d="M34.7587 164.204C34.8464 164.276 35.2332 163.92 35.7903 163.688C36.3473 163.456 36.8941 163.425 36.9044 163.317C36.9147 163.208 36.3215 163.054 35.6458 163.317C34.9702 163.58 34.6761 164.152 34.7587 164.204Z" fill="#263238"/>
<path d="M34.1664 162.914C34.1664 162.914 34.0632 162.785 33.9755 162.507C33.8595 162.108 33.8279 161.69 33.8827 161.279C33.8935 161.138 33.9248 160.999 33.9755 160.866C34.0078 160.78 34.0625 160.704 34.1342 160.646C34.2059 160.588 34.2918 160.55 34.383 160.536C34.4383 160.529 34.4944 160.535 34.5471 160.553C34.5998 160.57 34.6478 160.6 34.6873 160.639C34.7557 160.718 34.7989 160.815 34.8111 160.918C34.8243 161.09 34.8243 161.262 34.8111 161.434C34.8111 161.779 34.8111 162.109 34.7286 162.507C34.7118 162.623 34.6636 162.732 34.589 162.823C34.5145 162.914 34.4165 162.983 34.3057 163.022C34.0998 163.085 33.8815 163.093 33.6712 163.048C33.1047 162.95 32.5589 162.756 32.0568 162.476C31.8844 162.391 31.7303 162.274 31.6029 162.13C31.5338 162.045 31.4961 161.938 31.4961 161.828C31.4961 161.718 31.5338 161.612 31.6029 161.527C31.672 161.465 31.7551 161.421 31.8449 161.399C31.9347 161.376 32.0287 161.376 32.1187 161.398C32.3976 161.472 32.6662 161.582 32.9182 161.723C33.2795 161.919 33.6111 162.166 33.9033 162.455C34.1045 162.661 34.1973 162.79 34.1819 162.806C33.763 162.457 33.3103 162.151 32.8305 161.893C32.593 161.771 32.342 161.677 32.0826 161.614C32.0261 161.599 31.9669 161.597 31.9096 161.609C31.8523 161.62 31.7985 161.645 31.7525 161.681C31.7241 161.728 31.7117 161.782 31.7173 161.836C31.7229 161.89 31.7461 161.941 31.7834 161.98C31.8936 162.092 32.0229 162.183 32.1651 162.249C32.3187 162.334 32.4771 162.409 32.6396 162.476C32.9714 162.615 33.3172 162.719 33.6712 162.785C33.8404 162.829 34.0179 162.829 34.187 162.785C34.2543 162.763 34.3138 162.722 34.3586 162.667C34.4033 162.612 34.4315 162.546 34.4398 162.476C34.4862 162.145 34.5017 161.764 34.5326 161.444C34.5446 161.288 34.5446 161.131 34.5326 160.975C34.5326 160.84 34.4604 160.779 34.3624 160.784C34.1406 160.784 34.0632 161.098 34.0271 161.336C33.9737 161.866 34.021 162.401 34.1664 162.914Z" fill="#263238"/>
<path d="M27.9043 152.789L13.168 116.111C13.168 116.111 13.5084 109.602 14.7154 107.544C15.9223 105.485 52.2447 93.488 52.2447 93.488C52.2447 93.488 61.4981 91.265 67.6671 93.488C73.836 95.7111 78.4627 103.433 77.6065 107.714C76.7503 111.995 73.1345 115.146 73.1345 115.146L46.4162 115.941L31.8553 121.253L41.6554 149.364C41.6554 149.364 36.647 154.847 27.9043 152.789Z" fill="#263238"/>
<path d="M14.8544 128.201L14.5088 142.009L24.7938 142.256L26.2741 125.689L14.8544 128.201Z" fill="#A36957"/>
<path d="M13.8951 140.771L14.086 148.049C14.086 148.049 2.37224 152.258 2.22266 154.414L24.7785 154.641L25.4748 140.57L13.8951 140.771Z" fill="#8FC045"/>
<path d="M21.0696 147.141C21.2866 147.21 21.4705 147.357 21.5865 147.553C21.7026 147.749 21.7426 147.98 21.6989 148.204C21.6372 148.419 21.4969 148.603 21.3058 148.72C21.1148 148.836 20.8869 148.877 20.6673 148.833C20.4388 148.759 20.2456 148.604 20.1247 148.396C20.0038 148.189 19.9638 147.944 20.0123 147.709C20.1019 147.491 20.2719 147.316 20.4869 147.22C20.702 147.124 20.9457 147.114 21.1676 147.193" fill="#E0E0E0"/>
<g opacity="0.6">
<path opacity="0.6" d="M24.773 154.641L24.7317 152.81L3.11985 153.279C3.11985 153.279 2.08826 153.702 2.21721 154.414L24.773 154.641Z" fill="white"/>
</g>
<path d="M13.7192 147.93C13.7192 148.044 14.2711 148.095 14.8127 148.446C15.3543 148.797 15.6328 149.271 15.736 149.23C15.8391 149.189 15.6793 148.549 15.019 148.126C14.3588 147.703 13.6986 147.853 13.7192 147.93Z" fill="#263238"/>
<path d="M11.3471 148.884C11.3162 148.993 11.7959 149.183 12.1621 149.653C12.5283 150.122 12.6366 150.617 12.7449 150.612C12.8533 150.607 12.9306 149.988 12.4612 149.416C11.9919 148.843 11.3471 148.781 11.3471 148.884Z" fill="#263238"/>
<path d="M9.97008 151.706C10.0732 151.706 10.2331 151.19 9.97008 150.576C9.70702 149.963 9.18091 149.725 9.13449 149.813C9.08807 149.901 9.4027 150.231 9.61934 150.731C9.83597 151.231 9.86176 151.691 9.97008 151.706Z" fill="#263238"/>
<path d="M13.9469 145.274C13.9933 145.377 14.4988 145.227 15.1229 145.274C15.747 145.32 16.2267 145.521 16.2834 145.429C16.3402 145.336 15.8811 144.938 15.1487 144.913C14.4163 144.887 13.8953 145.186 13.9469 145.274Z" fill="#263238"/>
<path d="M13.9776 143.855C13.9447 143.708 13.9447 143.554 13.9776 143.407C14.0483 142.998 14.2028 142.608 14.4315 142.262C14.5066 142.141 14.5967 142.03 14.6997 141.932C14.7675 141.868 14.8512 141.824 14.942 141.804C15.0328 141.784 15.1273 141.789 15.2155 141.818C15.2681 141.836 15.3159 141.866 15.3552 141.905C15.3945 141.945 15.4244 141.992 15.4425 142.045C15.4731 142.144 15.4731 142.25 15.4425 142.349C15.3739 142.508 15.2946 142.661 15.2052 142.808C15.0299 143.102 14.8803 143.402 14.6585 143.732C14.5924 143.828 14.5013 143.904 14.3949 143.953C14.2885 144.001 14.171 144.019 14.055 144.005C13.8414 143.972 13.6403 143.883 13.4722 143.747C13.1567 143.517 12.8678 143.252 12.6108 142.958C12.4921 142.814 12.3787 142.669 12.2755 142.52C12.1568 142.367 12.0708 142.191 12.0228 142.004C11.9942 141.896 12.0043 141.782 12.0515 141.681C12.0986 141.58 12.1797 141.499 12.2807 141.452C12.3702 141.429 12.464 141.428 12.5539 141.45C12.6438 141.471 12.7271 141.515 12.7965 141.576C13.0142 141.767 13.2066 141.985 13.369 142.226C13.6074 142.56 13.7967 142.926 13.9312 143.314C13.9901 143.453 14.0233 143.601 14.0292 143.752C13.8043 143.256 13.5313 142.782 13.2143 142.339C13.0554 142.124 12.8719 141.928 12.6675 141.756C12.6236 141.718 12.5716 141.69 12.5152 141.675C12.4589 141.659 12.3998 141.657 12.3426 141.668C12.2958 141.697 12.2602 141.741 12.2414 141.792C12.2227 141.844 12.222 141.9 12.2394 141.952C12.2869 142.101 12.3621 142.239 12.4612 142.36C12.5617 142.505 12.6702 142.644 12.7861 142.777C13.0329 143.058 13.3096 143.31 13.6114 143.531C13.7468 143.634 13.9036 143.707 14.0705 143.742C14.1413 143.75 14.2129 143.738 14.2776 143.708C14.3422 143.678 14.3972 143.631 14.4367 143.572C14.6224 143.298 14.8029 142.963 14.9525 142.685C15.0385 142.553 15.1144 142.415 15.1794 142.272C15.2259 142.143 15.1794 142.06 15.1124 142.024C14.9061 141.942 14.7049 142.174 14.5656 142.37C14.2787 142.824 14.0793 143.328 13.9776 143.855Z" fill="#263238"/>
<path d="M20.8587 89.8671C20.8587 89.8671 14.6691 89.3771 14.014 96.0567C13.359 102.736 12.6523 133.927 12.6523 133.927L27.0482 135.128L29.2765 103.247L52.2449 93.488C52.2449 93.488 24.9593 89.0109 20.8587 89.8671Z" fill="#263238"/>
<path d="M46.2506 80.8511C46.2506 80.8511 42.5111 91.3321 43.2229 92.5029C43.9347 93.6738 53.5388 98.4758 53.5388 98.4758L77.5956 107.714C79.2655 104.661 80.1167 101.228 80.0663 97.7486C80.0663 91.7086 71.7001 80.8511 71.7001 80.8511H46.2506Z" fill="#263238"/>
<path d="M53.3797 92.9565C53.3797 92.9565 53.3436 92.9565 53.2662 93.0184L52.9258 93.1732L51.595 93.7663L46.5918 95.9482L29.3281 103.376L29.4054 103.267C29.1888 106.419 28.9515 109.818 28.7091 113.336C28.1211 121.563 27.5847 129.145 27.1617 135.144V135.252H27.0586L16.5518 134.323L13.6633 134.055L12.9102 133.973C12.8233 133.969 12.7369 133.957 12.6523 133.937C12.7398 133.929 12.8279 133.929 12.9154 133.937L13.6685 133.983L16.5621 134.194L27.0586 135.025L26.9451 135.123C27.3526 129.124 27.8735 121.537 28.4409 113.31C28.6885 109.792 28.9257 106.393 29.1475 103.247V103.164L29.2197 103.133L46.5247 95.7934L51.5537 93.6838L52.9051 93.1267L53.2559 92.9927L53.3797 92.9565Z" fill="#455A64"/>
<path d="M72.5157 94.0039C72.2838 93.9693 72.057 93.907 71.84 93.8182L70.0296 93.2354C68.0515 92.5608 66.0233 92.0434 63.9638 91.688C61.9118 91.3518 59.8166 91.3797 57.7742 91.7705C56.9334 91.9655 56.1036 92.2048 55.2881 92.4875C55.485 92.3619 55.6941 92.2565 55.9122 92.1728C56.5008 91.9242 57.1101 91.7275 57.733 91.5848C59.7993 91.1303 61.9337 91.076 64.0205 91.4249C66.0935 91.7726 68.1294 92.313 70.1018 93.0394C70.86 93.3076 71.4686 93.5552 71.8916 93.7048C72.1087 93.7843 72.3177 93.8845 72.5157 94.0039Z" fill="#455A64"/>
<path d="M69.1107 88.4798C68.4116 88.4365 67.7105 88.4365 67.0114 88.4798C66.3615 88.5211 65.593 88.6242 64.7316 88.7222C63.8702 88.8202 62.9366 88.9389 61.9618 89.1246C60.2901 89.3899 58.6878 89.9842 57.2474 90.8731C56.671 91.2711 56.1245 91.7107 55.6123 92.1884C55.7041 92.0193 55.8226 91.866 55.9631 91.7345C56.3162 91.3487 56.7106 91.0028 57.1391 90.7029C58.5792 89.7524 60.2059 89.121 61.9102 88.8512C62.8954 88.6603 63.8444 88.552 64.7058 88.4643C65.5672 88.3766 66.3409 88.2993 67.0011 88.2787C67.5179 88.2533 68.0359 88.2757 68.5485 88.3457C68.7419 88.3597 68.9318 88.405 69.1107 88.4798Z" fill="#455A64"/>
<path d="M45.6582 39.5356C45.6582 39.5356 41.5679 52.6523 41.6607 56.4073C41.7536 60.1623 43.3113 70.8497 43.1308 72.9128C42.9502 74.976 43.6878 80.8148 46.2255 80.8148H71.6853C71.6853 80.8148 77.4364 79.221 77.684 75.7704C77.9316 72.3197 69.947 38.8083 69.947 38.8083C69.947 38.8083 68.4409 32.6497 66.3365 32.201C64.232 31.7522 61.88 32.201 60.4719 36.5492C59.0637 40.8973 58.5944 47.0353 55.5873 50.0424C52.5802 53.0495 48.3042 56.4228 48.3042 56.4228C48.3042 56.4228 44.8535 53.5343 44.6936 49.6246C44.5337 45.7149 46.0037 39.386 46.0037 39.386L45.6582 39.5356Z" fill="#8FC045"/>
<path d="M72.4587 41.8361C71.7884 40.8293 70.8036 40.073 69.6579 39.6852C68.5211 39.3026 67.3379 39.0753 66.1402 39.0095C65.0739 38.8637 63.9904 38.9021 62.9371 39.123C61.9055 39.3912 61.4722 40.6704 61.039 41.6607C60.3445 46.067 60.5781 50.5698 61.725 54.8806C61.8251 55.5366 62.0798 56.1594 62.4682 56.6975C62.8565 57.2356 63.3673 57.6736 63.9584 57.9753C64.8273 58.6095 65.8386 59.0204 66.9036 59.172C68.812 59.3164 70.5709 57.9341 71.4632 56.2423C72.3556 54.5505 72.5567 52.5904 72.7372 50.6871C72.8576 49.4939 72.9728 48.3024 73.0828 47.1127C73.2582 45.3074 73.4026 43.368 72.4587 41.8361Z" fill="#A36957"/>
<path d="M49.4286 81.1347C49.0572 81.0448 48.7125 80.8681 48.4228 80.6189C47.6969 80.0409 47.1144 79.3031 46.7206 78.4629C46.3304 77.6407 46.0395 76.775 45.8541 75.8839C45.7462 75.5203 45.6872 75.1439 45.6787 74.7646C45.8354 75.1085 45.9547 75.4682 46.0346 75.8375C46.2712 76.705 46.5818 77.5506 46.963 78.3649C47.3429 79.1725 47.8794 79.8966 48.5414 80.4952C49.0572 80.9078 49.4492 81.0935 49.4286 81.1347Z" fill="#263238"/>
<path d="M62.9009 64.8768C62.7736 65.0142 62.6298 65.1355 62.4728 65.2378C62.0586 65.5333 61.6183 65.7906 61.1575 66.0064C60.4663 66.3248 59.7335 66.5436 58.9809 66.6563C58.0566 66.7899 57.1154 66.7496 56.2059 66.5377C54.5597 66.1183 53.0629 65.2485 51.8835 64.0257C51.5258 63.6655 51.1932 63.2812 50.888 62.8755C50.7711 62.7288 50.6708 62.5697 50.5889 62.401C50.6301 62.37 51.1047 63.0199 52.0125 63.8916C53.2001 65.0417 54.6666 65.863 56.2678 66.2746C57.8725 66.6388 59.5512 66.4872 61.0647 65.8413C62.2459 65.3255 62.87 64.8097 62.9009 64.8768Z" fill="#263238"/>
<path d="M49.1134 80.6603C49.0567 80.7067 48.706 80.3044 48.5976 79.6803C48.5398 79.4975 48.52 79.3048 48.5395 79.114C48.559 78.9233 48.6174 78.7386 48.7111 78.5713C48.7885 78.5713 48.7472 79.0613 48.8607 79.6029C48.9742 80.1445 49.2011 80.619 49.1134 80.6603Z" fill="#263238"/>
<path d="M59.6622 41.7739C59.4306 41.8234 59.2156 41.9318 59.0381 42.0886C58.8393 42.2842 58.7013 42.5332 58.641 42.8055C58.5921 42.9833 58.5877 43.1704 58.6282 43.3503C58.6687 43.5302 58.7528 43.6974 58.8731 43.8371L58.9659 43.93L58.837 43.9712C58.5208 44.0746 58.2296 44.2427 57.9818 44.4646C57.7341 44.6866 57.5352 44.9577 57.3979 45.2607C57.2143 45.6228 57.123 46.0245 57.132 46.4303C57.141 46.8361 57.25 47.2334 57.4495 47.587L57.6042 47.8397L57.3154 47.7623C56.9832 47.6776 56.6333 47.6951 56.3113 47.8126C55.9892 47.9301 55.7102 48.142 55.5107 48.4207C55.3111 48.6994 55.2004 49.0319 55.1929 49.3746C55.1854 49.7172 55.2816 50.0542 55.4688 50.3413L55.2315 50.46C55.1259 50.2527 54.9475 50.0917 54.7304 50.0079C54.5134 49.9242 54.273 49.9235 54.0555 50.0061C53.8125 50.0754 53.5918 50.2071 53.4154 50.388C53.2389 50.569 53.1129 50.7929 53.0497 51.0377C52.9037 51.5404 52.8308 52.0615 52.8331 52.585L52.8125 53.3072L52.5907 52.5954C52.5139 52.4126 52.3767 52.2617 52.2021 52.1679C52.0276 52.074 51.8261 52.0428 51.6313 52.0796C51.4402 52.1218 51.2622 52.2095 51.1122 52.3352C50.9623 52.4609 50.8449 52.6209 50.7699 52.8017C50.4295 53.529 50.6358 54.3491 50.7699 55.0144H50.5636C50.5615 54.8432 50.521 54.6746 50.4452 54.5211C50.3693 54.3675 50.2599 54.233 50.1251 54.1273C49.886 53.9237 49.583 53.8105 49.2689 53.8075C49.0169 53.8239 48.7777 53.925 48.5904 54.0945C48.4032 54.264 48.2787 54.4919 48.2373 54.7411C48.1593 55.0652 48.2034 55.4067 48.3611 55.7005C48.4746 55.8965 48.5778 55.9738 48.5674 55.9893C48.461 55.9266 48.3722 55.8379 48.3095 55.7314C48.1519 55.4688 48.0805 55.1633 48.1055 54.8579C48.1304 54.5526 48.2505 54.2628 48.4488 54.0293C48.5521 53.9108 48.6787 53.8148 48.8207 53.7474C48.9626 53.68 49.117 53.6425 49.2741 53.6373C49.6324 53.6308 49.9814 53.7514 50.2593 53.9777C50.4147 54.1021 50.5413 54.2588 50.6303 54.4369C50.7194 54.615 50.7688 54.8103 50.7751 55.0093V55.8604L50.5739 55.0351C50.4721 54.6683 50.3997 54.2941 50.3573 53.9158C50.3028 53.4927 50.3653 53.0628 50.5378 52.6727C50.6257 52.4544 50.7656 52.2608 50.9454 52.1089C51.1252 51.9569 51.3394 51.8513 51.5694 51.801C51.8235 51.751 52.0872 51.7911 52.315 51.9144C52.5428 52.0377 52.7205 52.2365 52.8176 52.4767L52.5649 52.5128C52.5634 51.97 52.6398 51.4298 52.7918 50.9087C52.8804 50.6327 53.0224 50.3769 53.2096 50.1556C53.4157 49.9275 53.685 49.7659 53.9833 49.6914C54.2679 49.6079 54.5704 49.6079 54.855 49.6914C54.9979 49.7383 55.1282 49.817 55.2363 49.9215C55.3444 50.0261 55.4274 50.1537 55.4791 50.2949L55.8505 51.3265L55.2419 50.3929C55.023 50.0629 54.9098 49.6741 54.9174 49.2782C54.9249 48.8822 55.0528 48.498 55.2841 48.1766C55.5154 47.8552 55.839 47.6118 56.212 47.4788C56.585 47.3458 56.9896 47.3296 57.3721 47.4322L57.238 47.6128C57.0224 47.2256 56.9067 46.7909 56.9013 46.3478C56.8959 45.9047 57.001 45.4673 57.207 45.075C57.3587 44.7493 57.5778 44.4594 57.8499 44.2246C58.122 43.9899 58.4409 43.8156 58.7854 43.7133L58.7493 43.8474C58.6163 43.689 58.525 43.4999 58.4835 43.2973C58.4421 43.0946 58.4519 42.8848 58.512 42.6869C58.5873 42.3963 58.7492 42.1355 58.9762 41.939C59.1176 41.8188 59.2856 41.7339 59.4662 41.6914C59.5351 41.7096 59.6011 41.7374 59.6622 41.7739Z" fill="#8FC045"/>
<path d="M45.7812 39.6284C45.7812 39.6284 45.8121 39.6284 45.8534 39.7264C45.9076 39.8341 45.9392 39.9517 45.9462 40.072C45.9565 40.2682 45.9156 40.4637 45.8276 40.6394C45.7057 40.8829 45.4925 41.0683 45.2344 41.1552V41.0365C45.4621 41.225 45.6454 41.4614 45.7711 41.7289C45.8968 41.9964 45.9619 42.2884 45.9617 42.5839C45.9772 42.9668 45.8897 43.3469 45.7082 43.6844C45.5268 44.0219 45.2581 44.3045 44.9301 44.5027V44.3119C45.2434 44.566 45.4771 44.9048 45.6033 45.288C45.7295 45.6711 45.7429 46.0825 45.6419 46.473C45.3983 47.3038 44.9678 48.0677 44.3834 48.7064L44.1719 48.5414C44.2728 48.431 44.3975 48.345 44.5365 48.2899C44.6756 48.2349 44.8254 48.2122 44.9745 48.2236C45.1236 48.2351 45.2682 48.2803 45.3972 48.3559C45.5263 48.4315 45.6364 48.5355 45.7193 48.66C45.8528 48.884 45.9275 49.1381 45.9365 49.3987C45.9455 49.6593 45.8885 49.918 45.7708 50.1507C45.5503 50.5717 45.2488 50.9451 44.8837 51.2493L44.7496 51.0275C44.9354 50.9544 45.1342 50.9201 45.3337 50.9267C45.5333 50.9332 45.7294 50.9805 45.91 51.0655C46.0906 51.1506 46.2519 51.2717 46.3841 51.4214C46.5162 51.5711 46.6163 51.7462 46.6783 51.936C46.7403 52.1258 46.7628 52.3263 46.7445 52.5251C46.7261 52.7239 46.6674 52.9169 46.5718 53.0922C46.4762 53.2675 46.3457 53.4214 46.1885 53.5444C46.0312 53.6674 45.8505 53.757 45.6574 53.8077L45.3634 53.8902L45.5387 53.6375C45.6618 53.4809 45.8254 53.361 46.0119 53.291C46.1983 53.2209 46.4004 53.2034 46.5961 53.2403C46.9371 53.2844 47.2552 53.4362 47.5039 53.6736C47.6887 53.872 47.8325 54.1048 47.9272 54.3588C48.0219 54.6128 48.0656 54.883 48.0558 55.1539C48.0609 55.4893 48.0333 55.8245 47.9733 56.1546C47.9614 56.2708 47.9354 56.3851 47.8959 56.495C47.8547 56.495 47.963 56.0101 47.932 55.1591C47.9295 54.6537 47.7339 54.1684 47.3853 53.8025C47.1679 53.6195 46.9033 53.5015 46.6219 53.4621C46.463 53.436 46.3 53.4534 46.1501 53.5124C46.0003 53.5714 45.8693 53.6699 45.7708 53.7974L45.6522 53.6272C45.9435 53.5242 46.1883 53.3204 46.3425 53.0527C46.4966 52.785 46.55 52.4711 46.493 52.1674C46.447 52.0044 46.3687 51.8522 46.2627 51.72C46.1567 51.5878 46.0252 51.4782 45.876 51.3979C45.7269 51.3175 45.563 51.268 45.3943 51.2522C45.2256 51.2364 45.0555 51.2548 44.894 51.3061L44.2957 51.5175L44.7599 51.0843C45.0983 50.7976 45.377 50.447 45.58 50.0527C45.6797 49.8632 45.7291 49.6514 45.7237 49.4374C45.7183 49.2234 45.6582 49.0144 45.5491 48.8302C45.4895 48.7414 45.4111 48.6668 45.3194 48.6118C45.2277 48.5567 45.125 48.5225 45.0187 48.5117C44.9123 48.5008 44.8048 48.5136 44.7039 48.5491C44.603 48.5845 44.5112 48.6418 44.4349 48.7168L44.2235 48.5569C44.7849 47.9509 45.2027 47.2264 45.4459 46.4369C45.5412 46.0931 45.5359 45.7291 45.4308 45.3882C45.3257 45.0472 45.1251 44.7435 44.8527 44.513L44.7031 44.4099L44.863 44.317C45.1583 44.1412 45.4014 43.8898 45.5673 43.5889C45.7332 43.2879 45.8159 42.9481 45.807 42.6046C45.814 42.3322 45.7618 42.0616 45.6541 41.8113C45.5463 41.5611 45.3855 41.3372 45.1828 41.1552L45.0745 41.083L45.2035 41.0469C45.4252 40.9722 45.6099 40.8153 45.7193 40.6084C45.8082 40.4509 45.8561 40.2735 45.8585 40.0926C45.8622 39.9344 45.8359 39.7769 45.7812 39.6284Z" fill="#8FC045"/>
<g opacity="0.3">
<path opacity="0.3" d="M51.0173 62.9887C51.1966 64.9356 52.1362 66.7333 53.6324 67.9919C54.3829 68.6044 55.2673 69.0311 56.2138 69.2372C57.1603 69.4434 58.1421 69.4232 59.0793 69.1782C60.0111 68.9105 60.8514 68.3916 61.5082 67.6784C62.165 66.9652 62.613 66.0851 62.8033 65.1344C61.5213 65.7933 60.1531 66.269 58.7388 66.5477C57.2132 66.7535 55.6606 66.5133 54.2685 65.8562C52.8764 65.199 51.7042 64.1529 50.8936 62.8442C50.9606 62.9216 51.0328 62.9938 51.0999 63.066" fill="black"/>
</g>
<g opacity="0.3">
<path opacity="0.3" d="M45.6678 75.1255C45.4867 76.0924 45.5587 77.0897 45.8768 78.0206C46.195 78.9515 46.7484 79.7843 47.4834 80.4382C47.6233 80.5964 47.8021 80.7153 48.002 80.7831C48.2019 80.851 48.4161 80.8654 48.6234 80.825C47.192 79.1509 46.1884 77.1544 45.6988 75.0068" fill="black"/>
</g>
<path d="M65.6245 37.5086C65.6245 37.5086 59.8631 38.4113 61.2557 46.6021C62.6484 54.793 72.6033 68.6628 72.6033 68.6628L50.8418 81.9342L53.3795 87.8298L81.64 76.1986C81.64 76.1986 84.4253 73.3307 83.4453 70.1379C82.4653 66.9452 75.1926 46.8342 75.1926 46.8342C75.1926 46.8342 72.5053 36.116 65.6245 37.5086Z" fill="#A36957"/>
<path d="M31.855 86.9888L39.6436 82.0681L49.9595 82.5529L50.8261 81.9546L53.3638 87.8502C53.3638 87.8502 50.5836 89.1809 49.1291 89.2995L40.1181 88.6135L30.5449 87.8966L31.855 86.9888Z" fill="#A36957"/>
<path d="M72.5777 68.8224C72.3866 68.6161 72.214 68.3935 72.0619 68.157C71.7524 67.7186 71.314 67.0738 70.7827 66.2744C69.7253 64.6651 68.3172 62.411 66.8678 59.8578C65.4184 57.3047 64.2114 54.9371 63.3759 53.2041C62.9581 52.3375 62.6331 51.6309 62.4165 51.1409C62.2852 50.8939 62.1781 50.6348 62.0967 50.3672C62.2502 50.6002 62.3847 50.8451 62.499 51.0996L63.5306 53.1267C64.4074 54.834 65.6454 57.1809 67.0896 59.7289C68.5338 62.2769 69.911 64.5464 70.9271 66.1764L72.1341 68.1054C72.3024 68.3311 72.4508 68.571 72.5777 68.8224Z" fill="#7C3B29"/>
<path d="M77.9309 70.6895C77.1077 70.1712 76.2454 69.7177 75.3519 69.333C74.4168 69.0346 73.4596 68.8103 72.4893 68.6624C73.4924 68.5908 74.4993 68.7347 75.4423 69.0843C76.3854 69.4339 77.2427 69.9812 77.9567 70.6895H77.9309Z" fill="#7C3B29"/>
<path d="M0.484375 62.4007C0.680378 62.9991 8.49986 89.2789 8.49986 89.2789L53.3742 92.5026L55.0247 89.7173L29.9673 87.8295L22.937 60.8637C22.7944 60.3223 22.4558 59.8532 21.9869 59.5473C21.518 59.2414 20.9523 59.1204 20.3993 59.2079L0.484375 62.4007Z" fill="#455A64"/>
<path d="M14.6426 73.4286C15.0191 74.2126 14.8644 75.0688 14.2867 75.3473C13.709 75.6259 12.9404 75.2184 12.5639 74.4395C12.1874 73.6607 12.3421 72.7993 12.9146 72.5208C13.4872 72.2422 14.266 72.6497 14.6426 73.4286Z" fill="#FAFAFA"/>
<path d="M54.163 91.1823H54.0289H53.6524L52.1823 91.0998L46.7458 90.7387L28.5382 89.4286H28.4454L28.4196 89.3409C28.1772 88.495 27.9038 87.5975 27.6562 86.6897L22.1526 67.3164L20.5176 61.4466C20.3319 60.7658 20.1875 60.2293 20.0843 59.8425C20.043 59.6723 20.0069 59.5382 19.9811 59.4247C19.9634 59.3784 19.953 59.3297 19.9502 59.2803C19.9758 59.3237 19.9949 59.3706 20.0069 59.4195C20.0379 59.5279 20.0843 59.662 20.1359 59.8322C20.2545 60.2139 20.4144 60.74 20.6156 61.4157L22.3383 67.2648L27.9193 86.5917C28.1772 87.4995 28.4351 88.397 28.6775 89.2429L28.5588 89.1449L46.7613 90.5427L52.1875 90.9863L53.6524 91.1153L54.0341 91.1565C54.0782 91.1581 54.1217 91.1668 54.163 91.1823Z" fill="#263238"/>
<path d="M60.4815 10.8781L60.4402 8.85613L48.2261 7.04052C44.4711 6.7981 40.5872 10.7027 40.4892 14.4628C40.3963 18.6408 40.4479 23.7472 41.0669 26.842C42.3151 33.0315 47.1378 33.6557 47.1378 33.6557L47.4163 39.8452L61.2448 39.4584L60.4815 10.8781Z" fill="#A36957"/>
<path d="M43.0889 18.8419C43.0943 19.0507 43.1818 19.2491 43.3324 19.3939C43.483 19.5387 43.6846 19.6183 43.8935 19.6156C43.9957 19.6197 44.0977 19.6034 44.1936 19.5676C44.2894 19.5318 44.3771 19.4772 44.4516 19.4071C44.526 19.3369 44.5857 19.2526 44.6272 19.1591C44.6686 19.0656 44.691 18.9648 44.693 18.8625C44.6863 18.6536 44.5986 18.4555 44.4484 18.3101C44.2982 18.1647 44.0974 18.0835 43.8884 18.0836C43.7857 18.0795 43.6833 18.096 43.5871 18.1321C43.491 18.1682 43.403 18.2232 43.3285 18.2939C43.254 18.3646 43.1943 18.4495 43.1532 18.5436C43.112 18.6377 43.0902 18.7391 43.0889 18.8419Z" fill="#263238"/>
<path d="M41.9282 17.0724C42.0314 17.1704 42.6246 16.6959 43.4756 16.6649C44.3267 16.634 44.9869 17.0363 45.0746 16.928C45.1623 16.8196 45.0127 16.6959 44.729 16.505C44.3443 16.2619 43.8941 16.1431 43.4395 16.1646C42.9911 16.1826 42.5598 16.3414 42.2068 16.6185C41.9798 16.8403 41.8818 17.026 41.9282 17.0724Z" fill="#263238"/>
<path d="M51.1514 18.6664C51.1593 18.8748 51.2475 19.0722 51.3974 19.2173C51.5473 19.3624 51.7474 19.444 51.956 19.4452C52.0585 19.4487 52.1606 19.4317 52.2564 19.3953C52.3523 19.359 52.44 19.3039 52.5144 19.2333C52.5887 19.1628 52.6484 19.0782 52.6898 18.9844C52.7312 18.8906 52.7535 18.7895 52.7555 18.687C52.7501 18.4777 52.6628 18.2788 52.5123 18.1332C52.3619 17.9875 52.1603 17.9067 51.9509 17.9081C51.8484 17.9047 51.7463 17.9217 51.6504 17.958C51.5546 17.9944 51.4669 18.0495 51.3925 18.12C51.3181 18.1906 51.2585 18.2752 51.2171 18.369C51.1757 18.4628 51.1534 18.5639 51.1514 18.6664Z" fill="#263238"/>
<path d="M50.4189 16.8867C50.5221 16.9898 51.1101 16.5153 51.9663 16.4844C52.8225 16.4534 53.4776 16.8557 53.5704 16.7474C53.6633 16.6391 53.5034 16.5101 53.2197 16.3245C52.838 16.0789 52.3886 15.9598 51.9354 15.984C51.486 15.997 51.0531 16.1564 50.7026 16.4379C50.4499 16.6494 50.3673 16.8403 50.4189 16.8867Z" fill="#263238"/>
<path d="M47.5455 23.4118C47.0839 23.2905 46.6095 23.2247 46.1323 23.2158C45.9105 23.2158 45.7042 23.1694 45.6577 23.0198C45.6314 22.7923 45.6746 22.5621 45.7815 22.3596C45.9672 21.8438 46.1581 21.2506 46.3644 20.6575C47.169 18.2332 47.7467 16.2423 47.6487 16.2113C47.5507 16.1804 46.8183 18.1197 46.0085 20.544C45.8125 21.1423 45.6268 21.7097 45.4514 22.2564C45.3256 22.5275 45.2982 22.8339 45.374 23.123C45.4086 23.2002 45.4606 23.2683 45.5259 23.322C45.5913 23.3757 45.6682 23.4135 45.7506 23.4325C45.8739 23.4612 46.0005 23.4733 46.1271 23.4686C46.6004 23.5112 47.0772 23.4921 47.5455 23.4118Z" fill="#263238"/>
<path d="M47.1387 33.6659C50.1521 33.5941 53.089 32.7025 55.6338 31.0869C55.6338 31.0869 53.6996 35.5486 47.2057 35.2133L47.1387 33.6659Z" fill="#7C3B29"/>
<path d="M47.994 25.475C48.1494 25.2607 48.3571 25.0899 48.5973 24.9788C48.8375 24.8678 49.1022 24.8201 49.366 24.8405C49.5592 24.8537 49.7476 24.9062 49.9197 24.9949C50.0918 25.0836 50.2439 25.2066 50.3667 25.3563C50.4886 25.4963 50.5644 25.6704 50.5838 25.855C50.6032 26.0396 50.5652 26.2257 50.475 26.3879C50.3436 26.5495 50.1663 26.6675 49.9665 26.7265C49.7667 26.7854 49.5538 26.7824 49.3557 26.718C48.9427 26.5892 48.5589 26.3807 48.2261 26.1043C48.1268 26.0368 48.0397 25.9531 47.9682 25.8567C47.9367 25.8093 47.9199 25.7537 47.9199 25.6968C47.9199 25.6399 47.9367 25.5843 47.9682 25.5369" fill="#7C3B29"/>
<path d="M50.1095 23.9071C49.9702 23.9071 50.0063 24.8407 49.2275 25.537C48.4486 26.2333 47.4531 26.1714 47.4531 26.3055C47.4531 26.4396 47.6801 26.4757 48.103 26.4706C48.6517 26.4543 49.1774 26.2463 49.5885 25.8826C49.9827 25.5342 50.2252 25.0455 50.2642 24.5209C50.2848 24.1289 50.1714 23.8968 50.1095 23.9071Z" fill="#263238"/>
<path d="M50.0575 13.519C50.1504 13.746 51.0066 13.6016 52.0227 13.6841C53.0389 13.7666 53.8693 14.009 53.9982 13.7924C54.055 13.6892 53.9002 13.4726 53.565 13.2766C53.1139 13.0148 52.6088 12.8596 52.0885 12.8229C51.5682 12.7863 51.0464 12.8691 50.563 13.0651C50.1968 13.2302 50.0163 13.4056 50.0575 13.519Z" fill="#263238"/>
<path d="M42.1451 14.5608C42.305 14.7516 42.893 14.5247 43.6048 14.4834C44.3166 14.4422 44.9304 14.566 45.0645 14.3545C45.1212 14.2513 45.0181 14.0605 44.7447 13.8851C44.3826 13.6705 43.9622 13.5749 43.5429 13.6117C43.1238 13.6374 42.7225 13.7904 42.3927 14.0502C42.1502 14.2616 42.0729 14.468 42.1451 14.5608Z" fill="#263238"/>
<path d="M38.8857 6.89597C39.9173 9.08295 42.1456 12.3376 44.5595 12.5697C45.7626 12.673 46.972 12.4665 48.0727 11.9699C49.1733 11.4733 50.1284 10.7032 50.8471 9.73286C51.2494 11.5072 53.2507 12.4098 55.0508 12.6626C56.3224 12.894 57.6331 12.7745 58.8419 12.317C59.4428 12.0824 59.9738 11.6982 60.3846 11.2009C60.7953 10.7035 61.0721 10.1094 61.1888 9.47496C61.3539 8.20094 59.4712 5.12163 58.2023 4.91016" fill="#263238"/>
<path d="M58.3978 38.8442C58.4777 39.8558 58.8671 40.8182 59.5131 41.6008C60.159 42.3833 61.0303 42.948 62.0084 43.2182C61.979 44.0458 62.2446 44.8569 62.758 45.5067C63.2713 46.1566 63.9988 46.6028 64.8108 46.7658C65.6227 46.9288 66.4661 46.798 67.1905 46.3966C67.9149 45.9953 68.473 45.3495 68.7653 44.5747C68.8735 44.1561 69.0476 43.7574 69.2811 43.3935C69.8897 42.6147 71.0864 42.7694 72.0251 42.4651C73.717 41.9184 74.4494 39.8449 74.2586 38.0757C74.2011 37.735 74.1855 37.3886 74.2121 37.0441C74.3153 36.3374 74.8724 35.7959 75.285 35.2078C76.9871 32.7939 76.2753 29.2917 74.3875 27.017C73.7582 26.2588 72.9639 25.4696 73.0258 24.4844C73.1152 23.9447 73.2893 23.4225 73.5416 22.937C73.852 22.0976 73.9035 21.1843 73.6892 20.3153C73.4749 19.4464 73.0049 18.6617 72.3398 18.0627C72.1104 17.912 71.9309 17.6966 71.824 17.4438C71.7905 17.2735 71.7905 17.0983 71.824 16.928C71.9278 15.6129 71.5304 14.3072 70.7115 13.273C69.8925 12.2388 68.7127 11.5526 67.4088 11.3522C67.2507 11.3468 67.095 11.3118 66.9497 11.2491C66.5474 11.0376 66.5319 10.4857 66.4803 10.0369C66.3411 8.84546 65.4487 6.62753 64.5151 5.84868C61.9877 3.69265 59.5429 5.44636 58.6712 6.26647C58.6712 6.26647 56.9432 14.8287 57.2785 16.4277C57.6138 18.0266 58.7846 21.9983 58.3101 23.8036C57.8356 25.6089 57.0877 29.3071 57.7943 30.937C58.501 32.567 58.3978 38.8442 58.3978 38.8442Z" fill="#263238"/>
<path d="M67.8371 11.2957C67.8371 11.2957 67.7288 11.4091 67.507 11.569C67.1871 11.7906 66.8529 11.9905 66.5063 12.1674C64.1986 13.3634 61.5705 13.7951 59.0015 13.4001C58.6139 13.3454 58.2311 13.2609 57.8564 13.1474C57.7163 13.1181 57.5809 13.0695 57.4541 13.003C57.4541 12.9565 58.0576 13.1061 59.0015 13.2144C60.2605 13.3498 61.532 13.3169 62.7823 13.1164C64.0313 12.9099 65.2461 12.5333 66.3929 11.9972C67.3007 11.5897 67.8113 11.2596 67.8371 11.2957Z" fill="#455A64"/>
<path d="M68.662 11.9042C68.6199 12.0827 68.5576 12.2557 68.4763 12.42C68.3996 12.6174 68.3082 12.8088 68.2029 12.9926C68.0782 13.2431 67.9387 13.4859 67.7851 13.7198C67.3921 14.3385 66.9395 14.9173 66.4337 15.4478C65.8088 16.0933 65.1172 16.6708 64.3705 17.1705C63.6171 17.6582 62.8151 18.0661 61.9772 18.3878C61.2907 18.643 60.5806 18.8296 59.8573 18.9449C59.5811 18.9961 59.3021 19.0306 59.0217 19.048C58.8105 19.0624 58.5985 19.0624 58.3873 19.048C58.2062 19.0641 58.0238 19.0537 57.8457 19.0171C57.8457 18.9655 58.6194 18.9758 59.8212 18.7386C60.5252 18.5978 61.2155 18.3958 61.8844 18.1351C63.5252 17.4904 65.0132 16.5101 66.2532 15.2569C66.7566 14.7444 67.214 14.1886 67.6201 13.5961C68.3215 12.5954 68.6104 11.8836 68.662 11.9042Z" fill="#455A64"/>
<path d="M64.1856 43.7137C64.1856 43.7137 64.2939 43.7137 64.4847 43.6827C64.7636 43.6179 65.0146 43.4662 65.2017 43.2494C65.506 42.9132 65.6734 42.4753 65.6711 42.0219C65.6547 41.4172 65.5451 40.8187 65.3461 40.2475C65.0697 39.5269 65.0158 38.7399 65.1914 37.9883C65.4596 37.1734 66.1095 36.5492 66.6924 35.8787C66.9987 35.5529 67.2512 35.1802 67.4403 34.7749C67.5253 34.5685 67.5657 34.3463 67.5586 34.1231C67.5514 33.9 67.4971 33.6808 67.399 33.4802C67.1639 33.063 66.8312 32.709 66.4293 32.4487C66.027 32.1547 65.5834 31.8968 65.1553 31.5821C64.6997 31.2838 64.3411 30.8589 64.1237 30.3597C64.0408 30.1049 64.0122 29.8356 64.0398 29.5691C64.0673 29.3025 64.1504 29.0448 64.2836 28.8123C64.7684 27.92 65.5267 27.2649 65.702 26.4241C65.7669 26.0184 65.7438 25.6035 65.6343 25.2075C65.5248 24.8115 65.3316 24.4437 65.0676 24.1289C64.6258 23.539 64.1208 22.9994 63.5615 22.5196C63.102 22.1062 62.6808 21.6522 62.3029 21.163C62.0151 20.7892 61.7935 20.3687 61.6479 19.9199C61.5638 19.6339 61.5289 19.3357 61.5447 19.0379C61.5515 18.9363 61.5705 18.8358 61.6014 18.7388C61.5853 19.1275 61.6342 19.5163 61.7459 19.889C62.1754 20.869 62.844 21.7256 63.6904 22.3803C64.2653 22.8585 64.7844 23.4001 65.2378 23.9947C65.4952 24.3365 65.6987 24.7157 65.8413 25.1192C66.0019 25.5531 66.0341 26.024 65.9341 26.4757C65.733 27.4351 64.9438 28.1056 64.5105 28.9361C64.3923 29.1354 64.3182 29.3579 64.2932 29.5884C64.2683 29.8188 64.2932 30.052 64.3661 30.272C64.5646 30.7193 64.889 31.0993 65.2997 31.3655C65.7072 31.6698 66.1559 31.9277 66.5686 32.232C66.9986 32.5197 67.3526 32.9073 67.6002 33.3616C67.7137 33.5944 67.7761 33.8488 67.7832 34.1076C67.7903 34.3665 67.742 34.6239 67.6414 34.8626C67.4427 35.2966 67.1724 35.6942 66.8419 36.0386C66.2436 36.7143 65.6143 37.3178 65.3668 38.0502C65.1941 38.7556 65.2317 39.4962 65.4751 40.1805C65.6671 40.7736 65.7646 41.3932 65.7639 42.0167C65.7521 42.4994 65.5587 42.9598 65.2223 43.3062C65.0155 43.5289 64.739 43.6745 64.4383 43.7188C64.3544 43.7321 64.2689 43.7303 64.1856 43.7137Z" fill="#455A64"/>
</svg>
