<svg width="200" height="235" viewBox="0 0 200 235" fill="none" xmlns="http://www.w3.org/2000/svg">
<path d="M145.596 232.866L63.3764 185.393C62.6531 184.976 62.0524 184.376 61.6347 183.653C61.217 182.93 60.9971 182.11 60.9971 181.276C60.9971 180.441 61.217 179.621 61.6347 178.898C62.0524 178.176 62.6531 177.576 63.3764 177.159L71.4871 172.044C72.8872 171.238 74.4745 170.813 76.0902 170.813C77.7059 170.813 79.2933 171.238 80.6934 172.044L162.924 219.523C163.647 219.94 164.248 220.54 164.666 221.263C165.083 221.986 165.303 222.806 165.303 223.64C165.303 224.475 165.083 225.295 164.666 226.018C164.248 226.741 163.647 227.34 162.924 227.757L154.813 232.866C153.413 233.677 151.823 234.104 150.204 234.104C148.586 234.104 146.996 233.677 145.596 232.866Z" fill="#E0E0E0"/>
<path d="M20.5817 189.585C30.4358 189.585 38.4241 184.997 38.4241 179.339C38.4241 173.68 30.4358 169.093 20.5817 169.093C10.7276 169.093 2.73926 173.68 2.73926 179.339C2.73926 184.997 10.7276 189.585 20.5817 189.585Z" fill="#E6E6E6"/>
<path d="M174.752 191.933L182.578 196.432C182.578 196.432 178.581 183.872 180.711 171.212C181.516 166.427 183.243 164.051 183.847 162.771C184.45 161.491 189.129 153.582 184.965 149.959C180.8 146.337 171.113 153.621 171.639 173.112C171.878 179.492 172.924 185.816 174.752 191.933Z" fill="#8FC045"/>
<path opacity="0.5" d="M174.752 191.933L182.578 196.432C182.578 196.432 178.581 183.872 180.711 171.212C181.516 166.427 183.243 164.051 183.847 162.771C184.45 161.491 189.129 153.582 184.965 149.959C180.8 146.337 171.113 153.621 171.639 173.112C171.878 179.492 172.924 185.816 174.752 191.933Z" fill="black"/>
<path d="M178.391 194.303C178.334 194.304 178.278 194.287 178.231 194.255C178.183 194.223 178.148 194.177 178.128 194.124C178.1 194.04 175.109 185.868 175.204 172.732C175.299 159.596 182.203 152.464 182.27 152.397C182.296 152.37 182.327 152.35 182.361 152.335C182.395 152.321 182.431 152.314 182.468 152.314C182.505 152.314 182.542 152.321 182.576 152.335C182.61 152.35 182.641 152.37 182.667 152.397C182.693 152.423 182.714 152.454 182.728 152.488C182.742 152.522 182.749 152.558 182.749 152.595C182.749 152.632 182.742 152.668 182.728 152.703C182.714 152.737 182.693 152.768 182.667 152.793C182.6 152.861 175.858 159.781 175.763 172.738C175.668 185.695 178.62 193.856 178.653 193.934C178.678 194.004 178.675 194.08 178.643 194.148C178.612 194.215 178.555 194.266 178.486 194.292C178.455 194.301 178.423 194.305 178.391 194.303Z" fill="white"/>
<path d="M178.016 193.855L188.715 200.004C189.83 200.663 191.152 200.878 192.418 200.605C193.684 200.333 194.801 199.593 195.546 198.534C196.254 197.432 196.553 196.116 196.39 194.817C195.876 189.261 193.461 187.981 196.418 185.504C199.375 183.028 200.146 182.855 199.978 180.473C199.811 178.092 198.184 177.053 197.413 176.113C196.641 175.174 194.506 173.207 195.959 170.3C197.413 167.394 199.397 164.582 196.39 163.296C194.595 162.525 191.605 163.553 189.637 165.689C187.67 167.824 186.049 169.361 184.165 169.875C182.281 170.39 178.357 170.473 178.525 173.721C178.693 176.969 179.554 178.081 178.782 179.529C177.329 182.234 171.007 183.771 178.016 193.855Z" fill="#8FC045"/>
<path d="M183.304 197.165C183.234 197.162 183.168 197.135 183.116 197.088C183.065 197.041 183.032 196.977 183.024 196.908C183.024 196.717 181.381 177.534 194.573 164.767C194.627 164.722 194.697 164.699 194.767 164.703C194.837 164.707 194.904 164.738 194.952 164.789C195.001 164.84 195.029 164.907 195.03 164.978C195.031 165.048 195.006 165.117 194.958 165.169C181.957 177.752 183.567 196.667 183.583 196.857C183.59 196.93 183.567 197.003 183.52 197.06C183.472 197.116 183.405 197.152 183.332 197.159L183.304 197.165Z" fill="white"/>
<path d="M185.422 180.652C185.352 180.652 185.284 180.626 185.232 180.578C185.18 180.531 185.149 180.465 185.143 180.395C185.026 178.908 184.607 177.461 183.912 176.142C183.217 174.822 182.261 173.658 181.102 172.72C181.071 172.699 181.046 172.672 181.026 172.641C181.006 172.61 180.993 172.575 180.986 172.539C180.98 172.502 180.981 172.465 180.989 172.429C180.998 172.393 181.013 172.359 181.034 172.329C181.055 172.299 181.082 172.273 181.112 172.254C181.143 172.234 181.177 172.221 181.213 172.215C181.249 172.208 181.286 172.209 181.321 172.217C181.357 172.226 181.391 172.241 181.42 172.262C182.656 173.242 183.675 174.468 184.412 175.862C185.149 177.256 185.588 178.789 185.702 180.362C185.708 180.436 185.685 180.511 185.636 180.568C185.588 180.626 185.519 180.662 185.445 180.669L185.422 180.652Z" fill="white"/>
<path d="M184.511 183.945C184.444 183.946 184.378 183.922 184.327 183.878C184.271 183.828 184.237 183.759 184.232 183.685C184.227 183.611 184.251 183.538 184.299 183.481C184.433 183.324 187.737 179.68 195.478 180.647C195.552 180.657 195.618 180.695 195.663 180.754C195.708 180.812 195.728 180.887 195.719 180.96C195.709 181.034 195.671 181.101 195.612 181.147C195.554 181.193 195.48 181.214 195.406 181.206C187.971 180.272 184.746 183.816 184.713 183.85C184.687 183.878 184.656 183.901 184.622 183.918C184.587 183.934 184.549 183.943 184.511 183.945Z" fill="white"/>
<path d="M143.092 227.193L70.7828 185.443C65.6794 182.497 61.543 174.594 61.543 167.791V12.9553C61.543 6.15263 65.6794 3.02797 70.7828 5.97376L143.092 47.7235C148.195 50.6693 152.331 58.5731 152.331 65.3758V220.211C152.331 227.009 148.195 230.139 143.092 227.193Z" fill="#455A64"/>
<path d="M151.42 42.8545L79.1058 1.10479C76.9258 -0.152901 74.9247 -0.298234 73.3428 0.473149C73.1491 0.570134 72.9624 0.680325 72.7838 0.802943L64.6787 5.51509C66.3109 4.53688 68.4462 4.60955 70.7883 5.96227L143.097 47.712C148.2 50.6578 152.337 58.5616 152.337 65.3643V220.2C152.337 223.8 151.18 226.349 149.335 227.556L157.334 222.9C159.374 221.815 160.688 219.16 160.688 215.354V60.5181C160.688 53.7042 156.524 45.8003 151.42 42.8545Z" fill="#37474F"/>
<path d="M152.332 65.3644V220.2C152.332 223.8 151.175 226.349 149.33 227.556L157.335 222.9C159.375 221.815 160.688 219.16 160.688 215.354V60.5181L152.36 65.3532L152.332 65.3644Z" fill="#263238"/>
<path d="M160.66 72.5303L152.331 77.3374V81.0937L160.66 76.281V72.5303Z" fill="#37474F"/>
<path d="M157.01 97.5107C156.267 97.9411 155.663 97.4827 155.663 96.4933V88.4162C155.671 87.9112 155.796 87.4151 156.03 86.9676C156.264 86.5201 156.6 86.1337 157.01 85.8393C157.754 85.4089 158.357 85.8393 158.357 86.8566V94.9338C158.35 95.4387 158.224 95.9348 157.99 96.3823C157.756 96.8299 157.421 97.2163 157.01 97.5107Z" fill="#37474F"/>
<path d="M155.657 96.516V88.4165C155.665 87.9116 155.791 87.4155 156.025 86.968C156.259 86.5204 156.594 86.134 157.005 85.8396C157.127 85.7539 157.27 85.7016 157.419 85.6878C157.568 85.6741 157.718 85.6995 157.854 85.7614L156.842 85.2415C156.704 85.1749 156.551 85.1461 156.397 85.1578C156.244 85.1696 156.097 85.2216 155.97 85.3086C155.56 85.603 155.224 85.9893 154.989 86.4367C154.754 86.8841 154.627 87.3802 154.618 87.8855V95.957C154.597 96.1609 154.628 96.3668 154.708 96.5555C154.788 96.7441 154.915 96.9094 155.076 97.0359L156.133 97.5948C155.964 97.4737 155.832 97.3098 155.748 97.1201C155.665 96.9304 155.633 96.7219 155.657 96.516Z" fill="#455A64"/>
<path d="M157.01 117.058C156.267 117.489 155.663 117.058 155.663 116.041V107.964C155.671 107.459 155.797 106.963 156.031 106.516C156.265 106.068 156.6 105.682 157.01 105.387C157.754 104.957 158.357 105.387 158.357 106.41V114.482C158.351 114.987 158.225 115.483 157.991 115.931C157.757 116.378 157.421 116.765 157.01 117.058Z" fill="#37474F"/>
<path d="M155.658 116.041V107.964C155.666 107.459 155.792 106.963 156.026 106.515C156.259 106.068 156.595 105.681 157.005 105.387C157.128 105.303 157.271 105.251 157.419 105.237C157.568 105.224 157.718 105.248 157.854 105.309L156.843 104.783C156.705 104.714 156.551 104.683 156.397 104.695C156.244 104.707 156.096 104.76 155.971 104.85C155.559 105.144 155.222 105.53 154.987 105.977C154.752 106.425 154.626 106.922 154.618 107.427V115.521C154.596 115.725 154.627 115.931 154.707 116.12C154.788 116.308 154.915 116.474 155.076 116.6L156.133 117.159C155.958 117.035 155.821 116.865 155.737 116.667C155.653 116.47 155.625 116.253 155.658 116.041Z" fill="#455A64"/>
<path d="M140.565 52.0663L69.5086 11.0265C69.212 10.8559 68.876 10.7658 68.5339 10.7651C68.1917 10.7645 67.8554 10.8533 67.5582 11.0228C67.261 11.1923 67.0133 11.4366 66.8397 11.7314C66.666 12.0262 66.5725 12.3613 66.5684 12.7034V167.791C66.5684 172.967 70.2408 179.322 74.7238 181.91L144.036 221.949C144.365 222.139 144.738 222.238 145.117 222.238C145.496 222.237 145.869 222.137 146.197 221.948C146.526 221.758 146.798 221.485 146.988 221.157C147.178 220.829 147.278 220.456 147.279 220.077V63.7097C147.306 59.4391 144.277 54.2016 140.565 52.0663Z" fill="#8FC045"/>
<path opacity="0.9" d="M140.565 52.0663L69.5086 11.0265C69.212 10.8559 68.876 10.7658 68.5339 10.7651C68.1917 10.7645 67.8554 10.8533 67.5582 11.0228C67.261 11.1923 67.0133 11.4366 66.8397 11.7314C66.666 12.0262 66.5725 12.3613 66.5684 12.7034V167.791C66.5684 172.967 70.2408 179.322 74.7238 181.91L144.036 221.949C144.365 222.139 144.738 222.238 145.117 222.238C145.496 222.237 145.869 222.137 146.197 221.948C146.526 221.758 146.798 221.485 146.988 221.157C147.178 220.829 147.278 220.456 147.279 220.077V63.7097C147.306 59.4391 144.277 54.2016 140.565 52.0663Z" fill="white"/>
<path d="M90.7598 21.7422L91.8609 26.3761L115.416 39.9591L119.485 37.7903L90.7598 21.7422Z" fill="#455A64"/>
<path d="M97.6861 26.2195C97.6861 26.9909 97.1271 27.2983 96.4787 26.9182C96.1306 26.6871 95.8416 26.3776 95.6348 26.0145C95.428 25.6514 95.3093 25.2449 95.2881 24.8276C95.2881 24.0618 95.8471 23.7488 96.4955 24.1345C96.8434 24.3644 97.1325 24.6729 97.3393 25.0351C97.5461 25.3972 97.6649 25.8029 97.6861 26.2195Z" fill="#263238"/>
<path d="M113.556 36.0293C113.427 36.0283 113.3 35.9956 113.187 35.9343L101.158 29.2266C100.988 29.1269 100.864 28.9647 100.812 28.7746C100.76 28.5846 100.784 28.3819 100.88 28.2097C100.976 28.0375 101.135 27.9094 101.323 27.853C101.512 27.7965 101.715 27.816 101.89 27.9074L113.925 34.6151C114.071 34.6964 114.186 34.824 114.252 34.9779C114.318 35.1318 114.33 35.3032 114.288 35.4652C114.246 35.6271 114.151 35.7704 114.018 35.8726C113.886 35.9747 113.723 36.0298 113.556 36.0293Z" fill="#263238"/>
<path d="M81.4699 43.3019C80.7376 42.8771 80.2066 43.2461 80.2066 44.1795C80.2066 44.6464 80.3219 45.1059 80.5423 45.5175C80.7627 45.929 81.0813 46.2797 81.4699 46.5384C81.678 46.6647 81.9168 46.7315 82.1602 46.7315C82.4037 46.7315 82.6424 46.6647 82.8505 46.5384L84.0188 48.6513C83.6078 48.8781 83.1419 48.9862 82.673 48.9635C82.2042 48.9408 81.7508 48.7882 81.3637 48.5228C80.4146 47.9421 79.6233 47.1364 79.0597 46.177C78.4962 45.2177 78.1778 44.1342 78.1328 43.0225C78.1328 40.9487 79.5247 40.2276 81.4419 41.3455C82.5247 42.0428 83.4116 43.0047 84.0188 44.1404L82.8505 45.0683C82.5625 44.3632 82.0845 43.7518 81.4699 43.3019Z" fill="#8FC045"/>
<path d="M90.7438 50.3054C90.7438 52.396 89.3296 53.1003 87.39 51.9824C86.4138 51.399 85.5968 50.5835 85.0117 49.6083C84.4266 48.6331 84.0915 47.5285 84.0361 46.3926C84.0361 44.3021 85.4503 43.5978 87.39 44.7157C88.3685 45.2964 89.1873 46.1113 89.7728 47.0871C90.3582 48.0628 90.6919 49.1687 90.7438 50.3054ZM86.1099 47.6391C86.1197 48.1191 86.2434 48.5898 86.4708 49.0126C86.6982 49.4353 87.0229 49.798 87.4179 50.0707C88.111 50.4731 88.67 50.0707 88.67 49.1204C88.6681 48.6513 88.5534 48.1895 88.3354 47.7741C88.1175 47.3587 87.8028 47.0018 87.4179 46.7336C86.7136 46.3256 86.1099 46.6721 86.1099 47.6391Z" fill="#8FC045"/>
<path d="M92.9963 48.0864L95.411 53.1171V49.495L97.2389 50.5515V57.6001L95.5619 56.6275L93.1584 51.6415V55.2412L91.3193 54.1792V47.1138L92.9963 48.0864Z" fill="#8FC045"/>
<path d="M103.214 53.9833V55.828L101.47 54.8218V60.0314L99.4525 58.8632V53.6535L97.7197 52.653V50.814L103.214 53.9833Z" fill="#8FC045"/>
<path d="M107.15 62.3126L104.858 60.9878L104.545 61.8039L102.477 60.6077L105.053 55.0459L107.127 56.2421L109.609 64.7273L107.457 63.4864L107.15 62.3126ZM106.652 60.3561L106.026 57.947L105.383 59.6239L106.652 60.3561Z" fill="#8FC045"/>
<path d="M112.812 61.3957C112.079 60.9765 111.548 61.3398 111.548 62.2789C111.549 62.7455 111.665 63.2047 111.885 63.6161C112.106 64.0274 112.424 64.3783 112.812 64.6377C113.021 64.7628 113.261 64.8288 113.505 64.8288C113.749 64.8288 113.988 64.7628 114.198 64.6377L115.366 66.7507C114.953 66.9748 114.487 67.0814 114.018 67.0587C113.549 67.0361 113.095 66.885 112.705 66.6221C111.756 66.0409 110.964 65.2344 110.4 64.2739C109.837 63.3135 109.519 62.2289 109.475 61.1162C109.475 59.0424 110.872 58.3213 112.784 59.4393C113.865 60.1399 114.753 61.1009 115.366 62.2342L114.198 63.1565C113.903 62.4551 113.424 61.8466 112.812 61.3957Z" fill="#8FC045"/>
<path d="M120.878 64.1846V66.0236L119.134 65.0174V70.2438L117.117 69.0756V63.866L115.384 62.8654V61.0264L120.878 64.1846Z" fill="#8FC045"/>
<path d="M126.841 72.8376C127.339 73.1226 127.719 72.8991 127.719 72.2003V68.1366L129.743 69.2993V73.363C129.743 75.2356 128.625 75.7945 126.836 74.7716C125.974 74.293 125.25 73.6012 124.732 72.7625C124.214 71.9237 123.92 70.966 123.879 69.9812V65.9175L125.902 67.0857V71.1495C125.91 71.4859 126 71.8154 126.163 72.1095C126.327 72.4036 126.56 72.6535 126.841 72.8376Z" fill="#8FC045"/>
<path d="M133.002 72.8602C132.773 72.7316 132.627 72.726 132.627 72.9385C132.627 73.8216 135.785 75.0961 135.785 77.6506C135.785 79.2157 134.595 79.2213 133.22 78.4276C132.011 77.6869 130.97 76.7027 130.162 75.5377L130.911 74.2185C131.526 75.1702 132.315 75.997 133.236 76.6556C133.533 76.8289 133.723 76.8289 133.723 76.5774C133.723 75.6606 130.559 74.4421 130.559 71.9658C130.559 70.5572 131.587 70.2889 133.175 71.1833C134.198 71.8018 135.098 72.6033 135.83 73.5477L135.098 74.9004C134.493 74.1301 133.788 73.444 133.002 72.8602Z" fill="#8FC045"/>
<path d="M71.3024 78.0361C73.5704 75.2506 74.7121 71.7161 74.5022 68.1302C74.2922 64.5442 72.746 61.1671 70.1684 58.6652C67.5908 56.1633 64.1692 54.7183 60.5786 54.6153C56.988 54.5123 53.4891 55.7587 50.7723 58.1087C48.0555 60.4586 46.3182 63.7415 45.9029 67.3095C45.4877 70.8775 46.4248 74.4716 48.5294 77.3827C50.6339 80.2937 53.7531 82.3103 57.2714 83.0345C60.7897 83.7588 64.4518 83.1381 67.535 81.2949L74.5333 84.3358L71.3024 78.0361Z" fill="#8FC045"/>
<path opacity="0.4" d="M71.3024 78.0361C73.5704 75.2506 74.7121 71.7161 74.5022 68.1302C74.2922 64.5442 72.746 61.1671 70.1684 58.6652C67.5908 56.1633 64.1692 54.7183 60.5786 54.6153C56.988 54.5123 53.4891 55.7587 50.7723 58.1087C48.0555 60.4586 46.3182 63.7415 45.9029 67.3095C45.4877 70.8775 46.4248 74.4716 48.5294 77.3827C50.6339 80.2937 53.7531 82.3103 57.2714 83.0345C60.7897 83.7588 64.4518 83.1381 67.535 81.2949L74.5333 84.3358L71.3024 78.0361Z" fill="black"/>
<path d="M54.8464 68.1986C54.8464 67.9806 54.6899 67.8576 54.4048 67.8576C53.7436 67.9442 53.126 68.2354 52.6385 68.6905L51.8447 67.1477C52.6802 66.519 53.6895 66.1637 54.7346 66.1304C56.0762 66.1304 57.0935 66.8347 57.0935 67.8855C57.0935 68.6346 56.5345 69.3556 55.819 70.0767L54.8185 71.0661H57.1829V72.7095H52.1019V71.3624L54.3657 69.0203C54.6095 68.8046 54.7779 68.5167 54.8464 68.1986Z" fill="white"/>
<path d="M61.3196 66.2251L59.7769 69.9255H60.4085V68.679H62.3538V69.9255H63.0916V71.4515H62.3538V72.7092H60.4085V71.4515H57.6416V70.0652L59.3185 66.2251H61.3196Z" fill="white"/>
<path d="M69.0949 69.4842V72.7095H67.0155V70.0823C67.0275 69.9967 67.021 69.9096 66.9964 69.8268C66.9719 69.744 66.9298 69.6674 66.8731 69.6022C66.8164 69.537 66.7464 69.4848 66.6678 69.449C66.5892 69.4132 66.5038 69.3947 66.4174 69.3947C66.0094 69.3947 65.7522 69.7134 65.7522 70.2053V72.7095H63.6729V65.8564H65.7522V68.3774C65.9149 68.1203 66.1416 67.9099 66.4101 67.7668C66.6786 67.6238 66.9797 67.5529 67.2838 67.5613C67.533 67.5549 67.7808 67.6011 68.0109 67.697C68.2411 67.7929 68.4484 67.9363 68.6193 68.1178C68.7903 68.2993 68.921 68.5148 69.0029 68.7502C69.0849 68.9857 69.1162 69.2358 69.0949 69.4842Z" fill="white"/>
<path d="M136.898 121.424V190.877C136.899 191.662 136.694 192.434 136.302 193.115C135.91 193.796 135.345 194.361 134.665 194.754C133.985 195.148 133.214 195.355 132.428 195.355C131.643 195.355 130.871 195.149 130.191 194.756L92.7841 173.157L86.1546 169.334C83.8718 168.014 81.9755 166.118 80.6551 163.835C79.3348 161.553 78.6368 158.963 78.6309 156.327V86.8685C78.6297 86.083 78.8355 85.311 79.2275 84.6303C79.6195 83.9496 80.1839 83.3842 80.8639 82.9909C81.5439 82.5976 82.3155 82.3904 83.101 82.3901C83.8865 82.3898 84.6583 82.5965 85.3385 82.9892L129.386 108.417C131.669 109.735 133.566 111.631 134.885 113.914C136.204 116.197 136.898 118.787 136.898 121.424Z" fill="#8FC045"/>
<path opacity="0.5" d="M136.898 121.424V190.877C136.899 191.662 136.694 192.434 136.302 193.115C135.91 193.796 135.345 194.361 134.665 194.754C133.985 195.148 133.214 195.355 132.428 195.355C131.643 195.355 130.871 195.149 130.191 194.756L92.7841 173.157L86.1546 169.334C83.8718 168.014 81.9755 166.118 80.6551 163.835C79.3348 161.553 78.6368 158.963 78.6309 156.327V86.8685C78.6297 86.083 78.8355 85.311 79.2275 84.6303C79.6195 83.9496 80.1839 83.3842 80.8639 82.9909C81.5439 82.5976 82.3155 82.3904 83.101 82.3901C83.8865 82.3898 84.6583 82.5965 85.3385 82.9892L129.386 108.417C131.669 109.735 133.566 111.631 134.885 113.914C136.204 116.197 136.898 118.787 136.898 121.424Z" fill="white"/>
<path d="M115.35 162.52C115.35 162.52 122.354 174.135 117.295 187.232L92.7676 173.157L115.35 162.52Z" fill="#263238"/>
<path d="M126.52 110.332C127.05 106.028 123.99 102.108 119.685 101.578C115.38 101.048 111.461 104.108 110.931 108.413C110.4 112.718 113.461 116.637 117.765 117.167C122.07 117.697 125.99 114.637 126.52 110.332Z" fill="#263238"/>
<path d="M118.765 87.3433C118.765 87.3433 121.174 83.4305 121.912 83.7155C122.65 84.0006 121.431 87.729 121.431 87.729C121.431 87.729 125.075 88.4892 124.399 89.4059C123.723 90.3226 119.268 90.1046 119.268 90.1046L118.765 87.3433Z" fill="#263238"/>
<path d="M120.442 97.4273C118.765 110.027 108.145 110.027 108.145 110.027L85.8977 100.233C85.8977 100.233 84.2208 98.7632 83.7066 95.3871C83.5093 94.0041 83.5093 92.6001 83.7066 91.2171C83.7066 91.2171 83.7066 91.1892 83.7066 91.178C84.4165 85.8789 88.3796 80.183 97.0101 78.4334C98.9015 78.0515 100.827 77.8642 102.756 77.8744C103.69 77.8711 104.623 77.9178 105.551 78.0142C112.259 78.6738 116.96 81.804 119.201 86.6727C119.706 87.7715 120.081 88.9251 120.319 90.1103C120.774 92.5248 120.816 94.9989 120.442 97.4273Z" fill="#263238"/>
<path d="M67.0319 121.799C67.0319 121.799 59.1336 121.525 56.0928 129.222C56.0928 129.222 59.4466 131.486 63.8457 129.222C68.2448 126.958 67.0319 121.799 67.0319 121.799Z" fill="#8FC045"/>
<path opacity="0.5" d="M67.0319 121.799C67.0319 121.799 59.1336 121.525 56.0928 129.222C56.0928 129.222 59.4466 131.486 63.8457 129.222C68.2448 126.958 67.0319 121.799 67.0319 121.799Z" fill="black"/>
<path d="M66.8085 125.504C66.8085 125.504 64.5726 115.789 63.3931 115.672C62.2137 115.554 61.9845 118.634 62.0796 120.373L59.2847 114.358C59.196 114.171 59.07 114.005 58.9145 113.868C58.7589 113.732 58.577 113.629 58.3801 113.566C58.1832 113.502 57.9754 113.48 57.7695 113.5C57.5636 113.52 57.364 113.582 57.183 113.682C54.3881 115.219 49.4859 119.892 59.8213 131.446L66.8085 125.504Z" fill="#945959"/>
<path d="M95.4273 118.786L93.7504 118.568C92.0604 118.344 90.3413 118.573 88.7695 119.234C87.1977 119.894 85.83 120.96 84.8069 122.324L74.8292 135.605L67.0036 121.799C67.0036 121.799 66.0645 131.189 56.0645 129.222L66.8023 147.293C67.4819 148.437 68.4277 149.4 69.5594 150.1C70.6911 150.8 71.9751 151.217 73.3022 151.314C74.6293 151.411 75.9603 151.186 77.1818 150.658C78.4034 150.131 79.4794 149.316 80.3183 148.283L89.5078 136.986L95.4273 118.786Z" fill="#8FC045"/>
<path d="M116.725 149.781C114.489 155.449 114.243 156.556 115.607 159.39C116.557 161.483 117.305 163.661 117.843 165.896C117.843 165.896 107.479 177.511 92.7279 173.163L86.0985 169.339C84.7198 168.544 83.4779 167.533 82.4204 166.343L84.4383 151.296C84.5399 150.504 84.4596 149.699 84.2036 148.942L82.0851 142.732C81.0513 139.699 80.8974 136.435 81.6413 133.318C82.3852 130.201 83.9964 127.358 86.2885 125.119L93.4099 118.16L112.113 120.552L114.908 121.351C116.738 121.881 118.315 123.052 119.35 124.651C120.385 126.25 120.809 128.169 120.542 130.055C119.626 136.651 118.128 146.22 116.725 149.781Z" fill="#8FC045"/>
<path opacity="0.5" d="M116.725 149.781C114.489 155.449 114.243 156.556 115.607 159.39C116.557 161.483 117.305 163.661 117.843 165.896C117.843 165.896 107.479 177.511 92.7279 173.163L86.0985 169.339C84.7198 168.544 83.4779 167.533 82.4204 166.343L84.4383 151.296C84.5399 150.504 84.4596 149.699 84.2036 148.942L82.0851 142.732C81.0513 139.699 80.8974 136.435 81.6413 133.318C82.3852 130.201 83.9964 127.358 86.2885 125.119L93.4099 118.16L112.113 120.552L114.908 121.351C116.738 121.881 118.315 123.052 119.35 124.651C120.385 126.25 120.809 128.169 120.542 130.055C119.626 136.651 118.128 146.22 116.725 149.781Z" fill="black"/>
<path d="M105.445 132.85L101.7 129.658C101.303 129.319 100.825 129.089 100.312 128.991C99.7994 128.893 99.27 128.93 98.7762 129.099L94.2485 130.658L93.6392 128.121C93.5441 127.726 93.37 127.354 93.1275 127.029C92.8849 126.703 92.5789 126.43 92.2279 126.226C91.8769 126.021 91.4881 125.89 91.0851 125.84C90.6821 125.791 90.2731 125.823 89.8829 125.935L87.9209 126.494L91.2412 120.133C92.3253 118.061 93.9952 116.354 96.0428 115.225L97.3452 114.51L108.105 115.069C108.105 115.069 112.113 116.746 112.113 120.519L105.445 132.816" fill="#8FC045"/>
<path d="M108.15 119.836L97.3613 128.243V101.474H108.15V119.836Z" fill="#945959"/>
<path d="M97.5302 117.628L94.249 130.68L108.106 119.836L97.5302 117.628Z" fill="#945959"/>
<path d="M97.362 115.689C99.7609 114.798 101.954 113.429 103.807 111.665C105.661 109.901 107.137 107.778 108.145 105.426V101.474H97.3564L97.362 115.689Z" fill="#703838"/>
<path d="M99.6878 81.6362C95.5961 81.6362 86.8985 83.9168 85.8924 94.6268C84.8862 105.337 85.8588 113.632 91.3815 114.437C96.9041 115.242 109.738 111.234 111.46 97.3713C113.181 83.5088 103.673 81.6362 99.6878 81.6362Z" fill="#945959"/>
<path d="M93.2483 99.1602V105.471L89.5479 104.336L93.2483 99.1602Z" fill="#703838"/>
<path d="M97.3618 101.536C98.0719 101.536 98.6474 100.96 98.6474 100.25C98.6474 99.5399 98.0719 98.9644 97.3618 98.9644C96.6518 98.9644 96.0762 99.5399 96.0762 100.25C96.0762 100.96 96.6518 101.536 97.3618 101.536Z" fill="#263238"/>
<path d="M90.1845 99.3557C90.1834 99.6097 90.1071 99.8577 89.9652 100.068C89.8232 100.279 89.6221 100.443 89.387 100.539C89.152 100.636 88.8937 100.661 88.6447 100.61C88.3957 100.56 88.1671 100.437 87.9879 100.257C87.8086 100.077 87.6867 99.8481 87.6376 99.5989C87.5884 99.3496 87.6142 99.0914 87.7117 98.8568C87.8091 98.6222 87.9739 98.4218 88.1852 98.2807C88.3965 98.1397 88.6449 98.0645 88.8989 98.0645C89.0682 98.0645 89.2358 98.0979 89.3922 98.1628C89.5485 98.2278 89.6905 98.323 89.81 98.443C89.9294 98.563 90.024 98.7053 90.0883 98.862C90.1526 99.0186 90.1853 99.1864 90.1845 99.3557Z" fill="#263238"/>
<path d="M87.3283 96.6724L89.8437 95.18C89.8437 95.18 88.8823 94.1794 87.9209 94.7775C86.9594 95.3756 87.3283 96.6724 87.3283 96.6724Z" fill="#263238"/>
<path d="M91.5098 108.031C92.7347 108.12 93.954 107.793 94.9698 107.103C94.9698 107.103 95.2102 108.931 93.6786 109.277C92.147 109.624 91.5098 108.031 91.5098 108.031Z" fill="#703838"/>
<path d="M89.3125 85.281C89.3125 85.281 90.8497 100.066 110.956 100.53C110.956 100.53 117.032 85.8344 105.025 81.0608C93.0185 76.2872 89.3125 85.281 89.3125 85.281Z" fill="#263238"/>
<path d="M116.876 98.3157L114.406 96.8847C113.467 96.3257 112.17 96.404 110.733 97.2313C107.883 98.8746 105.568 102.882 105.568 106.175C105.568 107.824 106.127 108.97 107.089 109.529L109.515 110.926L109.654 111.004L109.738 111.055C110.655 111.502 111.879 111.396 113.226 110.619C116.077 108.942 118.391 104.967 118.391 101.675C118.374 100.009 117.799 98.8579 116.876 98.3157Z" fill="#8FC045"/>
<path d="M116.856 106.735C118.872 103.244 118.872 99.4697 116.856 98.3058C114.841 97.142 111.572 99.029 109.556 102.521C107.54 106.012 107.54 109.786 109.556 110.95C111.572 112.114 114.84 110.227 116.856 106.735Z" fill="#8FC045"/>
<path opacity="0.5" d="M116.856 106.735C118.872 103.244 118.872 99.4697 116.856 98.3058C114.841 97.142 111.572 99.029 109.556 102.521C107.54 106.012 107.54 109.786 109.556 110.95C111.572 112.114 114.84 110.227 116.856 106.735Z" fill="black"/>
<path d="M117.865 101.418L116.188 100.44C115.551 100.06 114.662 100.11 113.678 100.675C112.651 101.347 111.795 102.251 111.182 103.314C110.568 104.377 110.213 105.57 110.146 106.796C110.146 107.914 110.542 108.713 111.185 109.082L112.862 110.038C112.892 110.06 112.924 110.078 112.957 110.094L113.013 110.127C113.406 110.276 113.83 110.327 114.247 110.274C114.664 110.222 115.062 110.067 115.405 109.825C116.432 109.154 117.287 108.251 117.901 107.189C118.515 106.127 118.87 104.935 118.938 103.71C118.893 102.576 118.502 101.787 117.865 101.418Z" fill="#8FC045"/>
<path d="M118.893 103.699C118.825 104.924 118.47 106.116 117.856 107.178C117.242 108.24 116.388 109.143 115.361 109.814C113.404 110.932 111.822 110.027 111.822 107.774C111.889 106.548 112.244 105.355 112.859 104.292C113.473 103.23 114.331 102.327 115.361 101.659C117.311 100.53 118.893 101.441 118.893 103.699Z" fill="#8FC045"/>
<path opacity="0.3" d="M118.893 103.699C118.825 104.924 118.47 106.116 117.856 107.178C117.242 108.24 116.388 109.143 115.361 109.814C113.404 110.932 111.822 110.027 111.822 107.774C111.889 106.548 112.244 105.355 112.859 104.292C113.473 103.23 114.331 102.327 115.361 101.659C117.311 100.53 118.893 101.441 118.893 103.699Z" fill="black"/>
<path d="M109.201 78.7519C107.598 77.5142 105.636 76.8332 103.611 76.8123H103.113C101.063 76.7902 99.0161 76.9775 97.0039 77.3713C97.3728 77.3713 97.7418 77.3713 98.1219 77.3713H97.0039V78.411H98.0436C101.627 78.5328 105.022 80.0432 107.512 82.6228C110.002 85.2024 111.391 88.6491 111.386 92.2344V96.6335C111.386 96.8074 111.423 96.9794 111.493 97.1383C111.564 97.2972 111.667 97.4395 111.796 97.556C111.925 97.6725 112.077 97.7605 112.243 97.8144C112.408 97.8683 112.583 97.8868 112.756 97.8688H112.884L114.002 97.5223C113.928 97.5457 113.851 97.5607 113.773 97.567C114.106 97.5217 114.411 97.3555 114.63 97.0998C114.848 96.8441 114.965 96.517 114.958 96.1807V92.1002C114.947 84.7162 111.755 80.7475 109.201 78.7519Z" fill="#8FC045"/>
<path d="M102.164 114.129C101.703 114.13 101.248 114.03 100.828 113.839L97.3348 112.223C97.2801 112.204 97.2301 112.173 97.1879 112.133C97.1458 112.093 97.1123 112.045 97.0897 111.992C97.0671 111.938 97.0559 111.881 97.0567 111.823C97.0575 111.765 97.0703 111.708 97.0944 111.655C97.1185 111.602 97.1533 111.555 97.1965 111.516C97.2398 111.477 97.2906 111.448 97.3458 111.43C97.401 111.412 97.4593 111.406 97.517 111.411C97.5748 111.417 97.6307 111.435 97.6813 111.463L101.175 113.079C101.62 113.286 102.12 113.349 102.603 113.259C103.086 113.168 103.528 112.93 103.869 112.576L107.223 109.11C107.302 109.031 107.408 108.987 107.519 108.987C107.63 108.987 107.737 109.031 107.816 109.11C107.893 109.189 107.936 109.296 107.936 109.406C107.936 109.517 107.893 109.623 107.816 109.702L104.462 113.168C104.163 113.475 103.806 113.718 103.411 113.883C103.016 114.048 102.592 114.132 102.164 114.129Z" fill="#8FC045"/>
<path opacity="0.5" d="M102.164 114.129C101.703 114.13 101.248 114.03 100.828 113.839L97.3348 112.223C97.2801 112.204 97.2301 112.173 97.1879 112.133C97.1458 112.093 97.1123 112.045 97.0897 111.992C97.0671 111.938 97.0559 111.881 97.0567 111.823C97.0575 111.765 97.0703 111.708 97.0944 111.655C97.1185 111.602 97.1533 111.555 97.1965 111.516C97.2398 111.477 97.2906 111.448 97.3458 111.43C97.401 111.412 97.4593 111.406 97.517 111.411C97.5748 111.417 97.6307 111.435 97.6813 111.463L101.175 113.079C101.62 113.286 102.12 113.349 102.603 113.259C103.086 113.168 103.528 112.93 103.869 112.576L107.223 109.11C107.302 109.031 107.408 108.987 107.519 108.987C107.63 108.987 107.737 109.031 107.816 109.11C107.893 109.189 107.936 109.296 107.936 109.406C107.936 109.517 107.893 109.623 107.816 109.702L104.462 113.168C104.163 113.475 103.806 113.718 103.411 113.883C103.016 114.048 102.592 114.132 102.164 114.129Z" fill="black"/>
<path d="M98.2507 111.049C98.2507 111.372 98.155 111.688 97.9757 111.956C97.7963 112.224 97.5414 112.434 97.2431 112.557C96.9449 112.681 96.6167 112.713 96.3001 112.65C95.9835 112.587 95.6927 112.432 95.4644 112.203C95.2361 111.975 95.0807 111.684 95.0177 111.368C94.9547 111.051 94.987 110.723 95.1106 110.425C95.2341 110.126 95.4433 109.871 95.7117 109.692C95.9801 109.513 96.2957 109.417 96.6185 109.417C97.0514 109.417 97.4666 109.589 97.7727 109.895C98.0788 110.201 98.2507 110.616 98.2507 111.049Z" fill="#8FC045"/>
<path opacity="0.5" d="M98.2507 111.049C98.2507 111.372 98.155 111.688 97.9757 111.956C97.7963 112.224 97.5414 112.434 97.2431 112.557C96.9449 112.681 96.6167 112.713 96.3001 112.65C95.9835 112.587 95.6927 112.432 95.4644 112.203C95.2361 111.975 95.0807 111.684 95.0177 111.368C94.9547 111.051 94.987 110.723 95.1106 110.425C95.2341 110.126 95.4433 109.871 95.7117 109.692C95.9801 109.513 96.2957 109.417 96.6185 109.417C97.0514 109.417 97.4666 109.589 97.7727 109.895C98.0788 110.201 98.2507 110.616 98.2507 111.049Z" fill="black"/>
<path d="M114.947 92.1003V96.1808C114.954 96.5171 114.838 96.8442 114.619 97.0999C114.4 97.3556 114.095 97.5219 113.762 97.5671C113.578 97.5867 113.392 97.5673 113.216 97.5102C113.04 97.4531 112.877 97.3596 112.74 97.2357C112.602 97.1118 112.492 96.9603 112.417 96.7911C112.342 96.6218 112.303 96.4387 112.303 96.2535V92.1003C112.306 90.1182 111.909 88.1559 111.134 86.3315C110.359 84.5071 109.223 82.8584 107.794 81.4845C106.365 80.1106 104.673 79.0399 102.82 78.3369C100.967 77.6339 98.9903 77.3131 97.0098 77.3937C99.022 77 101.069 76.8127 103.119 76.8348H103.606C105.63 76.8557 107.593 77.5367 109.195 78.7744C111.755 80.7476 114.947 84.7163 114.947 92.1003Z" fill="#8FC045"/>
<path opacity="0.5" d="M114.947 92.1003V96.1808C114.954 96.5171 114.838 96.8442 114.619 97.0999C114.4 97.3556 114.095 97.5219 113.762 97.5671C113.578 97.5867 113.392 97.5673 113.216 97.5102C113.04 97.4531 112.877 97.3596 112.74 97.2357C112.602 97.1118 112.492 96.9603 112.417 96.7911C112.342 96.6218 112.303 96.4387 112.303 96.2535V92.1003C112.306 90.1182 111.909 88.1559 111.134 86.3315C110.359 84.5071 109.223 82.8584 107.794 81.4845C106.365 80.1106 104.673 79.0399 102.82 78.3369C100.967 77.6339 98.9903 77.3131 97.0098 77.3937C99.022 77 101.069 76.8127 103.119 76.8348H103.606C105.63 76.8557 107.593 77.5367 109.195 78.7744C111.755 80.7476 114.947 84.7163 114.947 92.1003Z" fill="black"/>
<path d="M108.665 168.998C108.665 168.998 105.959 176.449 115.629 179.803C115.629 179.803 118.788 175.164 115.629 171.368C112.471 167.573 108.665 168.998 108.665 168.998Z" fill="#8FC045"/>
<path opacity="0.7" d="M108.665 168.998C108.665 168.998 105.959 176.449 115.629 179.803C115.629 179.803 118.788 175.164 115.629 171.368C112.471 167.573 108.665 168.998 108.665 168.998Z" fill="black"/>
<path d="M112.057 169.339C112.057 169.339 102.611 172.799 102.661 174.141C102.711 175.482 106.674 174.566 106.674 174.566L105.227 175.516C103.702 176.511 102.521 177.951 101.845 179.641C101.697 180.014 101.692 180.428 101.83 180.804C101.969 181.18 102.24 181.493 102.594 181.681L106.183 183.582C106.385 183.69 106.607 183.755 106.836 183.775C107.064 183.796 107.295 183.77 107.513 183.699C107.731 183.629 107.933 183.516 108.107 183.366C108.281 183.216 108.423 183.033 108.525 182.827C108.725 182.432 109.001 182.08 109.338 181.793C109.675 181.505 110.065 181.287 110.487 181.15C112.437 180.502 116.076 178.635 117.535 173.526L112.057 169.339Z" fill="#945959"/>
<path d="M114.891 121.34C114.891 121.34 109.86 124.135 112.532 132.62C115.204 141.105 120.218 154.269 120.218 154.269L108.664 168.998C109.898 169.147 111.088 169.554 112.154 170.194C113.22 170.833 114.139 171.691 114.852 172.709C115.534 173.746 115.961 174.929 116.096 176.162C116.231 177.396 116.071 178.644 115.629 179.803L129.972 161.357C131.299 159.652 132.179 157.644 132.534 155.513C132.89 153.383 132.708 151.197 132.007 149.154L125.858 131.2C125.106 129.007 123.858 127.017 122.209 125.387C120.56 123.757 118.557 122.531 116.356 121.804L114.891 121.34Z" fill="#8FC045"/>
<path d="M29.9721 71.2168L7.74178 58.3604C7.48595 58.1831 7.18997 58.0723 6.88058 58.0382C6.5712 58.004 6.25818 58.0475 5.96983 58.1647C5.90906 58.1928 5.85105 58.2265 5.79655 58.2654L0.961435 61.0993H0.994972C0.385691 61.4459 0 62.2508 0 63.4023V88.1313C0 90.2219 1.26887 92.6534 2.83958 93.5589L25.0699 106.415C25.352 106.619 25.6878 106.736 26.0356 106.751C26.3834 106.766 26.7279 106.678 27.0264 106.499C27.0112 106.505 26.9978 106.515 26.9872 106.527L31.7888 103.732C32.4149 103.397 32.8117 102.581 32.8117 101.412V76.6444C32.8117 74.5538 31.5652 72.1223 29.9721 71.2168Z" fill="#8FC045"/>
<path d="M32.0175 73.5589C31.5677 72.6024 30.859 71.791 29.9716 71.2168L7.74128 58.3604C7.48546 58.1831 7.18947 58.0723 6.88009 58.0382C6.5707 58.004 6.25768 58.0475 5.96934 58.1647C5.90857 58.1928 5.85055 58.2265 5.79606 58.2654L0.960938 61.0993C1.25671 60.9482 1.58835 60.8812 1.9196 60.9059C2.25086 60.9305 2.56895 61.0458 2.83909 61.2391L25.0695 74.0955C25.987 74.6954 26.7142 75.5448 27.1656 76.5438L32.0175 73.5589Z" fill="#8FC045"/>
<path d="M27.9096 104.241C27.9096 105.359 27.5519 106.136 26.9873 106.477L31.7889 103.682C32.4149 103.347 32.8118 102.531 32.8118 101.362V76.6446C32.7882 75.5687 32.5165 74.5128 32.0181 73.5591L27.1662 76.544C27.632 77.4696 27.886 78.4874 27.9096 79.5233V104.241Z" fill="#8FC045"/>
<path opacity="0.3" d="M32.0175 73.5589C31.5677 72.6024 30.859 71.791 29.9716 71.2168L7.74128 58.3604C7.48546 58.1831 7.18947 58.0723 6.88009 58.0382C6.5707 58.004 6.25768 58.0475 5.96934 58.1647C5.90857 58.1928 5.85055 58.2265 5.79606 58.2654L0.960938 61.0993C1.25671 60.9482 1.58835 60.8812 1.9196 60.9059C2.25086 60.9305 2.56895 61.0458 2.83909 61.2391L25.0695 74.0955C25.987 74.6954 26.7142 75.5448 27.1656 76.5438L32.0175 73.5589Z" fill="black"/>
<path opacity="0.6" d="M27.9096 104.241C27.9096 105.359 27.5519 106.136 26.9873 106.477L31.7889 103.682C32.4149 103.347 32.8118 102.531 32.8118 101.362V76.6446C32.7882 75.5687 32.5165 74.5128 32.0181 73.5591L27.1662 76.544C27.632 77.4696 27.886 78.4874 27.9096 79.5233V104.241Z" fill="black"/>
<path d="M21.3919 86.6055C21.3919 89.8084 20.123 90.8984 18.2225 89.7972C17.6982 89.4987 17.2398 89.0972 16.8747 88.6169C16.5097 88.1366 16.2456 87.5874 16.0984 87.0024C15.5394 87.6899 14.673 87.7346 13.4545 87.0303C11.4533 85.8732 9.87704 83.1175 9.87704 80.44C9.87704 77.7625 11.4366 76.8402 13.4545 78.0029C14.4784 78.6063 15.3055 79.4936 15.8357 80.5574V79.5009L17.943 80.7195V86.5105C17.9116 86.8152 17.9643 87.1227 18.0954 87.3996C18.2265 87.6765 18.4309 87.9122 18.6865 88.0812C19.3964 88.4948 19.8324 87.7961 19.8324 85.7223C19.8324 82.0946 17.507 78.2488 14.0693 76.2645C10.6317 74.2801 8.31192 75.6608 8.31192 79.3947C8.35696 81.3761 8.90291 83.3137 9.89889 85.0271C10.8949 86.7405 12.3084 88.1739 14.0079 89.1935C14.9306 89.7619 15.9784 90.0958 17.0598 90.1661L17.5573 92.0946C16.2981 91.993 15.0813 91.5925 14.0079 90.9263C9.53607 88.3383 6.5791 83.1287 6.5791 78.4109C6.5791 73.6932 9.56401 71.9827 14.0693 74.5876C18.4237 77.0974 21.3919 82.1225 21.3919 86.6055ZM15.8692 83.9168C15.8801 83.208 15.7072 82.5085 15.3672 81.8864C15.0273 81.2644 14.532 80.741 13.9296 80.3673C12.8116 79.7133 12.0123 80.1717 12.0123 81.6921C11.9979 82.4021 12.1668 83.1037 12.5027 83.7294C12.8385 84.3551 13.33 84.8836 13.9296 85.2639C15.0475 85.8956 15.8692 85.4875 15.8692 83.9168Z" fill="#8FC045"/>
<g opacity="0.9">
<path opacity="0.9" d="M21.3919 86.6055C21.3919 89.8084 20.123 90.8984 18.2225 89.7972C17.6982 89.4987 17.2398 89.0972 16.8747 88.6169C16.5097 88.1366 16.2456 87.5874 16.0984 87.0024C15.5394 87.6899 14.673 87.7346 13.4545 87.0303C11.4533 85.8732 9.87704 83.1175 9.87704 80.44C9.87704 77.7625 11.4366 76.8402 13.4545 78.0029C14.4784 78.6063 15.3055 79.4936 15.8357 80.5574V79.5009L17.943 80.7195V86.5105C17.9116 86.8152 17.9643 87.1227 18.0954 87.3996C18.2265 87.6765 18.4309 87.9122 18.6865 88.0812C19.3964 88.4948 19.8324 87.7961 19.8324 85.7223C19.8324 82.0946 17.507 78.2488 14.0693 76.2645C10.6317 74.2801 8.31192 75.6608 8.31192 79.3947C8.35696 81.3761 8.90291 83.3137 9.89889 85.0271C10.8949 86.7405 12.3084 88.1739 14.0079 89.1935C14.9306 89.7619 15.9784 90.0958 17.0598 90.1661L17.5573 92.0946C16.2981 91.993 15.0813 91.5925 14.0079 90.9263C9.53607 88.3383 6.5791 83.1287 6.5791 78.4109C6.5791 73.6932 9.56401 71.9827 14.0693 74.5876C18.4237 77.0974 21.3919 82.1225 21.3919 86.6055ZM15.8692 83.9168C15.8801 83.208 15.7072 82.5085 15.3672 81.8864C15.0273 81.2644 14.532 80.741 13.9296 80.3673C12.8116 79.7133 12.0123 80.1717 12.0123 81.6921C11.9979 82.4021 12.1668 83.1037 12.5027 83.7294C12.8385 84.3551 13.33 84.8836 13.9296 85.2639C15.0475 85.8956 15.8692 85.4875 15.8692 83.9168Z" fill="white"/>
</g>
<path d="M29.9721 115.253L7.74178 102.396C7.48631 102.218 7.18995 102.107 6.8802 102.074C6.57044 102.041 6.2573 102.086 5.96983 102.206C5.90906 102.234 5.85105 102.268 5.79655 102.307L0.961435 105.141H0.994972C0.385691 105.488 0 106.292 0 107.438V132.156C0 134.252 1.26887 136.678 2.83958 137.584L25.0699 150.44C25.3514 150.646 25.6873 150.763 26.0355 150.778C26.3836 150.793 26.7283 150.705 27.0264 150.524L26.9872 150.558L31.7888 147.735C32.4149 147.405 32.8117 146.617 32.8117 145.415V120.675C32.8117 118.584 31.5652 116.158 29.9721 115.253Z" fill="#8FC045"/>
<path d="M32.0175 117.595C31.5693 116.637 30.8602 115.826 29.9716 115.253L7.74128 102.396C7.48581 102.218 7.18946 102.107 6.8797 102.074C6.56994 102.041 6.25681 102.086 5.96934 102.206C5.90857 102.234 5.85055 102.268 5.79606 102.307L0.960938 105.141C1.25603 104.988 1.58751 104.92 1.91888 104.944C2.25026 104.968 2.56868 105.082 2.83909 105.275L25.0695 118.132C25.9884 118.732 26.7159 119.584 27.1656 120.585L32.0175 117.595Z" fill="#8FC045"/>
<path d="M27.9096 148.271C27.9096 149.389 27.5519 150.166 26.9873 150.535L31.7889 147.712C32.4149 147.382 32.8118 146.594 32.8118 145.392V120.675C32.7881 119.601 32.5165 118.546 32.0181 117.595L27.1662 120.58C27.6319 121.503 27.8859 122.519 27.9096 123.553V148.271Z" fill="#8FC045"/>
<path opacity="0.3" d="M32.0175 117.595C31.5693 116.637 30.8602 115.826 29.9716 115.253L7.74128 102.396C7.48581 102.218 7.18946 102.107 6.8797 102.074C6.56994 102.041 6.25681 102.086 5.96934 102.206C5.90857 102.234 5.85055 102.268 5.79606 102.307L0.960938 105.141C1.25603 104.988 1.58751 104.92 1.91888 104.944C2.25026 104.968 2.56868 105.082 2.83909 105.275L25.0695 118.132C25.9884 118.732 26.7159 119.584 27.1656 120.585L32.0175 117.595Z" fill="black"/>
<path opacity="0.6" d="M27.9096 148.271C27.9096 149.389 27.5519 150.166 26.9873 150.535L31.7889 147.712C32.4149 147.382 32.8118 146.594 32.8118 145.392V120.675C32.7881 119.601 32.5165 118.546 32.0181 117.595L27.1662 120.58C27.6319 121.503 27.8859 122.519 27.9096 123.553V148.271Z" fill="black"/>
<path d="M11.4699 126.304L6.10938 117.595V129.395L11.4699 126.304Z" fill="#8FC045"/>
<path d="M16.4502 128.813L21.7996 138.076V126.292L16.4502 128.813Z" fill="#8FC045"/>
<path d="M6.91992 117.198L12.4258 126.141C12.4491 126.161 12.4698 126.183 12.4873 126.208C12.4921 126.23 12.4921 126.253 12.4873 126.275L14.1251 128.936L15.5113 128.282C15.5329 128.259 15.5573 128.238 15.584 128.221C15.6386 128.189 15.6998 128.17 15.7629 128.165L21.3526 125.543L6.91992 117.198Z" fill="#8FC045"/>
<path d="M15.64 129.194L14.1419 129.898C14.0842 129.925 14.0211 129.938 13.9574 129.937C13.8803 129.938 13.8042 129.919 13.7366 129.882C13.6691 129.844 13.6123 129.79 13.5718 129.725L11.934 127.064L6.55664 130.172L21.0285 138.523L15.64 129.194Z" fill="#8FC045"/>
<g opacity="0.9">
<path opacity="0.9" d="M11.4699 126.304L6.10938 117.595V129.395L11.4699 126.304Z" fill="white"/>
<path opacity="0.9" d="M16.4502 128.814L21.7996 138.076V126.293L16.4502 128.814Z" fill="white"/>
<path opacity="0.9" d="M6.91992 117.198L12.4258 126.142C12.4491 126.161 12.4698 126.184 12.4873 126.209C12.4921 126.231 12.4921 126.254 12.4873 126.276L14.1251 128.937L15.5113 128.283C15.5329 128.259 15.5573 128.239 15.584 128.221C15.6386 128.189 15.6998 128.17 15.7629 128.165L21.3526 125.544L6.91992 117.198Z" fill="white"/>
<path opacity="0.9" d="M15.64 129.194L14.1419 129.898C14.0842 129.925 14.0211 129.938 13.9574 129.937C13.8803 129.938 13.8042 129.919 13.7366 129.882C13.6691 129.844 13.6123 129.79 13.5718 129.725L11.934 127.064L6.55664 130.172L21.0285 138.523L15.64 129.194Z" fill="white"/>
</g>
<path d="M29.9721 27.203L7.74178 14.3466C7.48631 14.1683 7.18995 14.0574 6.8802 14.0242C6.57044 13.991 6.2573 14.0365 5.96983 14.1566C5.90906 14.1847 5.85105 14.2183 5.79655 14.2572L0.961435 17.0912H0.994972C0.385691 17.4322 0 18.2427 0 19.3886V44.1064C0 46.1969 1.26887 48.6285 2.83958 49.534L25.0699 62.3904C25.3514 62.5958 25.6873 62.7133 26.0355 62.7282C26.3836 62.7432 26.7283 62.6548 27.0264 62.4742L26.9872 62.5022L31.7888 59.7073C32.4149 59.3775 32.8117 58.5894 32.8117 57.3876V32.6083C32.8117 30.5177 31.5652 28.0862 29.9721 27.203Z" fill="#8FC045"/>
<path d="M32.0175 29.5284C31.5694 28.5693 30.8604 27.7557 29.9716 27.1807L7.74128 14.3466C7.48581 14.1683 7.18946 14.0574 6.8797 14.0242C6.56994 13.991 6.25681 14.0365 5.96934 14.1566C5.90857 14.1847 5.85055 14.2183 5.79606 14.2572L0.960938 17.0912C1.25603 16.9386 1.58751 16.8704 1.91888 16.8941C2.25026 16.9177 2.56868 17.0324 2.83909 17.2254L25.0695 30.0817C25.9884 30.6824 26.7159 31.5341 27.1656 32.5356L32.0175 29.5284Z" fill="#8FC045"/>
<path d="M27.9096 60.1829C27.9096 61.3008 27.5519 62.0778 26.9873 62.4188L31.7889 59.6239C32.4149 59.2941 32.8118 58.506 32.8118 57.3042V32.6087C32.7881 31.5346 32.5165 30.4806 32.0181 29.5288L27.1662 32.5137C27.6319 33.4374 27.8859 34.4533 27.9096 35.4875V60.1829Z" fill="#8FC045"/>
<path opacity="0.3" d="M32.0175 29.5284C31.5694 28.5693 30.8604 27.7557 29.9716 27.1807L7.74128 14.3466C7.48581 14.1683 7.18946 14.0574 6.8797 14.0242C6.56994 13.991 6.25681 14.0365 5.96934 14.1566C5.90857 14.1847 5.85055 14.2183 5.79606 14.2572L0.960938 17.0912C1.25603 16.9386 1.58751 16.8704 1.91888 16.8941C2.25026 16.9177 2.56868 17.0324 2.83909 17.2254L25.0695 30.0817C25.9884 30.6824 26.7159 31.5341 27.1656 32.5356L32.0175 29.5284Z" fill="black"/>
<path opacity="0.6" d="M27.9096 60.1829C27.9096 61.3008 27.5519 62.0778 26.9873 62.4188L31.7889 59.6239C32.4149 59.2941 32.8118 58.506 32.8118 57.3042V32.6087C32.7881 31.5346 32.5165 30.4806 32.0181 29.5288L27.1662 32.5137C27.6319 33.4374 27.8859 34.4533 27.9096 35.4875V60.1829Z" fill="black"/>
<path d="M20.6375 49.5624C19.7823 48.1538 18.9214 46.7675 18.0662 45.3477C17.9306 45.0788 17.7409 44.8407 17.5091 44.6484C17.2774 44.456 17.0084 44.3135 16.7191 44.2298C16.3054 44.1459 15.8918 44.0509 15.467 43.9279C15.3157 43.8649 15.1884 43.7552 15.1037 43.6149C13.7042 41.2198 12.5916 38.6682 11.7889 36.0129C11.7719 35.9561 11.767 35.8964 11.7747 35.8376C11.7824 35.7788 11.8025 35.7224 11.8337 35.6719C12.0964 35.4092 12.3926 35.1688 12.6609 34.9341C12.9292 34.6993 13.069 34.1571 12.8734 33.4528C12.4597 31.9603 12.0628 30.4679 11.6492 28.981C11.5692 28.5585 11.3793 28.1646 11.0986 27.8388C10.818 27.513 10.4565 27.2669 10.0505 27.1252C9.14912 26.8746 8.19217 26.9098 7.31157 27.2258C6.9706 27.3544 6.79172 27.6618 6.78613 28.1928C6.93147 29.2158 7.02649 30.2275 7.22213 31.2672C8.60093 38.7649 11.9175 45.6589 17.1719 51.9492C17.309 52.1578 17.4933 52.3312 17.7098 52.4555C17.9264 52.5798 18.1691 52.6514 18.4184 52.6647C19.2883 52.644 20.124 52.322 20.7828 51.7536C21.2803 51.3064 21.23 50.5126 20.6375 49.5624Z" fill="#8FC045"/>
<path d="M20.5702 41.9434C20.4532 40.3356 20.0101 38.7685 19.2678 37.3375C18.7135 36.2196 18.0082 35.1833 17.1716 34.2576C16.9536 34.0116 16.7692 33.9334 16.6574 34.1178C16.5456 34.3023 16.6574 34.565 16.8698 34.8053L17.0878 35.0569C18.6328 36.8403 19.6065 39.0467 19.8826 41.39C19.8799 41.561 19.8968 41.7316 19.9329 41.8987C20.0031 42.091 20.1159 42.2648 20.2627 42.4074C20.3801 42.4912 20.5143 42.4074 20.6093 42.4074C20.5758 42.1782 20.5813 42.0608 20.5702 41.9434Z" fill="#8FC045"/>
<path d="M15.5059 37.3543C16.2079 38.1264 16.6344 39.1091 16.7189 40.1492C16.7557 40.3073 16.814 40.4596 16.8922 40.6019C17.2331 40.8814 17.4008 40.7864 17.4008 40.4342C17.2813 39.1007 16.7298 37.8427 15.8301 36.8512C15.6177 36.6332 15.4444 36.5661 15.3438 36.7506C15.3076 36.8559 15.3037 36.9697 15.3326 37.0772C15.3615 37.1848 15.4218 37.2813 15.5059 37.3543Z" fill="#8FC045"/>
<g opacity="0.9">
<path opacity="0.9" d="M20.6375 49.5624C19.7823 48.1538 18.9214 46.7675 18.0662 45.3477C17.9306 45.0788 17.7409 44.8407 17.5091 44.6484C17.2774 44.456 17.0084 44.3135 16.7191 44.2298C16.3054 44.1459 15.8918 44.0509 15.467 43.9279C15.3157 43.8649 15.1884 43.7552 15.1037 43.6149C13.7042 41.2198 12.5916 38.6682 11.7889 36.0129C11.7719 35.9561 11.767 35.8964 11.7747 35.8376C11.7824 35.7788 11.8025 35.7224 11.8337 35.6719C12.0964 35.4092 12.3926 35.1688 12.6609 34.9341C12.9292 34.6993 13.069 34.1571 12.8734 33.4528C12.4597 31.9603 12.0628 30.4679 11.6492 28.981C11.5692 28.5585 11.3793 28.1646 11.0986 27.8388C10.818 27.513 10.4565 27.2669 10.0505 27.1252C9.14912 26.8746 8.19217 26.9098 7.31157 27.2258C6.9706 27.3544 6.79172 27.6618 6.78613 28.1928C6.93147 29.2158 7.02649 30.2275 7.22213 31.2672C8.60093 38.7649 11.9175 45.6589 17.1719 51.9492C17.309 52.1578 17.4933 52.3312 17.7098 52.4555C17.9264 52.5798 18.1691 52.6514 18.4184 52.6647C19.2883 52.644 20.124 52.322 20.7828 51.7536C21.2803 51.3064 21.23 50.5126 20.6375 49.5624Z" fill="white"/>
<path opacity="0.9" d="M20.5702 41.9434C20.4532 40.3356 20.0101 38.7685 19.2678 37.3375C18.7135 36.2196 18.0082 35.1833 17.1716 34.2576C16.9536 34.0116 16.7692 33.9334 16.6574 34.1178C16.5456 34.3023 16.6574 34.565 16.8698 34.8053L17.0878 35.0569C18.6328 36.8403 19.6065 39.0467 19.8826 41.39C19.8799 41.561 19.8968 41.7316 19.9329 41.8987C20.0031 42.091 20.1159 42.2648 20.2627 42.4074C20.3801 42.4912 20.5143 42.4074 20.6093 42.4074C20.5758 42.1782 20.5813 42.0608 20.5702 41.9434Z" fill="white"/>
<path opacity="0.9" d="M15.5059 37.3543C16.2079 38.1264 16.6344 39.1091 16.7189 40.1492C16.7557 40.3073 16.814 40.4596 16.8922 40.6019C17.2331 40.8814 17.4008 40.7864 17.4008 40.4342C17.2813 39.1007 16.7298 37.8427 15.8301 36.8512C15.6177 36.6332 15.4444 36.5661 15.3438 36.7506C15.3076 36.8559 15.3037 36.9697 15.3326 37.0772C15.3615 37.1848 15.4218 37.2813 15.5059 37.3543Z" fill="white"/>
</g>
</svg>
