<svg width="23" height="47" viewBox="0 0 23 47" fill="none" xmlns="http://www.w3.org/2000/svg">
<path d="M20.8214 0.805468H14.5083C6.4679 0.718815 5.44095 6.07858 5.44095 11.8793V16.0972H1.8916C1.73118 16.0741 1.56798 16.0912 1.41467 16.1471C1.26136 16.203 1.12207 16.2962 1.00763 16.4194C0.893183 16.5427 0.806661 16.6927 0.754781 16.8578C0.702901 17.023 0.68706 17.1988 0.708489 17.3715V25.0174C0.68706 25.1902 0.702901 25.366 0.754781 25.5311C0.806661 25.6962 0.893183 25.8463 1.00763 25.9695C1.12207 26.0928 1.26136 26.186 1.41467 26.2419C1.56798 26.2978 1.73118 26.3148 1.8916 26.2917H5.44095V45.4064C5.42123 45.5795 5.43851 45.7552 5.49146 45.92C5.54441 46.0848 5.63164 46.2344 5.74647 46.3574C5.86131 46.4803 6.00072 46.5734 6.15405 46.6294C6.30738 46.6855 6.47057 46.703 6.63116 46.6807H13.86C14.558 46.7674 15.1236 46.1583 14.9011 45.4064L14.9059 26.2917H20.8214C20.9819 26.3148 21.1451 26.2978 21.2984 26.2419C21.4517 26.186 21.591 26.0928 21.7054 25.9695C21.8199 25.8463 21.9064 25.6962 21.9583 25.5311C22.0101 25.366 22.026 25.1902 22.0046 25.0174V17.3715C22.026 17.1988 22.0101 17.023 21.9583 16.8578C21.9064 16.6927 21.8199 16.5427 21.7054 16.4194C21.591 16.2962 21.4517 16.203 21.2984 16.1471C21.1451 16.0912 20.9819 16.0741 20.8214 16.0972H14.8988L14.9059 12.2743C15.1354 10.6457 15.1354 10.9108 16.5386 11H20.7718C21.1007 10.921 21.4509 10.9643 21.697 10.7069C21.943 10.4495 22.085 10.0978 22.0022 9.72566V2.07978C22.024 1.90713 22.0086 1.73138 21.957 1.56623C21.9054 1.40107 21.8191 1.25098 21.7048 1.12765C21.5906 1.00431 21.4514 0.91107 21.2982 0.855186C21.1449 0.799303 20.9818 0.782288 20.8214 0.805468ZM19.5555 8.30863L16.5883 8.18629C12.9135 8.18629 12.6059 10.3348 12.6059 12.5342L12.5964 17.3664C12.5961 17.5454 12.6286 17.7226 12.6919 17.888C12.7553 18.0535 12.8483 18.2038 12.9657 18.3304C13.083 18.4571 13.2224 18.5576 13.3759 18.6261C13.5294 18.6947 13.6939 18.73 13.86 18.73H19.6383V23.6539H13.8647C13.5294 23.6539 13.2078 23.7972 12.9704 24.0524C12.7331 24.3075 12.5994 24.6537 12.5988 25.0149L12.5964 44.1321H7.80718V25.0174C7.80718 24.2656 7.33157 23.6565 6.63116 23.6565H3.07472V18.7325H6.63116C6.79719 18.7328 6.96164 18.6978 7.11511 18.6296C7.26859 18.5614 7.40807 18.4612 7.5256 18.3349C7.76222 18.0775 7.80481 17.7309 7.80481 17.369V11.8767C7.80481 6.16268 8.87671 3.44075 14.506 3.44075H19.5531L19.5555 8.30863Z" fill="#8FC045"/>
<path d="M16.5883 8.18629L19.5555 8.30863L19.5531 3.44075H14.506C8.87671 3.44075 7.80481 6.16268 7.80481 11.8767V17.369C7.80481 17.7309 7.76222 18.0775 7.5256 18.3349C7.40807 18.4612 7.26859 18.5614 7.11511 18.6296C6.96164 18.6978 6.79719 18.7328 6.63116 18.7325H3.07472V23.6565H6.63116C7.33157 23.6565 7.80718 24.2656 7.80718 25.0174V44.1321H12.5964L12.5988 25.0149C12.5994 24.6537 12.7331 24.3075 12.9704 24.0524C13.2078 23.7972 13.5294 23.6539 13.8647 23.6539H19.6383V18.73H13.86C13.6939 18.73 13.5294 18.6947 13.3759 18.6261C13.2224 18.5576 13.083 18.4571 12.9657 18.3304C12.8483 18.2038 12.7553 18.0535 12.6919 17.888C12.6286 17.7226 12.5961 17.5454 12.5964 17.3664L12.6059 12.5342C12.6059 10.3348 12.9135 8.18629 16.5883 8.18629Z" fill="#8FC045"/>
</svg>
