<svg width="48" height="48" viewBox="0 0 48 48" fill="none" xmlns="http://www.w3.org/2000/svg">
<path d="M47.9999 24.5331C47.9999 22.5598 47.8398 21.1198 47.4933 19.6265H24.96V28.533H38.1865C37.9199 30.7464 36.4799 34.0798 33.2799 36.3196L33.235 36.6178L40.3596 42.1372L40.8533 42.1864C45.3865 37.9997 47.9999 31.8397 47.9999 24.5331Z" fill="#8FC045"/>
<path d="M24.9596 48C31.4395 48 36.8795 45.8665 40.853 42.1866L33.2796 36.3198C31.253 37.7332 28.5329 38.7198 24.9596 38.7198C18.613 38.7198 13.2264 34.5333 11.3062 28.7466L11.0247 28.7705L3.61641 34.5039L3.51953 34.7732C7.46616 42.6131 15.5729 48 24.9596 48Z" fill="#8FC045"/>
<path d="M11.3065 28.7467C10.7999 27.2534 10.5066 25.6533 10.5066 24C10.5066 22.3466 10.7999 20.7467 11.2799 19.2533L11.2664 18.9353L3.76532 13.1099L3.5199 13.2266C1.8933 16.48 0.959961 20.1334 0.959961 24C0.959961 27.8667 1.8933 31.5199 3.5199 34.7733L11.3065 28.7467Z" fill="#8FC045"/>
<path d="M24.9596 9.27991C29.4662 9.27991 32.5061 11.2266 34.2395 12.8533L41.0128 6.23998C36.8529 2.37334 31.4395 0 24.9596 0C15.5728 0 7.46615 5.38661 3.51953 13.2265L11.2795 19.2533C13.2263 13.4666 18.6129 9.27991 24.9596 9.27991Z" fill="#8FC045"/>
</svg>
