<svg width="42" height="41" viewBox="0 0 42 41" fill="none" xmlns="http://www.w3.org/2000/svg">
<path d="M21.0018 13.8139C17.2669 13.8139 14.2189 16.8618 14.2189 20.5967C14.2189 24.3316 17.2669 27.3795 21.0018 27.3795C24.7367 27.3795 27.7846 24.3316 27.7846 20.5967C27.7846 16.8618 24.7367 13.8139 21.0018 13.8139ZM41.3452 20.5967C41.3452 17.7879 41.3707 15.0045 41.2129 12.2008C41.0552 8.94425 40.3123 6.05404 37.9309 3.67267C35.5444 1.28621 32.6593 0.548388 29.4027 0.390648C26.5939 0.232907 23.8106 0.258349 21.0069 0.258349C18.1981 0.258349 15.4147 0.232907 12.611 0.390648C9.35441 0.548388 6.4642 1.2913 4.08283 3.67267C1.69636 6.05913 0.958545 8.94425 0.800804 12.2008C0.643064 15.0096 0.668506 17.793 0.668506 20.5967C0.668506 23.4004 0.643064 26.1889 0.800804 28.9926C0.958545 32.2491 1.70145 35.1394 4.08283 37.5207C6.46929 39.9072 9.35441 40.645 12.611 40.8028C15.4198 40.9605 18.2031 40.9351 21.0069 40.9351C23.8157 40.9351 26.599 40.9605 29.4027 40.8028C32.6593 40.645 35.5495 39.9021 37.9309 37.5207C40.3174 35.1343 41.0552 32.2491 41.2129 28.9926C41.3757 26.1889 41.3452 23.4055 41.3452 20.5967ZM21.0018 31.033C15.2264 31.033 10.5655 26.372 10.5655 20.5967C10.5655 14.8214 15.2264 10.1604 21.0018 10.1604C26.7771 10.1604 31.4381 14.8214 31.4381 20.5967C31.4381 26.372 26.7771 31.033 21.0018 31.033ZM31.8655 12.1703C30.5171 12.1703 29.4282 11.0814 29.4282 9.73296C29.4282 8.38453 30.5171 7.29561 31.8655 7.29561C33.2139 7.29561 34.3029 8.38453 34.3029 9.73296C34.3033 10.0531 34.2405 10.3703 34.1181 10.6662C33.9958 10.9621 33.8163 11.2309 33.5899 11.4573C33.3635 11.6837 33.0946 11.8632 32.7987 11.9856C32.5028 12.1079 32.1857 12.1707 31.8655 12.1703Z" fill="#8FC045"/>
</svg>
