<svg width="37" height="44" viewBox="0 0 37 44" fill="none" xmlns="http://www.w3.org/2000/svg">
<path d="M25.3594 12.8813C23.7551 12.8813 22.5673 13.3172 21.6373 13.8677C21.4883 13.2968 20.9984 12.8788 20.4211 13.0037H13.3603C12.6622 12.8788 12.0967 13.4879 12.312 14.278V42.3129C12.0967 43.0265 12.6622 43.6382 13.3603 43.5872H20.4211C21.1191 43.6382 21.6847 43.0265 21.6847 42.2747L21.6823 25.3314C21.6799 25.3237 21.6539 24.5133 22.1295 23.9551C22.5105 23.5117 23.1659 23.2848 24.0722 23.2848C25.5818 23.2848 26.2538 23.95 26.5047 25.4384V42.2747C26.2562 43.0265 26.8217 43.6382 27.5198 43.5872H34.9616C35.6596 43.6382 36.2251 43.0265 35.9743 42.2747V24.8726C36.2228 16.0238 30.3711 12.8813 25.3594 12.8813ZM33.6956 41.0386H28.7833V25.4384C28.7833 22.4285 26.9779 20.5629 24.0745 20.5629C22.4324 20.5629 21.1546 21.0828 20.2744 22.1074C19.051 23.5346 19.1457 25.3441 19.4083 25.7468V41.0386H14.6238V15.6033H19.1575V16.4596C19.1557 16.7147 19.2207 16.9652 19.3451 17.1823C19.4695 17.3994 19.6482 17.5743 19.8607 17.6869C20.0733 17.7995 20.311 17.8452 20.5465 17.8188C20.7821 17.7924 21.006 17.695 21.1925 17.5377L21.5238 17.2624L21.5282 17.2587C22.4851 16.4468 23.4764 15.6058 25.3618 15.6058C27.3163 15.6058 33.698 16.2761 33.698 24.8752L33.6956 41.0386Z" fill="#8FC045"/>
<path d="M33.6956 41.0386H28.7833V25.4384C28.7833 22.4285 26.9779 20.5629 24.0745 20.5629C22.4324 20.5629 21.1546 21.0828 20.2744 22.1074C19.051 23.5346 19.1457 25.3441 19.4083 25.7468V41.0386H14.6238V15.6033H19.1575V16.4596C19.1557 16.7147 19.2207 16.9652 19.3451 17.1823C19.4695 17.3994 19.6482 17.5743 19.8607 17.6869C20.0733 17.7995 20.311 17.8452 20.5465 17.8188C20.7821 17.7924 21.006 17.695 21.1925 17.5377L21.5238 17.2624L21.5282 17.2587C22.4851 16.4468 23.4764 15.6058 25.3618 15.6058C27.3163 15.6058 33.698 16.2761 33.698 24.8752L33.6956 41.0386Z" fill="#8FC045"/>
<path d="M5.21135 0.173828C2.55644 0.173828 0.398438 2.49818 0.398438 5.35774C0.398438 8.2173 2.55644 10.5416 5.21135 10.5416C7.86626 10.5416 10.0243 8.2173 10.0243 5.35774C10.0243 2.49818 7.86626 0.173828 5.21135 0.173828ZM5.21135 7.81971C3.95252 7.81971 2.92557 6.71361 2.92557 5.35774C2.92557 4.00187 3.95252 2.89576 5.21135 2.89576C6.47019 2.89576 7.49713 4.00187 7.49713 5.35774C7.49713 6.71361 6.47019 7.81971 5.21135 7.81971Z" fill="#8FC045"/>
<path d="M5.21135 7.81971C3.95252 7.81971 2.92557 6.71361 2.92557 5.35774C2.92557 4.00187 3.95252 2.89576 5.21135 2.89576C6.47019 2.89576 7.49713 4.00187 7.49713 5.35774C7.49713 6.71361 6.47019 7.81971 5.21135 7.81971Z" fill="#8FC045"/>
<path d="M8.59083 12.8789H1.56786C0.869827 12.8789 0.304299 13.488 0.4794 14.2781L0.4794 42.313C0.304299 43.0266 0.869827 43.6383 1.56786 43.5873H8.59083C9.28887 43.6383 9.8544 43.0266 9.8544 42.2748V14.2399C9.8544 13.8789 9.72127 13.5328 9.48431 13.2775C9.24734 13.0223 8.92595 12.8789 8.59083 12.8789ZM7.57809 41.0387H2.83143V15.6034H7.57809V41.0387Z" fill="#8FC045"/>
<path d="M7.57809 41.0387H2.83143V15.6034H7.57809V41.0387Z" fill="#8FC045"/>
</svg>
