<svg width="41" height="37" viewBox="0 0 41 37" fill="none" xmlns="http://www.w3.org/2000/svg">
<path d="M39.0857 4.48533C39.3482 3.96204 39.5644 3.41338 39.7317 2.84656C39.8091 2.58364 39.8107 2.3016 39.7362 2.0377C39.6617 1.7738 39.5146 1.54044 39.3144 1.36844C39.1142 1.19643 38.8703 1.09387 38.6149 1.07429C38.3594 1.05471 38.1045 1.11903 37.8837 1.25877C36.6712 2.03459 35.3587 2.61261 33.9889 2.97399C32.326 1.35758 30.1665 0.461492 27.9266 0.458496C26.7097 0.459503 25.5055 0.725165 24.3862 1.23955C23.2669 1.75394 22.2556 2.50646 21.4128 3.452C20.5701 4.39755 19.9133 5.51664 19.4818 6.74219C19.0503 7.96775 18.853 9.27453 18.9018 10.5842C13.5802 9.86262 8.72068 6.96221 5.33145 2.48465C5.20159 2.31502 5.03563 2.18166 4.84768 2.09589C4.65973 2.01012 4.45534 1.97447 4.25187 1.99198C4.04839 2.0095 3.85185 2.07965 3.67893 2.19648C3.50601 2.31331 3.36183 2.47337 3.25863 2.66306C2.48256 4.09775 2.06074 5.72269 2.0334 7.38286C2.00606 9.04304 2.37411 10.6831 3.10246 12.1465C2.92383 12.179 2.75221 12.2463 2.59608 12.3453C2.40476 12.4767 2.24725 12.6579 2.13807 12.8721C2.0289 13.0864 1.97158 13.3268 1.9714 13.5712C1.9714 16.4639 3.16635 19.1195 5.09246 20.924L5.00964 21.0132C4.86422 21.1903 4.76418 21.4053 4.71937 21.6368C4.67456 21.8683 4.68652 22.1084 4.75408 22.3334C5.15572 23.6829 5.82635 24.9216 6.71902 25.9628C7.61168 27.004 8.70483 27.8224 9.92193 28.3609C7.42222 29.6743 4.62479 30.1865 1.86255 29.8365C1.57861 29.8053 1.2931 29.8765 1.05074 30.0389C0.808378 30.2012 0.622864 30.4456 0.523265 30.7336C0.427617 31.0239 0.425822 31.3404 0.518169 31.6318C0.610516 31.9233 0.791587 32.1726 1.032 32.3393C4.78724 34.9352 9.15587 36.3143 13.618 36.3126C28.2413 36.3126 36.9821 23.5185 36.9821 11.15L36.9798 10.732C38.397 9.54031 39.628 8.11201 40.6261 6.50129C40.7773 6.25779 40.8516 5.96834 40.8381 5.67579C40.8246 5.38324 40.724 5.10314 40.5512 4.87698C40.3784 4.65082 40.1426 4.4906 39.8786 4.42006C39.6147 4.34952 39.3366 4.37241 39.0857 4.48533ZM34.9566 8.95817C34.7849 9.09116 34.6469 9.26836 34.5551 9.4736C34.4634 9.67884 34.4208 9.90557 34.4313 10.1331C34.4455 10.4695 34.4526 10.811 34.4526 11.1474C34.4526 22.1779 26.6606 33.5881 13.6203 33.5881C11.2946 33.5892 8.98524 33.1688 6.78904 32.3444C9.41933 31.8014 11.8902 30.5866 13.9942 28.8018C14.199 28.6278 14.349 28.39 14.4235 28.1208C14.4981 27.8516 14.4936 27.5642 14.4107 27.2978C14.3279 27.0315 14.1707 26.7992 13.9606 26.6327C13.7505 26.4663 13.4978 26.3737 13.237 26.3678C12.2168 26.3468 11.2154 26.0679 10.3136 25.5535C9.41181 25.0391 8.6349 24.3036 8.04551 23.4063C8.64417 23.363 9.23099 23.256 9.80125 23.0903C10.0772 23.0107 10.3201 22.8328 10.4901 22.5855C10.6601 22.3382 10.7473 22.0361 10.7374 21.7285C10.7275 21.421 10.6211 21.1261 10.4357 20.8921C10.2502 20.658 9.99651 20.4985 9.71607 20.4397C8.56377 20.1873 7.49687 19.6021 6.62952 18.7469C5.76217 17.8917 5.12699 16.7986 4.79194 15.5846C5.42136 15.7554 6.06734 15.8548 6.71332 15.8777C7.26939 15.8751 7.78522 15.5081 7.95796 14.9321C8.13069 14.3562 7.9272 13.7216 7.45632 13.3851C6.34294 12.5862 5.48568 11.4365 5.00162 10.0931C4.51755 8.74976 4.43028 7.27821 4.75172 5.87943C8.86193 10.4219 14.412 13.1268 20.2931 13.4539C20.7096 13.4565 21.074 13.2959 21.3272 12.9672C21.5803 12.6384 21.6774 12.2026 21.5874 11.7846C21.2638 10.2835 21.4086 8.70927 21.9993 7.30567C22.59 5.90206 23.5938 4.74729 24.8552 4.02006C26.1167 3.29282 27.5655 3.03368 28.9775 3.28272C30.3895 3.53177 31.6859 4.27512 32.6661 5.39774C32.813 5.56656 32.9974 5.69234 33.2019 5.76323C33.4064 5.83412 33.6243 5.8478 33.8351 5.80297C34.2255 5.71886 34.6112 5.62201 34.9921 5.50988C34.8204 5.64835 34.6419 5.77682 34.4574 5.89472C34.212 6.05661 34.0252 6.3037 33.9276 6.59529C33.8301 6.88687 33.8277 7.20554 33.9208 7.49879C34.014 7.79203 34.1971 8.04235 34.44 8.20849C34.6829 8.37463 34.9711 8.44668 35.2572 8.41276L35.6878 8.35414C35.4507 8.56455 35.2068 8.76601 34.9566 8.95817Z" fill="#8FC045"/>
<path d="M34.9566 8.95817C34.7849 9.09116 34.6469 9.26836 34.5551 9.4736C34.4634 9.67884 34.4208 9.90557 34.4313 10.1331C34.4455 10.4695 34.4526 10.811 34.4526 11.1474C34.4526 22.1779 26.6606 33.5881 13.6203 33.5881C11.2946 33.5892 8.98524 33.1688 6.78904 32.3444C9.41933 31.8014 11.8902 30.5866 13.9942 28.8018C14.199 28.6278 14.349 28.39 14.4235 28.1208C14.4981 27.8516 14.4936 27.5642 14.4107 27.2978C14.3279 27.0315 14.1707 26.7992 13.9606 26.6327C13.7505 26.4663 13.4978 26.3737 13.237 26.3678C12.2168 26.3468 11.2154 26.0679 10.3136 25.5535C9.41181 25.0391 8.6349 24.3036 8.04551 23.4063C8.64417 23.363 9.23099 23.256 9.80125 23.0903C10.0772 23.0107 10.3201 22.8328 10.4901 22.5855C10.6601 22.3382 10.7473 22.0361 10.7374 21.7285C10.7275 21.421 10.6211 21.1261 10.4357 20.8921C10.2502 20.658 9.99651 20.4985 9.71607 20.4397C8.56377 20.1873 7.49687 19.6021 6.62952 18.7469C5.76217 17.8917 5.12699 16.7986 4.79194 15.5846C5.42136 15.7554 6.06734 15.8548 6.71332 15.8777C7.26939 15.8751 7.78522 15.5081 7.95796 14.9321C8.13069 14.3562 7.9272 13.7216 7.45632 13.3851C6.34294 12.5862 5.48568 11.4365 5.00162 10.0931C4.51755 8.74976 4.43028 7.27821 4.75172 5.87943C8.86193 10.4219 14.412 13.1268 20.2931 13.4539C20.7096 13.4565 21.074 13.2959 21.3272 12.9672C21.5803 12.6384 21.6774 12.2026 21.5874 11.7846C21.2638 10.2835 21.4086 8.70927 21.9993 7.30567C22.59 5.90206 23.5938 4.74729 24.8552 4.02006C26.1167 3.29282 27.5655 3.03368 28.9775 3.28272C30.3895 3.53177 31.6859 4.27512 32.6661 5.39774C32.813 5.56656 32.9974 5.69234 33.2019 5.76323C33.4064 5.83412 33.6243 5.8478 33.8351 5.80297C34.2255 5.71886 34.6112 5.62201 34.9921 5.50988C34.8204 5.64835 34.6419 5.77682 34.4574 5.89472C34.212 6.05661 34.0252 6.3037 33.9276 6.59529C33.8301 6.88687 33.8277 7.20554 33.9208 7.49879C34.014 7.79203 34.1971 8.04235 34.44 8.20849C34.6829 8.37463 34.9711 8.44668 35.2572 8.41276L35.6878 8.35414C35.4507 8.56455 35.2068 8.76601 34.9566 8.95817Z" fill="#8FC045"/>
</svg>
