<svg width="49" height="50" viewBox="0 0 49 50" fill="none" xmlns="http://www.w3.org/2000/svg">
<g clip-path="url(#clip0)">
<path d="M23.0107 43.004C21.547 43.004 20.1432 42.4476 19.1082 41.4572C18.0732 40.4669 17.4917 39.1236 17.4917 37.723V30.6784C16.0866 30.1895 14.7876 29.4573 13.6595 28.5183C11.5965 26.7526 10.5059 24.3235 10.5059 21.498V18.5025C10.5059 17.2918 11.0085 16.1307 11.9032 15.2746C12.7978 14.4185 14.0113 13.9376 15.2765 13.9376H16.0248V21.4939C16.0248 22.8288 16.4476 23.8077 17.3332 24.5763L17.4917 24.7058V22.0946C17.4917 16.6883 21.9306 12.1375 27.589 12.0101C28.9841 11.9263 30.3824 12.1135 31.6998 12.5606C33.0172 13.0076 34.2264 13.7052 35.2545 14.6113C36.2827 15.5174 37.1085 16.6133 37.6823 17.8329C38.2561 19.0525 38.566 20.3706 38.5932 21.7079C38.6205 23.0451 38.3646 24.3738 37.841 25.6139C37.3173 26.854 36.5368 27.9799 35.5464 28.9236C34.5559 29.8674 33.3761 30.6096 32.0779 31.1055C30.7798 31.6014 29.3901 31.8407 27.9927 31.809C26.3353 31.9503 24.6681 31.9503 23.0107 31.809V43.004ZM23.0107 26.5038C24.5154 26.6622 26.0329 26.6757 27.5404 26.5443L27.6863 26.5301H27.8384C28.7933 26.5301 29.7267 26.2592 30.5206 25.7516C31.3145 25.244 31.9333 24.5225 32.2987 23.6784C32.6641 22.8343 32.7597 21.9054 32.5734 21.0093C32.3871 20.1132 31.9274 19.2901 31.2522 18.644C30.577 17.998 29.7168 17.558 28.7803 17.3798C27.8438 17.2015 26.8731 17.293 25.9909 17.6427C25.1088 17.9923 24.3548 18.5844 23.8243 19.3441C23.2938 20.1038 23.0107 20.9969 23.0107 21.9106V26.5038Z" fill="#8FC045"/>
<path fill-rule="evenodd" clip-rule="evenodd" d="M14.6202 0L9.87695 7.96691L13.5971 7.32778L13.3054 12.1253L18.0359 4.14425L14.246 4.87844L14.6202 0Z" fill="#D6DB30"/>
<path fill-rule="evenodd" clip-rule="evenodd" d="M12.9989 2.78497C12.9989 2.78497 12.3648 4.93092 14.246 4.87834L18.0359 4.14414L15.0471 9.20057C15.0471 9.20057 15.5439 6.98586 13.5971 7.33778L9.87695 7.97692L12.9989 2.78497Z" fill="#F8E935"/>
<path d="M19.7415 7.04048C19.7415 7.12745 19.7415 7.21442 19.7415 7.29937C25.0092 6.13354 30.5449 7.00205 35.1477 9.71651C39.7505 12.431 43.0493 16.7724 44.3284 21.7992C44.5787 22.7755 45.1263 23.6587 45.9019 24.3367C46.6775 25.0148 47.6461 25.4571 48.6848 25.6077C48.5542 22.1663 47.6275 18.7956 45.9714 15.7382C44.3153 12.6809 41.9712 10.0131 39.1078 7.92707C36.2444 5.84105 32.9331 4.38875 29.4125 3.6748C25.8919 2.96085 22.2496 3.00303 18.748 3.7983C19.3983 4.76505 19.7432 5.8908 19.7415 7.04048Z" fill="#8FC045"/>
<path d="M45.6133 33.0571C45.4405 32.948 45.241 32.8841 45.0344 32.8716C44.8279 32.8592 44.6215 32.8987 44.4359 32.9863L43.2945 33.5202C41.0142 34.5161 38.655 35.3372 36.2389 35.9756C29.1684 37.707 26.5157 42.7209 25.5688 45.5545L25.406 46.04L24.8755 46.0905C24.6641 46.1108 24.4527 46.1249 24.2413 46.137H24.1843C20.1291 46.1146 16.1716 44.9438 12.8108 42.7724C9.44996 40.6009 6.83618 37.526 5.29898 33.9352C3.76177 30.3445 3.36994 26.3986 4.17288 22.5951C4.97583 18.7915 6.9376 15.3006 9.8109 12.5623C9.94618 12.4329 10.0857 12.3095 10.2336 12.1841C9.13318 11.55 8.26146 10.6093 7.73522 9.48804C4.28094 12.5794 1.84332 16.5672 0.720662 20.9635C-0.402001 25.3599 -0.16102 29.974 1.41412 34.2413C2.98925 38.5086 5.83023 42.244 9.5894 44.9904C13.3486 47.7368 17.8629 49.3751 22.5799 49.7049H22.6708C22.9477 49.7231 23.2204 49.7372 23.4888 49.7453L24.3174 49.7595C25.382 49.7712 26.4449 49.6743 27.488 49.4702L27.6508 49.444L27.8114 49.4804C29.2506 49.8098 30.7241 49.9821 32.2038 49.9941C35.0531 49.9941 37.5642 49.266 39.6673 47.8259C45.5985 43.7706 46.0762 35.6217 46.0931 35.2758L46.1565 34.0623C46.1656 33.8639 46.1202 33.6668 46.0249 33.4904C45.9296 33.314 45.7877 33.1646 45.6133 33.0571ZM37.5367 37.6807C39.3065 37.205 41.0492 36.6413 42.7576 35.9918C42.1818 36.9 41.5353 37.7655 40.8235 38.5807C37.7967 42.0522 33.6729 44.4884 29.0733 45.5222C29.5574 43.7504 31.3836 39.1794 37.5367 37.6807ZM38.6422 45.1642C36.8307 46.402 34.588 46.9198 31.9501 46.7155C35.8316 45.3761 39.2706 43.0724 41.9142 40.041C42.2799 39.6244 42.6244 39.1875 42.9563 38.7445C42.2968 40.8925 41.037 43.5178 38.6422 45.1561V45.1642Z" fill="#8FC045"/>
</g>
<defs>
<clipPath id="clip0">
<rect width="48.6792" height="50" fill="white"/>
</clipPath>
</defs>
</svg>
