<svg width="196" height="54" viewBox="0 0 196 54" fill="none" xmlns="http://www.w3.org/2000/svg">
<path d="M23.1166 45.9425C22.3874 45.9435 21.6652 45.7999 20.9913 45.52C20.3173 45.2401 19.7048 44.8293 19.1889 44.3112C18.6729 43.7931 18.2636 43.1777 17.9843 42.5004C17.7051 41.8231 17.5613 41.0971 17.5613 40.3639V32.9232C16.1504 32.4018 14.8458 31.6262 13.7114 30.6343C12.6822 29.7025 11.8659 28.5574 11.3188 27.2781C10.7717 25.9987 10.5068 24.6153 10.5422 23.2231V20.0732C10.5431 19.4382 10.6688 18.8098 10.912 18.2238C11.1552 17.6379 11.5111 17.106 11.9593 16.6588C12.4075 16.2115 12.9391 15.8577 13.5236 15.6177C14.1082 15.3776 14.7342 15.256 15.3656 15.2599H16.0975V23.2305C16.0607 23.8366 16.1592 24.4434 16.3859 25.0063C16.6126 25.5691 16.9617 26.0739 17.4076 26.4835L17.5687 26.6233V23.8634C17.5516 21.1115 18.6014 18.4611 20.4952 16.4743C22.389 14.4876 24.978 13.3207 27.7131 13.2213C30.4696 13.1666 33.1348 14.2153 35.1223 16.1365C37.1099 18.0578 38.257 20.6943 38.3113 23.466C38.3657 26.2377 37.3228 28.9176 35.4121 30.9162C33.5014 32.9147 30.8795 34.0682 28.123 34.1228C26.4574 34.27 24.7822 34.27 23.1166 34.1228V45.9425ZM23.1166 28.5221C24.6266 28.6867 26.149 28.7015 27.6619 28.5663H27.8083H27.962C28.9223 28.5677 29.8616 28.2826 30.6607 27.747C31.4598 27.2114 32.0829 26.4494 32.4511 25.5575C32.8193 24.6656 32.916 23.6839 32.729 22.7366C32.542 21.7894 32.0797 20.9193 31.4006 20.2365C30.7215 19.5536 29.8562 19.0887 28.9142 18.9007C27.9722 18.7127 26.9959 18.8099 26.1089 19.1801C25.2219 19.5504 24.4641 20.1769 23.9314 20.9805C23.3987 21.784 23.1152 22.7284 23.1166 23.6941V28.5221Z" fill="#272D37"/>
<path fill-rule="evenodd" clip-rule="evenodd" d="M14.6847 0.540527L9.91992 8.95267L13.6527 8.27558L13.3673 13.3391L18.1175 4.91955L14.3115 5.69232L14.6847 0.540527Z" fill="#D6DA2D"/>
<path fill-rule="evenodd" clip-rule="evenodd" d="M13.054 3.48438C13.054 3.48438 12.4392 5.7438 14.3129 5.69229L18.1189 4.95632L15.1107 10.2774C15.1107 10.2774 15.6157 7.94436 13.6469 8.31234L9.91406 8.98944L13.054 3.48438Z" fill="#F8E831"/>
<path d="M19.8309 7.97395C19.8309 8.06227 19.8309 8.15795 19.8309 8.24626C25.1231 7.01806 30.6834 7.9361 35.3072 10.8015C39.931 13.6668 43.2457 18.2487 44.5332 23.5545C44.7825 24.5886 45.334 25.524 46.1167 26.2402C46.8994 26.9564 47.8774 27.4205 48.9248 27.5729C48.8013 24.3388 48.045 21.161 46.6992 18.2211C45.3535 15.2812 43.4445 12.6368 41.0817 10.4393C38.7188 8.24172 35.9483 6.53407 32.9286 5.41396C29.9089 4.29386 26.6992 3.78327 23.4832 3.9114C21.9143 3.97027 20.3551 4.18474 18.8281 4.55169C19.4853 5.57057 19.8336 6.75957 19.8309 7.97395Z" fill="#272D37"/>
<path d="M45.8213 35.4404C45.6475 35.3244 45.4464 35.2564 45.2382 35.2435C45.0301 35.2306 44.8222 35.2731 44.6356 35.3668L43.4938 35.9261C41.2027 36.9799 38.8309 37.8462 36.4014 38.5168C33.8919 39.1153 31.5821 40.3646 29.702 42.1401C27.822 43.9156 26.4374 46.1554 25.6861 48.6364L25.5177 49.1442L24.9908 49.1957L24.354 49.2472H24.2954C20.2194 49.2245 16.2413 47.9884 12.8632 45.6947C9.48514 43.401 6.85836 40.1527 5.31434 36.3594C3.77032 32.5662 3.37824 28.3981 4.18758 24.3811C4.99692 20.364 6.97141 16.678 9.86191 13.7881C10.001 13.6483 10.14 13.5232 10.2791 13.3907C9.1725 12.7183 8.29659 11.722 7.76861 10.5352C4.29055 13.7975 1.83482 18.0096 0.702557 22.6548C-0.42971 27.3 -0.189307 32.1765 1.39429 36.6864C2.97788 41.1962 5.83584 45.1434 9.61773 48.0439C13.3996 50.9444 17.9411 52.6722 22.6852 53.0154H22.7803L23.6001 53.0595H24.4345C25.4972 53.0832 26.5595 52.9944 27.6037 52.7946H27.7647H27.9258C29.3647 53.1409 30.8378 53.3236 32.3173 53.3392C34.9944 53.3991 37.6204 52.5972 39.8122 51.0503C45.77 46.767 46.2531 38.1709 46.2677 37.8029L46.3336 36.5149C46.3487 36.3065 46.3094 36.0976 46.2195 35.9092C46.1297 35.7207 45.9924 35.5591 45.8213 35.4404ZM37.7043 40.3199C39.4834 39.8191 41.2351 39.2246 42.9521 38.5388C42.3632 39.4962 41.7051 40.4088 40.9833 41.2693C37.9437 44.9425 33.801 47.525 29.1774 48.629C29.7019 46.5898 30.7753 44.7354 32.2795 43.2695C33.7838 41.8037 35.6608 40.7831 37.7043 40.3199ZM38.7875 48.2095C36.827 49.5491 34.4515 50.1319 32.0977 49.8507C35.9954 48.4375 39.4488 46.0066 42.1031 42.8075C42.4691 42.3659 42.835 41.9096 43.1498 41.4386C42.491 43.7127 41.2248 46.48 38.7875 48.2095Z" fill="#272D37"/>
<path d="M64.2139 22.5313H65.1361L62.9403 33.5708H59.2148L60.8617 25.2764C61.0202 24.5005 61.4405 23.8035 62.0513 23.3032C62.6622 22.803 63.4261 22.5303 64.2139 22.5313Z" fill="#272D37"/>
<path d="M76.847 22.5312L74.6513 33.5708H71.5626L68.4007 28.419L67.3833 33.5708H63.7676L65.9633 22.5312H69.0155L72.1701 27.683L73.1948 22.5312H76.847Z" fill="#272D37"/>
<path d="M77.3091 33.5342C76.5799 33.3704 75.8792 33.0975 75.2305 32.7246L76.6943 29.9721C77.8155 30.6411 79.0941 30.9968 80.3978 31.0024C80.7673 31.0211 81.1365 30.9609 81.4811 30.8258C81.7373 30.708 81.8617 30.5535 81.8617 30.3548C81.8617 30.1561 81.7299 30.0089 81.4738 29.8911C81.0784 29.7364 80.6723 29.6109 80.2588 29.5158C79.6406 29.3606 79.032 29.1689 78.4363 28.9417C77.9516 28.7401 77.5187 28.4306 77.1701 28.0365C76.7947 27.5895 76.6012 27.0164 76.6284 26.432C76.6093 25.6433 76.8428 24.8693 77.2945 24.2241C77.7813 23.5568 78.4499 23.0455 79.2194 22.7522C80.1673 22.3882 81.1767 22.2132 82.1911 22.237C82.9589 22.2317 83.7249 22.3131 84.4747 22.4799C85.1198 22.6254 85.7375 22.8739 86.3045 23.2158L84.9724 25.9316C84.532 25.6561 84.0535 25.4478 83.5524 25.3134C83.0311 25.1784 82.4951 25.1091 81.9568 25.1073C81.5475 25.0863 81.1389 25.1619 80.7638 25.3281C80.4784 25.4753 80.3393 25.6519 80.3393 25.8506C80.3393 26.0493 80.4637 26.2113 80.7199 26.3216C81.1302 26.4857 81.5538 26.6138 81.9861 26.7044C82.5976 26.8427 83.1991 27.0222 83.7866 27.2416C84.2712 27.4331 84.7047 27.7355 85.0529 28.1248C85.421 28.5667 85.6116 29.1311 85.5872 29.7071C85.5999 30.4835 85.361 31.243 84.9065 31.8709C84.4169 32.5384 83.7459 33.0496 82.9742 33.3428C82.0407 33.7034 81.0464 33.8783 80.0465 33.858C79.1243 33.8631 78.205 33.7544 77.3091 33.5342Z" fill="#272D37"/>
<path d="M89.4138 25.4236H86.1934L86.7789 22.5312H96.9234L96.3451 25.4236H93.1247L91.4852 33.5929H87.8256L89.4138 25.4236Z" fill="#272D37"/>
<path d="M101.682 31.6645H97.4883L96.3904 33.5928H92.4746L99.4864 22.5532H103.146L105.752 33.5928H102.092L101.682 31.6645ZM101.163 28.9782L100.628 26.1521L99.0107 28.9782H101.163Z" fill="#272D37"/>
<path d="M119.219 22.5312L117.023 33.5708H113.971L110.817 28.419L109.792 33.5708H106.184L108.379 22.5312H111.424L114.586 27.683L115.603 22.5312H119.219Z" fill="#272D37"/>
<path d="M122.226 25.4236H119.006L119.591 22.5312H129.736L129.158 25.4236H125.937L124.32 33.5929H120.616L122.226 25.4236Z" fill="#272D37"/>
<path d="M143.723 23.4954C144.12 23.8189 144.435 24.2323 144.642 24.7018C144.849 25.1713 144.943 25.6835 144.916 26.1964C144.933 27.0628 144.696 27.9151 144.235 28.6472C143.756 29.3703 143.08 29.94 142.288 30.2884C141.366 30.6949 140.367 30.8957 139.361 30.8772H137.458L136.923 33.5929H133.205L135.401 22.5534H140.29C141.507 22.4674 142.718 22.7995 143.723 23.4954ZM140.751 27.6095C140.896 27.4712 141.009 27.3028 141.083 27.1159C141.156 26.9289 141.188 26.7282 141.176 26.5276C141.176 25.7916 140.715 25.4089 139.792 25.4089H138.555L138.036 27.9996H139.558C139.991 28.0252 140.417 27.8859 140.751 27.6095Z" fill="#272D37"/>
<path d="M146.379 22.5312H150.09L147.894 33.5708H144.184L146.379 22.5312Z" fill="#272D37"/>
<path d="M152.236 33.2177C151.423 32.8329 150.739 32.2193 150.267 31.4513C149.794 30.6777 149.552 29.7834 149.571 28.8754C149.549 27.6723 149.856 26.4861 150.457 25.4458C151.045 24.4486 151.9 23.6376 152.924 23.1054C154.03 22.5271 155.263 22.2362 156.51 22.2591C157.477 22.2405 158.437 22.4365 159.321 22.8331C160.085 23.1694 160.724 23.7416 161.143 24.467L158.479 26.5719C158.271 26.1707 157.954 25.8365 157.566 25.6074C157.178 25.3784 156.733 25.2637 156.283 25.2765C155.742 25.2661 155.209 25.4134 154.749 25.7007C154.29 25.988 153.922 26.4031 153.692 26.8957C153.433 27.4397 153.303 28.0367 153.312 28.6399C153.3 28.9316 153.35 29.2224 153.457 29.4937C153.564 29.7649 153.726 30.0106 153.934 30.2149C154.385 30.6202 154.976 30.8316 155.581 30.8037C156.059 30.794 156.528 30.6734 156.952 30.4513C157.376 30.2292 157.743 29.9115 158.025 29.5231L160.221 31.628C159.642 32.3674 158.887 32.9472 158.025 33.3133C157.128 33.6675 156.171 33.8401 155.207 33.8212C154.184 33.8534 153.167 33.6469 152.236 33.2177Z" fill="#272D37"/>
<path d="M168.28 27.5725L171.859 33.5928H167.723L165.528 29.9865L164.488 30.9506L163.947 33.5928H160.287L162.483 22.5532H166.142L165.352 26.4759L169.531 22.5532H173.791L168.28 27.5725Z" fill="#272D37"/>
<path d="M175.101 33.3427C174.428 33.0455 173.857 32.5536 173.462 31.9296C173.069 31.2836 172.868 30.5378 172.884 29.7806C172.89 29.3896 172.934 29.0001 173.015 28.6177L174.194 22.5312H177.897L176.704 28.5515C176.647 28.8152 176.615 29.0839 176.609 29.3537C176.593 29.5553 176.619 29.758 176.684 29.9492C176.75 30.1404 176.854 30.316 176.99 30.465C177.294 30.7263 177.689 30.8559 178.088 30.8256C178.325 30.839 178.563 30.7991 178.783 30.7087C179.003 30.6183 179.201 30.4798 179.361 30.3031C179.748 29.7907 180 29.1881 180.093 28.5515L181.286 22.5312H184.946L183.709 28.7723C183.492 30.2311 182.781 31.57 181.696 32.5625C180.751 33.2377 179.653 33.6631 178.502 33.7994C177.35 33.9357 176.184 33.7787 175.109 33.3427H175.101Z" fill="#272D37"/>
<path d="M193.956 23.4955C194.355 23.8175 194.673 24.2302 194.883 24.6998C195.093 25.1694 195.189 25.6823 195.163 26.1965C195.18 27.0629 194.944 27.9152 194.483 28.6473C194.005 29.3718 193.329 29.9418 192.536 30.2885C191.614 30.6958 190.615 30.8967 189.608 30.8773H187.705L186.461 37.1036H186.065C185.664 37.1037 185.268 37.0143 184.905 36.8419C184.542 36.6695 184.222 36.4184 183.967 36.1066C183.712 35.7948 183.529 35.4301 183.432 35.0388C183.334 34.6474 183.323 34.2391 183.401 33.8432L185.663 22.5314H190.545C191.757 22.4557 192.96 22.7956 193.956 23.4955ZM191.028 27.6096C191.173 27.4713 191.286 27.3028 191.359 27.1159C191.433 26.929 191.464 26.7283 191.452 26.5277C191.452 25.7917 190.991 25.409 190.069 25.409H188.832L188.312 27.9996H189.835C190.267 28.0268 190.694 27.8873 191.028 27.6096Z" fill="#272D37"/>
<path d="M23.1166 45.9425C22.3874 45.9435 21.6652 45.7999 20.9913 45.52C20.3173 45.2401 19.7048 44.8293 19.1889 44.3112C18.6729 43.7931 18.2636 43.1777 17.9843 42.5004C17.7051 41.8231 17.5613 41.0971 17.5613 40.3639V32.9232C16.1504 32.4018 14.8458 31.6262 13.7114 30.6343C12.6822 29.7025 11.8659 28.5574 11.3188 27.2781C10.7717 25.9987 10.5068 24.6153 10.5422 23.2231V20.0732C10.5431 19.4382 10.6688 18.8098 10.912 18.2238C11.1552 17.6379 11.5111 17.106 11.9593 16.6588C12.4075 16.2115 12.9391 15.8577 13.5236 15.6177C14.1082 15.3776 14.7342 15.256 15.3656 15.2599H16.0975V23.2305C16.0607 23.8366 16.1592 24.4434 16.3859 25.0063C16.6126 25.5691 16.9617 26.0739 17.4076 26.4835L17.5687 26.6233V23.8634C17.5516 21.1115 18.6014 18.4611 20.4952 16.4743C22.389 14.4876 24.978 13.3207 27.7131 13.2213C30.4696 13.1666 33.1348 14.2153 35.1223 16.1365C37.1099 18.0578 38.257 20.6943 38.3113 23.466C38.3657 26.2377 37.3228 28.9176 35.4121 30.9162C33.5014 32.9147 30.8795 34.0682 28.123 34.1228C26.4574 34.27 24.7822 34.27 23.1166 34.1228V45.9425ZM23.1166 28.5221C24.6266 28.6867 26.149 28.7015 27.6619 28.5663H27.8083H27.962C28.9223 28.5677 29.8616 28.2826 30.6607 27.747C31.4598 27.2114 32.0829 26.4494 32.4511 25.5575C32.8193 24.6656 32.916 23.6839 32.729 22.7366C32.542 21.7894 32.0797 20.9193 31.4006 20.2365C30.7215 19.5536 29.8562 19.0887 28.9142 18.9007C27.9722 18.7127 26.9959 18.8099 26.1089 19.1801C25.2219 19.5504 24.4641 20.1769 23.9314 20.9805C23.3987 21.784 23.1152 22.7284 23.1166 23.6941V28.5221Z" fill="#8FC045"/>
<path fill-rule="evenodd" clip-rule="evenodd" d="M14.6847 0.540527L9.91992 8.95267L13.6527 8.27558L13.3673 13.3391L18.1175 4.91955L14.3115 5.69232L14.6847 0.540527Z" fill="#D6DA2D"/>
<path fill-rule="evenodd" clip-rule="evenodd" d="M13.054 3.48438C13.054 3.48438 12.4392 5.7438 14.3129 5.69229L18.1189 4.95632L15.1107 10.2774C15.1107 10.2774 15.6157 7.94436 13.6469 8.31234L9.91406 8.98944L13.054 3.48438Z" fill="#F8E831"/>
<path d="M19.8309 7.97395C19.8309 8.06227 19.8309 8.15795 19.8309 8.24626C25.1231 7.01806 30.6834 7.9361 35.3072 10.8015C39.931 13.6668 43.2457 18.2487 44.5332 23.5545C44.7825 24.5886 45.334 25.524 46.1167 26.2402C46.8994 26.9564 47.8774 27.4205 48.9248 27.5729C48.8013 24.3388 48.045 21.161 46.6992 18.2211C45.3535 15.2812 43.4445 12.6368 41.0817 10.4393C38.7188 8.24172 35.9483 6.53407 32.9286 5.41396C29.9089 4.29386 26.6992 3.78327 23.4832 3.9114C21.9143 3.97027 20.3551 4.18474 18.8281 4.55169C19.4853 5.57057 19.8336 6.75957 19.8309 7.97395Z" fill="#8FC045"/>
<path d="M45.8213 35.4404C45.6475 35.3244 45.4464 35.2564 45.2382 35.2435C45.0301 35.2306 44.8222 35.2731 44.6356 35.3668L43.4938 35.9261C41.2027 36.9799 38.8309 37.8462 36.4014 38.5168C33.8919 39.1153 31.5821 40.3646 29.702 42.1401C27.822 43.9156 26.4374 46.1554 25.6861 48.6364L25.5177 49.1442L24.9908 49.1957L24.354 49.2472H24.2954C20.2194 49.2245 16.2413 47.9884 12.8632 45.6947C9.48514 43.401 6.85836 40.1527 5.31434 36.3594C3.77032 32.5662 3.37824 28.3981 4.18758 24.3811C4.99692 20.364 6.97141 16.678 9.86191 13.7881C10.001 13.6483 10.14 13.5232 10.2791 13.3907C9.1725 12.7183 8.29659 11.722 7.76861 10.5352C4.29055 13.7975 1.83482 18.0096 0.702557 22.6548C-0.42971 27.3 -0.189307 32.1765 1.39429 36.6864C2.97788 41.1962 5.83584 45.1434 9.61773 48.0439C13.3996 50.9444 17.9411 52.6722 22.6852 53.0154H22.7803L23.6001 53.0595H24.4345C25.4972 53.0832 26.5595 52.9944 27.6037 52.7946H27.7647H27.9258C29.3647 53.1409 30.8378 53.3236 32.3173 53.3392C34.9944 53.3991 37.6204 52.5972 39.8122 51.0503C45.77 46.767 46.2531 38.1709 46.2677 37.8029L46.3336 36.5149C46.3487 36.3065 46.3094 36.0976 46.2195 35.9092C46.1297 35.7207 45.9924 35.5591 45.8213 35.4404ZM37.7043 40.3199C39.4834 39.8191 41.2351 39.2246 42.9521 38.5388C42.3632 39.4962 41.7051 40.4088 40.9833 41.2693C37.9437 44.9425 33.801 47.525 29.1774 48.629C29.7019 46.5898 30.7753 44.7354 32.2795 43.2695C33.7838 41.8037 35.6608 40.7831 37.7043 40.3199ZM38.7875 48.2095C36.827 49.5491 34.4515 50.1319 32.0977 49.8507C35.9954 48.4375 39.4488 46.0066 42.1031 42.8075C42.4691 42.3659 42.835 41.9096 43.1498 41.4386C42.491 43.7127 41.2248 46.48 38.7875 48.2095Z" fill="#8FC045"/>
<path d="M89.5747 40.0697C89.74 40.1998 89.8715 40.3681 89.9582 40.5603C90.0448 40.7525 90.084 40.9629 90.0724 41.1737C90.0907 41.4688 90.0415 41.7642 89.9285 42.0372C89.8156 42.3102 89.642 42.5536 89.421 42.7486C88.9086 43.1494 88.2684 43.3483 87.6205 43.308H86.1566L85.8126 44.986H85.2637L86.3176 39.6723H88.2133C88.6983 39.6498 89.1771 39.7895 89.5747 40.0697ZM89.0258 42.4101C89.1938 42.2648 89.3257 42.0819 89.4108 41.8762C89.496 41.6704 89.532 41.4475 89.5161 41.2252C89.5252 41.0733 89.4973 40.9216 89.4348 40.7831C89.3723 40.6446 89.2771 40.5235 89.1575 40.4303C88.8581 40.228 88.5 40.1322 88.1401 40.158H86.7495L86.2152 42.8149H87.6278C88.1265 42.8485 88.6212 42.7052 89.0258 42.4101Z" fill="#272D37"/>
<path d="M94.8609 41.0191L94.0704 45.0154H93.5581L93.6825 44.3825C93.4948 44.5943 93.2656 44.7647 93.0091 44.8829C92.7328 44.9968 92.4368 45.0544 92.1381 45.0522C91.8257 45.0592 91.5165 44.9884 91.2379 44.8461C90.9807 44.7163 90.7689 44.511 90.6304 44.2574C90.4782 43.9834 90.4023 43.6732 90.4108 43.3595C90.4043 42.9372 90.5024 42.5198 90.6962 42.1451C90.884 41.7953 91.1621 41.5029 91.5014 41.2988C91.8488 41.0914 92.2465 40.9844 92.6505 40.9897C92.9824 40.9767 93.3116 41.0556 93.602 41.2178C93.8561 41.3594 94.0528 41.5859 94.1582 41.8581L94.3266 41.0191H94.8609ZM93.1336 44.3383C93.397 44.1776 93.6101 43.9455 93.7484 43.6686C93.9006 43.3704 93.9784 43.0396 93.9753 42.7045C93.9834 42.5367 93.957 42.3691 93.8978 42.2121C93.8386 42.0551 93.7479 41.912 93.6313 41.7919C93.3649 41.5583 93.0179 41.4393 92.6651 41.4607C92.3531 41.4564 92.0462 41.5406 91.7795 41.7035C91.5191 41.8712 91.3071 42.1047 91.1647 42.3806C91.0151 42.6768 90.9397 43.0053 90.9451 43.3374C90.9361 43.5052 90.962 43.6731 91.0213 43.8302C91.0805 43.9874 91.1717 44.1304 91.2891 44.25C91.5551 44.4784 91.8987 44.5945 92.2479 44.5738C92.5616 44.5684 92.8679 44.4768 93.1336 44.3089V44.3383Z" fill="#272D37"/>
<path d="M99.6985 41.019L96.7709 45.5305C96.5971 45.8308 96.3687 46.0954 96.0975 46.3107C95.8799 46.4532 95.6252 46.5275 95.3656 46.5241C95.1807 46.5259 94.9971 46.4934 94.8239 46.4284C94.6681 46.3783 94.5272 46.2897 94.4141 46.1708L94.7068 45.7734C94.7996 45.8733 94.9136 45.951 95.0403 46.0007C95.167 46.0504 95.3032 46.0708 95.4388 46.0604C95.6077 46.0629 95.7735 46.0142 95.9145 45.9206C96.0898 45.784 96.2366 45.6139 96.3463 45.4201L96.6318 44.9933L95.6144 41.019H96.156L96.9758 44.4266L99.1716 41.019H99.6985Z" fill="#272D37"/>
<path d="M102.749 39.3555H103.291L102.171 44.9856H101.637L102.749 39.3555Z" fill="#272D37"/>
<path d="M104.163 43.1387C104.163 43.1387 104.163 43.227 104.163 43.3006C104.152 43.4709 104.177 43.6415 104.236 43.8014C104.296 43.9612 104.388 44.1066 104.507 44.228C104.797 44.4599 105.163 44.573 105.532 44.5444C105.782 44.545 106.03 44.5001 106.264 44.4119C106.476 44.3326 106.669 44.2069 106.827 44.044L107.069 44.434C106.859 44.6299 106.609 44.778 106.337 44.8682C106.053 44.9725 105.753 45.0248 105.451 45.0228C104.958 45.054 104.472 44.8903 104.097 44.5665C103.93 44.4078 103.798 44.2144 103.712 43.9997C103.627 43.7849 103.588 43.5539 103.6 43.3227C103.594 42.9028 103.692 42.4881 103.885 42.1157C104.065 41.7634 104.339 41.4685 104.677 41.2644C105.014 41.0603 105.402 40.9549 105.795 40.9603C106.026 40.9485 106.257 40.9828 106.474 41.0611C106.691 41.1394 106.891 41.2602 107.062 41.4166C107.22 41.5792 107.343 41.7729 107.424 41.9857C107.505 42.1984 107.541 42.4256 107.53 42.653C107.527 42.8165 107.507 42.9792 107.472 43.1387H104.163ZM104.793 41.7772C104.5 42.0251 104.299 42.3646 104.222 42.7413H107.047C107.052 42.6924 107.052 42.643 107.047 42.5941C107.056 42.4329 107.03 42.2717 106.97 42.1217C106.911 41.9718 106.82 41.8366 106.703 41.7257C106.451 41.5098 106.126 41.3992 105.795 41.4166C105.432 41.4046 105.076 41.5248 104.793 41.7551V41.7772Z" fill="#272D37"/>
<path d="M108.475 44.8902C108.231 44.8204 108.004 44.7 107.809 44.5369L108.065 44.1101C108.239 44.257 108.44 44.3671 108.658 44.4339C108.908 44.5142 109.17 44.5539 109.433 44.5517C109.737 44.5703 110.041 44.5067 110.312 44.3677C110.406 44.3159 110.483 44.239 110.536 44.1454C110.589 44.0519 110.616 43.9454 110.612 43.8378C110.616 43.7812 110.606 43.7246 110.585 43.6722C110.563 43.6199 110.53 43.5733 110.487 43.536C110.399 43.4587 110.298 43.3988 110.187 43.3594L109.653 43.2269C109.382 43.1607 109.155 43.1018 108.987 43.0429C108.818 42.9884 108.666 42.8893 108.548 42.7559C108.482 42.6812 108.431 42.5938 108.4 42.4989C108.368 42.4039 108.356 42.3036 108.365 42.2039C108.361 42.0256 108.402 41.8491 108.484 41.6909C108.565 41.5326 108.686 41.3977 108.833 41.2987C109.206 41.0587 109.643 40.9405 110.085 40.9601C110.332 40.9628 110.578 40.9974 110.817 41.0632C111.029 41.1181 111.23 41.2103 111.41 41.3355L111.183 41.7697C111.021 41.6534 110.84 41.5662 110.648 41.5121C110.444 41.4529 110.232 41.4232 110.019 41.4238C109.723 41.4079 109.429 41.4768 109.17 41.6225C109.078 41.6766 109.002 41.7541 108.949 41.8471C108.897 41.9401 108.869 42.0454 108.87 42.1524C108.871 42.2194 108.889 42.2851 108.92 42.344C108.952 42.4029 108.998 42.4533 109.053 42.4909C109.144 42.5763 109.254 42.6371 109.375 42.6676C109.545 42.7233 109.719 42.7675 109.895 42.8C110.12 42.846 110.342 42.905 110.561 42.9767C110.726 43.035 110.874 43.1337 110.992 43.2637C111.121 43.4091 111.186 43.5996 111.175 43.7936C111.176 43.9764 111.129 44.1561 111.039 44.315C110.95 44.4738 110.82 44.6062 110.663 44.6989C110.28 44.939 109.833 45.0546 109.382 45.03C109.074 45.029 108.769 44.9819 108.475 44.8902Z" fill="#272D37"/>
<path d="M112.162 44.8903C111.919 44.8187 111.692 44.6986 111.496 44.5371L111.752 44.1102C111.929 44.2571 112.133 44.3672 112.352 44.434C112.603 44.5148 112.865 44.5545 113.128 44.5518C113.43 44.5705 113.731 44.5069 113.999 44.3678C114.094 44.3164 114.173 44.2398 114.227 44.1463C114.281 44.0528 114.309 43.9461 114.307 43.8379C114.309 43.7816 114.299 43.7254 114.277 43.6733C114.256 43.6212 114.223 43.5744 114.182 43.5362C114.093 43.4572 113.988 43.3972 113.875 43.3595L113.348 43.227C113.07 43.1608 112.843 43.1019 112.674 43.0431C112.507 42.9847 112.356 42.8862 112.235 42.756C112.11 42.6005 112.048 42.4036 112.06 42.2041C112.056 42.0266 112.097 41.8511 112.177 41.6931C112.257 41.5351 112.376 41.3997 112.521 41.2988C112.897 41.0605 113.336 40.9424 113.78 40.9603C114.027 40.9622 114.273 40.9969 114.512 41.0633C114.725 41.1152 114.926 41.2077 115.104 41.3356L114.907 41.7551C114.748 41.6376 114.57 41.5503 114.38 41.4975C114.175 41.4388 113.963 41.4091 113.75 41.4092C113.454 41.3912 113.159 41.4603 112.901 41.6079C112.809 41.6609 112.732 41.7381 112.679 41.8314C112.626 41.9246 112.599 42.0305 112.601 42.1378C112.593 42.2012 112.599 42.2656 112.618 42.3266C112.637 42.3876 112.668 42.4437 112.711 42.4911C112.804 42.5739 112.914 42.6343 113.033 42.6677C113.206 42.7224 113.382 42.7666 113.56 42.8002C113.783 42.846 114.003 42.905 114.219 42.9768C114.385 43.0335 114.534 43.1323 114.651 43.2638C114.779 43.4093 114.845 43.5997 114.834 43.7937C114.839 43.9741 114.798 44.1528 114.714 44.3126C114.631 44.4724 114.508 44.608 114.358 44.7063C113.975 44.9465 113.528 45.0621 113.077 45.0375C112.767 45.0342 112.458 44.9846 112.162 44.8903Z" fill="#272D37"/>
<path d="M121.261 43.9627L121.847 44.6986L121.481 45.0445L120.91 44.3086C120.416 44.7851 119.757 45.0491 119.073 45.0445C118.655 45.066 118.241 44.9497 117.895 44.7134C117.755 44.6135 117.642 44.4808 117.566 44.3268C117.489 44.1728 117.451 44.0023 117.455 43.8302C117.457 43.4751 117.596 43.1347 117.843 42.8808C118.214 42.5274 118.642 42.241 119.11 42.0344C118.984 41.8616 118.876 41.6767 118.788 41.4824C118.716 41.3203 118.678 41.1448 118.678 40.9673C118.671 40.786 118.704 40.6055 118.775 40.4387C118.845 40.272 118.952 40.1232 119.088 40.0031C119.384 39.7586 119.759 39.6328 120.142 39.6499C120.442 39.6335 120.74 39.7219 120.983 39.9001C121.086 39.9808 121.168 40.085 121.223 40.204C121.278 40.3231 121.303 40.4535 121.298 40.5846C121.3 40.7376 121.271 40.8895 121.213 41.0311C121.155 41.1727 121.07 41.3012 120.961 41.4088C120.622 41.7136 120.237 41.962 119.82 42.1448L120.976 43.6168C121.214 43.3039 121.404 42.9565 121.54 42.5864L121.964 42.7262C121.79 43.1701 121.553 43.5865 121.261 43.9627ZM120.632 43.9627L119.366 42.3215C118.977 42.4942 118.617 42.7249 118.297 43.0059C118.197 43.0997 118.118 43.2138 118.065 43.3407C118.012 43.4676 117.986 43.6043 117.99 43.7419C117.986 43.8617 118.011 43.9807 118.063 44.0884C118.116 44.1962 118.193 44.2894 118.29 44.3601C118.529 44.5273 118.818 44.6077 119.11 44.5882C119.678 44.5859 120.224 44.3616 120.632 43.9627ZM119.439 40.2828C119.353 40.3617 119.284 40.4584 119.239 40.5665C119.193 40.6745 119.172 40.7911 119.175 40.9084C119.179 41.0532 119.211 41.1959 119.271 41.3279C119.35 41.5017 119.451 41.6648 119.571 41.8136C119.823 41.6895 120.068 41.5493 120.303 41.3941C120.453 41.3012 120.582 41.1785 120.683 41.0335C120.759 40.91 120.798 40.7666 120.793 40.6214C120.796 40.5432 120.78 40.4655 120.749 40.3941C120.717 40.3227 120.67 40.2594 120.61 40.2092C120.461 40.0951 120.277 40.0377 120.09 40.0473C119.852 40.0456 119.621 40.129 119.439 40.2828Z" fill="#272D37"/>
<path d="M131.309 41.2984C131.433 41.4217 131.53 41.5701 131.593 41.7337C131.656 41.8973 131.684 42.0725 131.675 42.2478C131.668 42.4057 131.651 42.563 131.624 42.7188L131.17 44.9856H130.628L131.082 42.7114C131.112 42.5886 131.127 42.4625 131.126 42.3361C131.132 42.2148 131.113 42.0936 131.069 41.9805C131.025 41.8675 130.957 41.7654 130.87 41.6811C130.665 41.5108 130.403 41.4264 130.138 41.4456C129.774 41.4356 129.419 41.5555 129.135 41.7841C128.849 42.047 128.661 42.4 128.601 42.785L128.162 44.9929H127.627L128.081 42.7114C128.102 42.5898 128.114 42.4668 128.118 42.3434C128.126 42.2215 128.108 42.0992 128.065 41.9848C128.023 41.8705 127.955 41.7669 127.869 41.6811C127.664 41.5108 127.402 41.4264 127.137 41.4456C126.768 41.431 126.407 41.5572 126.127 41.7988C125.834 42.0767 125.641 42.4441 125.578 42.8439L125.153 44.9856H124.619L125.41 41.0187H125.922L125.79 41.659C125.968 41.4439 126.193 41.2719 126.446 41.156C126.699 41.04 126.976 40.983 127.254 40.9893C127.546 40.9803 127.834 41.0516 128.088 41.1953C128.311 41.3311 128.477 41.5427 128.557 41.7915C128.748 41.5347 128.999 41.3298 129.289 41.1953C129.589 41.0549 129.917 40.9844 130.248 40.9893C130.627 40.9543 131.006 41.0647 131.309 41.2984Z" fill="#272D37"/>
<path d="M133.461 44.8166C133.196 44.6861 132.977 44.4784 132.831 44.2204C132.68 43.9488 132.604 43.6412 132.612 43.3299C132.604 42.9066 132.705 42.4885 132.905 42.1156C133.096 41.7638 133.38 41.4712 133.724 41.2692C134.082 41.0615 134.489 40.9547 134.903 40.9601C135.384 40.9347 135.856 41.0983 136.22 41.4164C136.385 41.5735 136.515 41.7647 136.599 41.9769C136.684 42.189 136.722 42.4171 136.711 42.6455C136.719 43.0712 136.618 43.492 136.418 43.8672C136.228 44.2163 135.944 44.5045 135.598 44.6988C135.238 44.9071 134.828 45.0139 134.412 45.0079C134.085 45.0208 133.758 44.9552 133.461 44.8166ZM135.335 44.3088C135.598 44.1481 135.811 43.9159 135.949 43.639C136.105 43.3421 136.183 43.0104 136.176 42.6749C136.184 42.5072 136.158 42.3396 136.099 42.1826C136.04 42.0255 135.949 41.8825 135.832 41.7623C135.566 41.5287 135.219 41.4098 134.866 41.4311C134.556 41.4266 134.252 41.5109 133.988 41.674C133.724 41.8392 133.509 42.0732 133.366 42.3511C133.216 42.6472 133.141 42.9757 133.146 43.3078C133.137 43.4757 133.163 43.6435 133.222 43.8007C133.282 43.9578 133.373 44.1008 133.49 44.2204C133.756 44.4489 134.1 44.5649 134.449 44.5443C134.76 44.5477 135.066 44.4663 135.335 44.3088Z" fill="#272D37"/>
<path d="M141.402 41.019L138.848 45.0154H138.328L137.318 41.019H137.853L138.672 44.4339L140.868 41.019H141.402Z" fill="#272D37"/>
<path d="M141.746 43.1387C141.742 43.1925 141.742 43.2467 141.746 43.3006C141.735 43.4708 141.76 43.6415 141.819 43.8013C141.879 43.9612 141.971 44.1066 142.09 44.2279C142.38 44.4599 142.746 44.5729 143.115 44.5444C143.365 44.5467 143.613 44.5017 143.847 44.4119C144.061 44.3348 144.254 44.2089 144.411 44.0439L144.652 44.434C144.454 44.6277 144.217 44.7759 143.957 44.8682C143.673 44.9718 143.373 45.0241 143.071 45.0227C142.576 45.0543 142.087 44.8907 141.71 44.5664C141.543 44.4074 141.413 44.2138 141.328 43.999C141.243 43.7841 141.206 43.5534 141.219 43.3227C141.214 42.9028 141.312 42.4881 141.505 42.1157C141.681 41.7649 141.953 41.4715 142.288 41.2693C142.628 41.0623 143.018 40.9552 143.415 40.9602C143.645 40.9486 143.874 40.983 144.09 41.0614C144.306 41.1397 144.505 41.2604 144.674 41.4165C144.834 41.5781 144.958 41.7716 145.039 41.9846C145.12 42.1977 145.155 42.4253 145.142 42.6529C145.142 42.8162 145.125 42.9789 145.091 43.1387H141.746ZM142.376 41.7771C142.084 42.0265 141.881 42.365 141.798 42.7412H144.63C144.634 42.6923 144.634 42.643 144.63 42.594C144.64 42.4334 144.616 42.2724 144.557 42.1223C144.499 41.9723 144.409 41.8369 144.293 41.7256C144.041 41.5097 143.717 41.3991 143.386 41.4165C143.019 41.4014 142.66 41.5218 142.376 41.755V41.7771Z" fill="#272D37"/>
<path d="M152.235 41.0187L151.54 44.5293C151.476 45.1063 151.218 45.644 150.808 46.0528C150.365 46.3888 149.817 46.5557 149.263 46.5238C148.921 46.5286 148.579 46.4764 148.253 46.3692C147.982 46.274 147.733 46.1237 147.521 45.9276L147.836 45.5155C148.013 45.6961 148.232 45.8301 148.473 45.9056C148.748 46.0031 149.038 46.0505 149.329 46.0454C149.746 46.0734 150.159 45.9507 150.493 45.6995C150.794 45.4121 150.99 45.0309 151.049 44.6176L151.137 44.1834C150.947 44.3989 150.712 44.5698 150.449 44.6839C150.167 44.8038 149.863 44.8639 149.556 44.8605C149.093 44.8848 148.638 44.7324 148.283 44.4336C148.122 44.2846 147.995 44.102 147.912 43.8986C147.828 43.6952 147.79 43.4759 147.8 43.2561C147.797 42.852 147.898 42.454 148.092 42.1006C148.281 41.7607 148.559 41.4803 148.898 41.291C149.255 41.0891 149.659 40.9851 150.069 40.9893C150.408 40.9815 150.743 41.0626 151.042 41.2248C151.307 41.3738 151.51 41.6143 151.613 41.9019L151.781 41.0187H152.235ZM150.486 44.154C150.748 44.0085 150.963 43.7917 151.108 43.5284C151.257 43.2503 151.332 42.9388 151.327 42.6231C151.337 42.4641 151.311 42.305 151.251 42.1573C151.192 42.0097 151.1 41.8772 150.983 41.7694C150.71 41.5503 150.366 41.4403 150.017 41.4603C149.705 41.4572 149.397 41.5358 149.124 41.6885C148.864 41.837 148.651 42.0564 148.51 42.3214C148.36 42.5991 148.284 42.9109 148.29 43.2266C148.281 43.3857 148.307 43.5448 148.366 43.6924C148.426 43.8401 148.517 43.9726 148.634 44.0804C148.908 44.2974 149.252 44.4049 149.6 44.3821C149.921 44.3833 150.235 44.2941 150.508 44.1245L150.486 44.154Z" fill="#272D37"/>
<path d="M154.797 41.1516C155.101 41.0168 155.431 40.9514 155.763 40.9603L155.66 41.4828H155.514C155.127 41.4628 154.748 41.5977 154.46 41.8581C154.157 42.1566 153.962 42.5474 153.904 42.9695L153.501 44.9934H152.967L153.75 41.0191H154.27L154.131 41.7551C154.288 41.4921 154.52 41.2821 154.797 41.1516Z" fill="#272D37"/>
<path d="M156.401 43.1384C156.396 43.1923 156.396 43.2464 156.401 43.3003C156.389 43.47 156.413 43.6403 156.471 43.8001C156.529 43.96 156.62 44.1056 156.738 44.2276C157.027 44.4596 157.393 44.5727 157.762 44.5441C158.012 44.5453 158.26 44.5004 158.494 44.4116C158.707 44.3322 158.899 44.2066 159.058 44.0436L159.299 44.4337C159.089 44.6295 158.84 44.7776 158.568 44.8679C158.284 44.9721 157.984 45.0245 157.682 45.0225C157.189 45.0521 156.704 44.8886 156.328 44.5662C156.16 44.4075 156.029 44.2141 155.943 43.9993C155.857 43.7846 155.819 43.5536 155.83 43.3224C155.825 42.9025 155.923 42.4878 156.116 42.1154C156.297 41.7683 156.568 41.4762 156.899 41.269C157.241 41.061 157.634 40.9539 158.033 40.9599C158.496 40.9382 158.949 41.1024 159.292 41.4162C159.451 41.5789 159.574 41.7726 159.655 41.9853C159.735 42.1981 159.771 42.4252 159.761 42.6526C159.756 42.8157 159.739 42.9781 159.709 43.1384H156.401ZM157.023 41.7768C156.736 42.029 156.536 42.3667 156.452 42.741H159.285C159.285 42.7042 159.285 42.6526 159.285 42.5938C159.294 42.4326 159.267 42.2714 159.208 42.1214C159.149 41.9714 159.057 41.8363 158.941 41.7253C158.689 41.5094 158.364 41.3988 158.033 41.4162C157.667 41.4025 157.308 41.5228 157.023 41.7548V41.7768Z" fill="#272D37"/>
<path d="M160.96 43.1384C160.955 43.1923 160.955 43.2464 160.96 43.3003C160.947 43.4707 160.971 43.6417 161.031 43.8018C161.09 43.9619 161.183 44.1071 161.304 44.2276C161.591 44.4578 161.954 44.5708 162.321 44.5441C162.571 44.5453 162.819 44.5004 163.053 44.4116C163.266 44.3322 163.458 44.2066 163.617 44.0436L163.858 44.4337C163.649 44.6312 163.399 44.7796 163.126 44.8679C162.842 44.9721 162.543 45.0245 162.241 45.0225C161.747 45.0521 161.262 44.8886 160.886 44.5662C160.719 44.4075 160.587 44.2141 160.502 43.9993C160.416 43.7846 160.377 43.5536 160.389 43.3224C160.383 42.9025 160.481 42.4878 160.674 42.1154C160.856 41.7683 161.126 41.4762 161.457 41.269C161.8 41.0618 162.192 40.9547 162.592 40.9599C163.055 40.9382 163.508 41.1024 163.851 41.4162C164.011 41.5778 164.135 41.7714 164.216 41.9844C164.296 42.1974 164.332 42.4251 164.319 42.6526C164.319 42.8159 164.302 42.9787 164.268 43.1384H160.96ZM161.582 41.7768C161.294 42.029 161.094 42.3667 161.011 42.741H163.843C163.843 42.7042 163.843 42.6526 163.843 42.5938C163.849 42.438 163.822 42.2828 163.764 42.1383C163.706 41.9937 163.618 41.863 163.507 41.7548C163.257 41.5407 162.935 41.4302 162.606 41.4457C162.239 41.4207 161.875 41.5305 161.582 41.7548V41.7768Z" fill="#272D37"/>
<path d="M168.792 41.3058C168.919 41.4293 169.017 41.5785 169.082 41.7436C169.146 41.9086 169.175 42.0855 169.166 42.2625C169.165 42.4156 169.15 42.5683 169.122 42.7188L168.668 44.9856H168.134L168.587 42.7115C168.596 42.5889 168.596 42.466 168.587 42.3435C168.595 42.2203 168.575 42.097 168.53 41.9824C168.484 41.8679 168.414 41.7649 168.324 41.6811C168.116 41.5165 167.856 41.4329 167.592 41.4456C167.207 41.4301 166.83 41.5557 166.531 41.7989C166.233 42.0742 166.037 42.4425 165.974 42.8439L165.55 44.9856H165.016L165.806 41.0187H166.318L166.194 41.659C166.385 41.4366 166.624 41.2607 166.893 41.1447C167.162 41.0287 167.454 40.9755 167.746 40.9893C168.122 40.9587 168.495 41.0717 168.792 41.3058Z" fill="#272D37"/>
<path d="M82.1683 43.2636H59.0469L59.2152 42.6821H82.3367L82.1683 43.2636Z" fill="#272D37"/>
<path d="M195.103 43.2636H172.062L172.231 42.6821H195.272L195.103 43.2636Z" fill="#272D37"/>
</svg>
