<svg width="92" height="200" fill="none" xmlns="http://www.w3.org/2000/svg"><path d="M60.116 6.525a6.003 6.003 0 00-5.287-5.03 7.903 7.903 0 01-2.063-.226 11.801 11.801 0 01-1.47-.841A4.008 4.008 0 0046.4 1.459c-1.032 1.347-1.48-.515-3.962.95-2.063 1.222-.98 2.919-.98 2.919a4.606 4.606 0 00-4.565 3.641c-.242 1.326 0 2.935-1.031 3.802-.516.418-1.197.516-1.718.933-.96.743-.99 2.177-.773 3.369.216 1.191.588 2.455.144 3.61-.727 1.852-3.363 2.58-3.688 4.55-.155.928.232 2.063-.413 2.723a3.134 3.134 0 01-.97.567 4.194 4.194 0 00-.154 7.454c.371.2.82.392.96.794.139.402-.135.913-.346 1.336a4.033 4.033 0 005.735 5.23 6.298 6.298 0 003.73 2.904 3.817 3.817 0 002.202.057 4.269 4.269 0 001.517-.929c2.145-1.872 5.157-4.73 5.354-7.572" fill="#263238"/><path d="M40.382 16.882a2.527 2.527 0 01-.996 0 5.849 5.849 0 01-3.946-2.58 2.423 2.423 0 01-.417-.897c.206.251.398.515.572.79a6.883 6.883 0 001.697 1.547 6.968 6.968 0 002.13.902c.325.059.645.138.96.238zm1.438-6.525a2.167 2.167 0 01-.645.645 5.715 5.715 0 01-4.183 1.067 2.167 2.167 0 01-.877-.258 9.287 9.287 0 003.007-.123 9.083 9.083 0 002.698-1.331zM31.278 42.63h-.088a2.382 2.382 0 01-.258-.077 3.151 3.151 0 01-.887-.516 3.419 3.419 0 01-1.032-1.254 3.353 3.353 0 01-.247-2.114 3.48 3.48 0 01.459-1.166 4.54 4.54 0 01.907-1.032 4.8 4.8 0 00.94-1.031 1.392 1.392 0 00.04-1.336 6.734 6.734 0 00-.923-1.253 4.566 4.566 0 01-.48-.692 2.631 2.631 0 01-.278-.83 2.94 2.94 0 011.599-3.028 9.618 9.618 0 011.743-.407c.267-.053.52-.16.743-.315a1.18 1.18 0 00.428-.619 2.46 2.46 0 00-.17-1.547c-.201-.49-.48-.954-.66-1.45a2.321 2.321 0 01-.108-1.547 2.49 2.49 0 01.882-1.181 6.804 6.804 0 012.383-1 5.32 5.32 0 001.877-.857c.398-.337.674-.795.784-1.305a1.47 1.47 0 00-.093-.96c-.098-.206-.19-.288-.175-.299a.793.793 0 01.227.274 1.5 1.5 0 01.144 1 2.403 2.403 0 01-.789 1.403 5.265 5.265 0 01-1.924.924c-.82.185-1.6.522-2.295.995-.37.27-.647.646-.795 1.078-.126.465-.086.96.114 1.398.175.475.449.923.665 1.44.244.532.31 1.129.186 1.701a1.466 1.466 0 01-.516.758 2.26 2.26 0 01-.84.367 9.531 9.531 0 00-1.692.386 2.677 2.677 0 00-1.45 2.745c.04.26.122.513.243.748.13.231.283.45.453.654.367.397.684.837.945 1.31a1.635 1.635 0 01-.062 1.548 4.71 4.71 0 01-.99 1.068c-.34.272-.638.594-.883.954a3.297 3.297 0 00-.449 1.099 3.203 3.203 0 00.197 2.011c.215.479.538.9.943 1.233a4.28 4.28 0 001.182.722z" fill="#455A64"/><path d="M84.806 171.734H29.25v2.951h55.556v-2.951z" fill="#E0E0E0"/><path d="M84.792 174.674v-.732c0-.516 0-1.228-.026-2.218l.041.041c-7.22.052-29.374.093-55.556.093l.134-.134v2.95l-.134-.134 39.345.057 11.863.041h4.359-4.292l-11.822.042-39.443.056h-.134v-3.156h.134c26.182 0 48.35.036 55.557.092h.04v.042c0 1 0 1.738-.025 2.238v.542a1.044 1.044 0 01-.041.18z" fill="#263238"/><path d="M35.07 120.598l-11.73 79.237h3.91l10.615-78.205v-1.032h-2.796z" fill="#E0E0E0"/><path d="M35.069 120.598H37.9v1.068c-1.269 9.753-5.477 41.073-10.522 78.215V200h-4.193v-.155c3.321-22.076 6.261-41.909 8.392-56.222 1.072-7.139 1.939-12.895 2.543-16.882.299-1.981.515-3.518.696-4.57l.18-1.181c.047-.263.072-.392.072-.392s0 .139-.051.413c-.052.273-.093.68-.17 1.201-.15 1.032-.372 2.579-.66 4.601-.578 3.993-1.419 9.769-2.46 16.924-2.105 14.292-5.014 34.083-8.254 56.118l-.134-.154h3.915l-.134.113c5.06-37.143 9.33-68.467 10.734-78.19v-1.031l.03.031H35.78l-.712-.026z" fill="#263238"/><path d="M78.973 120.598l11.977 79.237h-3.915L76.178 121.63v-1.032h2.795z" fill="#E0E0E0"/><path d="M78.973 120.598h-2.796l.031-.031v1.032c1.409 9.738 5.798 41.042 10.956 78.19l-.13-.114h3.91l-.133.155c-3.307-22.03-6.283-41.826-8.429-56.119-1.062-7.154-1.918-12.926-2.517-16.923a799.43 799.43 0 00-.675-4.601l-.17-1.202c-.042-.278-.052-.413-.052-.413s.026.129.072.392c.046.264.103.671.186 1.182.165 1.031.402 2.579.712 4.57.613 3.982 1.495 9.743 2.578 16.882 2.177 14.313 5.19 34.13 8.547 56.191v.154H86.88v-.118c-5.158-37.138-9.47-68.462-10.77-78.216v-1.067h2.157a18 18 0 00.706.056z" fill="#263238"/><path d="M57.423 120.598h-3.342v79.237h3.342v-79.237z" fill="#E0E0E0"/><path d="M57.423 199.835v-6.215c0-3.998-.026-9.769-.041-16.918 0-14.293-.037-34.084-.057-56.104l.134.135h-3.343l.135-.135c0 37.937-.042 69.891-.098 79.237l-.036-.036h3.342-3.379v-.036c-.056-9.346-.098-41.3-.098-79.237v-.134h3.611v.134c0 22.061-.041 41.883-.052 56.222 0 7.139-.036 12.895-.04 16.887v5.751c0 .274-.078.449-.078.449z" fill="#263238"/><path d="M79.639 115.301h-45.86v5.957h45.86v-5.957z" fill="#455A64"/><path d="M47.783 115.471c-.52.522-1.08 1.001-1.677 1.434a18.15 18.15 0 01-2.011 1.264 18.044 18.044 0 01-5.473 1.888c-.78.134-1.57.215-2.362.242-.728.031-1.458.005-2.182-.077h2.192a18.674 18.674 0 002.347-.263c.95-.177 1.886-.42 2.8-.728a21.068 21.068 0 002.647-1.15 18.893 18.893 0 003.275-2.213l.33-.278.114-.119zm6.576 3.915l-.114-.041c-.072-.031-.18-.088-.324-.145a6.107 6.107 0 00-3.456-.263 5.82 5.82 0 00-2.507 1.217v-.072a19.54 19.54 0 005.07.552 19.118 19.118 0 002.904-.294 4.345 4.345 0 001.444-.423c.218-.126.385-.325.47-.562a1.136 1.136 0 00-.026-.738 1.838 1.838 0 00-1.336-1.083 10.128 10.128 0 00-1.759-.242 18.522 18.522 0 00-3.363.067 19.338 19.338 0 00-8.872 3.301c-.376.253-.655.474-.845.619l-.294.216s.092-.082.283-.232c.191-.149.454-.376.83-.634a18.16 18.16 0 013.364-1.893 19.01 19.01 0 015.519-1.475 19.376 19.376 0 013.389-.078c.599.033 1.194.116 1.779.248.301.08.586.213.84.392.258.193.453.456.563.758.095.262.095.548 0 .81a1.12 1.12 0 01-.516.614c-.464.231-.965.38-1.48.438a18.76 18.76 0 01-2.925.289 19.232 19.232 0 01-5.09-.567h-.078l.062-.052a5.873 5.873 0 012.579-1.222 6.005 6.005 0 013.476.309c.253.108.413.186.413.186zm5.926-3.93c.107.012.212.039.31.082a2.2 2.2 0 01.722.516c.301.322.513.716.614 1.145.11.531.065 1.082-.13 1.589a3.819 3.819 0 01-1.98 2.037 5.088 5.088 0 01-.82.299l-.232.057h-.082c.096-.044.196-.081.299-.108.275-.089.542-.199.8-.331a3.78 3.78 0 001.913-2.006 2.7 2.7 0 00.134-1.547 2.473 2.473 0 00-.573-1.12 2.433 2.433 0 00-.974-.613zm7.181-.026a7.44 7.44 0 00-1.006.516 6.832 6.832 0 00-1.924 1.888c-.505.755-.94 1.554-1.3 2.388l-.34.753a3.088 3.088 0 01-.134.273c.018-.1.05-.197.093-.289a32.2 32.2 0 01.309-.768c.343-.849.773-1.66 1.284-2.419a6.543 6.543 0 011.97-1.893c.24-.143.492-.262.754-.356a2.06 2.06 0 01.216-.067c.047-.026.078-.031.078-.026zm7.922 3.538l-.268-.118a4.56 4.56 0 00-.789-.253 4.51 4.51 0 00-2.966.33.834.834 0 00-.371.289.344.344 0 00.046.428c.288.217.616.375.965.464a9.512 9.512 0 002.362.516c.887.077 1.78.033 2.657-.129.46-.06.897-.237 1.268-.516a1.113 1.113 0 00.29-1.274 1.856 1.856 0 00-.976-.985 6.292 6.292 0 00-1.335-.443 9.376 9.376 0 00-2.652-.217 9.173 9.173 0 00-4.27 1.356 9.574 9.574 0 00-2.296 1.991c-.232.284-.397.516-.516.666l-.17.237a7.2 7.2 0 01.64-.928 9.598 9.598 0 012.31-2.084 9.203 9.203 0 014.308-1.388 9.41 9.41 0 012.682.212c.467.098.922.248 1.356.449.462.201.83.569 1.032 1.031.094.24.117.501.067.753a1.23 1.23 0 01-.387.64c-.384.298-.84.49-1.32.557a9.923 9.923 0 01-2.688.129 10.178 10.178 0 01-2.383-.516 8.413 8.413 0 01-.516-.201 1.272 1.272 0 01-.469-.299.43.43 0 01-.051-.516.981.981 0 01.402-.315 4.541 4.541 0 013.012-.299 3.6 3.6 0 011.026.433z" fill="#263238"/><path d="M45.658 39.536a7.778 7.778 0 00-3.997 3.471c-1.501 2.656-1.099 3.966-.707 5.54.392 1.573 1.083 4.683 1.12 4.482.035-.201 3.584-13.493 3.584-13.493zm.165.015l3.157-1.872 14.674-5.494-2.883 24.666-10.832 6.819-6.417-3.209-.64-7.138 2.94-13.772z" fill="#A36957"/><path d="M45.441 77.085l-5.735 7.438-7.108-1.67-5.684 3.176 1.506 2.677 15.082 1.011 5.318-10.96-3.379-1.672z" fill="#7C3B29"/><path d="M28.038 148.482l5.787 12.545 9.336-4.318-5.983-15.52-9.14 7.293z" fill="#A36957"/><path d="M32.732 160.186l3.378 6.447s-8.655 8.949-7.84 10.951l20.343-9.754-5.602-12.931-10.28 5.287z" fill="#8FC045"/><path d="M41.98 162.734a.918.918 0 011.032.675.888.888 0 01-.656 1.032.976.976 0 01-1.088-.717.924.924 0 01.805-.995" fill="#E0E0E0"/><path opacity=".6" d="M48.613 167.83l-.846-1.625-19.198 9.96s-.716.825-.309 1.419l20.353-9.754z" fill="#fff"/><path d="M35.734 166.69c.047.098.567-.098 1.207 0 .64.098 1.104.376 1.176.294.072-.083-.35-.588-1.13-.676-.778-.087-1.32.299-1.253.382zm-1.713 1.903c0 .109.516.072 1.073.33.557.258.851.655.944.604.093-.052-.108-.645-.784-.954-.676-.31-1.28-.088-1.233.02zm.011 3.136c.103 0 0-.588-.516-1.031-.516-.444-1.083-.418-1.083-.315 0 .103.423.258.84.609.418.35.655.773.759.737zm.727-7.525c.087.072.474-.284 1.031-.516.557-.232 1.104-.263 1.114-.371.01-.109-.583-.263-1.258 0-.676.263-.97.835-.887.887zm-.593-1.29s-.103-.129-.19-.407a2.985 2.985 0 01-.093-1.228c.01-.141.042-.28.092-.413a.517.517 0 01.408-.33.366.366 0 01.304.103.52.52 0 01.124.279c.013.172.013.344 0 .516 0 .345 0 .675-.082 1.073a.644.644 0 01-.423.515 1.264 1.264 0 01-.635.026 5.101 5.101 0 01-1.614-.572 1.477 1.477 0 01-.454-.346.48.48 0 010-.603.563.563 0 01.516-.129c.279.074.547.184.8.325.36.196.692.443.984.732.202.206.294.335.279.351a8.118 8.118 0 00-1.352-.913 3.387 3.387 0 00-.747-.279.375.375 0 00-.33.067.25.25 0 00.03.299c.11.112.24.203.382.269a5.08 5.08 0 001.506.536c.17.044.347.044.516 0a.37.37 0 00.253-.309c.046-.331.062-.712.093-1.032a3.06 3.06 0 000-.469c0-.135-.073-.196-.17-.191-.222 0-.3.314-.336.552a4.23 4.23 0 00.14 1.578zm-6.262-10.125l-14.736-36.678s.34-6.509 1.547-8.567c1.207-2.059 37.53-14.056 37.53-14.056s9.253-2.223 15.422 0c6.169 2.223 10.796 9.945 9.94 14.226-.857 4.281-4.472 7.432-4.472 7.432l-26.719.795-14.56 5.312 9.8 28.111s-5.009 5.483-13.752 3.425z" fill="#263238"/><path d="M14.854 128.201l-.345 13.808 10.285.247 1.48-16.567-11.42 2.512z" fill="#A36957"/><path d="M13.895 140.771l.191 7.278s-11.714 4.209-11.863 6.365l22.556.227.696-14.071-11.58.201z" fill="#8FC045"/><path d="M21.07 147.141a.928.928 0 01.629 1.063.895.895 0 01-1.032.629.974.974 0 01-.655-1.124.918.918 0 011.156-.516" fill="#E0E0E0"/><path opacity=".6" d="M24.773 154.641l-.041-1.831-21.612.469s-1.032.423-.903 1.135l22.556.227z" fill="#fff"/><path d="M13.72 147.93c0 .114.551.165 1.093.516.541.351.82.825.923.784.103-.041-.057-.681-.717-1.104-.66-.423-1.32-.273-1.3-.196zm-2.373.954c-.03.109.449.299.815.769.366.469.475.964.583.959.108-.005.186-.624-.284-1.196-.47-.573-1.114-.635-1.114-.532zm-1.377 2.822c.103 0 .263-.516 0-1.13-.263-.613-.79-.851-.836-.763-.046.088.269.418.485.918.217.5.243.96.351.975zm3.977-6.432c.046.103.552-.047 1.176 0 .624.046 1.104.247 1.16.155.057-.093-.402-.491-1.134-.516-.733-.026-1.254.273-1.202.361zm.031-1.419a1.03 1.03 0 010-.448c.07-.409.225-.799.454-1.145a1.67 1.67 0 01.268-.33.513.513 0 01.516-.114.368.368 0 01.227.227c.03.099.03.205 0 .304a3.715 3.715 0 01-.238.459c-.175.294-.325.594-.546.924a.64.64 0 01-.604.273 1.224 1.224 0 01-.583-.258 5.262 5.262 0 01-.861-.789 6.611 6.611 0 01-.336-.438 1.417 1.417 0 01-.252-.516.475.475 0 01.258-.552.561.561 0 01.515.124c.218.191.41.409.573.65.238.334.428.7.562 1.088.06.139.092.287.098.438a8.366 8.366 0 00-.815-1.413 3.413 3.413 0 00-.546-.583.384.384 0 00-.325-.088.243.243 0 00-.103.284c.047.149.122.287.221.408a4.854 4.854 0 001.15 1.171c.136.103.293.176.46.211a.389.389 0 00.366-.17c.185-.274.366-.609.516-.887.086-.132.161-.27.226-.413.047-.129 0-.212-.067-.248-.206-.082-.407.15-.546.346a4.309 4.309 0 00-.588 1.485zm6.881-53.988s-6.19-.49-6.845 6.19c-.655 6.679-1.362 37.87-1.362 37.87l14.396 1.201 2.229-31.881 22.968-9.759s-27.286-4.477-31.386-3.62z" fill="#263238"/><path d="M46.25 80.851s-3.739 10.481-3.027 11.652c.712 1.17 10.316 5.973 10.316 5.973l24.057 9.238a20.158 20.158 0 002.47-9.965c0-6.04-8.366-16.898-8.366-16.898H46.25z" fill="#263238"/><path d="M53.38 92.957s-.036 0-.114.061l-.34.155-1.331.593-5.003 2.182-17.264 7.428.077-.109c-.216 3.152-.454 6.551-.696 10.069a22841.63 22841.63 0 00-1.547 21.808v.108h-.103l-10.507-.929-2.889-.268-.753-.082a1.401 1.401 0 01-.258-.036c.088-.008.176-.008.263 0l.754.046 2.893.211 10.497.831-.114.098c.408-5.999.928-13.586 1.496-21.813l.707-10.063v-.083l.072-.031 17.305-7.34 5.029-2.11 1.351-.556.35-.134.125-.036zm19.136 1.047a2.923 2.923 0 01-.676-.186l-1.81-.583a39.716 39.716 0 00-6.066-1.547 17.704 17.704 0 00-6.19.082c-.84.196-1.67.435-2.486.718.197-.126.406-.231.624-.315a10.984 10.984 0 011.821-.588c2.066-.455 4.2-.509 6.288-.16 2.073.348 4.108.888 6.08 1.614.759.269 1.368.516 1.79.666.218.08.427.18.625.299z" fill="#455A64"/><path d="M69.11 88.48c-.698-.044-1.4-.044-2.099 0-.65.041-1.418.144-2.28.242-.86.098-1.794.217-2.77.403-1.67.265-3.273.86-4.714 1.748-.576.398-1.123.838-1.635 1.315a1.8 1.8 0 01.351-.454 7.158 7.158 0 011.176-1.031 12.094 12.094 0 014.771-1.852c.985-.19 1.934-.299 2.796-.387.861-.087 1.635-.165 2.295-.185a8.392 8.392 0 011.547.067c.194.014.384.059.563.134z" fill="#455A64"/><path d="M45.658 39.536s-4.09 13.116-3.997 16.871c.093 3.755 1.65 14.443 1.47 16.506-.18 2.063.557 7.902 3.094 7.902h25.46s5.751-1.594 5.999-5.045c.248-3.45-7.737-36.962-7.737-36.962s-1.506-6.158-3.61-6.607c-2.105-.449-4.457 0-5.865 4.348-1.408 4.348-1.878 10.486-4.885 13.493-3.007 3.008-7.283 6.38-7.283 6.38s-3.45-2.888-3.61-6.797c-.16-3.91 1.31-10.239 1.31-10.239l-.346.15z" fill="#8FC045"/><path d="M72.459 41.836a5.472 5.472 0 00-2.801-2.15 13.318 13.318 0 00-3.518-.676 9.4 9.4 0 00-3.203.113c-1.031.268-1.465 1.547-1.898 2.538a32.032 32.032 0 00.686 13.22 4.182 4.182 0 002.233 3.094 6.565 6.565 0 002.946 1.197c1.908.144 3.667-1.238 4.56-2.93.892-1.691 1.093-3.652 1.273-5.555.12-1.193.236-2.385.346-3.574.175-1.806.32-3.745-.624-5.277z" fill="#A36957"/><path d="M49.429 81.135a2.412 2.412 0 01-1.006-.516 6.024 6.024 0 01-1.702-2.156 11.46 11.46 0 01-.867-2.58 4.27 4.27 0 01-.175-1.118c.156.344.276.703.356 1.073.236.867.547 1.713.928 2.527a6.74 6.74 0 001.578 2.13c.516.413.908.599.888.64zM62.9 64.877a2.282 2.282 0 01-.427.36 8.396 8.396 0 01-1.316.77 8.053 8.053 0 01-2.176.65 7.501 7.501 0 01-2.775-.12 9.14 9.14 0 01-4.323-2.511c-.357-.36-.69-.745-.995-1.15a2.545 2.545 0 01-.3-.475c.042-.031.517.619 1.425 1.49a9.526 9.526 0 004.255 2.384 7.814 7.814 0 004.797-.434c1.18-.515 1.805-1.031 1.836-.964z" fill="#263238"/><path d="M49.113 80.66c-.056.047-.407-.356-.515-.98a1.405 1.405 0 01.113-1.109c.078 0 .036.49.15 1.032.113.541.34 1.016.252 1.057z" fill="#263238"/><path d="M59.662 41.774c-.231.05-.446.158-.624.315a1.444 1.444 0 00-.397.717 1.124 1.124 0 00.232 1.031l.093.093-.129.041a2.4 2.4 0 00-1.44 1.29 2.465 2.465 0 00.053 2.326l.154.253-.289-.078a1.702 1.702 0 00-1.846 2.58l-.238.118a.944.944 0 00-1.175-.454 1.45 1.45 0 00-1.006 1.032 5.462 5.462 0 00-.217 1.547l-.02.722-.222-.712a.866.866 0 00-.96-.515 1.217 1.217 0 00-.861.722c-.34.727-.134 1.547 0 2.212h-.206a1.146 1.146 0 00-.439-.887 1.34 1.34 0 00-.856-.32 1.12 1.12 0 00-1.032.934c-.078.324-.034.666.124.96.114.196.217.273.206.288a.728.728 0 01-.258-.258 1.465 1.465 0 01.14-1.702 1.144 1.144 0 01.825-.392 1.52 1.52 0 01.985.34 1.376 1.376 0 01.516 1.032v.851l-.201-.825a7.172 7.172 0 01-.217-1.12 2.336 2.336 0 01.18-1.242 1.444 1.444 0 011.032-.872 1.114 1.114 0 011.249.676l-.253.036a5.672 5.672 0 01.227-1.604c.088-.276.23-.532.418-.753.206-.228.475-.39.773-.465.285-.083.587-.083.872 0a.995.995 0 01.624.604l.371 1.032-.608-.934a1.949 1.949 0 012.13-2.96l-.134.18a2.667 2.667 0 01-.031-2.538 2.54 2.54 0 011.578-1.362l-.036.134a1.243 1.243 0 01-.237-1.16 1.48 1.48 0 01.464-.748c.142-.12.31-.205.49-.248a.761.761 0 01.196.083z" fill="#8FC045"/><path d="M45.781 39.628s.031 0 .072.098a.883.883 0 01.093.346c.01.196-.03.392-.118.567a1.031 1.031 0 01-.594.516v-.119a2.007 2.007 0 01.728 1.548 2.14 2.14 0 01-1.032 1.919v-.191a2.104 2.104 0 01.712 2.161 5.673 5.673 0 01-1.259 2.233l-.211-.165a.986.986 0 011.547.119 1.547 1.547 0 01.052 1.49 3.61 3.61 0 01-.887 1.1l-.134-.222a1.463 1.463 0 011.995 1.497 1.467 1.467 0 01-1.088 1.283l-.294.082.176-.252a1.088 1.088 0 011.057-.398c.341.044.66.196.908.434a2.062 2.062 0 01.552 1.48 5.16 5.16 0 01-.083 1 1.44 1.44 0 01-.077.341c-.041 0 .067-.485.036-1.336a1.98 1.98 0 00-.547-1.356 1.51 1.51 0 00-.763-.34.893.893 0 00-.851.334l-.119-.17a1.295 1.295 0 00.841-1.46 1.264 1.264 0 00-1.599-.86l-.598.21.464-.433a3.38 3.38 0 00.82-1.031 1.253 1.253 0 00-.03-1.223.727.727 0 00-1.115-.113l-.212-.16c.562-.606.98-1.33 1.223-2.12a1.867 1.867 0 00-.593-1.924l-.15-.103.16-.093a1.934 1.934 0 00.944-1.712 1.884 1.884 0 00-.624-1.45l-.108-.072.128-.036a.913.913 0 00.516-.439c.09-.157.137-.334.14-.515a1.258 1.258 0 00-.078-.465z" fill="#8FC045"/><path opacity=".3" d="M51.017 62.989a7.428 7.428 0 002.615 5.003 6.153 6.153 0 005.447 1.186 5.287 5.287 0 003.724-4.044 15.409 15.409 0 01-4.064 1.414 7.975 7.975 0 01-7.845-3.704c.067.078.139.15.206.222m-5.432 12.06a5.705 5.705 0 001.815 5.312 1.212 1.212 0 001.14.387 13.607 13.607 0 01-2.924-5.818" fill="#000"/><path d="M65.624 37.509s-5.76.902-4.368 9.093c1.392 8.191 11.347 22.06 11.347 22.06L50.842 81.935l2.538 5.896L81.64 76.2s2.785-2.868 1.805-6.061c-.98-3.193-8.252-23.304-8.252-23.304s-2.688-10.718-9.569-9.325zm-33.769 49.48l7.789-4.92 10.316.484.866-.598 2.538 5.895s-2.78 1.33-4.235 1.45l-9.01-.686-9.574-.717 1.31-.908z" fill="#A36957"/><path d="M72.578 68.822a4.8 4.8 0 01-.516-.665 87.138 87.138 0 01-1.28-1.883 118.782 118.782 0 01-3.914-6.416 114.684 114.684 0 01-3.492-6.654 71.542 71.542 0 01-.96-2.063 4.338 4.338 0 01-.32-.774c.154.233.289.478.403.733l1.032 2.027a184.643 184.643 0 003.559 6.602 182.765 182.765 0 003.837 6.447l1.207 1.93c.168.225.317.465.444.716z" fill="#7C3B29"/><path d="M77.93 70.69a18.777 18.777 0 00-2.578-1.357 18.671 18.671 0 00-2.863-.67 7.051 7.051 0 015.468 2.026h-.026z" fill="#7C3B29"/><path d="M.484 62.4C.68 63 8.5 89.28 8.5 89.28l44.874 3.224 1.65-2.786-25.057-1.888-7.03-26.965a2.259 2.259 0 00-2.538-1.656L.484 62.4z" fill="#455A64"/><path d="M14.643 73.429c.376.784.221 1.64-.356 1.918-.578.279-1.347-.129-1.723-.907-.377-.78-.222-1.64.35-1.92.573-.278 1.352.13 1.729.909z" fill="#FAFAFA"/><path d="M54.163 91.182h-.511l-1.47-.082-5.436-.361-18.208-1.31h-.093l-.025-.088c-.243-.846-.516-1.743-.764-2.651l-5.503-19.374-1.635-5.87c-.186-.68-.33-1.217-.434-1.603-.041-.17-.077-.305-.103-.418a.48.48 0 01-.03-.145c.025.044.044.09.056.14.03.108.077.242.129.412.119.382.278.908.48 1.584l1.722 5.849 5.581 19.327c.258.907.516 1.805.758 2.65l-.118-.097 18.202 1.398 5.426.443 1.465.13.382.04c.044.002.088.01.129.026z" fill="#263238"/><path d="M60.481 10.878l-.04-2.022-12.215-1.815c-3.755-.243-7.639 3.662-7.737 7.422-.093 4.178-.041 9.284.578 12.379 1.248 6.19 6.07 6.814 6.07 6.814l.28 6.19 13.828-.388-.764-28.58z" fill="#A36957"/><path d="M43.089 18.842a.794.794 0 00.805.774.77.77 0 00.799-.753.805.805 0 00-.805-.78.77.77 0 00-.8.759zm-1.161-1.77c.103.098.697-.376 1.548-.407.85-.031 1.51.371 1.599.263.087-.108-.062-.232-.346-.423a2.218 2.218 0 00-1.29-.34c-.448.018-.88.176-1.232.454-.227.221-.325.407-.279.453zm9.223 1.594a.81.81 0 00.805.78.772.772 0 00.8-.759.8.8 0 00-.805-.779.776.776 0 00-.8.758zm-.732-1.779c.103.103.691-.372 1.547-.403.856-.03 1.512.372 1.604.263.093-.108-.067-.237-.35-.422a2.16 2.16 0 00-1.285-.341 2.059 2.059 0 00-1.232.454c-.253.211-.336.402-.284.449zm-2.874 6.525a6 6 0 00-1.413-.196c-.221 0-.428-.047-.474-.196a1.135 1.135 0 01.123-.66c.186-.516.377-1.11.583-1.703.805-2.424 1.383-4.415 1.285-4.446-.098-.03-.83 1.909-1.64 4.333-.197.598-.382 1.166-.558 1.712a1.285 1.285 0 00-.077.867.548.548 0 00.377.31c.123.028.25.04.376.036.473.042.95.023 1.418-.057z" fill="#263238"/><path d="M47.139 33.666a16.587 16.587 0 008.495-2.58s-1.934 4.463-8.428 4.127l-.067-1.547zm.855-8.191a1.548 1.548 0 011.372-.635 1.42 1.42 0 011 .516.903.903 0 01.109 1.032 1.032 1.032 0 01-1.12.33 3.31 3.31 0 01-1.129-.614 1.07 1.07 0 01-.258-.247.289.289 0 010-.32" fill="#7C3B29"/><path d="M50.11 23.907c-.14 0-.104.934-.883 1.63-.778.696-1.774.634-1.774.768 0 .135.227.17.65.166a2.347 2.347 0 001.486-.588c.394-.349.636-.837.675-1.362.02-.392-.093-.624-.155-.614zm-.053-10.388c.093.227.95.083 1.966.165 1.016.083 1.846.325 1.975.108.057-.103-.098-.32-.433-.515a3.421 3.421 0 00-3.002-.212c-.366.165-.547.34-.506.454zm-7.912 1.041c.16.192.748-.035 1.46-.077.712-.04 1.325.083 1.46-.129.056-.103-.047-.293-.32-.469a2.012 2.012 0 00-1.202-.273c-.42.025-.82.178-1.15.438-.243.212-.32.418-.248.51z" fill="#263238"/><path d="M38.886 6.896c1.031 2.187 3.26 5.442 5.673 5.674a7.072 7.072 0 006.288-2.837c.402 1.774 2.404 2.677 4.204 2.93a7.113 7.113 0 003.79-.346 3.788 3.788 0 002.348-2.842c.165-1.274-1.718-4.353-2.987-4.565" fill="#263238"/><path d="M58.398 38.844a4.941 4.941 0 003.61 4.374 3.491 3.491 0 006.757 1.357c.109-.419.283-.818.516-1.181.609-.78 1.805-.625 2.744-.929 1.692-.547 2.424-2.62 2.234-4.39a4.238 4.238 0 01-.047-1.03c.103-.708.66-1.25 1.073-1.837 1.702-2.414.99-5.916-.897-8.191-.63-.758-1.424-1.547-1.362-2.533.09-.54.263-1.062.516-1.547a4.472 4.472 0 00-1.202-4.874 1.387 1.387 0 01-.516-.62 1.336 1.336 0 010-.515 5.225 5.225 0 00-4.415-5.576 1.268 1.268 0 01-.46-.103c-.402-.211-.417-.763-.469-1.212-.139-1.192-1.031-3.41-1.965-4.188-2.527-2.156-4.972-.403-5.844.417 0 0-1.728 8.563-1.392 10.162.335 1.599 1.506 5.57 1.031 7.376-.474 1.805-1.222 5.503-.516 7.133.707 1.63.604 7.907.604 7.907z" fill="#263238"/><path d="M67.837 11.296s-.108.113-.33.273c-.32.222-.654.421-1 .598A12.26 12.26 0 0159 13.4a7.626 7.626 0 01-1.145-.253 1.549 1.549 0 01-.402-.144c0-.046.604.103 1.547.211 1.26.136 2.531.103 3.781-.098a13.867 13.867 0 003.61-1.119c.909-.407 1.42-.737 1.445-.701zm.825.608a2.41 2.41 0 01-.186.516 4.244 4.244 0 01-.273.573c-.125.25-.264.493-.418.727a11.23 11.23 0 01-1.351 1.728 12.711 12.711 0 01-2.063 1.723 13.02 13.02 0 01-2.394 1.217c-.686.255-1.396.442-2.12.557a6.944 6.944 0 01-.835.103 4.664 4.664 0 01-.635 0 1.868 1.868 0 01-.541-.03c0-.053.773-.042 1.975-.28.704-.14 1.395-.342 2.063-.603a12.658 12.658 0 004.37-2.878c.503-.513.96-1.068 1.366-1.66.701-1.002.99-1.713 1.042-1.693zm-4.476 31.81s.108 0 .299-.031a1.35 1.35 0 00.717-.434c.304-.336.471-.774.47-1.227a5.878 5.878 0 00-.326-1.774 3.858 3.858 0 01-.155-2.26c.269-.815.918-1.439 1.501-2.11a4.21 4.21 0 00.748-1.103 1.58 1.58 0 00-.041-1.295 2.96 2.96 0 00-.97-1.031c-.402-.294-.846-.552-1.274-.867a2.795 2.795 0 01-1.031-1.222 1.917 1.917 0 01.16-1.548c.484-.892 1.243-1.547 1.418-2.388a2.866 2.866 0 00-.634-2.295c-.442-.59-.947-1.13-1.506-1.61a10.27 10.27 0 01-1.26-1.356 4.124 4.124 0 01-.654-1.243 2.632 2.632 0 01-.103-.882 1.28 1.28 0 01.056-.3c-.016.39.033.778.145 1.151a6.395 6.395 0 001.944 2.491 9.938 9.938 0 011.548 1.615c.257.341.46.72.603 1.124.16.434.193.905.093 1.357-.201.96-.99 1.63-1.424 2.46a1.622 1.622 0 00-.144 1.336c.199.447.523.827.934 1.094.407.304.856.562 1.269.866.43.288.784.675 1.031 1.13a1.816 1.816 0 01.041 1.5 4.26 4.26 0 01-.8 1.177c-.597.675-1.227 1.279-1.474 2.011a3.718 3.718 0 00.108 2.13 5.94 5.94 0 01.289 1.837 1.918 1.918 0 01-.542 1.29 1.336 1.336 0 01-.784.412.718.718 0 01-.252-.005z" fill="#455A64"/></svg>