<svg width="196" height="54" fill="none" xmlns="http://www.w3.org/2000/svg"><path d="M23.117 45.943a5.52 5.52 0 01-3.928-1.632 5.58 5.58 0 01-1.628-3.947v-7.44a12.356 12.356 0 01-3.85-2.29 9.64 9.64 0 01-2.392-3.356 9.688 9.688 0 01-.777-4.055v-3.15a4.843 4.843 0 011.417-3.414 4.79 4.79 0 013.407-1.4h.732v7.971a4.09 4.09 0 001.31 3.253l.16.14v-2.76a10.615 10.615 0 012.927-7.389 10.499 10.499 0 017.218-3.253 10.364 10.364 0 017.41 2.916 10.48 10.48 0 013.188 7.329 10.484 10.484 0 01-2.899 7.45 10.369 10.369 0 01-7.289 3.207c-1.666.147-3.34.147-5.006 0v11.82zm0-17.42c1.51.164 3.032.178 4.545.043h.3c.96.002 1.9-.283 2.699-.819a4.874 4.874 0 001.79-2.19 4.905 4.905 0 00-1.05-5.32 4.828 4.828 0 00-5.292-1.056 4.86 4.86 0 00-2.178 1.8 4.898 4.898 0 00-.814 2.713v4.828z" fill="#272D37"/><path fill-rule="evenodd" clip-rule="evenodd" d="M14.685.54L9.92 8.954l3.733-.677-.286 5.063 4.75-8.42-3.806.773.374-5.151z" fill="#D6DA2D"/><path fill-rule="evenodd" clip-rule="evenodd" d="M13.054 3.484s-.615 2.26 1.259 2.208l3.806-.736-3.008 5.321s.505-2.333-1.464-1.965l-3.733.677 3.14-5.505z" fill="#F8E831"/><path d="M19.83 7.974v.272a20.55 20.55 0 0115.477 2.556 20.754 20.754 0 019.226 12.753 5.336 5.336 0 001.584 2.685 5.287 5.287 0 002.808 1.333 24.737 24.737 0 00-2.226-9.352 24.62 24.62 0 00-5.617-7.782 24.467 24.467 0 00-8.153-5.025 24.368 24.368 0 00-14.1-.862 6.288 6.288 0 011.002 3.422zM45.821 35.44a1.182 1.182 0 00-1.185-.073l-1.142.56a46.722 46.722 0 01-7.093 2.59 14.738 14.738 0 00-6.699 3.623 14.857 14.857 0 00-4.016 6.496l-.168.508-.527.052-.637.051h-.059a20.553 20.553 0 01-11.432-3.552 20.724 20.724 0 01-7.549-9.336 20.854 20.854 0 01-1.126-11.978 20.782 20.782 0 015.674-10.593c.139-.14.278-.265.417-.397a6.37 6.37 0 01-2.51-2.856 24.603 24.603 0 00-7.066 12.12 24.703 24.703 0 00.691 14.031 24.568 24.568 0 008.224 11.358 24.36 24.36 0 0013.067 4.971h.095l.82.044h.834a15.075 15.075 0 003.17-.264h.322c1.439.346 2.912.529 4.391.544a12.51 12.51 0 007.495-2.289c5.958-4.283 6.441-12.88 6.456-13.247l.066-1.288a1.205 1.205 0 00-.513-1.075zm-8.117 4.88a52.17 52.17 0 005.248-1.781 22.997 22.997 0 01-1.969 2.73 21.941 21.941 0 01-11.806 7.36 11.474 11.474 0 013.102-5.36 11.378 11.378 0 015.425-2.95zm1.084 7.89a9.795 9.795 0 01-6.69 1.64 23.341 23.341 0 0010.005-7.043c.366-.441.732-.897 1.047-1.368-.659 2.274-1.925 5.041-4.362 6.77zm25.426-25.679h.922l-2.196 11.04h-3.725l1.647-8.295a3.44 3.44 0 011.19-1.973c.61-.5 1.374-.773 2.162-.772zm12.633 0l-2.196 11.04h-3.088L68.4 28.419l-1.018 5.152h-3.615l2.195-11.04h3.053l3.154 5.152 1.025-5.152h3.652zm.463 11.003a7.445 7.445 0 01-2.08-.81l1.464-2.752a7.288 7.288 0 003.704 1.03c.37.02.739-.041 1.083-.176.256-.118.38-.273.38-.471 0-.199-.131-.346-.387-.464a8.666 8.666 0 00-1.215-.375 16.148 16.148 0 01-1.823-.574 3.47 3.47 0 01-1.266-.905 2.327 2.327 0 01-.542-1.605 3.694 3.694 0 01.666-2.208 4.263 4.263 0 011.925-1.472 7.78 7.78 0 012.972-.515c.768-.005 1.534.076 2.284.243a6.174 6.174 0 011.83.736l-1.333 2.716a5.234 5.234 0 00-1.42-.619 6.45 6.45 0 00-1.595-.206 2.614 2.614 0 00-1.193.221c-.286.147-.425.324-.425.523 0 .198.125.36.38.47.411.165.835.293 1.267.383a13.93 13.93 0 011.8.538c.485.191.919.493 1.267.883a2.32 2.32 0 01.534 1.582 3.59 3.59 0 01-.68 2.164 4.284 4.284 0 01-1.933 1.472 7.69 7.69 0 01-2.928.515 11.208 11.208 0 01-2.737-.324zm12.104-8.11h-3.22l.585-2.893h10.144l-.578 2.893h-3.22l-1.64 8.169h-3.66l1.589-8.17zm12.268 6.241h-4.194l-1.098 1.928h-3.915l7.011-11.04h3.66l2.606 11.04h-3.66l-.41-1.929zm-.519-2.687l-.535-2.826-1.617 2.826h2.152zm18.056-6.447l-2.196 11.04h-3.052l-3.154-5.152-1.025 5.152h-3.608l2.195-11.04h3.045l3.162 5.152 1.017-5.152h3.616zm3.007 2.893h-3.22l.585-2.893h10.145l-.578 2.893h-3.221l-1.617 8.169h-3.704l1.61-8.17zm21.497-1.929c.397.324.712.737.919 1.207.207.47.301.981.274 1.494a4.437 4.437 0 01-.681 2.451 4.519 4.519 0 01-1.947 1.641 6.94 6.94 0 01-2.927.59h-1.903l-.535 2.715h-3.718l2.196-11.04h4.889a5.366 5.366 0 013.433.942zm-2.972 4.114a1.387 1.387 0 00.425-1.081c0-.736-.461-1.12-1.384-1.12h-1.237L138.036 28h1.522c.433.025.859-.114 1.193-.39zm5.628-5.078h3.711l-2.196 11.04h-3.71l2.195-11.04zm5.857 10.687a4.643 4.643 0 01-1.969-1.767 4.749 4.749 0 01-.696-2.576 6.616 6.616 0 01.886-3.43 6.167 6.167 0 012.467-2.34 7.444 7.444 0 013.586-.846 6.56 6.56 0 012.811.574 3.937 3.937 0 011.822 1.634l-2.664 2.105a2.391 2.391 0 00-2.196-1.295 2.795 2.795 0 00-2.591 1.619 3.922 3.922 0 00-.38 1.744 2.093 2.093 0 00.622 1.575 2.304 2.304 0 001.647.589 3.089 3.089 0 002.444-1.28l2.196 2.104a5.54 5.54 0 01-2.196 1.685 7.28 7.28 0 01-2.818.508 6.6 6.6 0 01-2.971-.603zm16.044-5.645l3.579 6.02h-4.136l-2.195-3.607-1.04.965-.541 2.642h-3.66l2.196-11.04h3.659l-.79 3.923 4.179-3.923h4.26l-5.511 5.02zm6.821 5.77a3.719 3.719 0 01-1.639-1.413 3.974 3.974 0 01-.578-2.15c.006-.39.05-.78.131-1.162l1.179-6.087h3.703l-1.193 6.02a4.244 4.244 0 00-.095.803 1.486 1.486 0 00.381 1.111c.304.261.699.39 1.098.36a1.594 1.594 0 001.273-.522 3.824 3.824 0 00.732-1.752l1.193-6.02h3.66l-1.237 6.241a6.416 6.416 0 01-2.013 3.79 6.886 6.886 0 01-6.587.78h-.008zm18.855-9.848a3.256 3.256 0 011.207 2.701 4.436 4.436 0 01-.68 2.451 4.486 4.486 0 01-1.947 1.642 6.915 6.915 0 01-2.928.588h-1.903l-1.244 6.227h-.396a2.702 2.702 0 01-2.098-.997 2.741 2.741 0 01-.566-2.263l2.262-11.313h4.882a5.353 5.353 0 013.411.965zm-2.928 4.115a1.372 1.372 0 00.424-1.082c0-.736-.461-1.119-1.383-1.119h-1.237l-.52 2.59h1.523a1.7 1.7 0 001.193-.39z" fill="#272D37"/><path d="M23.117 45.943a5.52 5.52 0 01-3.928-1.632 5.58 5.58 0 01-1.628-3.947v-7.44a12.356 12.356 0 01-3.85-2.29 9.64 9.64 0 01-2.392-3.356 9.688 9.688 0 01-.777-4.055v-3.15a4.843 4.843 0 011.417-3.414 4.79 4.79 0 013.407-1.4h.732v7.971a4.09 4.09 0 001.31 3.253l.16.14v-2.76a10.615 10.615 0 012.927-7.389 10.499 10.499 0 017.218-3.253 10.364 10.364 0 017.41 2.916 10.48 10.48 0 013.188 7.329 10.484 10.484 0 01-2.899 7.45 10.369 10.369 0 01-7.289 3.207c-1.666.147-3.34.147-5.006 0v11.82zm0-17.42c1.51.164 3.032.178 4.545.043h.3c.96.002 1.9-.283 2.699-.819a4.874 4.874 0 001.79-2.19 4.905 4.905 0 00-1.05-5.32 4.828 4.828 0 00-5.292-1.056 4.86 4.86 0 00-2.178 1.8 4.898 4.898 0 00-.814 2.713v4.828z" fill="#8FC045"/><path fill-rule="evenodd" clip-rule="evenodd" d="M14.685.54L9.92 8.954l3.733-.677-.286 5.063 4.75-8.42-3.806.773.374-5.151z" fill="#D6DA2D"/><path fill-rule="evenodd" clip-rule="evenodd" d="M13.054 3.484s-.615 2.26 1.259 2.208l3.806-.736-3.008 5.321s.505-2.333-1.464-1.965l-3.733.677 3.14-5.505z" fill="#F8E831"/><path d="M19.83 7.974v.272a20.55 20.55 0 0115.477 2.556 20.754 20.754 0 019.226 12.753 5.336 5.336 0 001.584 2.685 5.287 5.287 0 002.808 1.333 24.737 24.737 0 00-2.226-9.352 24.62 24.62 0 00-5.617-7.782 24.467 24.467 0 00-8.153-5.025 24.368 24.368 0 00-14.1-.862 6.288 6.288 0 011.002 3.422zM45.821 35.44a1.182 1.182 0 00-1.185-.073l-1.142.56a46.722 46.722 0 01-7.093 2.59 14.738 14.738 0 00-6.699 3.623 14.857 14.857 0 00-4.016 6.496l-.168.508-.527.052-.637.051h-.059a20.553 20.553 0 01-11.432-3.552 20.724 20.724 0 01-7.549-9.336 20.854 20.854 0 01-1.126-11.978 20.782 20.782 0 015.674-10.593c.139-.14.278-.265.417-.397a6.37 6.37 0 01-2.51-2.856 24.603 24.603 0 00-7.066 12.12 24.703 24.703 0 00.691 14.031 24.568 24.568 0 008.224 11.358 24.36 24.36 0 0013.067 4.971h.095l.82.044h.834a15.075 15.075 0 003.17-.264h.322c1.439.346 2.912.529 4.391.544a12.51 12.51 0 007.495-2.289c5.958-4.283 6.441-12.88 6.456-13.247l.066-1.288a1.205 1.205 0 00-.513-1.075zm-8.117 4.88a52.17 52.17 0 005.248-1.781 22.997 22.997 0 01-1.969 2.73 21.941 21.941 0 01-11.806 7.36 11.474 11.474 0 013.102-5.36 11.378 11.378 0 015.425-2.95zm1.084 7.89a9.795 9.795 0 01-6.69 1.64 23.341 23.341 0 0010.005-7.043c.366-.441.732-.897 1.047-1.368-.659 2.274-1.925 5.041-4.362 6.77z" fill="#8FC045"/><path d="M89.575 40.07a1.31 1.31 0 01.497 1.104 1.943 1.943 0 01-.651 1.575c-.512.4-1.153.6-1.8.559h-1.464l-.344 1.678h-.55l1.055-5.314h1.895c.485-.022.964.117 1.362.398zm-.55 2.34a1.427 1.427 0 00.491-1.185.938.938 0 00-.359-.795 1.611 1.611 0 00-1.017-.272h-1.39l-.535 2.657h1.413a2.13 2.13 0 001.398-.405zm5.835-1.39l-.79 3.995h-.512l.124-.633a2.042 2.042 0 01-.673.5 2.242 2.242 0 01-.87.17 1.886 1.886 0 01-.901-.206 1.423 1.423 0 01-.608-.589 1.752 1.752 0 01-.22-.898 2.56 2.56 0 01.286-1.214 2.186 2.186 0 011.954-1.155c.332-.013.662.066.952.228.254.141.45.368.556.64l.169-.839h.534zm-1.726 3.318c.263-.16.476-.392.614-.67.153-.298.23-.628.227-.963a1.228 1.228 0 00-.344-.913 1.342 1.342 0 00-.966-.331 1.655 1.655 0 00-.886.242c-.26.168-.472.402-.614.678-.15.296-.225.624-.22.956a1.212 1.212 0 00.344.913c.266.228.61.344.959.324.314-.006.62-.097.886-.265v.03zm6.564-3.319l-2.927 4.512c-.174.3-.402.564-.674.78a1.305 1.305 0 01-.731.213 1.5 1.5 0 01-.542-.096.98.98 0 01-.41-.257l.293-.398a.908.908 0 00.732.287.838.838 0 00.476-.14 1.69 1.69 0 00.431-.5l.286-.427-1.018-3.974h.542l.82 3.408 2.196-3.408h.526zm3.051-1.664h.542l-1.12 5.63h-.534l1.112-5.63zm1.414 3.784v.162a1.22 1.22 0 00.344.927c.29.232.656.345 1.025.316.25.001.498-.044.732-.132.212-.08.405-.205.563-.368l.242.39c-.21.196-.46.344-.732.434a2.521 2.521 0 01-.886.155 1.89 1.89 0 01-1.354-.457 1.608 1.608 0 01-.497-1.243c-.006-.42.092-.835.285-1.207a2.121 2.121 0 011.91-1.156 1.74 1.74 0 011.267.457 1.667 1.667 0 01.468 1.236 2.48 2.48 0 01-.058.486h-3.309zm.63-1.362a1.711 1.711 0 00-.571.964h2.825a.724.724 0 000-.147 1.106 1.106 0 00-.344-.868 1.291 1.291 0 00-.908-.31 1.51 1.51 0 00-1.002.34v.021zm3.682 3.113a1.818 1.818 0 01-.666-.353l.256-.427c.174.147.375.257.593.324.25.08.512.12.775.118a1.7 1.7 0 00.879-.184.578.578 0 00.3-.53.375.375 0 00-.125-.302.92.92 0 00-.3-.177l-.534-.132a7.713 7.713 0 01-.666-.184.994.994 0 01-.439-.287.733.733 0 01-.183-.552 1.063 1.063 0 01.468-.905c.373-.24.81-.358 1.252-.339.247.003.493.037.732.103.212.055.413.147.593.273l-.227.434a1.715 1.715 0 00-.535-.258 2.235 2.235 0 00-.629-.088 1.56 1.56 0 00-.849.199.611.611 0 00-.3.53.423.423 0 00.183.339.73.73 0 00.322.176c.17.055.344.1.52.132.225.046.447.105.666.177.165.058.313.157.431.287a.735.735 0 01.183.53 1.046 1.046 0 01-.512.905c-.383.24-.83.356-1.281.331a3.076 3.076 0 01-.907-.14zm3.687 0a1.886 1.886 0 01-.666-.353l.256-.427c.177.147.381.257.6.324.251.08.513.12.776.118.302.019.603-.045.871-.184a.584.584 0 00.308-.53.388.388 0 00-.125-.302.885.885 0 00-.307-.177l-.527-.132a7.453 7.453 0 01-.674-.184 1.092 1.092 0 01-.439-.287.804.804 0 01-.175-.552 1.078 1.078 0 01.461-.905 2.187 2.187 0 011.259-.339c.247.002.493.037.732.103.213.052.414.145.592.273l-.197.42a1.612 1.612 0 00-.527-.258 2.284 2.284 0 00-.63-.089 1.523 1.523 0 00-.849.199.6.6 0 00-.3.53.447.447 0 00.11.353.816.816 0 00.322.177c.173.054.349.099.527.132.223.046.443.105.659.177.166.056.315.155.432.287a.74.74 0 01.183.53 1.052 1.052 0 01-.476.912c-.383.24-.83.356-1.281.331a3.127 3.127 0 01-.915-.147zm9.099-.927l.586.736-.366.346-.571-.736a2.62 2.62 0 01-1.837.736 1.915 1.915 0 01-1.178-.332 1.055 1.055 0 01-.44-.883c.002-.355.141-.695.388-.95a4.447 4.447 0 011.267-.846 3.126 3.126 0 01-.322-.552 1.27 1.27 0 01-.11-.515 1.228 1.228 0 01.41-.964c.296-.244.671-.37 1.054-.353.3-.017.598.072.841.25a.826.826 0 01.315.685 1.139 1.139 0 01-.337.824 4.271 4.271 0 01-1.141.736l1.156 1.472c.238-.313.428-.66.564-1.03l.424.14c-.174.443-.411.86-.703 1.236zm-.629 0l-1.266-1.642a4.206 4.206 0 00-1.069.685.973.973 0 00-.307.736.74.74 0 00.3.618c.239.167.528.248.82.228a2.19 2.19 0 001.522-.625zm-1.193-3.68a.807.807 0 00-.264.625c.004.145.036.288.096.42.079.174.18.337.3.486.252-.124.497-.265.732-.42.15-.093.279-.215.38-.36a.739.739 0 00.11-.413.522.522 0 00-.183-.412.788.788 0 00-.52-.162.998.998 0 00-.651.236zm11.87 1.015a1.245 1.245 0 01.366.95 3.724 3.724 0 01-.051.47l-.454 2.268h-.542l.454-2.275a1.53 1.53 0 00.044-.375.843.843 0 00-.256-.655 1.029 1.029 0 00-.732-.235c-.364-.01-.719.11-1.003.338a1.718 1.718 0 00-.534 1.001l-.439 2.208h-.535l.454-2.282a2.67 2.67 0 00.037-.368.86.86 0 00-.249-.662 1.029 1.029 0 00-.732-.235 1.458 1.458 0 00-1.01.353 1.833 1.833 0 00-.549 1.045l-.425 2.142h-.534l.791-3.967h.512l-.132.64a1.855 1.855 0 011.464-.67 1.6 1.6 0 01.834.206c.223.136.389.348.469.596a1.93 1.93 0 01.732-.596c.3-.14.628-.21.959-.206a1.51 1.51 0 011.061.31zm2.152 3.519a1.47 1.47 0 01-.63-.597 1.741 1.741 0 01-.219-.89 2.47 2.47 0 01.293-1.214 2.2 2.2 0 01.819-.847 2.289 2.289 0 011.179-.309c.481-.025.953.138 1.317.456a1.591 1.591 0 01.491 1.23c.008.425-.093.846-.293 1.221a2.11 2.11 0 01-.82.832c-.36.208-.77.315-1.186.309a2.06 2.06 0 01-.951-.191zm1.874-.508a1.64 1.64 0 00.614-.67c.156-.297.234-.629.227-.964a1.233 1.233 0 00-.344-.913 1.341 1.341 0 00-.966-.33 1.62 1.62 0 00-.878.242 1.74 1.74 0 00-.622.677 2.05 2.05 0 00-.22.957 1.217 1.217 0 00.344.912c.266.229.61.345.959.324.311.004.617-.078.886-.235zm6.067-3.29l-2.554 3.996h-.52l-1.01-3.996h.535l.819 3.415 2.196-3.415h.534zm.344 2.12a1.094 1.094 0 000 .162 1.22 1.22 0 00.344.927c.29.232.656.345 1.025.316.25.003.498-.042.732-.132.214-.077.407-.203.564-.368l.241.39a1.906 1.906 0 01-.695.434 2.55 2.55 0 01-.886.155 1.902 1.902 0 01-1.361-.457 1.591 1.591 0 01-.491-1.243c-.005-.42.093-.835.286-1.207a2.115 2.115 0 011.91-1.155 1.722 1.722 0 011.259.456 1.63 1.63 0 01.468 1.236c0 .163-.017.326-.051.486h-3.345zm.63-1.362c-.292.25-.495.588-.578.964h2.832a.904.904 0 000-.147 1.101 1.101 0 00-.337-.868 1.289 1.289 0 00-.907-.31 1.494 1.494 0 00-1.01.339v.022zm9.859-.758l-.695 3.51a2.547 2.547 0 01-.732 1.524 2.335 2.335 0 01-1.545.47 3.097 3.097 0 01-1.01-.154 2.106 2.106 0 01-.732-.441l.315-.412c.177.18.396.314.637.39.275.097.565.145.856.14.417.027.83-.095 1.164-.346a1.86 1.86 0 00.556-1.082l.088-.435c-.19.216-.425.387-.688.5a2.22 2.22 0 01-.893.178 1.828 1.828 0 01-1.273-.427 1.504 1.504 0 01-.483-1.178 2.366 2.366 0 01.292-1.155c.189-.34.467-.62.806-.81a2.33 2.33 0 011.171-.302c.339-.008.674.074.973.236.265.149.468.39.571.677l.168-.883h.454zm-1.749 3.135c.262-.146.477-.362.622-.626.149-.278.224-.59.219-.905a1.067 1.067 0 00-.344-.854 1.414 1.414 0 00-.966-.309 1.793 1.793 0 00-.893.228c-.26.149-.473.368-.614.633-.15.278-.226.59-.22.906a1.078 1.078 0 00.344.854c.274.216.618.324.966.301.321.001.635-.088.908-.258l-.022.03zm4.311-3.002c.304-.135.634-.2.966-.192l-.103.523h-.146a1.459 1.459 0 00-1.054.375c-.303.299-.498.69-.556 1.111l-.403 2.024h-.534l.783-3.974h.52l-.139.736a1.54 1.54 0 01.666-.603zm1.604 1.986a.876.876 0 000 .162 1.214 1.214 0 00.337.928c.289.232.655.345 1.024.316.25.001.498-.044.732-.132.213-.08.405-.205.564-.368l.241.39c-.21.196-.459.344-.731.434a2.523 2.523 0 01-.886.154 1.904 1.904 0 01-1.354-.456 1.594 1.594 0 01-.498-1.244c-.005-.42.093-.834.286-1.207.181-.347.452-.639.783-.846a2.12 2.12 0 011.134-.31c.463-.02.916.143 1.259.457a1.657 1.657 0 01.469 1.237 3.168 3.168 0 01-.052.485h-3.308zm.622-1.361c-.287.252-.487.59-.571.964h2.833v-.147a1.121 1.121 0 00-.344-.869 1.291 1.291 0 00-.908-.309 1.51 1.51 0 00-1.01.339v.022zm3.937 1.361a.876.876 0 000 .162 1.177 1.177 0 00.344.928c.287.23.65.343 1.017.316.25.001.498-.044.732-.132.213-.08.405-.205.564-.368l.241.39a1.931 1.931 0 01-.732.434 2.518 2.518 0 01-.885.154 1.905 1.905 0 01-1.355-.456 1.598 1.598 0 01-.497-1.244c-.006-.42.092-.834.285-1.207.182-.347.452-.639.783-.846a2.139 2.139 0 011.135-.31c.463-.02.916.143 1.259.457a1.63 1.63 0 01.468 1.237c0 .163-.017.326-.051.485h-3.308zm.622-1.361c-.288.252-.488.59-.571.964h2.832v-.147a1.108 1.108 0 00-.336-.84 1.291 1.291 0 00-.901-.308 1.515 1.515 0 00-1.024.309v.022zm7.21-.471a1.245 1.245 0 01.374.957 2.588 2.588 0 01-.044.456l-.454 2.267h-.534l.453-2.274a2.511 2.511 0 000-.369.84.84 0 00-.263-.662 1.095 1.095 0 00-.732-.235 1.58 1.58 0 00-1.061.353 1.803 1.803 0 00-.557 1.045l-.424 2.142h-.534l.79-3.967h.512l-.124.64a1.928 1.928 0 011.552-.67c.376-.03.749.083 1.046.317zm-86.624 1.958H59.047l.168-.582h23.122l-.169.582zm112.935 0h-23.041l.169-.582h23.041l-.169.582z" fill="#272D37"/></svg>