<svg width="500" height="468" fill="none" xmlns="http://www.w3.org/2000/svg"><path fill-rule="evenodd" clip-rule="evenodd" d="M312.3 40.128c63.369 7.713 90.125 84.932 108.706 146.004 15.113 49.672 6.838 102.077-19.638 146.738-24.023 40.522-66.16 62.42-111.639 74.702-49.759 13.438-105.272 25.523-146.887-4.886-43.594-31.857-63.447-89.919-56.037-143.402 6.583-47.512 55.759-69.423 90.156-102.853C221.838 112.815 250.178 32.567 312.3 40.128z" fill="#DFEBCD"/><path d="M196.859 363.28v16.133h49.614V363.28h-49.614z" fill="#F5F5F5"/><path d="M194.779 358.773v4.507h53.427v-4.507h-53.427z" fill="#E0E0E0"/><path d="M221.493 379.413h24.98V363.28h1.733v-4.507h-27.753v4.093l1.04 16.547zm-7.634-13.533h-10.06v2.427h10.06v-2.427z" fill="#E0E0E0"/><path d="M215.426 371.347h-12.92v5.126h12.92v-5.126z" fill="#fff"/><path d="M201.42 342.653v16.134h49.613v-16.134H201.42z" fill="#F5F5F5"/><path d="M199.34 338.14v4.513h53.426v-4.513H199.34z" fill="#E0E0E0"/><path d="M226.052 358.786h24.98v-16.133h1.733v-4.513h-27.753v4.093l1.04 16.553zm-7.633-13.533h-10.06v2.427h10.06v-2.427z" fill="#E0E0E0"/><path d="M219.986 350.72h-12.92v5.126h12.92v-5.126z" fill="#fff"/><path d="M33.506 264.227s-2.6 1.96-2.6 4.56v13.28H50.28v-13.874s-.274-3.406-2.547-4l-14.227.034z" fill="#F5F5F5"/><path d="M32.379 281.346a36.037 36.037 0 01-.287-4.08 3.284 3.284 0 012.267-3.013c1.02-.28 2.093.093 3.133.267a8.28 8.28 0 005.013-.747c1.334-.667 2.507-1.667 3.96-1.8.953-.087 2.053.36 2.313 1.28.095.439.095.894 0 1.333-.313 2.047.087 4.594.087 6.56-5.42.247-11.04.074-16.467.187m-2.718 2.613l2.92-1.88h17.68l2.833 1.88H29.68z" fill="#E0E0E0"/><path d="M29.133 240.74v19.773h24v23.433H29.679v5.62h40.427V240.74a4.208 4.208 0 00-4.206-4.214H33.333a4.214 4.214 0 00-4.2 4.214z" fill="#F5F5F5"/><path d="M70.106 241.187c0 .1-9.173.173-20.486.173-11.314 0-20.487-.073-20.487-.173 0-.1 9.173-.187 20.487-.187 11.313 0 20.486.093 20.486.187z" fill="#E0E0E0"/><path d="M58.732 289.567c-.093 0-.173-11.847-.173-26.454 0-14.606.08-26.446.173-26.446.093 0 .173 11.84.173 26.446 0 14.607-.073 26.454-.173 26.454zM26.96 275.666l-.24-6a8.125 8.125 0 011.333-4.886 4.297 4.297 0 013.533-2.14h16.147v1.58h-15.88s-2.86.3-3.234 4.213a38.258 38.258 0 000 7.22l-1.66.013zm21.792 90.567h-7.094v12.787h7.093v-12.787zm31.348 0h-7.094v12.787h7.093v-12.787z" fill="#E0E0E0"/><path d="M84.826 289.566H26.072v76.667h58.754v-76.667z" fill="#E0E0E0"/><path d="M72.54 289.566H15.311v76.667H72.54v-76.667zm-45.074 76.667h-7.093v12.787h7.093v-12.787zm40.785 0h-7.093v12.787h7.093v-12.787z" fill="#F5F5F5"/><path d="M68 357.473v-5.08c0-3.26 0-8-.047-13.847l.08.08-49.114.034.114-.114v18.927l-.114-.113 35.18.053 10.234.033h2.74-2.714l-10.206.034-35.26.046h-.114v-19.093h.114l49.113.033h.08v.08c0 5.887 0 10.627-.04 13.9v4.7c-.047.22-.047.327-.047.327z" fill="#E0E0E0"/><path d="M44.912 348.006a2.356 2.356 0 01-.093-.346 1.428 1.428 0 00-1.86-.947 1.403 1.403 0 00-.9 1.293 1.397 1.397 0 00.769 1.238 1.4 1.4 0 001.451-.124c.26-.186.45-.453.54-.76a3.07 3.07 0 01.093-.354.67.67 0 010 .374 1.5 1.5 0 01-.533.873 1.565 1.565 0 01-1.493.247 1.579 1.579 0 01-.874-2.252 1.574 1.574 0 011.072-.791 1.583 1.583 0 011.296.309c.272.219.46.525.532.867a.666.666 0 010 .373zM68 334.807v-5.074c0-3.26 0-8-.047-13.853l.08.08-49.114.04.114-.12v18.927l-.114-.107 35.18.047 10.234.033h2.74-2.714l-10.206.033-35.26.054h-.114v-19.1h.114l49.113.033h.08v.08c0 5.887 0 10.627-.04 13.9v4.707c-.047.213-.047.32-.047.32z" fill="#E0E0E0"/><path d="M44.913 325.346a3.196 3.196 0 01-.093-.353 1.419 1.419 0 00-.54-.76 1.397 1.397 0 00-1.117-.236 1.393 1.393 0 00-.915.683 1.381 1.381 0 00-.093 1.137 1.386 1.386 0 00.791.823 1.432 1.432 0 001.608-.447c.124-.155.215-.335.266-.527a3.22 3.22 0 01.093-.346.665.665 0 010 .373 1.51 1.51 0 01-.533.867 1.574 1.574 0 01-1.494.253 1.585 1.585 0 01-.761-2.406c.188-.268.454-.47.761-.581a1.573 1.573 0 011.494.247c.273.221.462.529.533.873.041.13.041.27 0 .4zM68 312.446v-5.073c0-3.26 0-8-.047-13.847l.08.08H18.92l.113-.113v18.92l-.113-.107 35.18.054H68 54.18l-35.26.053h-.113v-19.007h.113l49.113.04h.08v.08c0 5.887 0 10.62-.04 13.894v4.706c-.073.207-.073.32-.073.32z" fill="#E0E0E0"/><path d="M44.913 303a3.155 3.155 0 01-.094-.354 1.422 1.422 0 00-.54-.76 1.387 1.387 0 100 2.227c.26-.185.45-.453.54-.76.025-.12.056-.237.094-.353a.665.665 0 010 .373 1.541 1.541 0 01-.534.873 1.565 1.565 0 01-2.068-.111 1.585 1.585 0 01-.474-1.237 1.573 1.573 0 01.634-1.162 1.585 1.585 0 011.908.017c.272.222.46.53.534.873a.668.668 0 010 .374zm24.606-13.434c0 .094-8.907.174-19.9.174-10.994 0-19.9-.08-19.9-.174 0-.093 8.906-.173 19.9-.173 10.993 0 19.9.073 19.9.173z" fill="#E0E0E0"/><path d="M288.88 174.553h-51.667v46.227h51.667v-46.227z" fill="#FAFAFA"/><path d="M288.88 220.78v-12.72c0-8.074-.04-19.614-.06-33.507l.113.12h-51.66l.14-.14v46.227l-.12-.12 37.373.06h13.327-13.28l-37.447.06h-.12v-46.48h51.927v.113c0 13.92-.047 25.487-.06 33.58 0 4.033 0 7.193-.033 9.333v2.454c0 .56-.1 1.02-.1 1.02z" fill="#E0E0E0"/><path d="M257.026 182.767c0 .08-2.72.14-6.074.14-3.353 0-6.073-.06-6.073-.14 0-.08 2.713-.134 6.073-.134 3.36 0 6.074.06 6.074.134zm21.893 3.473c0 .073-7.473.14-16.666.14-9.194 0-16.667-.067-16.667-.14 0-.074 7.467-.14 16.667-.14 9.2 0 16.666.06 16.666.14zm-31.774 5.88h-2.18v2.18h2.18v-2.18zm5.361 0h-2.18v2.18h2.18v-2.18zm5.453-.1h-2.18v2.18h2.18v-2.18zm5.26.1h-2.18v2.18h2.18v-2.18zm5.359 0h-2.18v2.18h2.18v-2.18zm5.362 0h-2.18v2.18h2.18v-2.18z" fill="#E0E0E0"/><path d="M279.293 192.12h-2.18v2.18h2.18v-2.18zm-32.148 4.627h-2.18v2.18h2.18v-2.18z" fill="#EBEBEB"/><path d="M252.506 196.747h-2.18v2.18h2.18v-2.18z" fill="#E0E0E0"/><path d="M257.86 196.747h-2.18v2.18h2.18v-2.18z" fill="#EBEBEB"/><path d="M263.219 196.747h-2.18v2.18h2.18v-2.18zm5.359 0h-2.18v2.18h2.18v-2.18zm5.456-.101h-2.18v2.18h2.18v-2.18zm5.259.101h-2.18v2.18h2.18v-2.18zm-32.148 4.626h-2.18v2.18h2.18v-2.18zm5.461-.1h-2.18v2.18h2.18v-2.18zm5.254.1h-2.18v2.18h2.18v-2.18z" fill="#E0E0E0"/><path d="M263.219 201.373h-2.18v2.18h2.18v-2.18z" fill="#EBEBEB"/><path d="M268.578 201.373h-2.18v2.18h2.18v-2.18zm5.362 0h-2.18v2.18h2.18v-2.18zm5.353 0h-2.18v2.18h2.18v-2.18zM247.145 206h-2.18v2.18h2.18V206zm5.361 0h-2.18v2.18h2.18V206zm5.354 0h-2.18v2.18h2.18V206zm5.459-.1h-2.18v2.18h2.18v-2.18zm5.259.1h-2.18v2.18h2.18V206z" fill="#E0E0E0"/><path d="M273.94 206h-2.18v2.18h2.18V206z" fill="#EBEBEB"/><path d="M279.293 206h-2.18v2.18h2.18V206zm-32.148 4.626h-2.18v2.18h2.18v-2.18z" fill="#E0E0E0"/><path d="M252.506 210.626h-2.18v2.18h2.18v-2.18z" fill="#EBEBEB"/><path d="M257.86 210.626h-2.18v2.18h2.18v-2.18zm5.359 0h-2.18v2.18h2.18v-2.18zm5.359 0h-2.18v2.18h2.18v-2.18zm5.456-.093h-2.18v2.18h2.18v-2.18zm5.259.093h-2.18v2.18h2.18v-2.18zm162.085-1.279v-21.874c0-13.913-.046-33.833-.08-57.853l.147.14h-100.2l.173-.173v79.726l-.153-.153 72.387.073 20.506.047h6.834-6.787l-20.473.04-72.487.073h-.153V129.34h100.526v.147c0 24.06-.06 44-.073 57.94 0 6.953 0 12.4-.04 16.12v4.226c0 .96-.127 1.574-.127 1.574z" fill="#E0E0E0"/><path d="M357.752 144.393h-3.627v40.467h3.627v-40.467z" fill="#E0E0E0"/><path d="M364.746 158.14h-3.627v26.72h3.627v-26.72z" fill="#EBEBEB"/><path d="M371.746 149.426h-3.627v35.64h3.627v-35.64z" fill="#E0E0E0"/><path d="M378.74 145.96h-3.627v38.907h3.627V145.96z" fill="#EBEBEB"/><path d="M385.732 158.96h-3.627v25.9h3.627v-25.9z" fill="#E0E0E0"/><path d="M392.732 164.04h-3.627v20.82h3.627v-20.82z" fill="#EBEBEB"/><path d="M399.726 148.546H396.1v36.314h3.626v-36.314z" fill="#E0E0E0"/><path d="M406.718 155.093h-3.626v29.767h3.626v-29.767z" fill="#EBEBEB"/><path d="M413.718 149.86h-3.626v35h3.626v-35z" fill="#E0E0E0"/><path d="M420.713 161.02h-3.627v23.84h3.627v-23.84z" fill="#EBEBEB"/><path d="M427.707 156.48h-3.627v28.38h3.627v-28.38zm1.478 31.187c0 .08-17.193.146-38.386.146-21.194 0-38.387-.066-38.387-.146 0-.08 17.18-.147 38.387-.147 21.206 0 38.386.08 38.386.147zm-69.892 3.2a24.748 24.748 0 01-5.373 0 23.548 23.548 0 015.373 0zm8.919.133a35.378 35.378 0 01-6.427 0 35.198 35.198 0 016.427 0zm7.607 0a35.367 35.367 0 01-6.426 0 35.187 35.187 0 016.426 0zm7.614 0a35.378 35.378 0 01-6.427 0 35.198 35.198 0 016.427 0zm7.607 0a35.378 35.378 0 01-6.427 0 35.198 35.198 0 016.427 0zm7.625 0a35.378 35.378 0 01-6.427 0 35.198 35.198 0 016.427 0zm7.588 0a35.378 35.378 0 01-6.427 0 35.198 35.198 0 016.427 0zm7.605 0a35.367 35.367 0 01-6.426 0 35.187 35.187 0 016.426 0zm7.608 0a35.378 35.378 0 01-6.427 0 35.198 35.198 0 016.427 0zm7.613 0a35.378 35.378 0 01-6.427 0 35.198 35.198 0 016.427 0z" fill="#E0E0E0"/><path d="M444.225 129.146h-106.26v2.994h106.26v-2.994z" fill="#EBEBEB"/><path d="M248.792 212.913l-.7-2.447 1.406.067.127 2.26-.833.12z" fill="#E0E0E0"/><path d="M246.752 212.84l-1.6 8.686-4.047 11.48 22.807-3.286-9.207-10.02-3.84-7.447-4.113.587zm-44.86 60.946v-.36a7.236 7.236 0 014.415-6.887 7.236 7.236 0 018.018 1.627 7.236 7.236 0 012.04 5.26v.36h-14.473z" fill="#E0E0E0"/><path d="M209.112 266.473a.29.29 0 01-.172-.06.294.294 0 01-.101-.153l-9.593-36.553a.288.288 0 01.206-.354.308.308 0 01.113-.007.31.31 0 01.107.037.302.302 0 01.134.177l9.586 36.553a.29.29 0 01-.031.219.3.3 0 01-.175.135l-.074.006zm-2.533.907a.284.284 0 01-.172-.061.282.282 0 01-.101-.152l-9.593-36.554a.283.283 0 01.03-.219.288.288 0 01.396-.104.287.287 0 01.134.177L206.859 267a.294.294 0 01-.206.353l-.074.027z" fill="#E0E0E0"/><path d="M196.266 229.993a1.81 1.81 0 001.114 1.68 1.812 1.812 0 002.477-1.317 1.814 1.814 0 10-3.591-.363z" fill="#E0E0E0"/><path d="M198.239 230.233l-.327-.473 33.987-23.447 19.886 11.307-.286.5-19.567-11.127-33.693 23.24z" fill="#E0E0E0"/><path d="M233.193 207.844l-33.466 23.173.326.471 33.467-23.173-.327-.471z" fill="#E0E0E0"/><path d="M230.832 207.56a1.63 1.63 0 001.009 1.498 1.63 1.63 0 001.77-.357 1.631 1.631 0 00-.249-2.501 1.633 1.633 0 00-1.527-.149 1.618 1.618 0 00-.881.884 1.63 1.63 0 00-.122.625zm18.247-85.747l-29.12 9.78h65.793l-27.34-9.78h-9.333z" fill="#E0E0E0"/><path d="M257.252 130.926a14.24 14.24 0 00-.22 1.72 8.578 8.578 0 001.086 4.52c.454.887 1.04 1.827 1.5 2.934a6.488 6.488 0 01.387 3.786 6.778 6.778 0 01-2.053 3.66 6.26 6.26 0 01-4.2 1.607 6.633 6.633 0 01-4.26-1.453 6.671 6.671 0 01-1.894-7.367 12.356 12.356 0 011.754-2.807 11.43 11.43 0 001.426-2.266 5.286 5.286 0 00.46-1.947 3.625 3.625 0 00-.393-1.66c.1.115.181.246.24.387.181.4.278.834.287 1.273a5.23 5.23 0 01-.414 2 11.145 11.145 0 01-1.413 2.34 12.207 12.207 0 00-1.673 2.767 6.359 6.359 0 001.84 7.026 6.28 6.28 0 004.04 1.374 5.944 5.944 0 004-1.507 6.55 6.55 0 002-3.48 6.213 6.213 0 00-.34-3.613c-.434-1.08-1.007-2-1.454-2.927a8.504 8.504 0 01-1-4.667c.031-.434.1-.865.207-1.286.012-.141.041-.28.087-.414z" fill="#E0E0E0"/><path d="M254.846 131.546c-.035.413-.095.822-.18 1.227a33.55 33.55 0 00-.333 3.333 27.093 27.093 0 00.22 4.947c.036.206.128.397.267.553a.535.535 0 00.506.18c.36-.073.554-.62.48-1.053a2.078 2.078 0 00-4.1-.06.935.935 0 00.547 1.047.827.827 0 00.947-.547c.148-.429.222-.88.22-1.333.033-.44.053-.867.06-1.287.006-.77-.028-1.54-.1-2.307a22.259 22.259 0 00-.56-3.333c-.187-.767-.314-1.193-.287-1.2.053.093.095.191.127.293.08.194.18.487.293.874.317 1.09.54 2.205.667 3.333.087.777.134 1.558.14 2.34 0 .418-.014.851-.04 1.3 0 .479-.079.954-.234 1.407a1.33 1.33 0 01-.506.613.958.958 0 01-.84.12 1.267 1.267 0 01-.78-1.4 2.416 2.416 0 012.412-2.014 2.418 2.418 0 012.368 2.067c.039.283.002.57-.107.834a.939.939 0 01-.667.593.877.877 0 01-.813-.28 1.465 1.465 0 01-.347-.713 25.608 25.608 0 01.294-8.36c.086-.394.153-.667.213-.894.03-.099.075-.194.133-.28zM253.752 71.8c.026.167.037.337.034.507 0 .36 0 .84.033 1.44 0 1.286 0 3.086.053 5.293 0 4.506.034 10.666.054 17.473.02 6.807-.04 12.967-.054 17.473 0 2.207-.04 4-.053 5.334 0 .593 0 1.073-.033 1.433.003.17-.008.339-.034.507a2.265 2.265 0 01-.033-.507c0-.36 0-.84-.033-1.433 0-1.294 0-3.094-.06-5.334 0-4.506 0-10.666-.047-17.473-.047-6.806.033-12.967.047-17.473 0-2.207.046-4 .06-5.294 0-.6 0-1.08.033-1.44-.008-.17.003-.34.033-.506z" fill="#E0E0E0"/><path d="M249.08 121.813l1.8-8.086h6l1.533 8.086h-9.333zm-96.834-1.913h-3.273v70.36h3.273V119.9z" fill="#E0E0E0"/><path d="M148.427 120.446h-46.88a.047.047 0 00-.047.047v69.82c0 .026.021.047.047.047h46.88a.047.047 0 00.046-.047v-69.82a.047.047 0 00-.046-.047z" fill="#F5F5F5"/><path d="M148.972 190.9h-48a.047.047 0 01-.033-.014.049.049 0 01-.013-.033v-70.906c0-.013.005-.025.013-.033a.047.047 0 01.033-.014h48a.056.056 0 01.032.015c.008.009.014.02.015.032v70.906a.056.056 0 01-.015.032.063.063 0 01-.032.015zm-46.88-1.087h45.787a.049.049 0 00.033-.013.047.047 0 00.014-.033V121.04a.059.059 0 00-.013-.036.056.056 0 00-.034-.017h-45.787a.053.053 0 00-.033.017.053.053 0 00-.013.036v68.727a.05.05 0 00.013.033.05.05 0 00.033.013z" fill="#EBEBEB"/><path d="M143.779 124.76h-37.5a.047.047 0 00-.047.046v61.147c0 .026.021.047.047.047h37.5a.047.047 0 00.047-.047v-61.147a.047.047 0 00-.047-.046z" fill="#FAFAFA"/><path d="M135.498 142.12h-21.026a.04.04 0 00-.04.04v24.66c0 .022.018.04.04.04h21.026a.04.04 0 00.04-.04v-24.66a.04.04 0 00-.04-.04z" fill="#EBEBEB"/><path d="M133.873 163.833c0 .08-1.02.533-3 .307a7.33 7.33 0 01-3.366-1.334 6.864 6.864 0 01-2.62-4.12 5.916 5.916 0 012-5.626c.453-.38.967-.682 1.52-.894a4.065 4.065 0 011.9-.213c.705.067 1.37.356 1.9.827a2.482 2.482 0 01.746 2.213 3.648 3.648 0 01-1.04 1.9 6.92 6.92 0 01-1.593 1.167 8.759 8.759 0 01-3.793 1.086 7.504 7.504 0 01-4.04-.92 7.33 7.33 0 01-2.98-3.086 6.31 6.31 0 01-.534-4.32 6.443 6.443 0 012.28-3.56 5.713 5.713 0 011.907-.96 4.762 4.762 0 012.147-.067c.753.143 1.439.53 1.953 1.1.48.582.741 1.313.74 2.067.007.7-.17 1.389-.513 2-.31.55-.717 1.04-1.2 1.446a8.131 8.131 0 01-2.994 1.594 7.705 7.705 0 01-3.146.24 6.416 6.416 0 01-2.74-1.047 5.947 5.947 0 01-2.614-4.147 4.994 4.994 0 01.974-3.546 4.232 4.232 0 011.786-1.434c.494-.186.78-.18.787-.133.007.047-.22.173-.62.44a4.658 4.658 0 00-1.393 1.5 4.432 4.432 0 00-.574 3.033 5.002 5.002 0 002.327 3.26 5.76 5.76 0 004.8.454 6.684 6.684 0 002.4-1.334 2.934 2.934 0 001.12-2.246 1.618 1.618 0 00-1.447-1.594 3.139 3.139 0 00-1.38.06 3.887 3.887 0 00-1.333.667 4.745 4.745 0 00-1.647 2.613 4.578 4.578 0 00.407 3.14 5.679 5.679 0 002.267 2.36 5.877 5.877 0 003.126.727 7.144 7.144 0 003.074-.84c.447-.23.86-.521 1.226-.867a2.05 2.05 0 00.62-1.013.86.86 0 00-.246-.813 1.825 1.825 0 00-1.02-.447 2.47 2.47 0 00-1.194.1 4.003 4.003 0 00-1.12.607 4.667 4.667 0 00-1.453 2 4.562 4.562 0 00-.24 2.3 5.933 5.933 0 002 3.566 7.15 7.15 0 002.893 1.44c1.854.4 2.927.18 2.94.347z" fill="#E0E0E0"/><path d="M486.12 379c0 .093-106.406.173-237.64.173-131.233 0-237.66-.06-237.66-.173 0-.113 106.387-.173 237.66-.173 131.274 0 237.64.1 237.64.173z" fill="#263238"/><path d="M346.619 190.867c1.406-2.04 2.18-3.567 3.173-4.854 1.227-1.586 1.627-2.326 1.333-2.54-.293-.213-.246-.186-2.886 2.374 0 0 3.74-3.694 2.3-3.527-.634.073-3.774 3.107-3.774 3.107 2.747-2.207 3.427-3.474 3.074-3.867-.514-.58-4.294 3.14-4.294 3.14s2.94-2.78 3.334-3.427c.393-.646-.52-.486-1.214-.146-.693.34-4.96 3.24-6.213 4a.867.867 0 01-1.043.018.868.868 0 01-.244-.278c-.753-2-2.4-3.14-2.993-3.24a.659.659 0 00-.616.418.66.66 0 00.156.728 7.785 7.785 0 011.12 1.84c.254.517.416 1.075.48 1.647.073.667.113 1.233.127 1.713l-1.9 10.6 6.666 4.667 3.414-12.373z" fill="#B78876"/><path d="M346.666 187.427a18.534 18.534 0 003.527-3.6 19.581 19.581 0 00-3.527 3.6zm-1.086-.907a11.413 11.413 0 002.106-1.68 11.271 11.271 0 001.88-1.926 21.654 21.654 0 00-4 3.606h.014zm-1.127-.953a19.577 19.577 0 003.813-3.334 9.655 9.655 0 00-2 1.554 9.377 9.377 0 00-1.813 1.78z" fill="#AA6550"/><path d="M300.732 158.234a9.812 9.812 0 017.235 2.375 9.84 9.84 0 013.365 6.831c.273 4.567.527 9.507.493 12-.066 5.334-5.406 6.174-5.406 6.174s.766 9.28.666 10.78l-14.133.666-1.28-28.553a9.833 9.833 0 019.06-10.247v-.026z" fill="#B78876"/><path d="M306.405 185.527a12.385 12.385 0 01-6.96-2s1.647 3.84 6.974 3.333l-.014-1.333z" fill="#AA6550"/><path d="M292.159 170.333c-.086-.04-3.666-1.086-3.553 2.567.113 3.653 3.76 2.78 3.767 2.667a858.46 858.46 0 00-.214-5.234z" fill="#B78876"/><path d="M291.213 174.207s-.067.046-.174.1a.617.617 0 01-.473 0 1.585 1.585 0 01-.773-1.387 2.155 2.155 0 01.146-.92.755.755 0 01.467-.5.317.317 0 01.219.011c.07.029.127.082.161.149.053.1.033.173.053.18.02.007.074-.067.04-.213a.394.394 0 00-.153-.227.477.477 0 00-.353-.08.889.889 0 00-.667.587 2.219 2.219 0 00-.187 1.026 1.653 1.653 0 00.98 1.547.66.66 0 00.58-.113c.127-.034.147-.154.134-.16z" fill="#AA6550"/><path d="M309.96 170.833a.77.77 0 01-.74.774.73.73 0 01-.78-.667.757.757 0 01.206-.539.763.763 0 01.527-.234.734.734 0 01.787.666zm-.021-1.493c-.094.1-.667-.327-1.494-.327-.826 0-1.426.414-1.513.314-.087-.1.053-.22.313-.414.356-.246.78-.377 1.214-.373a2 2 0 011.186.387c.254.193.354.373.294.413zm-8.047 1.493a.774.774 0 01-.74.774.732.732 0 01-.787-.667.766.766 0 01.734-.773.741.741 0 01.793.666zm-.026-1.34c-.093.1-.667-.326-1.493-.326-.827 0-1.42.413-1.507.313-.087-.1.047-.22.313-.413a2.1 2.1 0 011.207-.374c.429-.002.847.134 1.193.387.247.193.334.373.287.413zm2.98 6.087a5.597 5.597 0 011.333-.24c.214 0 .407-.06.447-.206a1.108 1.108 0 00-.14-.62c-.2-.507-.407-1.04-.62-1.594a27.077 27.077 0 01-1.393-4.18 27.455 27.455 0 011.726 4.054c.207.56.4 1.1.594 1.606.131.255.168.547.106.827a.537.537 0 01-.346.307c-.116.03-.234.045-.354.046a5.193 5.193 0 01-1.353 0zm-2.413.567c.133 0 .133.887.9 1.52s1.707.533 1.713.667c.007.133-.206.173-.613.18a2.217 2.217 0 01-1.433-.5 1.954 1.954 0 01-.667-1.267c-.06-.38.04-.6.1-.6zm-.354-9.867c-.08.22-.9.114-1.86.234-.96.12-1.747.38-1.874.173-.053-.093.08-.3.394-.52a3.245 3.245 0 012.846-.313c.354.146.527.32.494.426zm7.553.72c-.14.187-.706 0-1.386 0-.68 0-1.254.12-1.387-.073-.06-.093 0-.28.28-.46a1.93 1.93 0 011.133-.3c.4.004.787.135 1.107.373.24.14.32.334.253.46z" fill="#263238"/><path d="M291.812 170.22a5.699 5.699 0 000 1.68 1.945 1.945 0 00.934 1.334c.92.46 2.073-.247 2.48-1.187a6.111 6.111 0 00.206-3.033 14.71 14.71 0 01.06-4.18 6.001 6.001 0 012-3.58 3.785 3.785 0 013.934-.567c.723.469 1.418.981 2.08 1.533a3.23 3.23 0 002.206.554 2.086 2.086 0 001.694-1.407 2.26 2.26 0 00-.867-2.24 5.106 5.106 0 00-2.333-.94 12.566 12.566 0 00-6.927.54 9.088 9.088 0 00-5.033 4.667c-1.06 2.5-.34 4.48-.494 7.26" fill="#263238"/><path d="M346.072 193.933l-8.74-2.106-5.766 15.64-15.934-14.254c-1.7-1.24-4.62-1.393-6.84-1.673h-.173c-.86-.1-1.28-.227-1.8-.287-3.84 2.887-10.413 3.074-14.187.094 0 0-2.86.666-4.566.973-5.38 1.033-9.254 4.947-10.334 8.567l6.74 15.533 1.287 14.753-3.727 13.214a2.294 2.294 0 00.293 1.886 2.286 2.286 0 001.621 1.007l33.366.507.547-.267a6.209 6.209 0 00.893-4.227c-1.44-6.32-.433-25.173-.74-30.96 6.547 6.36 13.767 11.634 19.04 8.367 4.394-2.74 9.02-26.767 9.02-26.767z" fill="#E0E0E0"/><path d="M291.559 192.294l.773-5.34 7.273 2.673 2.054 3.613 1.273-3.966 3.987-1.374 1.706 3.547-2.926 4.14-5.487 1.113-8.653-4.406z" fill="#E0E0E0"/><path d="M301.785 194.067s-.106-.06-.273-.22a7.964 7.964 0 01-.667-.72 10.717 10.717 0 01-1.753-3.02h.267l-1.68 4.227c-.294.726-.58 1.426-.847 2.093l-.087.22-.173-.167a419.241 419.241 0 01-3.627-3.553l-1.04-1.06a2.168 2.168 0 01-.346-.413c.155.093.298.205.426.333l1.1.993c.934.854 2.227 2.067 3.714 3.474l-.26.053.833-2.093c.627-1.534 1.213-2.967 1.72-4.22l.14-.347.127.353a11.968 11.968 0 001.62 3.02c.493.647.833 1.02.806 1.047zm6.84-2.62c-.23.428-.517.822-.853 1.173a11.872 11.872 0 01-2.78 2.453l-.16.094-.067-.18c-.24-.667-.513-1.334-.807-2.074a67.058 67.058 0 01-1.166-3.04h.286c-.24 1.207-.54 2.194-.72 2.887a6.2 6.2 0 01-.313 1.093 4.171 4.171 0 01.147-1.133c.133-.707.386-1.707.593-2.9l.093-.527.194.507c.333.907.753 1.927 1.193 3.02.293.727.56 1.433.793 2.087l-.226-.08a13.138 13.138 0 002.793-2.307c.311-.378.645-.736 1-1.073zm-4.206 56.98s0-.194.04-.554a111.87 111.87 0 00.387-4.106c.033-.494.066-1.02.106-1.574.04-.553.047-1.146.074-1.766.113-2.474.106-5.427.046-8.707-.06-3.28-.266-6.873-.52-10.667-.546-7.553-1.293-14.366-1.853-19.293-.28-2.44-.507-4.427-.667-5.84-.073-.667-.126-1.193-.173-1.587a3.08 3.08 0 01-.033-.56c.049.182.082.367.1.554.06.386.133.913.233 1.58.193 1.373.467 3.333.773 5.826.62 4.92 1.4 11.74 1.947 19.294.26 3.78.427 7.386.493 10.666.067 3.28 0 6.24-.113 8.72-.033.62-.067 1.207-.093 1.767-.027.56-.1 1.08-.14 1.573-.087.987-.16 1.834-.274 2.52-.113.687-.173 1.194-.226 1.58a3.298 3.298 0 01-.107.574zm26.966-34.92a15.115 15.115 0 01-.167-3.173c-.055-1.059 0-2.12.167-3.167a15.19 15.19 0 01.167 3.167c.056 1.06 0 2.124-.167 3.173z" fill="#263238"/><path d="M333.613 213.907c0 .3-.446-.547-1.426-3.267a14.537 14.537 0 01-.88-3.453 28.554 28.554 0 011.193 3.333 30.825 30.825 0 011.113 3.387z" fill="#263238"/><path d="M312.078 360.107l-.506 12.113s12.14 4.587 12.266 6.834l-23.52-.14v-18.907l11.76.1z" fill="#8FC045"/><path d="M304.307 371.16a.97.97 0 00-.667 1.093.925.925 0 001.08.667 1.015 1.015 0 00.707-1.16.966.966 0 00-1.2-.58" fill="#E0E0E0"/><path opacity=".6" d="M300.318 378.914l.074-1.907 22.526.847s1.04.46.92 1.2l-23.52-.14z" fill="#fff"/><path d="M311.952 372.107c0 .113-.58.16-1.147.526-.567.367-.867.847-.973.8-.107-.046.066-.706.766-1.14.7-.433 1.4-.293 1.354-.186zm2.461 1.033c0 .113-.467.307-.86.787-.394.48-.513 1-.627.993-.113-.007-.18-.667.32-1.247.5-.58 1.167-.64 1.167-.533zm1.386 2.96c-.106 0-.26-.553.04-1.18.3-.626.834-.873.887-.773.053.1-.287.427-.527.947-.24.52-.286 1-.4 1.006zm-4.034-6.767c-.053.1-.58-.06-1.226 0-.647.06-1.154.247-1.214.147-.06-.1.427-.507 1.194-.547.766-.04 1.3.307 1.246.4zm.054-2.446a2.244 2.244 0 01-1.173 0 5.378 5.378 0 01-1.901-.747 1.59 1.59 0 01-.353-.28.502.502 0 01-.053-.613.664.664 0 01.506-.26c.15-.001.298.021.44.067a4.036 4.036 0 011.814.973c.547.507.727.94.667.96-.06.02-.314-.32-.867-.747a4.787 4.787 0 00-1.047-.593 4.129 4.129 0 00-.666-.213c-.254-.067-.461-.074-.527.039-.067.114 0 .061 0 .134a1.1 1.1 0 00.26.2c.198.135.405.255.62.36.364.182.743.332 1.133.447.389.06.772.152 1.147.273z" fill="#263238"/><path d="M311.673 367.054a1.926 1.926 0 01-.307-1.14 3.908 3.908 0 01.167-1.294c.078-.247.181-.486.307-.713a.958.958 0 01.753-.587.555.555 0 01.493.327c.057.139.095.285.114.433a2.46 2.46 0 010 .794c-.069.44-.245.857-.514 1.213-.46.607-.94.747-.953.707-.013-.04.367-.28.72-.86.204-.338.333-.715.38-1.107a2.33 2.33 0 000-.667c-.033-.253-.127-.453-.22-.426-.093.026-.313.18-.413.38a3.841 3.841 0 00-.294.666 4.172 4.172 0 00-.24 1.174c-.053.646.067 1.08.007 1.1z" fill="#263238"/><path d="M271.506 356.547l-3.82 15.16-6.48 11.12a1.6 1.6 0 00-.153 1.268 1.598 1.598 0 00.819.979 1.615 1.615 0 001.467 0c2.907-1.567 13.58-7.394 13.8-8.52.253-1.334 5.094-15.727 5.094-15.727l-10.727-4.28z" fill="#8FC045"/><path opacity=".6" d="M261.879 385.073l15.547-9.566-.174.667a2.404 2.404 0 01-.966 1.333c-1.274.86-4.82 3.16-12.894 7.56a1.62 1.62 0 01-1.513 0v.006zm13.799-15.28a.96.96 0 00-.593 1.147.935.935 0 001.133.6 1.013 1.013 0 00.62-1.22.96.96 0 00-1.246-.493" fill="#fff"/><path d="M267.146 379.44a5.014 5.014 0 00-1-1.54 4.787 4.787 0 00-1.64-.807c0-.046.22-.106.587-.06.475.081.919.294 1.28.614.36.321.624.737.76 1.2.093.36.053.593.013.593zm-1.633 1.72c-.087.047-.44-.58-1.154-1.02-.46-.226-.935-.424-1.42-.593a1.783 1.783 0 011.6.307c.794.48 1.06 1.286.974 1.306zm4.346-3.753a16.887 16.887 0 00-1.68-1.693 17.15 17.15 0 00-2.093-1.14 4.38 4.38 0 013.773 2.833zm1.548-4.514c-.067.08-.807-.5-1.874-.84-1.066-.34-2-.313-2-.413a3.093 3.093 0 012.114.087 3.133 3.133 0 011.76 1.166zm1.259-4.42a8.025 8.025 0 00-1.926-.926 7.635 7.635 0 00-2.14-.047c0-.04.2-.187.606-.287a3.471 3.471 0 013.047.727c.287.28.413.507.413.533zm-1.694-1.759a1.286 1.286 0 01.133-.574c.197-.497.492-.951.867-1.333.242-.329.591-.565.986-.667a.671.671 0 01.667.334c.108.234.125.501.047.746a2.253 2.253 0 01-2.467 1.487 2.632 2.632 0 01-2.12-2 .905.905 0 01.16-.746.665.665 0 01.727-.147c.347.185.639.459.846.793.322.438.561.93.707 1.453.071.188.1.388.087.587a7.281 7.281 0 00-.987-1.893 2.061 2.061 0 00-.76-.667.337.337 0 00-.21-.026.338.338 0 00-.183.106.589.589 0 00-.074.493 2.33 2.33 0 001.854 1.72 1.96 1.96 0 002.12-1.233.762.762 0 000-.52.353.353 0 00-.367-.193c-.327.083-.62.265-.84.52a6.011 6.011 0 00-1.193 1.76z" fill="#263238"/><path d="M298.593 192.054l1.653.86-.313 2.78-2.574-.54 1.234-3.1z" fill="#8FC045"/><path opacity=".4" d="M298.593 192.054l1.653.86-.313 2.78-2.574-.54 1.234-3.1z" fill="#000"/><path d="M302.379 192.74l1.247-1.093 1.146 2.907-1.64.786-.753-2.6zm-1.826 3.634l-.774 32.873 5.554 5.493 2.693-7.3-5.333-31.24-2.14.174z" fill="#8FC045"/><path d="M300.586 191.9c.38-.046.9-.146 1.334-.233a.908.908 0 01.993.453l.7 1.294a.93.93 0 01.093.613l-.28 1.447a.912.912 0 01-.76.726l-1.586.32a.92.92 0 01-1-.486l-.747-1.56a.956.956 0 010-.787l.553-1.247a.91.91 0 01.7-.54z" fill="#8FC045"/><path d="M302.893 192.247c-.122.19-.262.366-.42.527-.274.313-.667.74-1.087 1.206-.42.467-.827.88-1.113 1.174a3.46 3.46 0 01-.494.466c.122-.189.262-.366.42-.526.274-.314.667-.74 1.094-1.207.426-.467.82-.88 1.113-1.18.149-.167.311-.321.487-.46zm-1.62 1.513a3.804 3.804 0 01-.766-.666 3.61 3.61 0 01-.667-.74c.283.188.541.412.767.666.248.222.472.47.666.74zm1.852 2.107c.096-.64.227-1.275.393-1.9.02-.445-.12-.882-.393-1.234a1.048 1.048 0 01-.193-.54s.08.2.273.494c.087.146.213.32.32.533.121.236.166.504.127.767-.107.54-.254.993-.34 1.333a2.636 2.636 0 01-.187.547zm14.208 51.8L315 368.334a1.48 1.48 0 01-1.493 1.453l-14.06-.127a1.485 1.485 0 01-1.467-1.513l2.167-103.813-18.287 103.093a2.665 2.665 0 01-2.7 2.187l-11.793-.407a2.67 2.67 0 01-2.527-3.06L283.333 247.2l34 .467z" fill="#263238"/><path d="M273.08 363.227s0-.1.033-.287l.127-.826c.12-.747.293-1.82.52-3.187.46-2.78 1.127-6.78 1.953-11.713 1.647-9.9 3.92-23.554 6.434-38.634a4516.197 4516.197 0 006.266-38.666c.767-4.94 1.394-8.94 1.827-11.727.213-1.373.387-2.44.5-3.187l.14-.826c.033-.187.06-.28.06-.28a2.18 2.18 0 010 .28c0 .206-.06.48-.107.833-.1.747-.253 1.82-.44 3.2-.393 2.793-1.013 6.793-1.726 11.74-1.5 9.913-3.674 23.593-6.167 38.667a5214.853 5214.853 0 01-6.533 38.62c-.867 4.926-1.567 8.913-2.054 11.693-.253 1.367-.446 2.433-.58 3.173-.066.354-.12.627-.16.827-.04.2-.093.3-.093.3zm36.033.44c-.094 0 .066-24.56.353-54.847.287-30.286.593-54.846.667-54.846.073 0-.067 24.553-.354 54.853-.286 30.3-.58 54.84-.666 54.84zm6.3.42c0 .093-3.833.166-8.56.166s-8.56-.073-8.56-.166c0-.094 3.833-.16 8.56-.16s8.56.073 8.56.16zm-32.714-.653a2.455 2.455 0 01-.667.066l-1.873.067-6.173.147c-2.414.053-4.6.073-6.18.06-.794 0-1.434 0-1.874-.047a2.405 2.405 0 01-.666-.06c.219-.048.442-.07.666-.067l1.874-.06 6.18-.153c2.413-.047 4.6-.067 6.18-.053.793 0 1.433 0 1.873.04.221-.004.443.016.66.06zm19.9-114.314a12.54 12.54 0 01-.046 2.087 215.41 215.41 0 01-.354 5.02c-.086.98-.14 1.913-.26 2.773a5.337 5.337 0 01-.746 2.18c-.284.445-.676.81-1.14 1.06a1.053 1.053 0 01-.547.16 3.475 3.475 0 001.48-1.333c.364-.645.59-1.357.667-2.094.1-.833.14-1.773.226-2.753.16-1.96.32-3.727.454-5.013.032-.702.122-1.4.266-2.087z" fill="#455A64"/><path opacity=".3" d="M284.46 237.62a6.29 6.29 0 002.552 1.442 6.292 6.292 0 002.928.132c1.38-.28 2.667-1.034 4.1-.94 1.54.1 2.813 1.18 4.22 1.813 2.62 1.193 5.68.813 8.467.067 1.28-.34 2.613-.8 3.44-1.84a6.168 6.168 0 001.06-2.854c.32-1.873.459-3.773.413-5.673a5.422 5.422 0 00-.913-3.373 3.856 3.856 0 00-2.54-1.28 9.798 9.798 0 00-2.894.16 47.815 47.815 0 00-20.986 9" fill="#000"/><path d="M297.998 231.354s-17.666 7.893-19.46 8.313c-5.96 1.333-12.773-4.32-10.88-10.733.7-2.387 10.2-28.787 10.2-28.787l9.04 12.487-3.826 12.786 10-.666 4.926 6.6z" fill="#E0E0E0"/><path d="M292.273 224.834c-.23.057-.464.091-.7.1l-1.934.16c-1.64.126-3.94.286-6.56.453h-.22l.067-.213.587-2c.893-2.987 1.72-5.68 2.333-7.634l.74-2.3c.08-.286.185-.565.313-.833-.04.294-.107.584-.2.867-.166.606-.38 1.393-.666 2.333-.56 1.96-1.334 4.667-2.247 7.653-.2.667-.4 1.334-.593 2l-.154-.2c2.614-.153 4.92-.273 6.567-.346l1.933-.074a3.68 3.68 0 01.734.034zm3.726 7.553c.033.08-3.84 1.747-8.667 3.733-4.827 1.987-8.74 3.527-8.773 3.447-.034-.08 3.84-1.753 8.666-3.733 4.827-1.98 8.774-3.5 8.774-3.447z" fill="#263238"/><path d="M293.879 224.247l-1.393-6.78a.879.879 0 01.485-.964.88.88 0 01.375-.083l17.547.087a.874.874 0 01.86.973L309.939 233a1.219 1.219 0 01-1.213 1.074l-11.44-.094a1.22 1.22 0 01-1.167-.913l-2.24-8.82z" fill="#455A64"/><path d="M292.332 220.68a1.851 1.851 0 011.727 1.174 3.96 3.96 0 001.173 1.88c.86.466 2.347.846 3.133.46.787-.387 3.914-3.2 4.46-2.887.547.313 1.02 1.013.474 1.64-.547.627-3.447 2.507-2.9 3.133.546.627 6.666-2.126 7.6-1.886.933.24 1.486.82.94 1.2-.547.38-4.7 1.94-4.934 2.493 0 0 6.267-1.647 6.5-1.253.234.393.627 1.013 0 1.253-.626.24-6.033 1.64-6.5 1.88-.78.31-1.591.533-2.42.667-.166 0-1.393.413-2.52.8a5.539 5.539 0 01-3.9-.1l-.633-.26a2.499 2.499 0 01-1.547-2.454l.134-2.133-.667-1.767-.12-3.84z" fill="#B78876"/><path d="M302.867 219.033a.672.672 0 01-.412.616.669.669 0 01-.909-.486.664.664 0 011.125-.601.668.668 0 01.196.471z" fill="#FAFAFA"/><path d="M378.333 273.9H325.76v-1.96h50.62a1.962 1.962 0 011.953 1.96z" fill="#455A64"/><path d="M363.813 243.013h-35.827a2.227 2.227 0 00-2.226 2.227v26.013c0 1.23.997 2.227 2.226 2.227h35.827c1.23 0 2.227-.997 2.227-2.227V245.24c0-1.23-.997-2.227-2.227-2.227z" fill="#455A64"/><path d="M364.359 244.466h-36.92V271.6h36.92v-27.134z" fill="#FAFAFA"/><path d="M364.353 271.6v-27.133l.04.033h-36.914l.054-.047v27.134l-.047-.04h34.253-34.3v-27.22h36.96v26.68c0 .326-.046.593-.046.593z" fill="#263238"/><path d="M358.834 251.766H333.36l.047-.046v12.526l-.047-.046h23.407-5.333l-18.1.133h-.047V251.72h25.52l.027.046z" fill="#E0E0E0"/><path d="M358.834 253.873s-5.713.047-12.753.047-12.747 0-12.747-.047c0-.046 5.707-.04 12.747-.04s12.753.02 12.753.04zm-.168 1.68s-5.707.047-12.747.047-12.753 0-12.753-.047 5.707-.04 12.753-.04c7.047 0 12.747.02 12.747.04zm.168 1.773s-5.713.047-12.753.047-12.747 0-12.747-.047c0-.046 5.707-.046 12.747-.046s12.753.02 12.753.046zm0 1.727s-5.713.047-12.753.047-12.747 0-12.747-.047c0-.046 5.707-.046 12.747-.046s12.753-.007 12.753.046zm0 1.727s-5.713.047-12.753.047-12.747 0-12.747-.047 5.707-.047 12.747-.047 12.753.02 12.753.047zm-25.5 1.727s5.707-.047 12.747-.047 12.753 0 12.753.047c0 .046-5.707.04-12.753.04-7.047 0-12.747-.02-12.747-.04z" fill="#E0E0E0"/><path d="M338.38 264.487s-.04-2.847-.04-6.36c0-3.514 0-6.36.04-6.36s.047 2.846.047 6.36c0 3.513-.02 6.36-.047 6.36zm5.114 0s-.047-2.847-.047-6.36c0-3.514 0-6.36.047-6.36s.047 2.846.047 6.36c0 3.513-.02 6.36-.047 6.36zm5.113 0s-.046-2.847-.046-6.36c0-3.514 0-6.36.046-6.36.047 0 .047 2.846.047 6.36 0 3.513.013 6.36-.047 6.36zm5.114 0s-.047-2.847-.047-6.36c0-3.514 0-6.36.047-6.36.046 0 .046 2.846.046 6.36 0 3.513-.02 6.36-.046 6.36zm5.113 0s-.047-2.847-.047-6.36c0-3.514 0-6.36.047-6.36.046 0 .046 2.846.046 6.36 0 3.513-.02 6.36-.046 6.36z" fill="#E0E0E0"/><path d="M358.834 253.873c-.06.056-.124.108-.193.153l-.573.407-2.14 1.473a1259.62 1259.62 0 01-7.267 4.947h-.08l-2.173-.727-2.94-.993h.08l-5.127 3.433-3.7 1.28-1.013.34-.267.087h-.093a.337.337 0 01.086-.04l.26-.107 1-.373 3.68-1.333 5.107-3.467h.073l2.947.993 2.167.734h-.074c2.9-1.96 5.46-3.674 7.3-4.894l2.174-1.433.586-.38c.058-.037.118-.07.18-.1z" fill="#8FC045"/><path d="M338.38 262.82a.313.313 0 100-.626.313.313 0 000 .626zm5.113-3.454a.313.313 0 100-.626.313.313 0 000 .626zm5.113 1.694a.314.314 0 100-.627.314.314 0 000 .627zm5.168-3.407a.314.314 0 100-.627.314.314 0 000 .627z" fill="#8FC045"/><path d="M358.834 262.506l-.1-.053-.273-.173-1.034-.667-3.746-2.467h.08l-5.094 3.427-.066.047-.054-.067-2.666-3.62c-.834-1.133-1.654-2.233-2.42-3.28h.133l-5.133 5.16-3.8 1.233-1.04.327-.274.08h-.093l.087-.04.266-.1 1.027-.36 3.78-1.293 5.1-5.194.073-.073.06.08 2.427 3.28c.94 1.26 1.84 2.487 2.667 3.627h-.12l5.12-3.407h.08l3.713 2.52 1.013.7.26.187.027.126z" fill="#455A64"/><path d="M343.493 255.913a.313.313 0 100-.626.313.313 0 000 .626zm-5.113 5.18a.313.313 0 100-.626.313.313 0 000 .626zm10.226 1.727a.314.314 0 100-.627.314.314 0 000 .627zm5.114-3.14a.313.313 0 100-.626.313.313 0 000 .626z" fill="#455A64"/><path d="M336.246 265.72c-.16.046-.327.062-.493.047a1.345 1.345 0 01-.493-.047c.161-.042.327-.058.493-.047.166-.012.333.004.493.047zm5.227 0a2.642 2.642 0 01-.987 0c.326-.062.661-.062.987 0zm5.227 0a2.642 2.642 0 01-.987 0c.326-.062.661-.062.987 0zm5.226 0c-.16.046-.327.062-.493.047a1.353 1.353 0 01-.494-.047c.161-.043.328-.059.494-.047.166-.011.332.005.493.047zm5.22 0c-.16.046-.327.062-.493.047a1.313 1.313 0 01-.487-.047c.162-.046.332-.064.5-.053.162-.009.324.009.48.053zm-24.532-1.494c-.13.038-.266.052-.4.04a1.03 1.03 0 01-.394-.04.852.852 0 01.394-.046.878.878 0 01.4.046zm0-2.006c-.13.038-.266.052-.4.04a1.05 1.05 0 01-.394-.04.866.866 0 01.394-.047.892.892 0 01.4.047zm0-2.007c-.13.038-.266.052-.4.04a1.03 1.03 0 01-.394-.04.852.852 0 01.394-.046.878.878 0 01.4.046zm0-2.007c-.13.038-.266.052-.4.04a1.03 1.03 0 01-.394-.04.852.852 0 01.394-.046.878.878 0 01.4.046zm0-2.006c-.13.038-.266.052-.4.04a1.05 1.05 0 01-.394-.04.866.866 0 01.394-.047.892.892 0 01.4.047zm0-2.007c-.13.038-.266.052-.4.04a1.03 1.03 0 01-.394-.04.852.852 0 01.394-.046.878.878 0 01.4.046zm0-2.007c-.13.038-.266.052-.4.04a1.03 1.03 0 01-.394-.04.852.852 0 01.394-.046.878.878 0 01.4.046z" fill="#E0E0E0"/><path d="M340.526 247.427h-7.327v.52h7.327v-.52z" fill="#8FC045"/><path d="M353.606 248.947s-4.58.046-10.226.046c-5.647 0-10.234 0-10.234-.046 0-.047 4.58-.047 10.234-.047 5.653 0 10.226.02 10.226.047zm-7.472 19.279s-2.794.047-6.241.047c-3.446 0-6.233 0-6.233-.047 0-.046 2.787-.046 6.233-.046 3.447 0 6.241.02 6.241.046zm-9.467.941a9.586 9.586 0 01-1.334.046 9.42 9.42 0 01-1.333-.046c.443-.039.888-.053 1.333-.04.445-.012.89.001 1.334.04zm20.774-1.107s-2 .047-4.433.047c-2.434 0-4.434 0-4.434-.047s2-.047 4.434-.047c2.433 0 4.433.02 4.433.047zm-4.82.613a24.2 24.2 0 01-2.773 0c.923-.062 1.85-.062 2.773 0zM134.699 379.02l11.014-97.427 9.346 3.294-15.266 94.133h-5.094z" fill="#263238"/><path d="M411.833 273.787H130v12.326h281.833v-12.326z" fill="#455A64"/><path d="M189.707 273.973a1.22 1.22 0 01-.093.133l-.293.367c-.412.45-.891.832-1.42 1.133a7.836 7.836 0 01-2.72.914 19.016 19.016 0 01-3.8.166 36.489 36.489 0 01-4.567-.526 41.049 41.049 0 00-5.207-.62c-3.693-.134-7.706.833-11.72 2.273-4.013 1.44-7.78 3.073-11.373 4.067a31.054 31.054 0 01-5.187 1.026 21.622 21.622 0 01-4.606 0 15.76 15.76 0 01-6.32-2 9.875 9.875 0 01-1.954-1.46s.054 0 .14.087l.374.28c.479.359.982.684 1.506.973a15.939 15.939 0 006.28 1.894c1.515.151 3.041.14 4.554-.034a31.318 31.318 0 005.126-1.046c3.567-1.007 7.334-2.667 11.334-4.087s8.086-2.413 11.84-2.267c1.761.109 3.514.331 5.246.667 1.499.278 3.013.465 4.534.56 1.254.087 2.513.049 3.76-.113a8.123 8.123 0 002.666-.834 7.22 7.22 0 001.9-1.553z" fill="#263238"/><path d="M158.872 274.16a7.676 7.676 0 01-.853.726 19.589 19.589 0 01-2.567 1.654 22.4 22.4 0 01-4.206 1.713c-1.79.506-3.635.795-5.494.86a21.026 21.026 0 01-9.826-2 6.24 6.24 0 01-2.367-1.94 3.437 3.437 0 01-.393-.747c-.054-.18-.08-.273-.067-.28.163.331.353.647.567.947a6.46 6.46 0 002.373 1.8 21.877 21.877 0 009.7 1.9c3.34-.1 6.617-.941 9.593-2.46.9-.458 1.769-.974 2.6-1.547.296-.234.61-.444.94-.626zm66.135 7.807l.434.16c.423.148.858.264 1.3.346a7.694 7.694 0 004.933-.773v.16a11.753 11.753 0 00-6.113-2.387 11.917 11.917 0 00-7.954 2.067 1.338 1.338 0 00-.62.8.859.859 0 00.527.793c.342.186.711.317 1.093.387l1.2.273c1.614.36 3.28.714 5.007.967 1.763.28 3.548.4 5.333.36.916-.024 1.83-.111 2.734-.26.453-.08.906-.167 1.333-.287.458-.097.904-.24 1.333-.426a4.314 4.314 0 001.707-1.234 1.937 1.937 0 00.327-1.893 3.184 3.184 0 00-1.334-1.493 10.787 10.787 0 00-1.866-.914 25.736 25.736 0 00-7.86-1.613 32.41 32.41 0 00-13.334 2.073 32.798 32.798 0 00-8.04 4.394c-.86.666-1.526 1.186-1.946 1.573l-.5.427-.174.133s.047-.06.154-.16l.473-.447c.407-.406 1.06-.953 1.907-1.633a32.561 32.561 0 0121.506-6.667c2.714.122 5.391.671 7.934 1.627.674.25 1.322.567 1.933.947a3.524 3.524 0 011.48 1.66c.134.372.169.773.102 1.163-.066.39-.232.756-.482 1.063a4.658 4.658 0 01-1.84 1.334 7.364 7.364 0 01-1.373.446 19.626 19.626 0 01-4.167.554 29.817 29.817 0 01-5.38-.374c-1.733-.26-3.407-.62-5.02-.986l-1.2-.28a3.985 3.985 0 01-1.187-.42 1.614 1.614 0 01-.493-.434.989.989 0 01-.18-.666 1.553 1.553 0 01.747-1.014 12.135 12.135 0 018.153-2.073 11.905 11.905 0 016.213 2.487l.114.093-.127.067a7.71 7.71 0 01-5.04.706 5.614 5.614 0 01-1.747-.626zm36.267-7.674c.13.187.222.398.273.62.189.596.252 1.225.187 1.847a9.135 9.135 0 01-2.74 5.38 13.894 13.894 0 01-2.567 2.18c-.773.497-1.604.899-2.473 1.2-.585.194-1.185.343-1.793.446a2.767 2.767 0 01-.667.06c0-.066.947-.2 2.38-.74a12.18 12.18 0 002.387-1.233 14.831 14.831 0 002.486-2.153 9.333 9.333 0 002.754-5.167 6.79 6.79 0 00-.227-2.44zm50.606 11.174a14.927 14.927 0 00-1.293-1.26 9.132 9.132 0 00-4.407-2 9.694 9.694 0 00-3.333.093c-1.289.3-2.612.423-3.934.367-1.446-.134-2.746-1.007-3.92-1.927a13.363 13.363 0 00-3.933-2.333 14.462 14.462 0 00-8.74-.134 20.966 20.966 0 00-6.467 3.274 35.784 35.784 0 00-3.746 3.2l-.954.946a3.27 3.27 0 01-.346.32c.082-.134.181-.257.293-.366.2-.234.507-.574.913-.994a31.603 31.603 0 013.694-3.3 20.718 20.718 0 016.526-3.386 14.613 14.613 0 018.947.113 13.592 13.592 0 014 2.393c1.173.914 2.393 1.74 3.747 1.874a14.628 14.628 0 003.853-.327 9.987 9.987 0 013.44-.06 9.072 9.072 0 014.453 2.127c.472.394.879.86 1.207 1.38zm45.187-11.56a2.34 2.34 0 01-.306.42 14.68 14.68 0 01-.967 1.146 25.967 25.967 0 01-4.113 3.654 33.22 33.22 0 01-7.134 3.96 29.056 29.056 0 01-4.606 1.466 23.446 23.446 0 01-5.147.667 25.36 25.36 0 01-9.773-2 32.671 32.671 0 01-7.1-4 27.606 27.606 0 01-4.087-3.687c-.453-.466-.747-.88-.967-1.14a3.523 3.523 0 01-.306-.42c.131.115.254.24.366.374.234.246.54.666 1.007 1.1a30.296 30.296 0 004.133 3.58 33.236 33.236 0 007.074 3.926 25.38 25.38 0 009.646 2 23.39 23.39 0 005.08-.666 29.706 29.706 0 004.56-1.434 33.64 33.64 0 007.114-3.86 28.424 28.424 0 004.16-3.546c.466-.447.766-.854 1.006-1.1.106-.158.227-.305.36-.44z" fill="#263238"/><path d="M350.613 273.787s-.08.08-.24.193c-.16.113-.406.293-.733.5a30.045 30.045 0 01-2.82 1.593 30.406 30.406 0 01-4.46 1.82c-1.88.618-3.841.952-5.82.994a24 24 0 01-10.333-2.614 23.258 23.258 0 01-2.8-1.64c-.32-.213-.547-.4-.707-.526a1.116 1.116 0 01-.233-.2c.35.183.688.388 1.013.613a30.347 30.347 0 002.833 1.533 24.908 24.908 0 0010.227 2.487 20.253 20.253 0 005.727-.953 32.487 32.487 0 004.446-1.734 37.3 37.3 0 002.86-1.493 8.84 8.84 0 011.04-.573zm28.654 1.266h-.327L378 275l-.666-.047h-2.727l-1.12.067-1.207.14c-.84.073-1.72.266-2.666.426a40.06 40.06 0 00-5.894 1.754 42.203 42.203 0 00-5.52 2.713c-.793.52-1.573.967-2.24 1.48l-.993.713-.84.754c-.567.433-1.033.88-1.453 1.266l-.594.534-.46.473-.666.667a1.323 1.323 0 01-.247.213s.06-.1.193-.26l.607-.667.447-.506.566-.554c.414-.4.874-.866 1.44-1.333l.867-.727c.313-.24.667-.48.987-.733.666-.527 1.446-.993 2.24-1.52a39.03 39.03 0 015.56-2.76 38.311 38.311 0 015.953-1.747c.947-.153 1.833-.34 2.667-.4l1.22-.126 1.133-.034a17.09 17.09 0 011.947 0l.8.034.666.08.92.126a.883.883 0 01.347.027zm12.066-2.42v.234a4.95 4.95 0 01-.06.666 9.362 9.362 0 01-.666 2.367 13.825 13.825 0 01-5.26 6.04 27.657 27.657 0 01-7.414 3.167c-.993.28-1.8.48-2.36.613-.288.08-.582.136-.88.167a4.27 4.27 0 01.84-.3l2.327-.72a29.938 29.938 0 007.32-3.2 12.714 12.714 0 006.153-9.034zm-74.386 12.587c-.46-.662-.98-1.28-1.553-1.847a14.365 14.365 0 00-5.68-3.173 31.123 31.123 0 00-4.433-.98c-1.614-.253-3.334-.46-5.18-.773a43.71 43.71 0 01-5.627-1.407 36.064 36.064 0 00-6-1.453 24.998 24.998 0 00-11.7 1.613 42.374 42.374 0 00-4.753 2.14 100.94 100.94 0 00-4 2.167c-2.427 1.373-4.36 2.54-5.687 3.333l-1.533.94-.4.24c-.094.053-.14.08-.147.073a.56.56 0 01.127-.1l.38-.273c.34-.233.84-.567 1.5-.993 1.333-.847 3.22-2.047 5.633-3.454 1.213-.7 2.54-1.446 4-2.206a41.29 41.29 0 014.78-2.187 25.016 25.016 0 0111.847-1.653c2.058.315 4.085.806 6.06 1.466a43.943 43.943 0 005.58 1.42c1.813.32 3.553.534 5.173.807 1.511.227 3.002.57 4.46 1.027a14.043 14.043 0 015.7 3.333 7.209 7.209 0 011.453 1.94zm-63.48-11.247c.023.263.009.528-.04.787a9.42 9.42 0 01-.553 2.08 11.914 11.914 0 01-4.333 5.54 28.813 28.813 0 01-6.42 2.953c-.86.287-1.56.493-2.047.62-.251.082-.51.136-.773.16.233-.124.479-.223.733-.293l2-.714a33.517 33.517 0 006.313-3.013 12.387 12.387 0 004.294-5.333c.354-.904.63-1.836.826-2.787zm-65.428 12.14c.2-.244.423-.467.667-.667.453-.413 1.14-.973 2-1.64a58.044 58.044 0 017.186-4.666c2.927-1.614 5.667-2.9 7.654-3.807.993-.46 1.8-.82 2.36-1.06.283-.144.58-.258.886-.34-.259.18-.536.334-.826.46l-2.32 1.16c-1.954.967-4.667 2.287-7.587 3.893a70.069 70.069 0 00-7.207 4.52c-.886.667-1.593 1.174-2.066 1.554-.23.22-.48.419-.747.593zm13.295-11.64c0 .04-.667-.08-1.82 0-1.644.169-3.24.653-4.7 1.427a43.72 43.72 0 00-6.113 4.1 30.872 30.872 0 01-3.674 2.386 20.762 20.762 0 01-4.4 1.694 40.883 40.883 0 01-9.006 1.08c-2.787.08-5.287 0-7.387.113-1.655.05-3.306.211-4.94.48-.573.107-1.02.193-1.333.267a2.56 2.56 0 01-.467.086c.142-.069.292-.121.447-.153.293-.093.74-.2 1.333-.333a32.445 32.445 0 014.96-.594c2.107-.12 4.613-.086 7.387-.186a41.739 41.739 0 008.926-1.1c1.5-.387 2.952-.942 4.327-1.654a31.775 31.775 0 003.647-2.346 42.212 42.212 0 016.146-4.074 12.582 12.582 0 014.8-1.333 8.037 8.037 0 011.334.047c.181.009.36.041.533.093z" fill="#263238"/><path d="M377.086 273.74c0 .093-11.78.173-26.3.173-14.52 0-26.313-.08-26.313-.173 0-.094 11.78-.174 26.313-.174s26.3.1 26.3.174zm-110.18-5.487h-37.98v5.674h37.98v-5.674z" fill="#263238"/><path d="M238.966 269.566h-10.04v3.054h10.04v-3.054z" fill="#E0E0E0"/><path d="M270.293 262.58h-37.981v5.673h37.981v-5.673z" fill="#8FC045"/><path d="M270.299 263.94h-25.76v2.84h25.76v-2.84z" fill="#E0E0E0"/><path d="M226.647 262.573h37.98V256.9h-37.98v5.673z" fill="#263238"/><path d="M254.587 261.267h10.04v-3.054h-10.04v3.054z" fill="#E0E0E0"/><path d="M360.107 357.713l4.56 11.247s-9.94 8.38-9.334 10.54l22.12-8-6.313-17.833-11.033 4.046z" fill="#8FC045"/><path d="M371.125 365.527a.964.964 0 011 .806.928.928 0 01-.793.994 1.012 1.012 0 01-1.047-.854c0-.473.467-1.013.933-.946" fill="#E0E0E0"/><path opacity=".6" d="M377.48 371.5l-.713-1.767-20.94 8.327s-.827.786-.467 1.44l22.12-8z" fill="#fff"/><path d="M364.233 369c.046.106.6 0 1.26.12s1.1.506 1.186.426c.087-.08-.3-.666-1.1-.82-.8-.153-1.406.16-1.346.274zm-1.974 1.773c0 .113.547.127 1.08.453.533.327.813.767.92.727.107-.04-.047-.667-.713-1.073-.667-.407-1.32-.207-1.287-.107zm-.313 3.253c.107 0 .06-.606-.427-1.093-.486-.487-1.08-.547-1.093-.44-.013.107.413.307.807.72.393.413.606.84.713.813zm1.54-7.693c.08.08.52-.247 1.147-.427.626-.18 1.173-.16 1.193-.273.02-.113-.573-.333-1.333-.107-.76.227-1.094.707-1.007.807zm-.873-2.32c.4-.03.783-.171 1.107-.406a5.106 5.106 0 001.033-.774 7.07 7.07 0 00.514-.566c.097-.118.177-.248.24-.387a.498.498 0 00-.16-.587.617.617 0 00-.56-.08c-.143.05-.277.12-.4.207a4.223 4.223 0 00-1.38 1.527 1.99 1.99 0 00-.327 1.133c.06 0 .193-.407.573-.987.219-.339.483-.647.787-.913.172-.16.36-.303.56-.427.213-.146.413-.22.513-.14.1.08.04.047 0 .134a1.089 1.089 0 01-.18.28c-.143.19-.296.373-.46.546a6.738 6.738 0 01-.926.794 8.34 8.34 0 00-.934.646z" fill="#263238"/><path d="M362.813 364.12a1.923 1.923 0 00-.093-1.18 4.01 4.01 0 00-.593-1.154 3.536 3.536 0 00-.527-.573.975.975 0 00-.907-.307.578.578 0 00-.353.48 1.594 1.594 0 000 .447 2.717 2.717 0 001.16 1.72c.667.413 1.133.38 1.133.34a9.073 9.073 0 01-.966-.567 2.702 2.702 0 01-.727-.913 2.33 2.33 0 01-.213-.667c-.054-.246 0-.466.066-.473a.662.662 0 01.52.22c.178.151.341.319.487.5.255.313.464.661.62 1.033.293.64.327 1.094.393 1.094z" fill="#263238"/><path d="M380.926 355.667l4.527 11.246s-9.907 8.38-9.273 10.54l22.119-8-6.34-17.786-11.033 4z" fill="#8FC045"/><path d="M391.945 363.467a.962.962 0 011 .806.933.933 0 01-.793 1 1.011 1.011 0 01-1.047-.86c0-.473.467-1.013.934-.946" fill="#E0E0E0"/><path opacity=".6" d="M398.3 369.44l-.706-1.773-20.927 8.34s-.827.78-.467 1.433l22.1-8z" fill="#fff"/><path d="M385.053 366.92c.047.107.6-.04 1.26.113.66.154 1.107.507 1.187.427.08-.08-.3-.667-1.1-.813-.8-.147-1.407.18-1.347.273zm-1.974 1.8c0 .113.547.127 1.08.447.534.32.814.773.92.726.107-.046-.046-.666-.713-1.066-.667-.4-1.32-.214-1.287-.107zm-.313 3.253c.107 0 .067-.607-.426-1.1-.494-.493-1.08-.547-1.094-.44-.013.107.414.313.807.72.393.407.613.847.713.82zm1.541-7.733c.08.087.52-.247 1.146-.427.627-.18 1.174-.153 1.194-.266.02-.114-.574-.334-1.334-.114-.76.22-1.086.74-1.006.807zm-.873-2.287a2.14 2.14 0 001.106-.406 5.179 5.179 0 001.034-.774c.182-.178.354-.367.513-.566a1.48 1.48 0 00.24-.38.504.504 0 00-.16-.594.622.622 0 00-.56-.073 1.422 1.422 0 00-.393.207 4.386 4.386 0 00-.607.48 4.223 4.223 0 00-.78 1.04 2.046 2.046 0 00-.327 1.14c.067 0 .194-.414.574-.994a4.507 4.507 0 011.353-1.34c.207-.146.407-.22.507-.14.1.08.046.047 0 .134a1.023 1.023 0 01-.18.28c-.143.19-.297.373-.46.546a6.79 6.79 0 01-.927.8c-.323.197-.634.41-.933.64z" fill="#263238"/><path d="M383.634 362.06a1.906 1.906 0 00-.094-1.174 3.85 3.85 0 00-1.12-1.733.97.97 0 00-.906-.3.564.564 0 00-.354.473 1.857 1.857 0 000 .447c.053.261.145.513.274.747.211.392.515.727.886.973.667.42 1.134.387 1.134.347a8.544 8.544 0 01-.967-.574 2.781 2.781 0 01-.727-.913 2.33 2.33 0 01-.213-.667c-.047-.246 0-.473.067-.48a.681.681 0 01.52.227c.179.151.344.319.493.5.252.312.458.657.613 1.027.3.66.327 1.106.394 1.1z" fill="#263238"/><path d="M396.18 209.946l-2.113 17.334 3.286 8-13 .46-2.666-6.24s-6.44-.727-6.667-4.847c-.16-2.667 4.087-21.82 4.087-21.82l17.073 7.113z" fill="#FFBE9D"/><path d="M392 230.54c1.533-1.04 2.306-1.734 2.98-3.46.673-1.727 1.106-3.54 1.873-5.227.767-1.687 2-3.367 2.76-5.14.76-1.773 1.2-3.873.427-5.653 0 0-.28-2.287-3.334-3.12 0 0-1.74-4.847-5.726-5.3-5.427-.62-5.24-2.214-8.78-3.567a3.432 3.432 0 00-2.642-.132 3.448 3.448 0 00-1.952 1.785s-2.18 1-2.666 2.994v.053a4.756 4.756 0 002.213 5.207l.667.386a4.538 4.538 0 011.666 1.334c.587.893.46 2.066.2 3.1a8.42 8.42 0 00-.486 3.146c.046.36.253.794.62.774.366-.02.533-.6.666-1.014.38-1.206 2.16-1.806 3.08-.666a1.9 1.9 0 01.08 2.406c-.593.78-1.64 1.267-2 2.194-.666 1.553.96 3.333 1.5 4.4.187.37.41.721.667 1.047a15.41 15.41 0 004.533 3.946 4.158 4.158 0 004.254.213" fill="#263238"/><path d="M338.526 251.453c-2.28-.973-3.747-1.853-5.28-2.406-1.88-.667-2.613-1.1-2.46-1.447.2-.46.107-.293 3.707.467 0 0-5.134-1.127-3.827-1.76.573-.274 4.847.62 4.847.62-3.5-.407-4.754-1.107-4.667-1.634.127-.766 5.333.36 5.333.36a39.539 39.539 0 01-4.613-1.133c-.667-.353.18-.667.947-.767.766-.1 5.926.087 7.393.06a.856.856 0 00.947-.906c-.427-2.087.346-3.94.793-4.34a.662.662 0 01.751.02.664.664 0 01.256.706 7.848 7.848 0 000 2.154c.062.572.222 1.129.473 1.646.293.607.567 1.1.807 1.52l7.266 7.947-3.14 7.54-9.533-8.647z" fill="#FFBE9D"/><path d="M336.666 248.573a9.993 9.993 0 01-2.487-.42 9.659 9.659 0 01-2.413-.74 9.622 9.622 0 012.486.413c.835.14 1.646.391 2.414.747zm.419-1.353a11.182 11.182 0 01-2.666-.294 10.788 10.788 0 01-2.62-.626c1.798.083 3.579.392 5.3.92h-.014zm.448-1.407a9.557 9.557 0 01-2.54-.24 9.686 9.686 0 01-2.487-.566c.853-.026 1.706.055 2.54.24.85.078 1.686.268 2.487.566z" fill="#EB996E"/><path d="M386.119 285.333L355.045 290a15.141 15.141 0 00-10.413 6.666 15.129 15.129 0 00-1.86 12.5l16.407 52.327 14.82-5.573-9.1-46.254 48.073-3.22v-21.113l-26.853-1" fill="#263238"/><path d="M408 285.333L376.927 290a15.118 15.118 0 00-10.413 6.666 15.129 15.129 0 00-1.847 12.54l14.307 49.214 16.553-4.367-8.74-44.387 32.113-2.153V286.4l-10.9-2.067" fill="#263238"/><path d="M346.254 246.566c.666-.086 21.753 16.367 21.753 16.367l-13.473 5.4-13.66-13.547s-.874-7.36 5.38-8.22z" fill="#8FC045"/><path d="M414.519 240.107c-3.52-5.1-9.506-6.867-11.58-7.334a6.036 6.036 0 00-1.333-.146h-17.973a12.583 12.583 0 00-8.727 3.466 43.24 43.24 0 00-6.907 8.907l-9.046 12.58-5.56 9.333 1.133 1.427a9.332 9.332 0 0011.167 2.847c1.833-.86 3.173-2.454 4.42-4.287 2.273-3.333 4.666-6.947 6.213-9.7l9.067 25.927-4.847 3.086 20.44 8.26 21.28-9.1-5.88-20.946s9.333.9 10.18-2.76c.847-3.66-7.74-15.334-12.047-21.56z" fill="#8FC045"/><path d="M412.412 249.607a84.702 84.702 0 014.254 7.853c.173.347.666.04.52-.307a66.923 66.923 0 00-4.427-7.746c-.133-.214-.473 0-.34.2h-.007zm4.253-1.514a84.767 84.767 0 014.247 7.853c.173.347.666.04.52-.306a66.275 66.275 0 00-4.427-7.747c-.133-.213-.473 0-.34.2zm-8.339 2.113c.9 3.481 1.607 7.014 2.18 10.561.08.5.84.286.753-.207a69.762 69.762 0 00-2.593-10.447.164.164 0 00-.08-.099.159.159 0 00-.126-.014.167.167 0 00-.114.206h-.02zm-9.627.994a42.24 42.24 0 011.753 10.467c0 .493.787.5.767 0a34.846 34.846 0 00-2.147-10.574c-.08-.233-.453-.14-.373.107zm7.874 8.466a47.019 47.019 0 01-2.327-9.866c-.046-.46-.733-.48-.726 0a19.81 19.81 0 002.666 10c.12.186.454.066.38-.167l.007.033zM394.4 251.48c.11 3.364.597 6.705 1.453 9.96.12.453.78.26.667-.194a371.446 371.446 0 01-1.767-9.82c0-.213-.387-.16-.38.054h.027zm-5.161.587c.893 3.653 1.56 7.333 2.22 11.02.06.346.667.273.62-.087a59.314 59.314 0 00-2.573-11.007.147.147 0 00-.068-.069.141.141 0 00-.199.143zm-4.72.853a43.539 43.539 0 001.114 10.18c.093.36.593.2.546-.153a93.89 93.89 0 01-1.22-10 .22.22 0 10-.44 0v-.027zm-15.079 9.313c2.826-2.666 5.333-6 7.653-9.08.207-.273-.253-.626-.48-.366-2.54 2.906-5.333 6-7.333 9.3-.074.12.093.24.193.146h-.033zm-3.307-2.966a32.083 32.083 0 006.533-8.067c.207-.347-.313-.667-.533-.313-1.953 2.853-4.133 5.44-6.26 8.14a.168.168 0 00-.051.117.168.168 0 00.165.17.164.164 0 00.119-.047h.027zm1.994-9.694c-1.88 2.107-3.827 4.174-5.6 6.367-.24.293.16.713.42.427 1.887-2.114 3.62-4.367 5.407-6.567.126-.16-.087-.387-.227-.227zm11.599 3.853c.8 3.38 1.273 6.814 2 10.207.073.32.62.26.587-.08a77.081 77.081 0 00-2.154-10.253.236.236 0 00-.113-.124.231.231 0 00-.301.086.226.226 0 00-.032.164h.013z" fill="#FAFAFA"/><path opacity=".3" d="M406.993 260.693a4.926 4.926 0 00-3.813 1.907 11.745 11.745 0 00-2 3.92 40.804 40.804 0 00-2.12 13.867c0 1.44.046 3.093-1.04 4.033-.934.807-2.314.74-3.467 1.193-1.833.714-3.407 3.167-2.873 5.06l10.32 3.9 4.993-33.88z" fill="#000"/><path d="M395.445 282.406a3.558 3.558 0 01-1.166.454c-.977.267-1.982.424-2.994.466a13.348 13.348 0 01-3.02-.2 3.679 3.679 0 01-1.206-.346c0-.107 1.886.313 4.213.2 1.4-.119 2.793-.31 4.173-.574z" fill="#263238"/><path d="M358.453 310.526l-8.174 68.58h3.534l8.68-68.58h-4.04zm32.58 0l7.507 68.58h3.853l-7.32-68.58h-4.04zm40.406 0l6.26 68.58h4.293l-7.14-68.58h-5.18m-19.113-58.92h30.3a4.7 4.7 0 011.957.426 4.699 4.699 0 012.565 2.957c.191.648.24 1.329.145 1.997l-7.173 50.06a4.062 4.062 0 01-4 3.48h-39.267l15.473-58.92z" fill="#455A64"/><path d="M354.42 310.527c.073-.76 0-4.547 0-4.547l37.573.667a5.777 5.777 0 005.8-4.834l7.487-45.753a5.337 5.337 0 015.28-4.487l-8.167 51.514a8.783 8.783 0 01-8.666 7.406l-39.307.034z" fill="#455A64"/><path d="M410.559 251.606a.43.43 0 010 .16l-.053.46c-.06.434-.147 1.027-.247 1.774-.24 1.566-.573 3.786-.98 6.513-.867 5.52-2.053 13.1-3.333 21.473-.667 4.187-1.334 8.18-1.887 11.814-.293 1.813-.573 3.531-.84 5.153a35.054 35.054 0 01-.913 4.467 12.183 12.183 0 01-1.547 3.44 8.63 8.63 0 01-1.94 2.086 6.494 6.494 0 01-1.567.88 2.968 2.968 0 01-.6.174 7.906 7.906 0 002.087-1.16 10.333 10.333 0 003.333-5.487c.38-1.463.67-2.948.867-4.447.247-1.62.52-3.333.8-5.16.573-3.633 1.207-7.626 1.867-11.82 1.333-8.36 2.573-15.933 3.46-21.453.46-2.72.826-4.927 1.093-6.493.127-.747.233-1.334.313-1.767.034-.18.06-.333.087-.453a.792.792 0 010-.154zm1.681.334a14.83 14.83 0 01-1.827-2.587 13.992 13.992 0 01-1.526-2.773 14.984 14.984 0 011.82 2.586 14.213 14.213 0 011.533 2.774zM355.059 263a26.983 26.983 0 012.346-3.66 28.458 28.458 0 012.634-3.46 27.512 27.512 0 01-2.347 3.66 28.528 28.528 0 01-2.633 3.46zm25.348-12.1a4.983 4.983 0 01-.407.767c-.313.546-.713 1.233-1.193 2.046a211.052 211.052 0 01-4.12 6.667 159.01 159.01 0 01-4.393 6.473 72.894 72.894 0 01-1.414 1.9c-.162.242-.35.465-.56.667.122-.264.272-.514.447-.747l1.333-1.966c1.12-1.66 2.667-3.96 4.314-6.52l4.2-6.587c.54-.847.973-1.527 1.286-2 .141-.253.311-.488.507-.7zM198.74 173.553c-1.38-2-.527-5.093 1.533-6.42a6.21 6.21 0 016.894.494c1.96 1.473 2.506 4.04 2.186 6.24-.24 1.633-2.8 4.966-5.24 3.5" fill="#263238"/><path d="M184.039 187.42c-5.42-10.5 5.927-16.474 12.354-15 6.04 1.386 8.726 4.226 9.906 8.16a19.714 19.714 0 010 12.126c-.666 1.914-2 3.88-4 4.22" fill="#263238"/><path d="M200.493 178.206a1.999 1.999 0 011.913 1.96l.213 27.394c.12 3.233-4.506 5.293-7.966 5.393-3.494.1-3.694-1.607-3.9-4.667-.34-5.126-.434-7.053-.434-7.026 0 .026-4.446-.514-5.646-6.22-.6-2.84-.667-7.54-.667-11.387.047-3.467 2.12-7.813 5.58-7.62l10.907 2.173z" fill="#FFBE9D"/><path d="M185.553 187.147a.744.744 0 00.746.713.703.703 0 00.727-.707.734.734 0 00-.747-.706.702.702 0 00-.671.426.713.713 0 00-.055.274zm-.38-1.114c.094.094.634-.346 1.427-.386.793-.04 1.4.333 1.48.233.08-.1-.06-.22-.327-.387a1.991 1.991 0 00-1.186-.306c-.414.02-.811.172-1.134.433-.233.2-.306.373-.26.413zm7.854.74a.75.75 0 001.26.514.724.724 0 00.214-.507.742.742 0 00-.747-.707.703.703 0 00-.727.7zm-.041-.98c.1.094.633-.346 1.433-.386.8-.04 1.394.333 1.474.226.08-.106-.06-.213-.327-.386a2.041 2.041 0 00-2.32.126c-.233.2-.307.38-.26.42zm-2.586 6.034a5.122 5.122 0 00-1.333-.167c-.207 0-.4-.04-.44-.18-.026-.208.011-.42.107-.607l.52-1.573c.487-1.337.87-2.71 1.146-4.107a26.125 26.125 0 00-1.473 4l-.5 1.58a1.198 1.198 0 00-.067.8.507.507 0 00.354.28 1.3 1.3 0 00.346.034c.448.038.898.018 1.34-.06z" fill="#263238"/><path d="M190.32 201.253a14.615 14.615 0 007.607-2.44s-1.673 4.047-7.46 3.794l-.147-1.354zm.512-7.526a1.417 1.417 0 011.254-.594 1.328 1.328 0 01.926.434.843.843 0 01.114.946.959.959 0 01-1.034.314 2.953 2.953 0 01-1.04-.554.785.785 0 01-.24-.226.256.256 0 010-.294" fill="#EB996E"/><path d="M192.766 192.26c-.133 0-.093.86-.799 1.513-.707.654-1.627.6-1.627.72s.213.154.6.147c.495-.024.967-.22 1.333-.553.36-.325.58-.777.613-1.26.04-.367-.066-.574-.12-.567zm-.207-7.84c.087.213.88.073 1.813.14.934.067 1.707.28 1.82.08.054-.093-.093-.293-.406-.487a3.029 3.029 0 00-1.334-.4 3.053 3.053 0 00-1.406.234c-.38.153-.527.346-.487.433zm-7.226-.7c.147.173.667-.04 1.333-.08.667-.04 1.22.06 1.334-.134.053-.093-.047-.273-.294-.433a1.945 1.945 0 00-1.113-.24 1.87 1.87 0 00-1.053.42c-.207.193-.254.413-.207.467z" fill="#263238"/><path d="M185.666 176.393a5.566 5.566 0 002.333 5.333 10.735 10.735 0 003.28 1.287l2.194.6c1.6.516 3.265.806 4.946.86-.086 1.88-.306 3.147.707 4.733.907 1.427 2.227 2.434 3.933 2a56.15 56.15 0 00.667-11.246 5.282 5.282 0 00-.567-2.807c-.866-1.333-2.666-1.6-4.286-1.727l-6.727-.526a13.538 13.538 0 00-3.293 0 4.53 4.53 0 00-2.84 1.533" fill="#263238"/><path d="M207.333 184.513h-.253a1.826 1.826 0 01-.713-.16 2.953 2.953 0 01-.94-.666c-.34-.375-.66-.767-.96-1.174a5.457 5.457 0 00-1.334-1.22 7.118 7.118 0 00-1.873-.866 15.951 15.951 0 00-4.74-.52 21.512 21.512 0 01-4.82-.334 6.896 6.896 0 01-3.473-1.846 5.329 5.329 0 01-.914-1.227 4.039 4.039 0 01-.386-1.087 2.918 2.918 0 01-.047-.973c.026.32.07.638.133.953.09.366.229.718.414 1.047.249.431.559.824.92 1.167a6.779 6.779 0 003.4 1.76 22.25 22.25 0 004.773.306 15.805 15.805 0 014.8.554 7.2 7.2 0 011.92.906c.512.35.963.783 1.333 1.28.34.447.627.867.927 1.187.254.272.554.498.887.667.294.147.617.231.946.246z" fill="#455A64"/><path d="M206.42 181a1.804 1.804 0 00-.12-.813 3.33 3.33 0 00-1.72-1.427 11.32 11.32 0 00-3.28-.88c-1.396-.1-2.798-.1-4.194 0a19.463 19.463 0 01-4.233-.147 8.447 8.447 0 01-3.22-1.253 5.535 5.535 0 01-1.647-1.653 5.015 5.015 0 01-.286-.567 1 1 0 01-.074-.207s.134.274.44.727a5.72 5.72 0 001.654 1.567 8.63 8.63 0 003.166 1.18c1.388.185 2.791.228 4.187.126a28.133 28.133 0 014.227 0c1.153.142 2.277.462 3.333.947a3.333 3.333 0 011.733 1.533c.086.211.116.441.087.667a.605.605 0 01-.053.2zm2.519-11.053c.061.12.093.252.093.386.019.363-.045.726-.187 1.06a5.997 5.997 0 01-2.406 2.554c-.56.341-1.177.58-1.82.706a5.426 5.426 0 01-1.594.047 7.514 7.514 0 01-1.053-.187 1.416 1.416 0 01-.367-.133c0-.04.547.107 1.434.16a5.728 5.728 0 001.54-.1 5.45 5.45 0 001.74-.667 6.204 6.204 0 002.373-2.426c.2-.438.285-.92.247-1.4zm-2.08-2.54a1.19 1.19 0 010 .386c-.034.35-.101.696-.2 1.034a6.89 6.89 0 01-1.733 2.986 6.994 6.994 0 01-2.974 1.767 5.606 5.606 0 01-1.026.2 1.094 1.094 0 01-.387 0c0-.04.54-.087 1.367-.367a7.207 7.207 0 004.6-4.666c.273-.794.313-1.34.353-1.34zm-.572 24.926c-.007-.1-.007-.2 0-.3v-.873a9.83 9.83 0 00-.586-3.12 6.193 6.193 0 00-1.12-1.86 5.123 5.123 0 00-2.054-1.38c-1.666-.627-3.673-.527-5.733-.613a17.65 17.65 0 01-5.74-1.1 9.549 9.549 0 01-3.887-2.747 7.233 7.233 0 01-1.493-2.84 5.095 5.095 0 01-.153-.867 1.305 1.305 0 010-.306s.04.42.253 1.146a7.447 7.447 0 001.533 2.76 9.623 9.623 0 003.84 2.667 17.684 17.684 0 005.667 1.06c2.047.093 4.08 0 5.8.667a5.116 5.116 0 012.12 1.446 6.098 6.098 0 011.133 1.934 9.34 9.34 0 01.527 3.173v.873c0 .207-.093.28-.107.28z" fill="#455A64"/><path d="M204.98 177.52a10.094 10.094 0 01-.826-.88 13.815 13.815 0 00-4.72-3.267 9.738 9.738 0 01-1.114-.46c.403.049.798.152 1.174.307a11.445 11.445 0 014.786 3.333c.275.291.51.616.7.967z" fill="#8FC045"/><path d="M201.794 187.753c.08-.04 3.013-1.513 3.22 1.927.206 3.44-3.294 2.94-3.334 2.847-.04-.094.114-4.774.114-4.774z" fill="#FFBE9D"/><path d="M202.666 191.153s.067.04.167.08a.602.602 0 00.453 0 1.472 1.472 0 00.607-1.333 1.996 1.996 0 00-.22-.853.672.672 0 00-.48-.434.316.316 0 00-.347.187c-.04.1 0 .167-.033.173-.034.007-.074-.053-.054-.193a.353.353 0 01.12-.227.452.452 0 01.327-.106.85.85 0 01.667.493c.163.289.255.614.266.947a1.562 1.562 0 01-.786 1.54.679.679 0 01-.554-.054c-.133-.133-.133-.213-.133-.22z" fill="#EB996E"/><path d="M151.113 218.567s-2.313-4.547-2.9-4.987c-.587-.44-5.76-2.24-6.2-2.093-.44.146-6.667 1.333-5.927 2.039.74.707 5.067-.139 5.067-.139l.587.28s-3.747.666-4.534 1.126c-.786.46-.46 1.334.227 1.24.687-.093 3.947-.766 4.14-.666.193.1-3.533.933-3.933 1.18-.54.326-.58 1.293.106 1.239.4-.04 3.92-1.006 3.92-1.006a30.823 30.823 0 00-3.04 1.373.518.518 0 00-.112.667.511.511 0 00.646.2c.42-.093 2.38-1.073 2.94-1.2 0 0 .52.127 1.013 1.18.493 1.053 3.933 3.667 3.933 3.667l4.067-4.1z" fill="#FFBE9D"/><path d="M149.686 218.653a1.237 1.237 0 01-1.446 0c-.454-.26-.8-.666-1.227-.96-1.287-.873-3.107-.626-4.347-1.56-.173-.133-.346-.346-.253-.546.093-.2.327-.207.527-.2l5.14.04" fill="#FFBE9D"/><path d="M148.08 215.447a2.062 2.062 0 00-.553-.06c-.36 0-.88-.047-1.52-.06l-2.247-.054h-.666a1.014 1.014 0 00-.754.167.43.43 0 00-.113.228.429.429 0 00.033.252.883.883 0 00.267.327c.206.155.43.284.667.386.869.306 1.761.547 2.666.72.375.101.733.259 1.06.467.3.193.554.44.814.667a1.813 1.813 0 001.453.486c.38-.08.5-.286.487-.286a1.487 1.487 0 01-.5.173 1.739 1.739 0 01-1.334-.533 10.076 10.076 0 00-.806-.667 4.258 4.258 0 00-1.127-.52 22.043 22.043 0 01-2.573-.807 3.122 3.122 0 01-.594-.346c-.166-.127-.253-.307-.16-.38.094-.074.32-.094.54-.087h2.914c.666 0 1.16 0 1.52-.033.176.006.353-.007.526-.04zm-11.98-1.9c.356.174.744.274 1.14.293.426.053.857.064 1.286.033.474-.06.994-.146 1.54-.226l1.16-.194h-.066c.866.337 1.758.604 2.666.8a16.038 16.038 0 00-2.606-1.066h-.04l-1.154.173-1.526.247a7.335 7.335 0 01-1.24 0 10.231 10.231 0 00-1.16-.06z" fill="#EB996E"/><path d="M169.26 349.5l5.6 10.4s-8.666 9.187-7.84 11.207L187.574 361l-8.06-16.56-10.254 5.06z" fill="#8FC045"/><path d="M180.78 355.873a.937.937 0 011.054.667.895.895 0 01-.667 1.047.995.995 0 01-1.113-.714.924.924 0 01.806-1.013" fill="#E0E0E0"/><path opacity=".6" d="M187.574 361l-.907-1.667-19.333 10.334s-.72.847-.3 1.44L187.574 361z" fill="#fff"/><path d="M174.48 359.96c.053.1.573-.1 1.227 0 .653.1 1.126.373 1.2.287.073-.087-.367-.587-1.16-.667-.794-.08-1.334.3-1.267.38zm-1.72 1.953c0 .114.546.067 1.093.32.547.254.873.667.973.607.1-.06-.12-.667-.813-.96-.693-.293-1.293-.06-1.253.033zm.053 3.187c.1 0 0-.593-.54-1.02-.54-.427-1.107-.407-1.107-.3 0 .107.433.253.867.607.433.353.673.753.78.713zm.654-7.653c.087.073.48-.294 1.06-.534.58-.24 1.12-.28 1.127-.393.006-.113-.587-.26-1.274.033-.686.294-1.006.84-.913.894zm-1.095-2.114a2.183 2.183 0 001.027-.513c.337-.252.644-.543.913-.867.161-.188.306-.388.434-.6.084-.122.149-.257.193-.4a.484.484 0 00-.213-.553.609.609 0 00-.554 0 1.423 1.423 0 00-.36.24 4.12 4.12 0 00-.533.54c-.28.324-.505.691-.667 1.087-.181.35-.248.749-.193 1.14.06 0 .14-.42.44-1.027.18-.349.404-.674.667-.967.152-.172.319-.331.5-.473.186-.167.373-.26.48-.193.106.066.046.046.033.126a1.08 1.08 0 01-.147.294c-.118.2-.247.394-.386.58a6.54 6.54 0 01-.807.873c-.48.44-.853.66-.827.713z" fill="#263238"/><path d="M172.573 355.407a1.78 1.78 0 00-.22-1.127 3.753 3.753 0 00-.667-1.053 3.495 3.495 0 00-.573-.5.96.96 0 00-.914-.194.534.534 0 00-.286.5c.006.146.033.289.08.427.079.238.193.463.34.667.248.356.58.647.966.846a1.53 1.53 0 001.134.214 10.35 10.35 0 01-.994-.454 2.503 2.503 0 01-.806-.806 2.465 2.465 0 01-.274-.6c-.073-.234-.08-.454 0-.474a.678.678 0 01.527.16 3.969 3.969 0 011.233 1.367c.314.62.394 1.04.454 1.027z" fill="#263238"/><path d="M174.746 358.507l-2.133 11.613s-12.52 1.74-13.127 3.847l22.38 4.94 4.06-17.967-11.18-2.433z" fill="#8FC045"/><path d="M179.747 370.68a.923.923 0 01.4 1.18.89.89 0 01-1.166.413.99.99 0 01-.42-1.253.932.932 0 011.266-.293" fill="#E0E0E0"/><path opacity=".6" d="M181.866 378.907l.334-1.827-21.58-4.08s-1.087.213-1.134.94l22.38 4.967z" fill="#fff"/><path d="M172.279 369.927c0 .113.514.28.974.753.46.473.666.993.753.973.087-.02.087-.666-.48-1.253-.567-.587-1.253-.58-1.247-.473zm-2.567.453c-.046.1.387.393.667.933s.273 1.06.38 1.08c.107.02.313-.587-.033-1.253-.347-.667-.987-.86-1.014-.76zm-1.953 2.513c.1.047.367-.466.22-1.126-.147-.66-.607-1.007-.667-.927-.06.08.18.467.294 1.013.113.547.046 1.007.153 1.04zm5.302-5.56c0 .114.553.074 1.166.247.614.173 1.047.48 1.12.4.074-.08-.3-.573-1.02-.773-.72-.2-1.306.033-1.266.126zm.466-2.333c.347.18.737.263 1.127.24.42.019.841-.015 1.253-.1.243-.05.481-.117.714-.2.142-.041.277-.104.4-.187a.492.492 0 00.18-.573.68.68 0 00-.427-.354 1.434 1.434 0 00-.433-.033 3.829 3.829 0 00-.747.08 4.082 4.082 0 00-1.187.453c-.626.367-.893.734-.86.767.034.033.374-.24.987-.52a4.238 4.238 0 011.813-.4c.247 0 .454.033.487.153.033.12 0 .06-.053.12a.964.964 0 01-.287.134 5.774 5.774 0 01-.667.206c-.378.109-.767.18-1.16.214-.379-.03-.76-.03-1.14 0z" fill="#263238"/><path d="M173.639 365.187c.034 0 .334-.32.534-1.02.109-.411.149-.836.12-1.26a3.79 3.79 0 00-.14-.74.951.951 0 00-.587-.727.558.558 0 00-.54.214 1.708 1.708 0 00-.207.386 2.625 2.625 0 00.06 2.014c.307.666.734.906.754.873a8.755 8.755 0 01-.5-.973 2.742 2.742 0 01-.12-1.134c.02-.229.074-.453.16-.666.086-.227.22-.4.306-.36.087.04.26.246.307.453.07.217.119.44.147.667.058.386.058.779 0 1.166-.147.694-.354 1.08-.294 1.107z" fill="#263238"/><path d="M185.006 251.587l-34.341 44.273a16.006 16.006 0 00-2.513 15.007l24.874 50.8 8.346-14.194-14.26-40.113 18.6-22.36 8.287-34.273-8.993.86z" fill="#263238"/><path d="M171.641 368.387l15.393-107.454.767-9.613 18.866-.987s6.6 10.28 6.914 16.574c.313 6.293-17.18 50.313-17.18 50.313l-2.514 17.567-10.553 37.173-11.693-3.573z" fill="#263238"/><path d="M187.641 253.32c.093 0-3.407 25.786-7.827 57.553-4.42 31.767-8.08 57.527-8.174 57.514-.093-.014 3.414-25.78 7.827-57.561 4.414-31.78 8.08-57.52 8.174-57.506zm-20.634 54.086c-.04.047-.42-.286-1.127-.666a7.132 7.132 0 00-6-.234c-.726.314-1.133.614-1.173.567a2.958 2.958 0 011.093-.74 6.503 6.503 0 016.2.24c.396.196.741.481 1.007.833zm40.786-50.506s-.133.107-.413.24a6.225 6.225 0 01-1.214.433 8.406 8.406 0 01-1.906.267 9.86 9.86 0 01-2.354-.233 10.223 10.223 0 01-2.213-.814 9 9 0 01-1.6-1.073 6.735 6.735 0 01-.907-.927c-.186-.24-.28-.38-.26-.393.02-.013.474.48 1.334 1.127a9.748 9.748 0 001.593.98c.687.327 1.407.582 2.147.76.744.165 1.504.25 2.266.253.623 0 1.244-.062 1.854-.187 1.033-.213 1.646-.493 1.673-.433zm-55.127 63.167a7.088 7.088 0 01-.594-1.054 80.998 80.998 0 01-1.5-2.933 43.493 43.493 0 01-1.953-4.493 24.17 24.17 0 01-.833-2.774 15.369 15.369 0 01-.427-3.093 12.973 12.973 0 01.273-3.12c.219-.948.517-1.876.894-2.773a24.205 24.205 0 012.42-4.26c.8-1.147 1.506-2 2-2.627.24-.3.446-.527.58-.667.062-.084.136-.158.22-.22a8.981 8.981 0 01-.7.987c-.46.62-1.134 1.52-1.9 2.667a25.1 25.1 0 00-2.327 4.253 17.254 17.254 0 00-.86 2.72 12.92 12.92 0 00-.26 3.033c.037 1.02.176 2.034.413 3.027.209.931.477 1.849.8 2.747.607 1.726 1.294 3.233 1.874 4.493l1.4 2.98.366.82c.05.09.088.187.114.287z" fill="#455A64"/><path d="M180.941 211.807L168.174 226.5l-16.553-9.16-5.787 5.793 21.493 14.727 9.587-.147 8.18-16.126-4.153-9.78z" fill="#8FC045"/><path d="M176.273 222.653l7.1 29.927 23.84-2.047L210.28 227l6.387-10.053s-1.58-9.447-12.06-9.52l-1.7-4-12.567 1.053-1.493 3.66s-10.34.74-10.1 10.127l-2.474 4.386z" fill="#8FC045"/><path opacity=".3" d="M182.3 248.087a12.478 12.478 0 0010.666-2.047 3.785 3.785 0 011.42-.82 3.462 3.462 0 011.707.247A31.534 31.534 0 00204 246.88a5.543 5.543 0 002.746-.367 2.146 2.146 0 001.274-2.26 73.366 73.366 0 00-12.4-3.333c-2.194-.387-4.46-.667-6.634-.18-2.173.487-4.186 1.78-6.093 3.04-.536.269-.966.71-1.22 1.253-.373 1.1.74 2.254.513 3.394" fill="#000"/><path d="M200.18 216.566c.666.607 9.533 15.807 9.533 15.807l-14.16 3.093-.487 6.98 13.927 2 6.26.667a8.06 8.06 0 007.26-3.127 8.053 8.053 0 00.993-8.046l-7.233-18.414-16.093 1.04z" fill="#8FC045"/><path d="M213.613 232.334c0 .093-4 .88-9 1.746-5 .867-9.047 1.494-9.06 1.4-.014-.093 4-.873 9-1.746 5-.874 9.046-1.507 9.06-1.4z" fill="#263238"/><path d="M210.26 232.887a4.495 4.495 0 01-.38-.76c-.24-.56-.546-1.274-.913-2.114a478.03 478.03 0 01-2.893-7.02 490.21 490.21 0 01-1.554-3.886 7.066 7.066 0 01-.62-3.394c.09-.79.45-1.525 1.02-2.08.158-.146.333-.274.52-.38a.67.67 0 01.207-.08 8.033 8.033 0 00-.627.554 3.461 3.461 0 00-.873 2 7.007 7.007 0 00.667 3.246c.493 1.194 1.02 2.5 1.58 3.867a509.33 509.33 0 012.8 7.06c.326.86.6 1.58.813 2.16.12.263.205.541.253.827zm7.266 12.293a3.77 3.77 0 01-.894.033c-.573 0-1.406 0-2.426-.073-2.054-.107-4.874-.36-8-.793-3.127-.434-5.894-.914-7.907-1.26l-2.393-.433a4.027 4.027 0 01-.867-.207 5.14 5.14 0 01.893.073c.567.067 1.387.174 2.4.32 2 .293 4.827.733 7.92 1.16 3.094.427 5.9.727 7.94.893l2.42.187c.307.004.613.037.914.1zm-36.94-9.426a8.65 8.65 0 00-.374-2.527c-.213-.767-.566-1.653-.833-2.7a5.32 5.32 0 01-.187-1.693c.049-.61.177-1.211.38-1.787a28.414 28.414 0 013.007-5.52l1.027-1.593c.112-.206.244-.4.393-.58-.054.235-.146.46-.273.666-.207.4-.527.967-.94 1.654a34.238 34.238 0 00-2.887 5.506 6.917 6.917 0 00-.367 1.694 4.907 4.907 0 00.16 1.6c.234 1.02.567 1.92.76 2.706.169.619.25 1.259.24 1.9a2.746 2.746 0 01-.053.52c-.027.1-.04.16-.053.154zm11.667-27.081a6.66 6.66 0 01-.047-2.173 6.855 6.855 0 01.3-2.153 7.1 7.1 0 01.047 2.173 7.163 7.163 0 01-.3 2.153zm4.66-.42a13.259 13.259 0 01-.667-4.247c.285.665.458 1.373.514 2.094.164.705.216 1.432.153 2.153zm4.026-.773a9.653 9.653 0 01-1.027-3.5 9.653 9.653 0 011.027 3.5z" fill="#263238"/><path opacity=".3" d="M204.279 218.653c.074 4.56.887 8.34.96 12.9-.025.443.05.885.22 1.294.514.986 1.674.666 2.78.626a10.42 10.42 0 001.694-.36 1.488 1.488 0 00-.14-1.006c-1.84-4.74-3.674-8.72-5.514-13.454z" fill="#000"/><path d="M153.953 227.68l6.847 6.6 11.053 10.653 19.013-.947-15.393-17.38-21.52 1.074z" fill="#263238"/><path d="M156.953 227.48s-4.966 2.207.094 6c5.06 3.793 12 5.233 13.04 8a4.67 4.67 0 01-.667 4.667l14.567-.667s4.326-3.733 1.1-7.06c-3.227-3.327-11.694-8.087-12.674-9.42-.98-1.333 1.38-2.34 1.38-2.34l-16.84.82z" fill="#E0E0E0"/><path d="M161.566 227.266l-.574-.673 7.86-.487v.814l-7.286.346z" fill="#455A64"/><path d="M171.132 229.487a9.62 9.62 0 01-1.953.3 107.82 107.82 0 01-4.753.373c-1.86.107-3.547.14-4.774.113a8.393 8.393 0 01-2-.166c.665-.063 1.333-.09 2-.08 1.214 0 2.9-.114 4.754-.214l4.753-.273a13.829 13.829 0 011.973-.053zm1.535 2.18a59.752 59.752 0 01-6.367.473 60.362 60.362 0 01-6.38.133 56.727 56.727 0 016.367-.48 59.04 59.04 0 016.38-.126zm3.386 1.846a9.214 9.214 0 01-1.827.32c-1.133.154-2.667.32-4.44.46-1.773.14-3.333.207-4.46.234a9.255 9.255 0 01-1.853-.04 10.338 10.338 0 011.84-.207l4.446-.333 4.44-.354c.615-.08 1.235-.106 1.854-.08zm2.287 2.493c-1.801.315-3.62.518-5.447.607a43.692 43.692 0 01-5.473.26 43.676 43.676 0 015.447-.607 42.215 42.215 0 015.473-.26zm3.427 2.241a41.638 41.638 0 01-5.274.726 40.851 40.851 0 01-5.3.38 41.171 41.171 0 015.267-.726 39.416 39.416 0 015.307-.38zm1.6 3.166a7.124 7.124 0 01-1.58.26c-.98.114-2.334.234-3.84.307a64.99 64.99 0 01-3.847.08 6.863 6.863 0 01-1.6-.107 8.601 8.601 0 011.593-.14l3.84-.18 3.834-.206a7.315 7.315 0 011.6-.014z" fill="#FAFAFA"/><path d="M195.074 242.333l-3.614-.566-13.46.326s-.7-.2-.093-.586c.293-.187 5.247-1.414 5.247-1.414l-7.107.574a9.329 9.329 0 012.707-3.24c1.72-1.174 5.053-1.934 5.053-1.934l-2.153-1.633s7.033-.92 7.94-.12c.906.8 2 2.053 2 2.053l3.886-.04" fill="#FFBE9D"/><path d="M185.632 239.7c0 .1-2.126.167-4.726.42s-4.707.573-4.72.473a5.116 5.116 0 011.333-.353 37.306 37.306 0 016.7-.633 5.277 5.277 0 011.413.093zm-.412-1.753c-1.323.36-2.675.609-4.04.746a23.244 23.244 0 01-4.086.4 24.954 24.954 0 014.04-.76 24.137 24.137 0 014.086-.386z" fill="#EB996E"/><path d="M119.353 200.813l-.607 1.994h9.647l-.514-1.354-8.526-.64z" fill="#455A64"/><path d="M128.699 207.12l-.16-.126h-9.946l-.154.126h10.26z" fill="#263238"/><path d="M127.026 218.154l2.04-15.067h-11l2.047 15.067s4.193.606 6.913 0z" fill="#263238"/><path d="M129.199 203.314h-11.26v-.174a.906.906 0 01.262-.638.89.89 0 01.638-.262h9.46a.9.9 0 01.9.9v.174z" fill="#455A64"/><path d="M127.913 213.007h-8.687l-.787-5.887h10.26l-.786 5.887z" fill="#E0E0E0"/><path d="M124.787 211c.56-.993.866-2.22-.26-2.933 0 0-1.067-.667-2.24.607-.914 1-1.333 2.173-.607 3.073.894 1.1 2.54.26 3.107-.747zm-1.753-.153a2.32 2.32 0 00-.94 1.107c-.107-.714.2-1.114 1.253-1.934a2.659 2.659 0 001.1-1.82c.56 1.354-.66 2.134-1.413 2.654v-.007zm-3.809-9.614l1.88.274v.386h-2.08l.2-.66z" fill="#263238"/><path d="M122.567 211.153s-16.147 16.234-17.58 16.667c0 0-4.9-9.547-5.333-9.893l-9.414 5.293 5.52 11.84a8.799 8.799 0 0014.907 2.607l15.867-18.707 3.2-3.547A8.363 8.363 0 00131 212.18a5.738 5.738 0 00-.133-2.16 2.17 2.17 0 00-.087-1.673 1.237 1.237 0 00-.866-.567c.7-1.733-1.2-2.593-2.154-1.16" fill="#AA6550"/><path d="M121.999 211.747a3.748 3.748 0 00-1.46-2 4.076 4.076 0 00-2.24-.88s.193-1.16 2.106-.907c1.914.253 2.434 1.493 4.8.907l.514 2.213-3.72.667z" fill="#AA6550"/><path d="M130.087 207.474c.087.04-.187.726-.82 1.333s-1.333.933-1.333.853c0-.08.52-.486 1.106-1.093.587-.607.96-1.14 1.047-1.093zm.739 2.5c.087 0-.06.526-.453.993-.394.467-.847.707-.9.627-.054-.08.273-.414.633-.847s.627-.82.72-.773zm-27.193 24.36c-.12-1.173-.05-2.357.207-3.507a10.7 10.7 0 011-3.373c.093 0-.334 1.533-.667 3.426-.333 1.894-.433 3.454-.54 3.454z" fill="#995037"/><path d="M45.587 201.954l-.607 1.986h9.64l-.506-1.353-8.527-.633z" fill="#455A64"/><path d="M54.933 208.26l-.16-.133h-9.947l-.16.133h10.267z" fill="#263238"/><path d="M53.252 219.287l2.08-15.06H44.3l2.047 15.06s4.186.613 6.906 0z" fill="#263238"/><path d="M55.434 204.454h-11.26v-.18a.901.901 0 01.9-.9h9.453a.905.905 0 01.907.9v.18z" fill="#455A64"/><path d="M54.146 214.14h-8.693l-.787-5.88h10.267l-.787 5.88z" fill="#E0E0E0"/><path d="M51.014 212.147c.56-1 .873-2.227-.253-2.94 0 0-1.067-.667-2.247.607-.907 1.006-1.333 2.173-.6 3.08.893 1.086 2.54.246 3.1-.747zm-1.753-.16c-.421.265-.75.654-.94 1.113-.1-.72.2-1.12 1.253-1.933a2.722 2.722 0 001.093-1.827c.574 1.354-.666 2.127-1.406 2.647zm-3.801-9.62l1.873.274v.386H45.26l.2-.66z" fill="#263238"/><path d="M45.586 241.767s-1.913-2.26-1.42-18.387l-.113-8.667 7.513-2.266 5.193 29.22-11.173.1z" fill="#AA6550"/><path d="M51.333 213a4.96 4.96 0 011.64-2.267 4.087 4.087 0 012.24-.873s-.193-1.167-2.113-.907-2.427 1.494-4.794.907l-2.74 4.893L51.333 213z" fill="#AA6550"/><path d="M48.806 210.253c-.113-.3-4-3.42-4-3.42s-2 .081-1.253 1.9a1.64 1.64 0 00-.96 1.037 1.632 1.632 0 00.207 1.397s-.88.633-.26 2.4a16.165 16.165 0 001.693 3.333l4.573-6.647zm1.067 17.234L45.5 237.933a5.928 5.928 0 003.833 7.434 5.919 5.919 0 007.427-3.7l3.507-10.334-10.394-3.846z" fill="#AA6550"/><path d="M45.893 237.08c.052-.496.17-.982.353-1.446.273-.88.667-2.08 1.213-3.38.547-1.3 1.067-2.454 1.48-3.274.19-.469.444-.911.754-1.313a7.12 7.12 0 01-.534 1.393c-.353.847-.853 2-1.38 3.3-.526 1.3-.973 2.48-1.333 3.334a7.443 7.443 0 01-.553 1.386z" fill="#995037"/><path d="M48.979 229.294c0 .106-.747.206-1.493.726-.747.52-1.134 1.174-1.22 1.127-.087-.047.18-.847 1.02-1.413a2.047 2.047 0 011.693-.44z" fill="#995037"/><path d="M67.54 173.48c.433 1.254-1.054 2.327-2.347 2.62-1.293.294-2.867.487-3.46 1.674-.513 1.033 0 2.34-.46 3.393-.887 2-4.487 1.587-5.193 3.66-.48 1.42.853 2.893.666 4.387-.14 1.286-1.333 2.166-2.353 2.94-1.02.773-2.127 1.86-1.96 3.146.187 1.48 2 2.507 1.833 4-.166 1.494-2.14 2.14-2.426 3.587-.334 1.713 1.813 2.82 2.5 4.427.533 1.226.206 2.806 1.093 3.8.887.993 2.567.82 3.9.553l13.333-2.827c-.9-2.113-.053-4.58 1.234-6.48 1.286-1.9 3-3.5 4.1-5.513 1.1-2.013 1.466-4.7 0-6.48m13.006-6.213a14.808 14.808 0 00-.44-2.107 2 2 0 00-.533-.867c-.26-.253-.607-.093-.82.267a6.455 6.455 0 000 5.407c.213.36.56.52.82.273.246-.241.429-.539.533-.867.197-.691.344-1.394.44-2.106.052.191.068.39.047.586a5.882 5.882 0 01-.253 1.6 2.349 2.349 0 01-.58 1.007.742.742 0 01-.714.167 1.212 1.212 0 01-.56-.48 6.517 6.517 0 010-5.767c.131-.214.328-.38.56-.473a.716.716 0 01.713.166c.277.279.476.623.58 1 .158.52.244 1.058.254 1.6.02.199.005.401-.047.594z" fill="#263238"/><path d="M69.233 196.44c-2.413-4.08-3.1-9.513-3.713-14.213-.287-2.213-.794-5.333.766-6.747 1.667-1.48 1.827-3.766 3.74-4.906a5.885 5.885 0 016.32.066" fill="#263238"/><path d="M75.927 210.887a6.533 6.533 0 006.427-3.716 6.53 6.53 0 00.626-2.538c.154-3.566.28-7.166.28-7.166s5.407-.467 5.807-5.8c.4-5.334.267-17.674.267-17.674a18.63 18.63 0 00-18.82 1.154l.28 18.806v10.114c-.007 3.36 1.746 6.553 5.133 6.82z" fill="#AA6550"/><path d="M83.76 185.1a2.723 2.723 0 00-3.647-.806 3.098 3.098 0 00-1.047 3.88 4.112 4.112 0 002.613 2 2.046 2.046 0 011.6 2.213c-.153 1.333-2.386 1.84-3.4 2.947-1.566 1.72-5.006 2.44-7.333 2.706-2.327.267-2 .287-3.333-1.586a7.24 7.24 0 01-1.287-4.34c-.067-3.938-.136-7.878-.207-11.82a17.03 17.03 0 01.28-4.24 5.705 5.705 0 012.247-3.5c1.3-.854 2.947-.92 4.433-1.394 1.854-.593 3.427-1.82 5.16-2.7 1.734-.88 3.86-1.4 5.594-.526 1.246.666 2.08 1.88 3.286 2.573 1.727.987 4.08.773 4.914 3.333.28.887.266 1.842-.04 2.72-1.18 3.447-5.467 4.834-8.547 3.334-.06.586.513 1.893-.107 3.74-.2.586-.273 1.493-1.2 1.506" fill="#263238"/><path d="M82.792 188.434s0 .1-.073.226a.8.8 0 01-.593.3 1.47 1.47 0 01-1.38-1.48 1.54 1.54 0 01.393-1.133c.226-.24.518-.407.84-.48.546-.113.867.093.84.127-.027.033-.327 0-.767.133a1.332 1.332 0 00-.927 1.333 1.241 1.241 0 001 1.227c.447.027.634-.293.667-.253z" fill="#995037"/><path d="M91.02 183.894a19.5 19.5 0 01-3.6.766c-1.2.254-2.42.394-3.647.42a19.958 19.958 0 013.594-.766 19.599 19.599 0 013.653-.42zm-21.354 17.773a1.557 1.557 0 001.853.747 4.488 4.488 0 001.8-1.22 4.67 4.67 0 011.78-1.247c1.42-.433 3.167.52 4.367-.367 1.086-.8.946-2.626 2-3.453.566-.447 1.333-.5 1.94-.927 1.08-.8.906-2.586 0-3.58-.907-.993-2.28-1.4-3.574-1.76l-11.486 4.894 1.32 6.913z" fill="#263238"/><path d="M83.332 180.907l-.1.066a2.206 2.206 0 01-.3.174 6.785 6.785 0 01-1.26.453c-.685.158-1.38.267-2.08.327a22.1 22.1 0 00-2.747.38 5.2 5.2 0 00-2.833 1.546c-.773.9-1.06 2.194-1.66 3.447a4.5 4.5 0 01-1.333 1.68 6.995 6.995 0 01-2 .987c-1.407.473-2.96.753-4.134 1.753a2.907 2.907 0 00-1.06 1.873 13.164 13.164 0 000 2.234 3.646 3.646 0 01-2 3.693c-1.2.707-2.46 1.087-3.466 1.727a3.994 3.994 0 00-1.234 1.14c-.28.437-.441.941-.466 1.46-.002.917.124 1.83.373 2.713.169.691.232 1.404.187 2.113a2.91 2.91 0 01-.38 1.28 1.33 1.33 0 01-.294.367c.333-.491.52-1.067.54-1.66a7.151 7.151 0 00-.246-2.053 10.14 10.14 0 01-.427-2.774 3.23 3.23 0 01.487-1.593 4.308 4.308 0 011.333-1.24c1.047-.667 2.307-1.06 3.453-1.753a3.781 3.781 0 001.427-1.38 3.828 3.828 0 00.373-2.034 13.783 13.783 0 010-2.286c.12-.82.54-1.567 1.18-2.094 1.274-1.073 2.88-1.333 4.254-1.813a6.467 6.467 0 001.906-.927c.54-.409.97-.945 1.254-1.56.586-1.193.886-2.52 1.726-3.486a5.458 5.458 0 013-1.6 21.65 21.65 0 012.78-.334 15.721 15.721 0 002.074-.266 10.155 10.155 0 001.673-.56z" fill="#455A64"/><path d="M80.213 182.82c0 .034-.414 0-1.12.16a5.033 5.033 0 00-2.574 1.54 4.672 4.672 0 00-1.026 1.794 7.903 7.903 0 00-.207 2.4 6.267 6.267 0 01-.4 2.74 2.754 2.754 0 01-1 1.126 11.48 11.48 0 01-1.333.707 3.363 3.363 0 00-1.14.813 2 2 0 00-.447 1.227c-.067.893.127 1.887-.307 2.74a4.555 4.555 0 01-1.786 1.773c-.667.4-1.334.667-1.887 1.027-.51.279-.962.653-1.333 1.1a3.043 3.043 0 00-.574 1.153 2.668 2.668 0 000 1.107.604.604 0 01-.113-.273 1.902 1.902 0 01-.04-.86 3.05 3.05 0 01.553-1.247 4.66 4.66 0 011.334-1.187c.56-.36 1.213-.666 1.86-1.066a4.217 4.217 0 001.646-1.667c.38-.74.207-1.653.26-2.62a2.35 2.35 0 01.52-1.427 3.7 3.7 0 011.254-.9c.9-.44 1.806-.84 2.173-1.68.318-.823.45-1.706.387-2.586a8.197 8.197 0 01.253-2.487 4.82 4.82 0 011.12-1.873 5.024 5.024 0 012.727-1.507c.28-.053.567-.075.853-.067a.867.867 0 01.347.04z" fill="#455A64"/><path d="M61.839 249.72l3.72-10.806-2.587-13.114-2 5.787L48.445 227s8.1-16.186 8.5-17.04c3.707-7.773 13.567-7.773 13.567-7.773l12.553.327a13.72 13.72 0 0110.787 4.186c3.593 3.62 11.793 19.467 11.793 19.467l-13.213 4.113-2.613-4.886.76 10.273 2.6 15.707-31.34-1.654z" fill="#E0E0E0"/><path d="M93.385 206.247c0 .093-7.626.173-17.026.173-9.4 0-17.027-.086-17.027-.173s7.627-.18 17.033-.18c9.407 0 17.02.08 17.02.18z" fill="#8FC045"/><path d="M88.053 205.867c0 .04-.353.053-.92.293a4.254 4.254 0 00-1.913 1.707 5.693 5.693 0 00-.78 3.7c.24 1.582.74 3.114 1.48 4.533 1.46 3.114 2.746 5.96 3.666 8l1.067 2.447c.147.294.263.602.347.92a5.042 5.042 0 01-.48-.853c-.307-.634-.707-1.44-1.18-2.4-.98-2-2.3-4.847-3.767-8a14.37 14.37 0 01-1.487-4.667 5.902 5.902 0 01.907-3.887 4.178 4.178 0 012.087-1.7c.23-.089.473-.14.72-.153.2.047.253.047.253.06zm-22.367 33.64c-.106 0-1.613-6.787-3.333-15.194-1.72-8.406-3.12-15.253-3.02-15.273.1-.02 1.607 6.78 3.334 15.193 1.726 8.414 3.12 15.247 3.02 15.274zm18.86-10.207c.045.301.045.606 0 .907a8.586 8.586 0 01-.606 2.393 11.647 11.647 0 01-5.487 5.854 16.123 16.123 0 01-7.92 1.586 18.59 18.59 0 01-2.447-.246 3.854 3.854 0 01-.873-.207c0-.073 1.273.167 3.333.187a16.906 16.906 0 007.74-1.66 11.811 11.811 0 005.414-5.62 13.04 13.04 0 00.846-3.194z" fill="#263238"/><path d="M97.647 211.874c0 .1-9.334.18-20.82.18-11.487 0-20.827-.08-20.827-.18 0-.1 9.333-.174 20.82-.174s20.827.08 20.827.174zm3.078 5.24c0 .1-10.553.173-23.56.173-13.006 0-23.56-.073-23.56-.173 0-.1 10.547-.174 23.56-.174 13.014 0 23.56.06 23.56.174zm2.074 4.806c0 .094-11.586.174-25.873.174s-25.873-.08-25.873-.174c0-.093 11.586-.173 25.873-.173s25.873.073 25.873.173zm-40.733 5.867a11.435 11.435 0 01-1.8-.493c-1.1-.327-2.62-.78-4.307-1.227-1.687-.447-3.24-.813-4.354-1.073a10.518 10.518 0 01-1.806-.467 9.637 9.637 0 011.853.227c1.133.2 2.667.526 4.393.973 1.727.447 3.214.94 4.294 1.333a8.67 8.67 0 011.727.727zm28.048-.86a6.135 6.135 0 01-1.067.033h-2.913l-9.594-.1H64.033a5.853 5.853 0 01-1.066-.047 7.33 7.33 0 011.067-.093c.666-.033 1.68-.073 2.906-.107a283.72 283.72 0 019.6-.106c3.747.02 7.147.1 9.6.2 1.227.046 2.22.093 2.907.14a6.57 6.57 0 011.067.08zm14.673-2.4h-.067l-.4.08-1.5.26a313.299 313.299 0 01-9.926 1.507c-.685.124-1.378.19-2.074.2a12.362 12.362 0 012.04-.44c1.26-.227 3.014-.52 4.954-.814 1.94-.293 3.693-.54 4.973-.666.633-.08 1.153-.127 1.513-.154.14-.009.28-.009.42 0 .047 0 .074 0 .12.034.047.033-.046-.007-.053-.007zm-20.835 7.053c0 .093-4.433.173-9.9.173-5.466 0-9.9-.08-9.9-.173 0-.093 4.434-.173 9.9-.173 5.467 0 9.9.073 9.9.173zm6.402 1.6a16.84 16.84 0 01-3.38.173 16.84 16.84 0 01-3.38-.173 16.27 16.27 0 013.38-.173 16.27 16.27 0 013.38.173zm-10.727 4.214c-.69.11-1.388.162-2.087.153a78.12 78.12 0 01-5.033 0 113.78 113.78 0 01-5.033-.247 11.759 11.759 0 01-2.074-.253 12.753 12.753 0 012.087 0l5.027.147 5.026.086c.698-.019 1.396.019 2.087.114zm11.259 1.413a65.118 65.118 0 01-6.787.173c-2.264.06-4.529.003-6.787-.173a67.11 67.11 0 016.787-.173 67.106 67.106 0 016.787.173zm1.02 4.92a6.15 6.15 0 01-1.094.047H87.84c-2.513 0-6-.094-9.82-.214-3.82-.12-7.333-.273-9.813-.426-1.254-.087-2.267-.154-2.967-.22a7.943 7.943 0 01-1.087-.134 5.88 5.88 0 011.094 0l2.973.107 9.813.327 9.814.313 2.973.12c.364-.005.727.022 1.087.08zm.926 5.58c-.397.03-.796.03-1.193 0l-3.233-.127c-2.727-.12-6.494-.306-10.667-.54-4.173-.233-7.927-.46-10.667-.666l-3.233-.234a9.459 9.459 0 01-1.187-.133 7.125 7.125 0 011.187 0l3.233.127c2.727.12 6.5.313 10.667.546 4.167.234 7.933.46 10.667.667l3.226.233c.403.008.805.05 1.2.127z" fill="#8FC045"/><path opacity=".2" d="M66.613 238.667c2.354 1.76 5.827 1.173 8.734.667a12.67 12.67 0 007.6-4.12 5.08 5.08 0 001.413-3.594c-.113-1.333-1.28-2.593-2.593-2.433-1.5.18-2.227 1.867-2.954 3.2a11.654 11.654 0 01-12.146 5.733s-.474.214-.054.547zm17.934-25.573c.733 5.926 1.693 10.786 2.927 16.62.606 2.873 1.333 5.873 3.333 8.04l-1.133-13.134-5.127-11.526z" fill="#000"/><path d="M67.733 200.727a4.258 4.258 0 00-2 6.36c.303.324.493.739.54 1.18-.053 1.053-1.753 1.08-2.293 2a1.64 1.64 0 00.453 1.913c.557.434 1.145.826 1.76 1.174a2.138 2.138 0 011.08 1.713c.594 0 .947-.733.853-1.333a5.697 5.697 0 00-.733-1.62 1.707 1.707 0 01-.073-1.7c.393-.554 1.187-.574 1.82-.82a2.542 2.542 0 001.333-3.26c-.386-.86-1.273-1.727-.84-2.554.24-.466.8-.666 1.254-.9a3.269 3.269 0 001.41-4.18 3.266 3.266 0 00-.984-1.26" fill="#263238"/><path d="M55.62 302.134L51.9 371.04l11.36 2.747 8.52-70.2-16.16-1.453z" fill="#AA6550"/><path d="M51.56 370.773l-1.933 8.514H62.7l.56-5.54-11.7-2.974z" fill="#8FC045"/><path d="M62.967 378.054a9.588 9.588 0 01-1.9.106c-1.18 0-2.806 0-4.6-.086l-4.587-.194a10.083 10.083 0 01-1.9-.153 9.43 9.43 0 011.907-.1c1.18 0 2.8 0 4.593.087l4.587.193a10.6 10.6 0 011.9.147z" fill="#263238"/><path d="M57.427 372.434c.12.916.12 1.844 0 2.76a10.4 10.4 0 01-.367 2.726 10.391 10.391 0 010-2.753c.004-.923.127-1.842.367-2.733z" fill="#263238"/><path opacity=".6" d="M49.627 379.287H62.7l.127-1.233-12.967-.327-.233 1.413" fill="#fff"/><path d="M96.732 354.927l2.76 20.78 10.054-.7-2.114-19.054-10.7-1.026z" fill="#AA6550"/><path d="M109.653 372.753s11.334 3.82 11.487 5.88l-21.607.627-.193-5.647.793.16c3.203.635 6.524.28 9.52-1.02z" fill="#8FC045"/><path opacity=".6" d="M101.865 374.6a.882.882 0 00-.58 1.02.85.85 0 001.007.587.935.935 0 00.613-1.087.885.885 0 00-1.12-.493m-2.252 4.633v-1.753l20.714.053s.973.394.886 1.074l-21.6.626z" fill="#fff"/><path d="M110 372.634c0 .106-.526.166-1.04.526-.513.36-.766.8-.866.767-.1-.033.04-.667.666-1.073.627-.407 1.24-.32 1.24-.22zm2.294.873c0 .1-.427.293-.774.747-.346.453-.433.933-.54.933-.106 0-.186-.6.254-1.153.44-.554 1.053-.627 1.06-.527zm1.365 2.673c-.1 0-.26-.5 0-1.086.26-.587.74-.827.786-.74.047.086-.246.406-.446.886s-.24.927-.34.94z" fill="#263238"/><path d="M109.759 372.58a2.082 2.082 0 01-1.08 0 4.904 4.904 0 01-1.773-.627 1.245 1.245 0 01-.334-.246.467.467 0 01-.066-.56.576.576 0 01.453-.254c.139-.006.279.01.413.047.229.046.452.116.667.207.37.155.714.367 1.02.626.513.454.7.84.667.86-.034.02-.3-.286-.82-.666a4.093 4.093 0 00-1.607-.687c-.233-.053-.427-.053-.48.053-.053.107 0 .054 0 .12.075.069.158.13.247.18a5.943 5.943 0 001.64.68c.357.062.709.151 1.053.267z" fill="#263238"/><path d="M109.626 372.733a1.753 1.753 0 01-.313-1.033 3.53 3.53 0 01.367-1.86.879.879 0 01.666-.567.511.511 0 01.46.287c.059.125.099.257.12.393.04.241.04.487 0 .727a2.427 2.427 0 01-.426 1.133c-.407.574-.84.714-.854.667.23-.256.442-.528.634-.813.178-.316.285-.666.313-1.027a2.153 2.153 0 00-.04-.62c-.04-.233-.133-.413-.213-.387a.835.835 0 00-.374.367 3.79 3.79 0 00-.426 1.68c.02.653.146 1.04.086 1.053z" fill="#263238"/><path d="M61.84 249.72s-8 13.334-8 21.294l-2 97.073 13.786 2 9.707-94.84s22.067 96.087 22.814 96.087c.746 0 12.213-2.054 12.213-2.054L92.973 250.154l-31.133-.434z" fill="#8FC045"/><path d="M84.093 277.387c0 .107-4.227-.833-9.38-2.087-5.153-1.253-9.334-2.366-9.287-2.466.047-.1 4.227.833 9.38 2.093 5.154 1.26 9.314 2.36 9.287 2.46zM66.96 273.62c.006.082.006.165 0 .247l-.107.713c-.1.667-.246 1.567-.433 2.733-.387 2.38-.927 5.814-1.567 10.074a728.047 728.047 0 00-4.226 33.333c-1.347 13.047-2.18 24.947-2.627 33.52-.233 4.3-.4 7.773-.5 10.18l-.133 2.767-.034.72c.007.082.007.164 0 .246a1.464 1.464 0 010-.246v-.72c0-.667 0-1.587.06-2.774.06-2.406.194-5.886.394-10.186a627.648 627.648 0 012.526-33.534c1.34-13.066 2.974-24.846 4.32-33.333a456.872 456.872 0 011.68-10.053c.214-1.167.38-2.08.5-2.727.06-.293.107-.533.14-.707a1.197 1.197 0 01.007-.253zm19.946 1.607c.094 0 3.934 21.287 8.58 47.573 4.647 26.287 8.34 47.627 8.247 47.647-.093.02-3.94-21.287-8.587-47.587-4.646-26.3-8.34-47.613-8.24-47.633z" fill="#263238"/><path d="M52.667 195c.184.177.347.373.487.587.416.558.754 1.17 1.006 1.82.172.462.251.953.234 1.446a3.062 3.062 0 01-.554 1.594c-.326.5-.746.94-1.12 1.426a2.99 2.99 0 00-.666 1.66c.005.616.18 1.218.506 1.74.31.51.648 1.002 1.014 1.474.334.443.616.924.84 1.433.185.455.278.942.273 1.433a5.19 5.19 0 00.1 1.14c.07.274.21.524.407.727.183.175.416.292.666.333 0 0-.313.107-.72-.233a1.755 1.755 0 01-.506-.767 5.327 5.327 0 01-.16-1.186 3.497 3.497 0 00-.294-1.334 6.806 6.806 0 00-.833-1.333c-.379-.474-.729-.97-1.047-1.487a3.623 3.623 0 01-.56-1.926 3.238 3.238 0 01.7-1.88c.387-.5.807-.934 1.12-1.4a2.998 2.998 0 00.354-2.78 8.96 8.96 0 00-.887-1.827 3.627 3.627 0 01-.36-.66z" fill="#455A64"/><path d="M470.86 346.78h-38.567v5.3h38.567v-5.3z" fill="#263238"/><path d="M470.933 352.146h-38.706v-5.433h38.706v5.433zm-38.573-.133h38.44v-5.167h-38.44v5.167z" fill="#263238"/><path d="M435.873 350.313l5.547 27.393h20.546l5.367-25.626-31.46-1.767z" fill="#263238"/><path d="M435.873 375.113l2.96 4.074H463.8l3.533-4.074h-31.46zm14.261-24c-.08 0-.174-12.666-.22-28.333-.047-15.667 0-28.34.06-28.34s.173 12.667.213 28.34c.04 15.673.02 28.333-.053 28.333zm8.593-31.753a2.018 2.018 0 01-.106.3c-.094.213-.207.487-.347.82l-.247.587-.26.72c-.093.26-.193.54-.3.826-.106.287-.18.614-.28.947a38.3 38.3 0 00-1.08 4.72 58.184 58.184 0 00-.6 5.907 79.915 79.915 0 00.307 10.786c.127 1.38.247 2.487.34 3.26l.1.887c.012.102.012.205 0 .307a1.29 1.29 0 01-.067-.3c-.04-.234-.093-.527-.153-.88-.12-.767-.28-1.874-.427-3.254a70.971 70.971 0 01-.386-10.82c.098-1.987.305-3.968.62-5.933a36.195 36.195 0 011.146-4.74c.107-.327.194-.667.307-.94l.32-.827.273-.713.28-.587c.16-.326.287-.593.394-.8.041-.099.098-.191.166-.273z" fill="#263238"/><path d="M457.74 309.1a2.943 2.943 0 01-.127.42l-.4 1.18-.293.846c-.1.32-.2.667-.314 1.027-.226.733-.486 1.567-.72 2.507-.12.466-.253.96-.386 1.466-.134.507-.234 1.054-.36 1.607-.267 1.1-.467 2.3-.714 3.553-.426 2.52-.8 5.334-1.06 8.247-.26 2.913-.346 5.753-.386 8.307-.04 2.553 0 4.86.133 6.793a70.3 70.3 0 00.147 2.607c.053.766.093 1.426.14 1.966.046.54.073.934.093 1.24.016.146.016.294 0 .44a2.867 2.867 0 01-.067-.433c-.04-.307-.086-.72-.146-1.24s-.127-1.193-.187-1.96c-.06-.767-.14-1.64-.187-2.613-.133-1.934-.186-4.24-.193-6.8-.007-2.56.127-5.38.367-8.334.24-2.953.666-5.74 1.086-8.26.254-1.26.46-2.46.74-3.566.127-.554.254-1.087.374-1.607s.28-1 .406-1.467c.247-.933.52-1.766.76-2.5.12-.366.234-.706.334-1.02.1-.313.22-.586.32-.846l.446-1.16c.048-.141.113-.276.194-.4zm-10.046 44.26a.453.453 0 010-.147c0-.115-.013-.262-.04-.44 0-.4-.066-.966-.113-1.68-.093-1.48-.227-3.586-.387-6.18-.333-5.22-.82-12.426-1.693-20.353a263.3 263.3 0 00-1.513-11.14c-.287-1.7-.547-3.333-.847-4.833-.3-1.5-.56-2.914-.827-4.194-.267-1.28-.54-2.426-.766-3.44a97.793 97.793 0 00-.62-2.593c-.18-.713-.307-1.24-.4-1.633l-.1-.427a.404.404 0 010-.147c.018.046.033.093.046.14l.127.42c.107.394.26.934.453 1.62.194.687.427 1.574.667 2.587.24 1.013.54 2.153.807 3.433.266 1.28.586 2.667.866 4.194.28 1.526.574 3.126.874 4.833.553 3.413 1.08 7.18 1.526 11.153.88 7.934 1.334 15.147 1.62 20.367.14 2.613.24 4.727.3 6.187 0 .72.047 1.28.06 1.686v.434a.549.549 0 01-.04.153z" fill="#263238"/><path d="M449.821 300.533c-.173-1.793-2-3.153-3.793-3.167a6 6 0 00-4.593 2.487 14.358 14.358 0 00-2.207 4.913 33.25 33.25 0 00-1.333 13.06 19.771 19.771 0 005.44 11.774c.506.5 1.173 1.006 1.873.853.375-.114.715-.323.987-.607a29.247 29.247 0 009.486-22.226 9.068 9.068 0 00-1.193-4.78c-.92-1.387-3.067-2.86-4.633-2.307m-13.514-14.393c-.853 1.533-1.702 3.066-2.547 4.6-.06.113-.14.233-.26.24-.12.006-.233-.114-.306-.227l-6.72-10.32 1.546-.873 8.287 6.58z" fill="#8FC045"/><path opacity=".2" d="M436.341 286.14c-.853 1.533-1.702 3.066-2.547 4.6-.06.113-.14.233-.26.24-.12.006-.233-.114-.306-.227l-6.72-10.32 1.546-.873 8.287 6.58z" fill="#000"/><path d="M450 294.433l-22.933-13.527a1.076 1.076 0 01-.56-.566 1.064 1.064 0 01.413-.92 15.797 15.797 0 0112.253-4.814 14.006 14.006 0 0111.08 6.894c2.214 3.953 2.287 9.18-.253 12.933z" fill="#8FC045"/><path d="M430.348 276.586c.098-.026.198-.039.3-.04.2 0 .486-.046.866-.04a17.2 17.2 0 013.18.254 18.72 18.72 0 019.394 4.533 18.918 18.918 0 015.453 8.893c.284 1.03.474 2.083.567 3.147.04.373.033.667.046.86.015.102.015.205 0 .307 0 0-.046-.414-.14-1.16a19.333 19.333 0 00-6.093-11.847 19.488 19.488 0 00-12.393-4.88c-.394.011-.788.002-1.18-.027z" fill="#263238"/><path d="M446.867 285.1a5.968 5.968 0 01-1.16.526c-.727.287-1.747.667-2.894 1.014-1.146.346-2.186.666-2.946.84a5.875 5.875 0 01-1.254.24 6.102 6.102 0 011.2-.427l2.92-.913 2.914-.94a5.61 5.61 0 011.22-.34zm-3.606-9.7c.313 1.691.356 3.422.127 5.127a16.198 16.198 0 01-.133-2.567 15.52 15.52 0 01.006-2.56zm-16.421 5.246c.54-.237 1.097-.433 1.667-.586a68.9 68.9 0 014.113-1.114c1.62-.386 3.093-.666 4.167-.88a9.784 9.784 0 011.746-.233c-.559.178-1.129.321-1.706.427-1.067.233-2.534.56-4.147.953-1.613.393-3.067.76-4.12 1.033a11.82 11.82 0 01-1.72.4z" fill="#263238"/><path d="M439.4 296.28c-2-1.494-4.06-1.787-6.533-1.694a20.02 20.02 0 00-7.147 1.847c-3.866 1.693-7.5 4.193-9.813 7.727-2.313 3.533-3.113 8.206-1.38 12.06.133.401.411.739.78.946.429.123.888.088 1.293-.1 4.4-1.433 8.827-2.88 12.874-5.126 4.046-2.247 7.72-5.374 9.893-9.454a8.167 8.167 0 001.04-3.14 3.907 3.907 0 00-1.007-3.066z" fill="#8FC045"/><path d="M439.44 295.82c-.103.052-.21.094-.32.126l-.92.32-.667.22-.78.3c-.553.227-1.2.454-1.88.78l-1.08.494c-.373.173-.746.386-1.146.586-.794.394-1.6.894-2.46 1.4a42.757 42.757 0 00-5.207 3.86 43.436 43.436 0 00-4.493 4.667c-.614.787-1.214 1.527-1.7 2.267-.254.366-.514.706-.727 1.06-.213.353-.427.666-.627 1.006-.413.634-.72 1.24-1.013 1.767-.147.267-.287.506-.4.733-.113.227-.213.44-.307.634l-.433.873a1.912 1.912 0 01-.167.3c.03-.11.07-.218.12-.32.094-.233.227-.533.38-.9.087-.193.187-.413.287-.667.1-.253.247-.48.38-.746.287-.534.58-1.154.987-1.794l.613-1.02c.213-.36.467-.706.713-1.08.487-.746 1.087-1.493 1.694-2.293a41.587 41.587 0 014.513-4.72 40.865 40.865 0 015.253-3.867c.867-.506 1.687-1 2.494-1.386.4-.2.773-.407 1.153-.58l1.093-.474c.667-.32 1.334-.533 1.907-.746.287-.1.547-.207.793-.287l.667-.2.94-.267c.11-.033.225-.049.34-.046zm-15.407 8.34a45.93 45.93 0 01-4.8 1.546c-1.6.515-3.227.942-4.874 1.28a47.96 47.96 0 014.794-1.546 45.64 45.64 0 014.88-1.28z" fill="#263238"/><path d="M423.835 314.746a7.396 7.396 0 01-.107-1.493v-3.613c0-1.414.113-2.667.187-3.607.014-.501.079-.999.193-1.487a8.944 8.944 0 010 1.5c0 1.014-.067 2.24-.107 3.6-.04 1.36-.066 2.594-.093 3.607.022.499-.003.999-.073 1.493zm9.065-4.619c-.074 0-.314-2.594-.54-5.8-.227-3.207-.34-5.807-.26-5.814.08-.006.313 2.587.54 5.8.226 3.214.34 5.807.26 5.814z" fill="#263238"/><path d="M421.613 298.26a9.006 9.006 0 011.54-.047c.947 0 2.254.033 3.7.087 1.447.053 2.754.106 3.7.16.515 0 1.028.049 1.534.146a8.345 8.345 0 01-1.54.047c-.947 0-2.254-.033-3.7-.08-1.447-.047-2.76-.107-3.707-.167a8.07 8.07 0 01-1.527-.146zm22.667 32.573a1.818 1.818 0 010-.313c0-.231-.013-.531-.04-.9 0-.787-.04-1.92 0-3.334.04-1.413.12-3.066.287-4.913.167-1.847.433-3.86.807-5.967a62.867 62.867 0 011.333-5.886c.5-1.794.967-3.387 1.427-4.714.46-1.326.86-2.38 1.16-3.106l.346-.827c.039-.099.086-.195.14-.287a1.414 1.414 0 01-.086.307c-.08.22-.18.5-.3.847-.274.733-.667 1.8-1.074 3.133-.406 1.333-.906 2.92-1.373 4.707a79.227 79.227 0 00-1.28 5.873c-.38 2.1-.667 4.113-.82 5.947-.153 1.833-.293 3.5-.34 4.893a110.65 110.65 0 00-.08 3.333v.9a1.01 1.01 0 01-.107.307z" fill="#263238"/><path d="M445.494 315.187a6.182 6.182 0 01-.913 1.006 55.124 55.124 0 01-2.4 2.227c-.96.84-1.86 1.573-2.52 2.087a6.525 6.525 0 01-1.12.773c.299-.348.632-.665.993-.947l2.467-2.14 2.447-2.166a7.09 7.09 0 011.046-.84zm7.26 5.846a10.75 10.75 0 01-.98-1.333c-.626-.913-1.4-2.053-2.266-3.333-.867-1.28-1.674-2.374-2.314-3.274a11.49 11.49 0 01-.926-1.386c.393.398.75.831 1.066 1.293.667.807 1.487 1.947 2.38 3.233a93.838 93.838 0 012.207 3.334c.318.465.597.955.833 1.466zm-3.806-18.386c.04.066-2.367 1.686-5.387 3.626-3.02 1.94-5.486 3.454-5.533 3.394-.047-.06 2.373-1.687 5.387-3.627 3.013-1.94 5.493-3.46 5.533-3.393zm6.798 7.339a45.77 45.77 0 01-3.646-3.373 44.904 44.904 0 01-3.454-3.567 45.639 45.639 0 013.647 3.374 44.53 44.53 0 013.453 3.566z" fill="#263238"/><path d="M457.453 309.84l2.073-.173a10.299 10.299 0 004.18-1.28 16.49 16.49 0 011.947-.98c2.56-1.027 5.413-.84 8.167-.98a33.821 33.821 0 0012.993-3.334c.239-.11.437-.292.567-.52.427-.773-.36-1.46-1.04-1.88-3.487-2.146-7.04-4.326-10.994-5.393-3.953-1.067-8.44-.887-11.82 1.44-3.96 2.727-5.4 8.32-6.073 13.087" fill="#8FC045"/><path d="M487.427 302.333a1.582 1.582 0 01-.347-.16l-.987-.513c-.846-.447-2.073-1.107-3.62-1.854a34.134 34.134 0 00-5.606-2.14 18.461 18.461 0 00-7.274-.586 12.417 12.417 0 00-6.626 2.846 14.79 14.79 0 00-3.454 4.847 40.178 40.178 0 00-1.5 3.773l-.366 1.04a1.734 1.734 0 01-.147.36 2.99 2.99 0 01.093-.373c.08-.273.187-.62.32-1.06.394-1.31.868-2.595 1.42-3.847a14.676 14.676 0 013.46-4.953 12.54 12.54 0 016.76-2.927 18.54 18.54 0 017.374.614 32.774 32.774 0 015.626 2.233 65.596 65.596 0 013.587 1.933c.4.227.713.414.96.56.115.058.225.128.327.207z" fill="#263238"/><path d="M482.46 305c-.047.06-2.753-1.687-6.047-3.913-3.293-2.227-5.933-4.074-5.893-4.14.04-.067 2.747 1.693 6.047 3.913 3.3 2.22 5.933 4.08 5.893 4.14zm-2.599-8.3a6.645 6.645 0 01-2.113.42 6.369 6.369 0 01-2.16-.033 13.9 13.9 0 012.133-.24 11.983 11.983 0 012.14-.147zm-12.14-2.18a14.027 14.027 0 01-2 3.413 7.211 7.211 0 01.886-1.773 7.437 7.437 0 011.114-1.64zm2.426 12.08a7.188 7.188 0 01-1.334-.707 41.409 41.409 0 01-2.966-2 97.811 97.811 0 01-2.84-2.166 8.074 8.074 0 01-1.12-.96 7.84 7.84 0 011.24.806l2.88 2.094c1.126.82 2.16 1.533 2.913 2.053.433.259.843.553 1.227.88z" fill="#263238"/><path d="M460.508 318.633c-2-.527-4.334 1.393-4.74 3.4-.407 2.007.346 4.047 1.226 5.887a30.002 30.002 0 008.16 10.666 20.213 20.213 0 0012.487 4.6c-.833-3.88.22-7.926-.247-11.866a15.44 15.44 0 00-13.666-13.534c-1.26-.133-2.72-.333-3.22.834" fill="#8FC045"/><path d="M477.64 343.2a1.564 1.564 0 01-.28-.134 4.669 4.669 0 01-.74-.493 7.765 7.765 0 01-1.953-2.607c-.313-.613-.667-1.273-1.007-2l-1.06-2.346a23.668 23.668 0 00-1.333-2.507 19.471 19.471 0 00-1.8-2.447c-1.333-1.586-2.8-2.96-4.06-4.273a28.018 28.018 0 01-3.093-3.713 13.797 13.797 0 01-1.514-2.887 12.307 12.307 0 01-.26-.847.9.9 0 01-.06-.3s.134.4.42 1.107a15.3 15.3 0 001.574 2.82 29.145 29.145 0 003.12 3.647c1.26 1.3 2.72 2.666 4.086 4.273a18.988 18.988 0 011.814 2.48c.498.818.943 1.666 1.333 2.54l1.04 2.36c.333.733.667 1.4.973 2a8.061 8.061 0 001.847 2.62c.58.507.967.68.953.707z" fill="#263238"/><path d="M467.428 339.98a5.95 5.95 0 01.186-1.334c.154-.813.407-1.926.747-3.146s.707-2.3 1-3.074c.134-.427.315-.839.54-1.226a6.514 6.514 0 01-.353 1.293c-.247.787-.58 1.873-.92 3.087-.34 1.213-.627 2.313-.827 3.113-.082.44-.207.871-.373 1.287zm9.84-9.52a7.492 7.492 0 01-1.394-.32c-.853-.22-2-.527-3.333-.82-1.333-.293-2.5-.52-3.333-.667a7.641 7.641 0 01-1.394-.306c.476-.011.952.027 1.42.113.874.12 2.08.32 3.394.613 1.313.294 2.486.634 3.333.9.45.12.888.283 1.307.487zm-17.168 2.767c.023-.52.097-1.035.22-1.54.173-.94.446-2.234.813-3.654.367-1.42.767-2.666 1.073-3.586.141-.5.331-.985.567-1.447a10.167 10.167 0 01-.38 1.507c-.26.92-.62 2.186-.993 3.6-.374 1.413-.667 2.666-.894 3.62a8.842 8.842 0 01-.406 1.5zm12.634-11.061a52.981 52.981 0 01-5.5-.44c-3.033-.326-5.487-.666-5.48-.72 1.842.053 3.68.202 5.507.447 3.033.32 5.48.64 5.473.713z" fill="#263238"/><path d="M470.926 352.053c0 .08-8.666.14-19.333.14-10.667 0-19.333-.06-19.333-.14 0-.08 8.666-.133 19.333-.133 10.667 0 19.333.06 19.333.133zm-6.027 11.153c0 .074-5.833.134-13.033.134-7.2 0-13.04-.06-13.04-.134 0-.073 5.84-.14 13.04-.14 7.2 0 13.033.06 13.033.14zm.229 1.594c0 .073-5.833.14-13.033.14-7.2 0-13.04-.067-13.04-.14 0-.074 5.84-.14 13.04-.14 7.2 0 13.033.066 13.033.14zm-.001-2.907c0 .073-6.034.133-13.48.133-7.447 0-13.487-.06-13.487-.133 0-.073 6-.14 13.487-.14 7.486 0 13.48.06 13.48.14z" fill="#455A64"/></svg>